%TF.GenerationSoftware,KiCad,Pcbnew,9.0.2+dfsg-1*%
%TF.CreationDate,2026-09-07T16:07:51+00:00*%
%TF.ProjectId,stm32g070rbt6-board,73746d33-3267-4303-9730-726274362d62,rev?*%
%TF.SameCoordinates,Original*%
%TF.FileFunction,Soldermask,Top*%
%TF.FilePolarity,Negative*%
%FSLAX46Y46*%
G04 Gerber Fmt 4.6, Leading zero omitted, Abs format (unit mm)*
G04 Created by KiCad (PCBNEW 9.0.2+dfsg-1) date 2026-09-07 16:07:51*
%MOMM*%
%LPD*%
G01*
G04 APERTURE LIST*
G04 Aperture macros list*
%AMRoundRect*
0 Rectangle with rounded corners*
0 $1 Rounding radius*
0 $2 $3 $4 $5 $6 $7 $8 $9 X,Y pos of 4 corners*
0 Add a 4 corners polygon primitive as box body*
4,1,4,$2,$3,$4,$5,$6,$7,$8,$9,$2,$3,0*
0 Add four circle primitives for the rounded corners*
1,1,$1+$1,$2,$3*
1,1,$1+$1,$4,$5*
1,1,$1+$1,$6,$7*
1,1,$1+$1,$8,$9*
0 Add four rect primitives between the rounded corners*
20,1,$1+$1,$2,$3,$4,$5,0*
20,1,$1+$1,$4,$5,$6,$7,0*
20,1,$1+$1,$6,$7,$8,$9,0*
20,1,$1+$1,$8,$9,$2,$3,0*%
G04 Aperture macros list end*
%ADD10C,2.200000*%
%ADD11RoundRect,0.225000X-0.225000X-0.250000X0.225000X-0.250000X0.225000X0.250000X-0.225000X0.250000X0*%
%ADD12R,1.700000X1.700000*%
%ADD13C,1.700000*%
%ADD14R,2.800000X1.000000*%
%ADD15RoundRect,0.225000X0.250000X-0.225000X0.250000X0.225000X-0.250000X0.225000X-0.250000X-0.225000X0*%
%ADD16RoundRect,0.200000X-0.200000X-0.275000X0.200000X-0.275000X0.200000X0.275000X-0.200000X0.275000X0*%
%ADD17R,1.000000X1.000000*%
%ADD18C,1.000000*%
%ADD19RoundRect,0.200000X0.275000X-0.200000X0.275000X0.200000X-0.275000X0.200000X-0.275000X-0.200000X0*%
%ADD20RoundRect,0.218750X-0.218750X-0.256250X0.218750X-0.256250X0.218750X0.256250X-0.218750X0.256250X0*%
%ADD21C,2.500000*%
%ADD22RoundRect,0.150000X-0.512500X-0.150000X0.512500X-0.150000X0.512500X0.150000X-0.512500X0.150000X0*%
%ADD23RoundRect,0.075000X-0.700000X-0.075000X0.700000X-0.075000X0.700000X0.075000X-0.700000X0.075000X0*%
%ADD24RoundRect,0.075000X-0.075000X-0.700000X0.075000X-0.700000X0.075000X0.700000X-0.075000X0.700000X0*%
G04 APERTURE END LIST*
D10*
%TO.C,H3*%
X3000000Y-42000000D03*
%TD*%
D11*
%TO.C,C10*%
X21725000Y-11000000D03*
X23275000Y-11000000D03*
%TD*%
%TO.C,C3*%
X11225000Y-36000000D03*
X12775000Y-36000000D03*
%TD*%
D10*
%TO.C,H4*%
X67000000Y-42000000D03*
%TD*%
D12*
%TO.C,J4*%
X64000000Y-12000000D03*
D13*
X64000000Y-14540000D03*
X64000000Y-17080000D03*
X64000000Y-19620000D03*
%TD*%
D10*
%TO.C,H1*%
X3000000Y-3000000D03*
%TD*%
D11*
%TO.C,C2*%
X11225000Y-30000000D03*
X12775000Y-30000000D03*
%TD*%
D14*
%TO.C,SW2*%
X18600000Y-2000000D03*
X24400000Y-2000000D03*
X18600000Y-6000000D03*
X24400000Y-6000000D03*
%TD*%
D15*
%TO.C,C1*%
X2000000Y-28775000D03*
X2000000Y-27225000D03*
%TD*%
D16*
%TO.C,R6*%
X54175000Y-1500000D03*
X55825000Y-1500000D03*
%TD*%
D15*
%TO.C,C7*%
X18000000Y-19775000D03*
X18000000Y-18225000D03*
%TD*%
D17*
%TO.C,J2*%
X36000000Y-34000000D03*
D18*
X37270000Y-34000000D03*
X36000000Y-35270000D03*
X37270000Y-35270000D03*
X36000000Y-36540000D03*
X37270000Y-36540000D03*
X36000000Y-37810000D03*
X37270000Y-37810000D03*
X36000000Y-39080000D03*
X37270000Y-39080000D03*
%TD*%
D19*
%TO.C,R2*%
X18000000Y-16325000D03*
X18000000Y-14675000D03*
%TD*%
D15*
%TO.C,C11*%
X19500000Y-12775000D03*
X19500000Y-11225000D03*
%TD*%
D11*
%TO.C,C13*%
X12225000Y-25500000D03*
X13775000Y-25500000D03*
%TD*%
D16*
%TO.C,R9*%
X28675000Y-27000000D03*
X30325000Y-27000000D03*
%TD*%
D15*
%TO.C,C12*%
X32500000Y-12775000D03*
X32500000Y-11225000D03*
%TD*%
D12*
%TO.C,J3*%
X56000000Y-34000000D03*
D13*
X56000000Y-36540000D03*
X56000000Y-39080000D03*
X56000000Y-41620000D03*
%TD*%
D11*
%TO.C,C14*%
X32225000Y-25500000D03*
X33775000Y-25500000D03*
%TD*%
D19*
%TO.C,R4*%
X18000000Y-23325000D03*
X18000000Y-21675000D03*
%TD*%
D20*
%TO.C,D2*%
X47212500Y-1500000D03*
X48787500Y-1500000D03*
%TD*%
D21*
%TO.C,TP2*%
X32500000Y-2500000D03*
%TD*%
D11*
%TO.C,C4*%
X35225000Y-31500000D03*
X36775000Y-31500000D03*
%TD*%
D16*
%TO.C,R1*%
X28675000Y-11000000D03*
X30325000Y-11000000D03*
%TD*%
D15*
%TO.C,C5*%
X8500000Y-33775000D03*
X8500000Y-32225000D03*
%TD*%
%TO.C,C8*%
X34000000Y-19775000D03*
X34000000Y-18225000D03*
%TD*%
D10*
%TO.C,H2*%
X67000000Y-3000000D03*
%TD*%
D16*
%TO.C,R5*%
X50675000Y-1500000D03*
X52325000Y-1500000D03*
%TD*%
D14*
%TO.C,SW1*%
X9100000Y-2000000D03*
X14900000Y-2000000D03*
X9100000Y-6000000D03*
X14900000Y-6000000D03*
%TD*%
D11*
%TO.C,C6*%
X25225000Y-11000000D03*
X26775000Y-11000000D03*
%TD*%
D16*
%TO.C,R8*%
X17175000Y-30000000D03*
X18825000Y-30000000D03*
%TD*%
D21*
%TO.C,TP3*%
X36500000Y-2500000D03*
%TD*%
D22*
%TO.C,U2*%
X10862500Y-32050000D03*
X10862500Y-33000000D03*
X10862500Y-33950000D03*
X13137500Y-33950000D03*
X13137500Y-32050000D03*
%TD*%
D12*
%TO.C,J6*%
X5000000Y-18000000D03*
D13*
X5000000Y-20540000D03*
X5000000Y-23080000D03*
%TD*%
D19*
%TO.C,R7*%
X34000000Y-23325000D03*
X34000000Y-21675000D03*
%TD*%
D12*
%TO.C,J1*%
X5000000Y-28000000D03*
D13*
X5000000Y-30540000D03*
%TD*%
D21*
%TO.C,TP1*%
X28500000Y-2500000D03*
%TD*%
D11*
%TO.C,C9*%
X25225000Y-27000000D03*
X26775000Y-27000000D03*
%TD*%
D12*
%TO.C,J5*%
X5000000Y-8500000D03*
D13*
X5000000Y-11040000D03*
X5000000Y-13580000D03*
%TD*%
D21*
%TO.C,TP4*%
X40500000Y-2500000D03*
%TD*%
D19*
%TO.C,R3*%
X34000000Y-16325000D03*
X34000000Y-14675000D03*
%TD*%
D20*
%TO.C,D1*%
X43712500Y-1500000D03*
X45287500Y-1500000D03*
%TD*%
D23*
%TO.C,U1*%
X20325000Y-15250000D03*
X20325000Y-15750000D03*
X20325000Y-16250000D03*
X20325000Y-16750000D03*
X20325000Y-17250000D03*
X20325000Y-17750000D03*
X20325000Y-18250000D03*
X20325000Y-18750000D03*
X20325000Y-19250000D03*
X20325000Y-19750000D03*
X20325000Y-20250000D03*
X20325000Y-20750000D03*
X20325000Y-21250000D03*
X20325000Y-21750000D03*
X20325000Y-22250000D03*
X20325000Y-22750000D03*
D24*
X22250000Y-24675000D03*
X22750000Y-24675000D03*
X23250000Y-24675000D03*
X23750000Y-24675000D03*
X24250000Y-24675000D03*
X24750000Y-24675000D03*
X25250000Y-24675000D03*
X25750000Y-24675000D03*
X26250000Y-24675000D03*
X26750000Y-24675000D03*
X27250000Y-24675000D03*
X27750000Y-24675000D03*
X28250000Y-24675000D03*
X28750000Y-24675000D03*
X29250000Y-24675000D03*
X29750000Y-24675000D03*
D23*
X31675000Y-22750000D03*
X31675000Y-22250000D03*
X31675000Y-21750000D03*
X31675000Y-21250000D03*
X31675000Y-20750000D03*
X31675000Y-20250000D03*
X31675000Y-19750000D03*
X31675000Y-19250000D03*
X31675000Y-18750000D03*
X31675000Y-18250000D03*
X31675000Y-17750000D03*
X31675000Y-17250000D03*
X31675000Y-16750000D03*
X31675000Y-16250000D03*
X31675000Y-15750000D03*
X31675000Y-15250000D03*
D24*
X29750000Y-13325000D03*
X29250000Y-13325000D03*
X28750000Y-13325000D03*
X28250000Y-13325000D03*
X27750000Y-13325000D03*
X27250000Y-13325000D03*
X26750000Y-13325000D03*
X26250000Y-13325000D03*
X25750000Y-13325000D03*
X25250000Y-13325000D03*
X24750000Y-13325000D03*
X24250000Y-13325000D03*
X23750000Y-13325000D03*
X23250000Y-13325000D03*
X22750000Y-13325000D03*
X22250000Y-13325000D03*
%TD*%
M02*
