%TF.GenerationSoftware,KiCad,Pcbnew,9.0.2+dfsg-1*%
%TF.CreationDate,2026-09-07T16:07:51+00:00*%
%TF.ProjectId,stm32g070rbt6-board,73746d33-3267-4303-9730-726274362d62,rev?*%
%TF.SameCoordinates,Original*%
%TF.FileFunction,Copper,L1,Top*%
%TF.FilePolarity,Positive*%
%FSLAX46Y46*%
G04 Gerber Fmt 4.6, Leading zero omitted, Abs format (unit mm)*
G04 Created by KiCad (PCBNEW 9.0.2+dfsg-1) date 2026-09-07 16:07:51*
%MOMM*%
%LPD*%
G01*
G04 APERTURE LIST*
G04 Aperture macros list*
%AMRoundRect*
0 Rectangle with rounded corners*
0 $1 Rounding radius*
0 $2 $3 $4 $5 $6 $7 $8 $9 X,Y pos of 4 corners*
0 Add a 4 corners polygon primitive as box body*
4,1,4,$2,$3,$4,$5,$6,$7,$8,$9,$2,$3,0*
0 Add four circle primitives for the rounded corners*
1,1,$1+$1,$2,$3*
1,1,$1+$1,$4,$5*
1,1,$1+$1,$6,$7*
1,1,$1+$1,$8,$9*
0 Add four rect primitives between the rounded corners*
20,1,$1+$1,$2,$3,$4,$5,0*
20,1,$1+$1,$4,$5,$6,$7,0*
20,1,$1+$1,$6,$7,$8,$9,0*
20,1,$1+$1,$8,$9,$2,$3,0*%
G04 Aperture macros list end*
%TA.AperFunction,SMDPad,CuDef*%
%ADD10RoundRect,0.225000X-0.225000X-0.250000X0.225000X-0.250000X0.225000X0.250000X-0.225000X0.250000X0*%
%TD*%
%TA.AperFunction,ComponentPad*%
%ADD11R,1.700000X1.700000*%
%TD*%
%TA.AperFunction,ComponentPad*%
%ADD12C,1.700000*%
%TD*%
%TA.AperFunction,SMDPad,CuDef*%
%ADD13R,2.800000X1.000000*%
%TD*%
%TA.AperFunction,SMDPad,CuDef*%
%ADD14RoundRect,0.225000X0.250000X-0.225000X0.250000X0.225000X-0.250000X0.225000X-0.250000X-0.225000X0*%
%TD*%
%TA.AperFunction,SMDPad,CuDef*%
%ADD15RoundRect,0.200000X-0.200000X-0.275000X0.200000X-0.275000X0.200000X0.275000X-0.200000X0.275000X0*%
%TD*%
%TA.AperFunction,ComponentPad*%
%ADD16R,1.000000X1.000000*%
%TD*%
%TA.AperFunction,ComponentPad*%
%ADD17C,1.000000*%
%TD*%
%TA.AperFunction,SMDPad,CuDef*%
%ADD18RoundRect,0.200000X0.275000X-0.200000X0.275000X0.200000X-0.275000X0.200000X-0.275000X-0.200000X0*%
%TD*%
%TA.AperFunction,SMDPad,CuDef*%
%ADD19RoundRect,0.218750X-0.218750X-0.256250X0.218750X-0.256250X0.218750X0.256250X-0.218750X0.256250X0*%
%TD*%
%TA.AperFunction,SMDPad,CuDef*%
%ADD20C,2.500000*%
%TD*%
%TA.AperFunction,SMDPad,CuDef*%
%ADD21RoundRect,0.150000X-0.512500X-0.150000X0.512500X-0.150000X0.512500X0.150000X-0.512500X0.150000X0*%
%TD*%
%TA.AperFunction,SMDPad,CuDef*%
%ADD22RoundRect,0.075000X-0.700000X-0.075000X0.700000X-0.075000X0.700000X0.075000X-0.700000X0.075000X0*%
%TD*%
%TA.AperFunction,SMDPad,CuDef*%
%ADD23RoundRect,0.075000X-0.075000X-0.700000X0.075000X-0.700000X0.075000X0.700000X-0.075000X0.700000X0*%
%TD*%
%TA.AperFunction,ViaPad*%
%ADD24C,0.700000*%
%TD*%
%TA.AperFunction,Conductor*%
%ADD25C,0.600000*%
%TD*%
%TA.AperFunction,Conductor*%
%ADD26C,0.200000*%
%TD*%
%TA.AperFunction,Conductor*%
%ADD27C,0.250000*%
%TD*%
%TA.AperFunction,Conductor*%
%ADD28C,0.300000*%
%TD*%
G04 APERTURE END LIST*
D10*
%TO.P,C10,1*%
%TO.N,3V3*%
X21725000Y-11000000D03*
%TO.P,C10,2*%
%TO.N,GND*%
X23275000Y-11000000D03*
%TD*%
%TO.P,C3,1*%
%TO.N,3V3*%
X11225000Y-36000000D03*
%TO.P,C3,2*%
%TO.N,GND*%
X12775000Y-36000000D03*
%TD*%
D11*
%TO.P,J4,1*%
%TO.N,GND*%
X64000000Y-12000000D03*
D12*
%TO.P,J4,2*%
%TO.N,UART_TX*%
X64000000Y-14540000D03*
%TO.P,J4,3*%
%TO.N,UART_RX*%
X64000000Y-17080000D03*
%TO.P,J4,4*%
%TO.N,3V3*%
X64000000Y-19620000D03*
%TD*%
D10*
%TO.P,C2,1*%
%TO.N,5V*%
X11225000Y-30000000D03*
%TO.P,C2,2*%
%TO.N,GND*%
X12775000Y-30000000D03*
%TD*%
D13*
%TO.P,SW2,1*%
%TO.N,USER_BUTTON*%
X18600000Y-2000000D03*
X24400000Y-2000000D03*
%TO.P,SW2,2*%
%TO.N,GND*%
X18600000Y-6000000D03*
X24400000Y-6000000D03*
%TD*%
D14*
%TO.P,C1,1*%
%TO.N,5V*%
X2000000Y-28775000D03*
%TO.P,C1,2*%
%TO.N,GND*%
X2000000Y-27225000D03*
%TD*%
D15*
%TO.P,R6,1*%
%TO.N,MCU_USER_LED*%
X54175000Y-1500000D03*
%TO.P,R6,2*%
%TO.N,USER_LED_ANODE*%
X55825000Y-1500000D03*
%TD*%
D14*
%TO.P,C7,1*%
%TO.N,3V3*%
X18000000Y-19775000D03*
%TO.P,C7,2*%
%TO.N,GND*%
X18000000Y-18225000D03*
%TD*%
D16*
%TO.P,J2,1*%
%TO.N,3V3*%
X36000000Y-34000000D03*
D17*
%TO.P,J2,2*%
%TO.N,SWDIO*%
X37270000Y-34000000D03*
%TO.P,J2,3*%
%TO.N,GND*%
X36000000Y-35270000D03*
%TO.P,J2,4*%
%TO.N,SWCLK*%
X37270000Y-35270000D03*
%TO.P,J2,5*%
%TO.N,GND*%
X36000000Y-36540000D03*
%TO.P,J2,6*%
%TO.N,N/C*%
X37270000Y-36540000D03*
%TO.P,J2,7*%
X36000000Y-37810000D03*
%TO.P,J2,8*%
X37270000Y-37810000D03*
%TO.P,J2,9*%
%TO.N,GND*%
X36000000Y-39080000D03*
%TO.P,J2,10*%
%TO.N,NRST*%
X37270000Y-39080000D03*
%TD*%
D18*
%TO.P,R2,1*%
%TO.N,I2C_SDA*%
X18000000Y-16325000D03*
%TO.P,R2,2*%
%TO.N,3V3*%
X18000000Y-14675000D03*
%TD*%
D14*
%TO.P,C11,1*%
%TO.N,NRST*%
X19500000Y-12775000D03*
%TO.P,C11,2*%
%TO.N,GND*%
X19500000Y-11225000D03*
%TD*%
D10*
%TO.P,C13,1*%
%TO.N,MCU_AIN1*%
X12225000Y-25500000D03*
%TO.P,C13,2*%
%TO.N,GND*%
X13775000Y-25500000D03*
%TD*%
D15*
%TO.P,R9,1*%
%TO.N,SWCLK*%
X28675000Y-27000000D03*
%TO.P,R9,2*%
%TO.N,GND*%
X30325000Y-27000000D03*
%TD*%
D14*
%TO.P,C12,1*%
%TO.N,USER_BUTTON*%
X32500000Y-12775000D03*
%TO.P,C12,2*%
%TO.N,GND*%
X32500000Y-11225000D03*
%TD*%
D11*
%TO.P,J3,1*%
%TO.N,3V3*%
X56000000Y-34000000D03*
D12*
%TO.P,J3,2*%
%TO.N,GND*%
X56000000Y-36540000D03*
%TO.P,J3,3*%
%TO.N,I2C_SCL*%
X56000000Y-39080000D03*
%TO.P,J3,4*%
%TO.N,I2C_SDA*%
X56000000Y-41620000D03*
%TD*%
D10*
%TO.P,C14,1*%
%TO.N,MCU_AIN2*%
X32225000Y-25500000D03*
%TO.P,C14,2*%
%TO.N,GND*%
X33775000Y-25500000D03*
%TD*%
D18*
%TO.P,R4,1*%
%TO.N,USER_BUTTON*%
X18000000Y-23325000D03*
%TO.P,R4,2*%
%TO.N,3V3*%
X18000000Y-21675000D03*
%TD*%
D19*
%TO.P,D2,1*%
%TO.N,GND*%
X47212500Y-1500000D03*
%TO.P,D2,2*%
%TO.N,USER_LED_ANODE*%
X48787500Y-1500000D03*
%TD*%
D20*
%TO.P,TP2,1*%
%TO.N,3V3*%
X32500000Y-2500000D03*
%TD*%
D10*
%TO.P,C4,1*%
%TO.N,3V3*%
X35225000Y-31500000D03*
%TO.P,C4,2*%
%TO.N,GND*%
X36775000Y-31500000D03*
%TD*%
D15*
%TO.P,R1,1*%
%TO.N,I2C_SCL*%
X28675000Y-11000000D03*
%TO.P,R1,2*%
%TO.N,3V3*%
X30325000Y-11000000D03*
%TD*%
D14*
%TO.P,C5,1*%
%TO.N,3V3*%
X8500000Y-33775000D03*
%TO.P,C5,2*%
%TO.N,GND*%
X8500000Y-32225000D03*
%TD*%
%TO.P,C8,1*%
%TO.N,3V3*%
X34000000Y-19775000D03*
%TO.P,C8,2*%
%TO.N,GND*%
X34000000Y-18225000D03*
%TD*%
D15*
%TO.P,R5,1*%
%TO.N,3V3*%
X50675000Y-1500000D03*
%TO.P,R5,2*%
%TO.N,POWER_LED_ANODE*%
X52325000Y-1500000D03*
%TD*%
D13*
%TO.P,SW1,1*%
%TO.N,NRST*%
X9100000Y-2000000D03*
X14900000Y-2000000D03*
%TO.P,SW1,2*%
%TO.N,GND*%
X9100000Y-6000000D03*
X14900000Y-6000000D03*
%TD*%
D10*
%TO.P,C6,1*%
%TO.N,3V3*%
X25225000Y-11000000D03*
%TO.P,C6,2*%
%TO.N,GND*%
X26775000Y-11000000D03*
%TD*%
D15*
%TO.P,R8,1*%
%TO.N,AIN2_RAW*%
X17175000Y-30000000D03*
%TO.P,R8,2*%
%TO.N,MCU_AIN2*%
X18825000Y-30000000D03*
%TD*%
D20*
%TO.P,TP3,1*%
%TO.N,GND*%
X36500000Y-2500000D03*
%TD*%
D21*
%TO.P,U2,1*%
%TO.N,5V*%
X10862500Y-32050000D03*
%TO.P,U2,2*%
%TO.N,GND*%
X10862500Y-33000000D03*
%TO.P,U2,3*%
%TO.N,5V*%
X10862500Y-33950000D03*
%TO.P,U2,4*%
%TO.N,N/C*%
X13137500Y-33950000D03*
%TO.P,U2,5*%
%TO.N,3V3*%
X13137500Y-32050000D03*
%TD*%
D11*
%TO.P,J6,1*%
%TO.N,3V3*%
X5000000Y-18000000D03*
D12*
%TO.P,J6,2*%
%TO.N,GND*%
X5000000Y-20540000D03*
%TO.P,J6,3*%
%TO.N,AIN2_RAW*%
X5000000Y-23080000D03*
%TD*%
D18*
%TO.P,R7,1*%
%TO.N,AIN1_RAW*%
X34000000Y-23325000D03*
%TO.P,R7,2*%
%TO.N,MCU_AIN1*%
X34000000Y-21675000D03*
%TD*%
D11*
%TO.P,J1,1*%
%TO.N,5V*%
X5000000Y-28000000D03*
D12*
%TO.P,J1,2*%
%TO.N,GND*%
X5000000Y-30540000D03*
%TD*%
D20*
%TO.P,TP1,1*%
%TO.N,5V*%
X28500000Y-2500000D03*
%TD*%
D10*
%TO.P,C9,1*%
%TO.N,3V3*%
X25225000Y-27000000D03*
%TO.P,C9,2*%
%TO.N,GND*%
X26775000Y-27000000D03*
%TD*%
D11*
%TO.P,J5,1*%
%TO.N,3V3*%
X5000000Y-8500000D03*
D12*
%TO.P,J5,2*%
%TO.N,GND*%
X5000000Y-11040000D03*
%TO.P,J5,3*%
%TO.N,AIN1_RAW*%
X5000000Y-13580000D03*
%TD*%
D20*
%TO.P,TP4,1*%
%TO.N,NRST*%
X40500000Y-2500000D03*
%TD*%
D18*
%TO.P,R3,1*%
%TO.N,NRST*%
X34000000Y-16325000D03*
%TO.P,R3,2*%
%TO.N,3V3*%
X34000000Y-14675000D03*
%TD*%
D19*
%TO.P,D1,1*%
%TO.N,GND*%
X43712500Y-1500000D03*
%TO.P,D1,2*%
%TO.N,POWER_LED_ANODE*%
X45287500Y-1500000D03*
%TD*%
D22*
%TO.P,U1,1*%
%TO.N,N/C*%
X20325000Y-15250000D03*
%TO.P,U1,2*%
X20325000Y-15750000D03*
%TO.P,U1,3*%
X20325000Y-16250000D03*
%TO.P,U1,4*%
X20325000Y-16750000D03*
%TO.P,U1,5*%
X20325000Y-17250000D03*
%TO.P,U1,6*%
%TO.N,3V3*%
X20325000Y-17750000D03*
%TO.P,U1,7*%
X20325000Y-18250000D03*
%TO.P,U1,8*%
X20325000Y-18750000D03*
%TO.P,U1,9*%
%TO.N,GND*%
X20325000Y-19250000D03*
%TO.P,U1,10*%
%TO.N,N/C*%
X20325000Y-19750000D03*
%TO.P,U1,11*%
X20325000Y-20250000D03*
%TO.P,U1,12*%
%TO.N,NRST*%
X20325000Y-20750000D03*
%TO.P,U1,13*%
%TO.N,N/C*%
X20325000Y-21250000D03*
%TO.P,U1,14*%
X20325000Y-21750000D03*
%TO.P,U1,15*%
X20325000Y-22250000D03*
%TO.P,U1,16*%
X20325000Y-22750000D03*
D23*
%TO.P,U1,17*%
%TO.N,MCU_AIN1*%
X22250000Y-24675000D03*
%TO.P,U1,18*%
%TO.N,MCU_AIN2*%
X22750000Y-24675000D03*
%TO.P,U1,19*%
%TO.N,UART_TX*%
X23250000Y-24675000D03*
%TO.P,U1,20*%
%TO.N,UART_RX*%
X23750000Y-24675000D03*
%TO.P,U1,21*%
%TO.N,N/C*%
X24250000Y-24675000D03*
%TO.P,U1,22*%
%TO.N,MCU_USER_LED*%
X24750000Y-24675000D03*
%TO.P,U1,23*%
%TO.N,N/C*%
X25250000Y-24675000D03*
%TO.P,U1,24*%
X25750000Y-24675000D03*
%TO.P,U1,25*%
X26250000Y-24675000D03*
%TO.P,U1,26*%
X26750000Y-24675000D03*
%TO.P,U1,27*%
X27250000Y-24675000D03*
%TO.P,U1,28*%
%TO.N,USER_BUTTON*%
X27750000Y-24675000D03*
%TO.P,U1,29*%
%TO.N,N/C*%
X28250000Y-24675000D03*
%TO.P,U1,30*%
X28750000Y-24675000D03*
%TO.P,U1,31*%
X29250000Y-24675000D03*
%TO.P,U1,32*%
X29750000Y-24675000D03*
D22*
%TO.P,U1,33*%
X31675000Y-22750000D03*
%TO.P,U1,34*%
X31675000Y-22250000D03*
%TO.P,U1,35*%
X31675000Y-21750000D03*
%TO.P,U1,36*%
X31675000Y-21250000D03*
%TO.P,U1,37*%
X31675000Y-20750000D03*
%TO.P,U1,38*%
X31675000Y-20250000D03*
%TO.P,U1,39*%
X31675000Y-19750000D03*
%TO.P,U1,40*%
X31675000Y-19250000D03*
%TO.P,U1,41*%
X31675000Y-18750000D03*
%TO.P,U1,42*%
X31675000Y-18250000D03*
%TO.P,U1,43*%
X31675000Y-17750000D03*
%TO.P,U1,44*%
X31675000Y-17250000D03*
%TO.P,U1,45*%
%TO.N,SWDIO*%
X31675000Y-16750000D03*
%TO.P,U1,46*%
%TO.N,SWCLK*%
X31675000Y-16250000D03*
%TO.P,U1,47*%
%TO.N,N/C*%
X31675000Y-15750000D03*
%TO.P,U1,48*%
X31675000Y-15250000D03*
D23*
%TO.P,U1,49*%
X29750000Y-13325000D03*
%TO.P,U1,50*%
X29250000Y-13325000D03*
%TO.P,U1,51*%
X28750000Y-13325000D03*
%TO.P,U1,52*%
X28250000Y-13325000D03*
%TO.P,U1,53*%
X27750000Y-13325000D03*
%TO.P,U1,54*%
X27250000Y-13325000D03*
%TO.P,U1,55*%
X26750000Y-13325000D03*
%TO.P,U1,56*%
X26250000Y-13325000D03*
%TO.P,U1,57*%
X25750000Y-13325000D03*
%TO.P,U1,58*%
X25250000Y-13325000D03*
%TO.P,U1,59*%
X24750000Y-13325000D03*
%TO.P,U1,60*%
X24250000Y-13325000D03*
%TO.P,U1,61*%
X23750000Y-13325000D03*
%TO.P,U1,62*%
%TO.N,I2C_SCL*%
X23250000Y-13325000D03*
%TO.P,U1,63*%
%TO.N,I2C_SDA*%
X22750000Y-13325000D03*
%TO.P,U1,64*%
%TO.N,N/C*%
X22250000Y-13325000D03*
%TD*%
D24*
%TO.N,3V3*%
X22325000Y-18750000D03*
X22325000Y-17750000D03*
%TO.N,GND*%
X25752500Y-11977500D03*
X32136409Y-11588591D03*
X10862500Y-33000000D03*
X34000000Y-17425000D03*
X19000000Y-21000000D03*
X12775000Y-30000000D03*
X18000000Y-18225000D03*
X17000000Y-21000000D03*
X37560660Y-1439340D03*
X12775000Y-36000000D03*
X17600000Y-6000000D03*
X42212500Y-1500000D03*
X31325000Y-27000000D03*
X33775000Y-27000000D03*
X29212360Y-29479340D03*
X15900000Y-6000000D03*
X23982107Y-11707107D03*
X36775000Y-31500000D03*
%TO.N,NRST*%
X39792893Y-3207107D03*
X33639760Y-15783860D03*
%TO.N,I2C_SCL*%
X28125000Y-11000000D03*
X27425000Y-9000000D03*
X34175000Y-10000000D03*
X39425000Y-33750000D03*
X23250000Y-14875000D03*
X30175000Y-9000000D03*
X35175000Y-20250000D03*
X34925000Y-13750000D03*
%TO.N,I2C_SDA*%
X18707107Y-15617893D03*
X20909100Y-12980300D03*
%TO.N,UART_TX*%
X32000000Y-9000000D03*
X26500000Y-8750000D03*
X24250000Y-16250000D03*
%TO.N,UART_RX*%
X50250000Y-34330000D03*
X24250000Y-32580000D03*
X23980000Y-22550000D03*
X20000000Y-23580000D03*
X62750000Y-20580000D03*
%TO.N,USER_BUTTON*%
X25460660Y-3060660D03*
X19000000Y-23325000D03*
X27750000Y-23175000D03*
X31792893Y-13482107D03*
%TO.N,MCU_USER_LED*%
X24750000Y-23125000D03*
X53375000Y-1500000D03*
%TO.N,USER_LED_ANODE*%
X54764340Y-2560660D03*
X48080393Y-2207107D03*
%TO.N,POWER_LED_ANODE*%
X45837500Y-1500000D03*
X52325000Y-950000D03*
%TO.N,AIN1_RAW*%
X8000000Y-13580000D03*
X34707107Y-24032107D03*
%TO.N,MCU_AIN1*%
X19285660Y-26560660D03*
X22250000Y-23175000D03*
X14475000Y-27250000D03*
X23225000Y-32750000D03*
%TO.N,AIN2_RAW*%
X16675000Y-28250000D03*
%TO.N,MCU_AIN2*%
X24032107Y-26292893D03*
X22750000Y-27675000D03*
X32225000Y-24500000D03*
X19825000Y-29500000D03*
X23575000Y-29000000D03*
%TD*%
D25*
%TO.N,5V*%
X10225000Y-28000000D02*
X11225000Y-29000000D01*
X5000000Y-28000000D02*
X3648300Y-28000000D01*
X4355400Y-28000000D02*
X3648300Y-27292900D01*
X12040500Y-32891400D02*
X12040500Y-32565500D01*
X11525000Y-32050000D02*
X10862500Y-32050000D01*
X14348100Y-30030000D02*
X14348100Y-32438800D01*
X5000000Y-28000000D02*
X10225000Y-28000000D01*
X5600300Y-2824000D02*
X7426000Y-998300D01*
X11225000Y-29000000D02*
X11225000Y-30000000D01*
X12040500Y-33461900D02*
X12040500Y-32891400D01*
X26998300Y-998300D02*
X28500000Y-2500000D01*
X5600300Y-5490100D02*
X5600300Y-2824000D01*
X13318100Y-29000000D02*
X14348100Y-30030000D01*
X3648300Y-28000000D02*
X2873300Y-28775000D01*
X14348100Y-32438800D02*
X13895500Y-32891400D01*
X11225000Y-29000000D02*
X13318100Y-29000000D01*
X13895500Y-32891400D02*
X12040500Y-32891400D01*
X3648300Y-7442100D02*
X5600300Y-5490100D01*
X12040500Y-32565500D02*
X11525000Y-32050000D01*
X10862500Y-33950000D02*
X11552400Y-33950000D01*
X3648300Y-27292900D02*
X3648300Y-7442100D01*
X7426000Y-998300D02*
X26998300Y-998300D01*
X11552400Y-33950000D02*
X12040500Y-33461900D01*
X2873300Y-28775000D02*
X2000000Y-28775000D01*
D26*
%TO.N,3V3*%
X20325000Y-18750000D02*
X22075000Y-18750000D01*
D25*
X13137500Y-32050000D02*
X12274800Y-31187300D01*
D26*
X20325000Y-18250000D02*
X20325000Y-17750000D01*
D25*
X35855000Y-19620000D02*
X35005000Y-18770000D01*
X16225000Y-16450000D02*
X16225000Y-18000000D01*
X34305600Y-4305600D02*
X47869400Y-4305600D01*
X5000000Y-18000000D02*
X16225000Y-18000000D01*
X10140100Y-31187300D02*
X9617000Y-31710400D01*
X36000000Y-32275000D02*
X35225000Y-31500000D01*
X9617000Y-31710400D02*
X9617000Y-32658000D01*
D26*
X20325000Y-18250000D02*
X19375000Y-18250000D01*
D25*
X33082000Y-9991200D02*
X25225000Y-9991200D01*
X64000000Y-19620000D02*
X35855000Y-19620000D01*
X12274800Y-31187300D02*
X10140100Y-31187300D01*
X18000000Y-21675000D02*
X18000000Y-19875000D01*
X18000000Y-14675000D02*
X16225000Y-16450000D01*
X29725000Y-31500000D02*
X25225000Y-27000000D01*
X13306700Y-37012600D02*
X15597600Y-34721700D01*
X35005000Y-18770000D02*
X34000000Y-19775000D01*
X16225000Y-18000000D02*
X18000000Y-19775000D01*
X31088300Y-10236700D02*
X33082000Y-10236700D01*
X15597600Y-34721700D02*
X15597600Y-24077400D01*
X35225000Y-31500000D02*
X29725000Y-31500000D01*
X10725000Y-36000000D02*
X11225000Y-36000000D01*
X22733800Y-9991200D02*
X21725000Y-11000000D01*
X12237600Y-37012600D02*
X13306700Y-37012600D01*
X30325000Y-11000000D02*
X31088300Y-10236700D01*
X8500000Y-33775000D02*
X10725000Y-36000000D01*
X34000000Y-14675000D02*
X35005000Y-15680000D01*
X33082000Y-10236700D02*
X34000000Y-11154700D01*
X22075000Y-17750000D02*
X22325000Y-17750000D01*
X25225000Y-9991200D02*
X22733800Y-9991200D01*
D26*
X20325000Y-17750000D02*
X22075000Y-17750000D01*
D25*
X47869400Y-4305600D02*
X50675000Y-1500000D01*
X18000000Y-21675000D02*
X18000000Y-19775000D01*
X35005000Y-15680000D02*
X35005000Y-18770000D01*
X33082000Y-5529200D02*
X33082000Y-9991200D01*
X36000000Y-34000000D02*
X36000000Y-32275000D01*
X11225000Y-36000000D02*
X12237600Y-37012600D01*
X33082000Y-9991200D02*
X33082000Y-10236700D01*
X22075000Y-18750000D02*
X22325000Y-18750000D01*
X15597600Y-24077400D02*
X18000000Y-21675000D01*
X9617000Y-32658000D02*
X8500000Y-33775000D01*
X18000000Y-19875000D02*
X19375000Y-18250000D01*
X32500000Y-2500000D02*
X34305600Y-4305600D01*
X34305600Y-4305600D02*
X33082000Y-5529200D01*
X25225000Y-9991200D02*
X25225000Y-11000000D01*
X34000000Y-11154700D02*
X34000000Y-14675000D01*
D27*
%TO.N,NRST*%
X16626700Y-4700000D02*
X16626700Y-4350000D01*
X21427000Y-20892800D02*
X21427000Y-25946200D01*
X16626700Y-4284300D02*
X16626700Y-4262500D01*
X20947500Y-26425700D02*
X20947500Y-27498000D01*
X32579100Y-14723200D02*
X24621000Y-14723200D01*
X16626700Y-4175000D02*
X16626700Y-4000000D01*
X34000000Y-16325000D02*
X34000000Y-16144100D01*
X34000000Y-16144100D02*
X32579100Y-14723200D01*
X16626700Y-4262500D02*
X16626700Y-4175000D01*
X16626700Y-4295200D02*
X16626700Y-4284300D01*
X21284200Y-20750000D02*
X21427000Y-20892800D01*
X14900000Y-2000000D02*
X16626700Y-2000000D01*
X16626700Y-4306200D02*
X16626700Y-4295500D01*
X19500000Y-12775000D02*
X16626700Y-9901700D01*
X16626700Y-4350000D02*
X16626700Y-4306200D01*
X14900000Y-2000000D02*
X9100000Y-2000000D01*
X16626700Y-9901700D02*
X16626700Y-4700000D01*
X40500000Y-2500000D02*
X39792893Y-3207107D01*
X21427000Y-25946200D02*
X20947500Y-26425700D01*
X23034600Y-16309600D02*
X19500000Y-12775000D01*
X33639760Y-15783860D02*
X32579100Y-14723200D01*
X24621000Y-14723200D02*
X23034600Y-16309600D01*
X16626700Y-4295500D02*
X16626700Y-4295300D01*
X20325000Y-20750000D02*
X21284200Y-20750000D01*
X21284200Y-20750000D02*
X23034600Y-18999600D01*
X20947500Y-27498000D02*
X33379400Y-39929900D01*
X16626700Y-4000000D02*
X16626700Y-2000000D01*
X23034600Y-18999600D02*
X23034600Y-16309600D01*
X33379400Y-39929900D02*
X36420100Y-39929900D01*
X36420100Y-39929900D02*
X37270000Y-39080000D01*
X16626700Y-4295300D02*
X16626700Y-4295200D01*
%TO.N,SWDIO*%
X30546800Y-17034700D02*
X30546800Y-22965300D01*
X31675000Y-16750000D02*
X30831500Y-16750000D01*
X31447400Y-23865900D02*
X31447400Y-26038400D01*
X37591700Y-33678300D02*
X37270000Y-34000000D01*
X31447400Y-26038400D02*
X35939800Y-30530800D01*
X30831500Y-16750000D02*
X30546800Y-17034700D01*
X37591700Y-31057800D02*
X37591700Y-33678300D01*
X35939800Y-30530800D02*
X37064700Y-30530800D01*
X30546800Y-22965300D02*
X31447400Y-23865900D01*
X37064700Y-30530800D02*
X37591700Y-31057800D01*
%TO.N,SWCLK*%
X33000000Y-16663300D02*
X33000000Y-23550400D01*
X38101400Y-34438600D02*
X37270000Y-35270000D01*
X30264500Y-25544300D02*
X28808800Y-27000000D01*
X32586700Y-16250000D02*
X33000000Y-16663300D01*
X34030300Y-24470400D02*
X38101400Y-28541500D01*
X30095100Y-23187600D02*
X30264500Y-23357000D01*
X30264500Y-23357000D02*
X30264500Y-25544300D01*
X30669500Y-16250000D02*
X30095100Y-16824400D01*
X31675000Y-16250000D02*
X30669500Y-16250000D01*
X38101400Y-28541500D02*
X38101400Y-34438600D01*
X28808800Y-27000000D02*
X28675000Y-27000000D01*
X33920000Y-24470400D02*
X34030300Y-24470400D01*
X30095100Y-16824400D02*
X30095100Y-23187600D01*
X33000000Y-23550400D02*
X33920000Y-24470400D01*
X31675000Y-16250000D02*
X32586700Y-16250000D01*
D26*
%TO.N,I2C_SCL*%
X34675000Y-13500000D02*
X34675000Y-13250000D01*
X36675000Y-23500000D02*
X36425000Y-23250000D01*
X34675000Y-12000000D02*
X34675000Y-11750000D01*
X39175000Y-33250000D02*
X39175000Y-33000000D01*
X39175000Y-31500000D02*
X39175000Y-31250000D01*
X34675000Y-11250000D02*
X34675000Y-11000000D01*
X30175000Y-9000000D02*
X29925000Y-9000000D01*
X39175000Y-28250000D02*
X39175000Y-28000000D01*
X39175000Y-28750000D02*
X39175000Y-28500000D01*
X39175000Y-29000000D02*
X39175000Y-28750000D01*
X23250000Y-14875000D02*
X23250000Y-13325000D01*
X35175000Y-21500000D02*
X35175000Y-21250000D01*
X34675000Y-10750000D02*
X34425000Y-10500000D01*
X39175000Y-26000000D02*
X38925000Y-25750000D01*
X29925000Y-9000000D02*
X29675000Y-9000000D01*
X39175000Y-31250000D02*
X39175000Y-31000000D01*
X34675000Y-13000000D02*
X34675000Y-12750000D01*
X35175000Y-21250000D02*
X35175000Y-21000000D01*
X34675000Y-11500000D02*
X34675000Y-11250000D01*
X36175000Y-23000000D02*
X35925000Y-22750000D01*
X35675000Y-22500000D02*
X35425000Y-22250000D01*
X39175000Y-27500000D02*
X39175000Y-27250000D01*
X35175000Y-20750000D02*
X35175000Y-20500000D01*
X39175000Y-26750000D02*
X39175000Y-26500000D01*
X39175000Y-26500000D02*
X39175000Y-26250000D01*
X39175000Y-30000000D02*
X39175000Y-29750000D01*
X35925000Y-22750000D02*
X35675000Y-22500000D01*
X35175000Y-21750000D02*
X35175000Y-21500000D01*
X39175000Y-33500000D02*
X39175000Y-33250000D01*
X39175000Y-27250000D02*
X39175000Y-27000000D01*
X34425000Y-10500000D02*
X34175000Y-10250000D01*
X39175000Y-32500000D02*
X39175000Y-32250000D01*
X39175000Y-30250000D02*
X39175000Y-30000000D01*
X39175000Y-29750000D02*
X39175000Y-29500000D01*
X38675000Y-25500000D02*
X38425000Y-25250000D01*
X39175000Y-30500000D02*
X39175000Y-30250000D01*
X35175000Y-22000000D02*
X35175000Y-21750000D01*
X39175000Y-29250000D02*
X39175000Y-29000000D01*
X39175000Y-28500000D02*
X39175000Y-28250000D01*
X34925000Y-13750000D02*
X34675000Y-13500000D01*
X37925000Y-24750000D02*
X37675000Y-24500000D01*
X34675000Y-13250000D02*
X34675000Y-13000000D01*
X27675000Y-9000000D02*
X27425000Y-9000000D01*
X39175000Y-27750000D02*
X39175000Y-27500000D01*
X39175000Y-30750000D02*
X39175000Y-30500000D01*
X39175000Y-31000000D02*
X39175000Y-30750000D01*
X34675000Y-11000000D02*
X34675000Y-10750000D01*
X39175000Y-32750000D02*
X39175000Y-32500000D01*
X39175000Y-28000000D02*
X39175000Y-27750000D01*
X35175000Y-20500000D02*
X35175000Y-20250000D01*
X34675000Y-12250000D02*
X34675000Y-12000000D01*
X28175000Y-9000000D02*
X27925000Y-9000000D01*
X39175000Y-26250000D02*
X39175000Y-26000000D01*
X35175000Y-21000000D02*
X35175000Y-20750000D01*
X29175000Y-9000000D02*
X28925000Y-9000000D01*
X39175000Y-27000000D02*
X39175000Y-26750000D01*
X39175000Y-31750000D02*
X39175000Y-31500000D01*
X38425000Y-25250000D02*
X38175000Y-25000000D01*
X34675000Y-12750000D02*
X34675000Y-12500000D01*
X39175000Y-29500000D02*
X39175000Y-29250000D01*
X29425000Y-9000000D02*
X29175000Y-9000000D01*
X37425000Y-24250000D02*
X37175000Y-24000000D01*
X39175000Y-33000000D02*
X39175000Y-32750000D01*
X39425000Y-33750000D02*
X39175000Y-33500000D01*
X29675000Y-9000000D02*
X29425000Y-9000000D01*
X28925000Y-9000000D02*
X28675000Y-9000000D01*
X36425000Y-23250000D02*
X36175000Y-23000000D01*
X28675000Y-9000000D02*
X28425000Y-9000000D01*
X28675000Y-11000000D02*
X28125000Y-11000000D01*
X37675000Y-24500000D02*
X37425000Y-24250000D01*
X37175000Y-24000000D02*
X36925000Y-23750000D01*
X38175000Y-25000000D02*
X37925000Y-24750000D01*
X35425000Y-22250000D02*
X35175000Y-22000000D01*
X36925000Y-23750000D02*
X36675000Y-23500000D01*
X39175000Y-32250000D02*
X39175000Y-32000000D01*
X34175000Y-10250000D02*
X34175000Y-10000000D01*
X38925000Y-25750000D02*
X38675000Y-25500000D01*
X39175000Y-32000000D02*
X39175000Y-31750000D01*
X34675000Y-11750000D02*
X34675000Y-11500000D01*
X34675000Y-12500000D02*
X34675000Y-12250000D01*
X28425000Y-9000000D02*
X28175000Y-9000000D01*
X27925000Y-9000000D02*
X27675000Y-9000000D01*
D27*
%TO.N,I2C_SDA*%
X63517900Y-15810000D02*
X51500000Y-3792100D01*
X64408900Y-15810000D02*
X63517900Y-15810000D01*
X20909100Y-10494500D02*
X20909100Y-11480300D01*
X22642600Y-8761000D02*
X20909100Y-10494500D01*
X21250400Y-11821600D02*
X22159800Y-11821600D01*
X65192900Y-16594000D02*
X64408900Y-15810000D01*
X18707107Y-15617893D02*
X18000000Y-16325000D01*
X30500100Y-2240800D02*
X30500100Y-2800900D01*
X65192900Y-32427100D02*
X65192900Y-16594000D01*
X32073700Y-667200D02*
X30500100Y-2240800D01*
X20909100Y-11480300D02*
X20909100Y-12980300D01*
X22159800Y-11821600D02*
X22750000Y-12411800D01*
X51063400Y-667200D02*
X32073700Y-667200D01*
X30500100Y-2800900D02*
X24540000Y-8761000D01*
X20909100Y-11480300D02*
X21250400Y-11821600D01*
X56000000Y-41620000D02*
X65192900Y-32427100D01*
X51500000Y-3792100D02*
X51500000Y-1103800D01*
X51500000Y-1103800D02*
X51063400Y-667200D01*
X22750000Y-12411800D02*
X22750000Y-13325000D01*
X24540000Y-8761000D02*
X22642600Y-8761000D01*
D26*
%TO.N,UART_TX*%
X24000000Y-20250000D02*
X24000000Y-20000000D01*
X24000000Y-19750000D02*
X24000000Y-19500000D01*
X23050000Y-22600000D02*
X23500000Y-21750000D01*
X24000000Y-20500000D02*
X24000000Y-20250000D01*
X28250000Y-8500000D02*
X28500000Y-8500000D01*
X29500000Y-8500000D02*
X29750000Y-8250000D01*
X27250000Y-8250000D02*
X27500000Y-8250000D01*
X24250000Y-18500000D02*
X24250000Y-18250000D01*
X30500000Y-8250000D02*
X30750000Y-8500000D01*
X24000000Y-20750000D02*
X24000000Y-20500000D01*
X24000000Y-18750000D02*
X24250000Y-18500000D01*
X29750000Y-8250000D02*
X30000000Y-8250000D01*
X23050000Y-23300000D02*
X23050000Y-22600000D01*
X30000000Y-8250000D02*
X30250000Y-8250000D01*
X27750000Y-8250000D02*
X28000000Y-8500000D01*
X27500000Y-8250000D02*
X27750000Y-8250000D01*
X28000000Y-8500000D02*
X28250000Y-8500000D01*
X24250000Y-18250000D02*
X24250000Y-18000000D01*
X24250000Y-18000000D02*
X24250000Y-17750000D01*
X30250000Y-8250000D02*
X30500000Y-8250000D01*
X30750000Y-8500000D02*
X31000000Y-8750000D01*
X24000000Y-19000000D02*
X24000000Y-18750000D01*
X31000000Y-8750000D02*
X31250000Y-9000000D01*
X23250000Y-23500000D02*
X23050000Y-23300000D01*
X31500000Y-9000000D02*
X31750000Y-9000000D01*
X23750000Y-21500000D02*
X24000000Y-21250000D01*
X24000000Y-21000000D02*
X24000000Y-20750000D01*
X26500000Y-8750000D02*
X26750000Y-8500000D01*
X28750000Y-8500000D02*
X29000000Y-8500000D01*
X24000000Y-19250000D02*
X24000000Y-19000000D01*
X24000000Y-19500000D02*
X24000000Y-19250000D01*
X24000000Y-20000000D02*
X24000000Y-19750000D01*
X28500000Y-8500000D02*
X28750000Y-8500000D01*
X24250000Y-16500000D02*
X24250000Y-16250000D01*
X24250000Y-17500000D02*
X24250000Y-17250000D01*
X29250000Y-8500000D02*
X29500000Y-8500000D01*
X27000000Y-8250000D02*
X27250000Y-8250000D01*
X31250000Y-9000000D02*
X31500000Y-9000000D01*
X24250000Y-17750000D02*
X24250000Y-17500000D01*
X23500000Y-21750000D02*
X23750000Y-21500000D01*
X29000000Y-8500000D02*
X29250000Y-8500000D01*
X31750000Y-9000000D02*
X32000000Y-9000000D01*
X23250000Y-24675000D02*
X23250000Y-23500000D01*
X24250000Y-16750000D02*
X24250000Y-16500000D01*
X24000000Y-21250000D02*
X24000000Y-21000000D01*
X24250000Y-17000000D02*
X24250000Y-16750000D01*
X24250000Y-17250000D02*
X24250000Y-17000000D01*
X26750000Y-8500000D02*
X27000000Y-8250000D01*
%TO.N,UART_RX*%
X54750000Y-29830000D02*
X55000000Y-29580000D01*
X19500000Y-23830000D02*
X19250000Y-24080000D01*
X56500000Y-28080000D02*
X56750000Y-27830000D01*
X57000000Y-27580000D02*
X57250000Y-27330000D01*
X22000000Y-30330000D02*
X22250000Y-30580000D01*
X19500000Y-27830000D02*
X19750000Y-28080000D01*
X62750000Y-21580000D02*
X62750000Y-21330000D01*
X23980000Y-23270000D02*
X23980000Y-22550000D01*
X23500000Y-31830000D02*
X23750000Y-32080000D01*
X51750000Y-32830000D02*
X52000000Y-32580000D01*
X19750000Y-23580000D02*
X19500000Y-23830000D01*
X52500000Y-32080000D02*
X52750000Y-31830000D01*
X20500000Y-28830000D02*
X20750000Y-29080000D01*
X23750000Y-32080000D02*
X24000000Y-32330000D01*
X55250000Y-29330000D02*
X55500000Y-29080000D01*
X62500000Y-22080000D02*
X62750000Y-21830000D01*
X61500000Y-23080000D02*
X61750000Y-22830000D01*
X62250000Y-22330000D02*
X62500000Y-22080000D01*
X21750000Y-30080000D02*
X22000000Y-30330000D01*
X58500000Y-26080000D02*
X58750000Y-25830000D01*
X19750000Y-28080000D02*
X20000000Y-28330000D01*
X58750000Y-25830000D02*
X59000000Y-25580000D01*
X61750000Y-22830000D02*
X62000000Y-22580000D01*
X20000000Y-23580000D02*
X19750000Y-23580000D01*
X62750000Y-20830000D02*
X62750000Y-20580000D01*
X56250000Y-28330000D02*
X56500000Y-28080000D01*
X21250000Y-29580000D02*
X21500000Y-29830000D01*
X53500000Y-31080000D02*
X53750000Y-30830000D01*
X60250000Y-24330000D02*
X60500000Y-24080000D01*
X59500000Y-25080000D02*
X59750000Y-24830000D01*
X51000000Y-33580000D02*
X51250000Y-33330000D01*
X61250000Y-23330000D02*
X61500000Y-23080000D01*
X17750000Y-24580000D02*
X17500000Y-24830000D01*
X23000000Y-31330000D02*
X23250000Y-31580000D01*
X52000000Y-32580000D02*
X52250000Y-32330000D01*
X58000000Y-26580000D02*
X58250000Y-26330000D01*
X18000000Y-26330000D02*
X18250000Y-26580000D01*
X53000000Y-31580000D02*
X53250000Y-31330000D01*
X50500000Y-34080000D02*
X50750000Y-33830000D01*
X51500000Y-33080000D02*
X51750000Y-32830000D01*
X57250000Y-27330000D02*
X57500000Y-27080000D01*
X20250000Y-28580000D02*
X20500000Y-28830000D01*
X56750000Y-27830000D02*
X57000000Y-27580000D01*
X17250000Y-25330000D02*
X17250000Y-25580000D01*
X17250000Y-25580000D02*
X17250000Y-25830000D01*
X23750000Y-24675000D02*
X23750000Y-23500000D01*
X56000000Y-28580000D02*
X56250000Y-28330000D01*
X62750000Y-21080000D02*
X62750000Y-20830000D01*
X54500000Y-30080000D02*
X54750000Y-29830000D01*
X22500000Y-30830000D02*
X22750000Y-31080000D01*
X60000000Y-24580000D02*
X60250000Y-24330000D01*
X18500000Y-24080000D02*
X18250000Y-24080000D01*
X17250000Y-25830000D02*
X17500000Y-26080000D01*
X55000000Y-29580000D02*
X55250000Y-29330000D01*
X60750000Y-23830000D02*
X61000000Y-23580000D01*
X55500000Y-29080000D02*
X55750000Y-28830000D01*
X58250000Y-26330000D02*
X58500000Y-26080000D01*
X61000000Y-23580000D02*
X61250000Y-23330000D01*
X52250000Y-32330000D02*
X52500000Y-32080000D01*
X20000000Y-28330000D02*
X20250000Y-28580000D01*
X17750000Y-26330000D02*
X18000000Y-26330000D01*
X20750000Y-29080000D02*
X21000000Y-29330000D01*
X52750000Y-31830000D02*
X53000000Y-31580000D01*
X54250000Y-30330000D02*
X54500000Y-30080000D01*
X59000000Y-25580000D02*
X59250000Y-25330000D01*
X55750000Y-28830000D02*
X56000000Y-28580000D01*
X19250000Y-27580000D02*
X19500000Y-27830000D01*
X18750000Y-27080000D02*
X19000000Y-27330000D01*
X57750000Y-26830000D02*
X58000000Y-26580000D01*
X21500000Y-29830000D02*
X21750000Y-30080000D01*
X23750000Y-23500000D02*
X23980000Y-23270000D01*
X59750000Y-24830000D02*
X60000000Y-24580000D01*
X23250000Y-31580000D02*
X23500000Y-31830000D01*
X60500000Y-24080000D02*
X60750000Y-23830000D01*
X18000000Y-24330000D02*
X17750000Y-24580000D01*
X50750000Y-33830000D02*
X51000000Y-33580000D01*
X19000000Y-27330000D02*
X19250000Y-27580000D01*
X51250000Y-33330000D02*
X51500000Y-33080000D01*
X53750000Y-30830000D02*
X54000000Y-30580000D01*
X59250000Y-25330000D02*
X59500000Y-25080000D01*
X62750000Y-21330000D02*
X62750000Y-21080000D01*
X18250000Y-24080000D02*
X18000000Y-24330000D01*
X17250000Y-25080000D02*
X17250000Y-25330000D01*
X22250000Y-30580000D02*
X22500000Y-30830000D01*
X57500000Y-27080000D02*
X57750000Y-26830000D01*
X18750000Y-24080000D02*
X18500000Y-24080000D01*
X19000000Y-24080000D02*
X18750000Y-24080000D01*
X21000000Y-29330000D02*
X21250000Y-29580000D01*
X18250000Y-26580000D02*
X18500000Y-26830000D01*
X54000000Y-30580000D02*
X54250000Y-30330000D01*
X17500000Y-24830000D02*
X17250000Y-25080000D01*
X22750000Y-31080000D02*
X23000000Y-31330000D01*
X19250000Y-24080000D02*
X19000000Y-24080000D01*
X18500000Y-26830000D02*
X18750000Y-27080000D01*
X62000000Y-22580000D02*
X62250000Y-22330000D01*
X50250000Y-34330000D02*
X50500000Y-34080000D01*
X53250000Y-31330000D02*
X53500000Y-31080000D01*
X24000000Y-32330000D02*
X24250000Y-32580000D01*
X62750000Y-21830000D02*
X62750000Y-21580000D01*
X17500000Y-26080000D02*
X17750000Y-26330000D01*
D27*
%TO.N,USER_BUTTON*%
X25460660Y-3060660D02*
X24400000Y-2000000D01*
X24400000Y-2000000D02*
X18600000Y-2000000D01*
X18000000Y-23325000D02*
X19000000Y-23325000D01*
D26*
X31439340Y-13835660D02*
X31792893Y-13482107D01*
D27*
X32500000Y-12775000D02*
X31439340Y-13835660D01*
X32500000Y-12775000D02*
X31792893Y-13482107D01*
X27750000Y-23175000D02*
X27750000Y-24675000D01*
D26*
%TO.N,MCU_USER_LED*%
X54175000Y-1500000D02*
X53375000Y-1500000D01*
X24750000Y-24675000D02*
X24750000Y-23125000D01*
D27*
%TO.N,USER_LED_ANODE*%
X48787500Y-1500000D02*
X48080393Y-2207107D01*
X54764340Y-2560660D02*
X55825000Y-1500000D01*
D26*
%TO.N,POWER_LED_ANODE*%
X45287500Y-1500000D02*
X45837500Y-1500000D01*
X52325000Y-950000D02*
X52325000Y-1500000D01*
D28*
%TO.N,AIN1_RAW*%
X5000000Y-13580000D02*
X8000000Y-13580000D01*
X34707107Y-24032107D02*
X34000000Y-23325000D01*
%TO.N,MCU_AIN1*%
X33132900Y-40407900D02*
X18225000Y-25500000D01*
D26*
X19975000Y-27250000D02*
X19285700Y-26560700D01*
X22725000Y-30000000D02*
X22475000Y-29750000D01*
X23725000Y-33250000D02*
X23975000Y-33250000D01*
X24475000Y-33250000D02*
X24725000Y-33250000D01*
X23975000Y-33250000D02*
X24225000Y-33500000D01*
D28*
X38609200Y-26284200D02*
X38609200Y-38946700D01*
X19285660Y-26560660D02*
X18225000Y-25500000D01*
D26*
X21725000Y-29000000D02*
X21475000Y-28750000D01*
X20975000Y-28250000D02*
X20725000Y-28000000D01*
X21975000Y-29250000D02*
X21725000Y-29000000D01*
X13225000Y-26250000D02*
X13475000Y-26500000D01*
X23475000Y-33000000D02*
X23725000Y-33250000D01*
X20225000Y-27500000D02*
X19975000Y-27250000D01*
X23975000Y-31250000D02*
X23725000Y-31000000D01*
X24975000Y-32750000D02*
X24975000Y-32500000D01*
D28*
X37148000Y-40407900D02*
X33132900Y-40407900D01*
D26*
X23475000Y-30750000D02*
X23225000Y-30500000D01*
X20475000Y-27750000D02*
X20225000Y-27500000D01*
X24975000Y-32250000D02*
X24725000Y-32000000D01*
X20725000Y-28000000D02*
X20475000Y-27750000D01*
X23225000Y-30500000D02*
X22975000Y-30250000D01*
X23725000Y-31000000D02*
X23475000Y-30750000D01*
D28*
X38609200Y-38946700D02*
X37148000Y-40407900D01*
D26*
X14225000Y-27000000D02*
X14475000Y-27250000D01*
X22475000Y-29750000D02*
X22225000Y-29500000D01*
X22225000Y-29500000D02*
X21975000Y-29250000D01*
X13975000Y-26750000D02*
X14225000Y-27000000D01*
X12975000Y-26000000D02*
X13225000Y-26250000D01*
X24725000Y-32000000D02*
X24475000Y-31750000D01*
X23225000Y-32750000D02*
X23475000Y-33000000D01*
X21225000Y-28500000D02*
X20975000Y-28250000D01*
X24225000Y-31500000D02*
X23975000Y-31250000D01*
X13725000Y-26500000D02*
X13975000Y-26750000D01*
X21475000Y-28750000D02*
X21225000Y-28500000D01*
D28*
X22250000Y-24675000D02*
X22250000Y-23175000D01*
D26*
X24975000Y-32500000D02*
X24975000Y-32250000D01*
X24975000Y-33000000D02*
X24975000Y-32750000D01*
X22975000Y-30250000D02*
X22725000Y-30000000D01*
X24225000Y-33500000D02*
X24475000Y-33250000D01*
X24725000Y-33250000D02*
X24975000Y-33000000D01*
D28*
X34000000Y-21675000D02*
X38609200Y-26284200D01*
D26*
X13475000Y-26500000D02*
X13725000Y-26500000D01*
X24475000Y-31750000D02*
X24225000Y-31500000D01*
X12225000Y-25500000D02*
X12975000Y-26000000D01*
%TO.N,AIN2_RAW*%
X16925000Y-29250000D02*
X16675000Y-29000000D01*
X16675000Y-28750000D02*
X16675000Y-28500000D01*
X16675000Y-28500000D02*
X16675000Y-28250000D01*
X17175000Y-30000000D02*
X16925000Y-29250000D01*
X16675000Y-29000000D02*
X16675000Y-28750000D01*
%TO.N,MCU_AIN2*%
X23325000Y-28750000D02*
X23075000Y-28500000D01*
X19575000Y-29750000D02*
X19825000Y-29500000D01*
X23075000Y-28500000D02*
X22750000Y-27675000D01*
X23575000Y-29000000D02*
X23325000Y-28750000D01*
D28*
X32225000Y-24500000D02*
X32225000Y-25500000D01*
D26*
X18825000Y-30000000D02*
X19575000Y-29750000D01*
D28*
X22750000Y-24675000D02*
X22750000Y-27675000D01*
X22617893Y-27707107D02*
X24032107Y-26292893D01*
%TD*%
%TA.AperFunction,Conductor*%
%TO.N,GND*%
G36*
X7034163Y-469685D02*
G01*
X7079918Y-522489D01*
X7089862Y-591647D01*
X7060837Y-655203D01*
X7054805Y-661681D01*
X5199802Y-2516683D01*
X5199800Y-2516686D01*
X5133908Y-2630812D01*
X5099800Y-2758108D01*
X5099800Y-5231424D01*
X5080115Y-5298463D01*
X5063481Y-5319105D01*
X3247802Y-7134783D01*
X3247800Y-7134786D01*
X3181908Y-7248912D01*
X3166115Y-7307853D01*
X3147800Y-7376208D01*
X3147800Y-27227008D01*
X3147800Y-27358792D01*
X3175592Y-27462515D01*
X3181909Y-27486088D01*
X3181909Y-27486089D01*
X3234072Y-27576438D01*
X3250545Y-27644338D01*
X3227692Y-27710365D01*
X3214366Y-27726119D01*
X2708798Y-28231687D01*
X2647475Y-28265172D01*
X2577783Y-28260188D01*
X2533436Y-28231687D01*
X2503225Y-28201476D01*
X2503221Y-28201473D01*
X2503220Y-28201472D01*
X2383126Y-28140281D01*
X2383124Y-28140280D01*
X2383121Y-28140279D01*
X2283493Y-28124500D01*
X2283488Y-28124500D01*
X1716512Y-28124500D01*
X1716507Y-28124500D01*
X1616878Y-28140279D01*
X1496778Y-28201473D01*
X1496774Y-28201476D01*
X1401476Y-28296774D01*
X1401473Y-28296778D01*
X1340279Y-28416878D01*
X1324500Y-28516506D01*
X1324500Y-29033493D01*
X1340279Y-29133121D01*
X1340280Y-29133124D01*
X1340281Y-29133126D01*
X1400856Y-29252011D01*
X1401473Y-29253221D01*
X1401476Y-29253225D01*
X1496774Y-29348523D01*
X1496778Y-29348526D01*
X1496780Y-29348528D01*
X1616874Y-29409719D01*
X1616876Y-29409719D01*
X1616878Y-29409720D01*
X1716507Y-29425500D01*
X1716512Y-29425500D01*
X2283493Y-29425500D01*
X2383121Y-29409720D01*
X2383121Y-29409719D01*
X2383126Y-29409719D01*
X2503220Y-29348528D01*
X2539928Y-29311820D01*
X2601251Y-29278334D01*
X2627610Y-29275500D01*
X2939190Y-29275500D01*
X2939192Y-29275500D01*
X3066486Y-29241392D01*
X3180614Y-29175500D01*
X3737819Y-28618295D01*
X3799142Y-28584810D01*
X3868834Y-28589794D01*
X3924767Y-28631666D01*
X3949184Y-28697130D01*
X3949500Y-28705976D01*
X3949500Y-28869752D01*
X3961131Y-28928229D01*
X3961132Y-28928230D01*
X4005447Y-28994552D01*
X4071769Y-29038867D01*
X4071770Y-29038868D01*
X4130247Y-29050499D01*
X4130250Y-29050500D01*
X4130252Y-29050500D01*
X5869750Y-29050500D01*
X5869751Y-29050499D01*
X5884568Y-29047552D01*
X5928229Y-29038868D01*
X5928229Y-29038867D01*
X5928231Y-29038867D01*
X5994552Y-28994552D01*
X6038867Y-28928231D01*
X6038867Y-28928229D01*
X6038868Y-28928229D01*
X6050499Y-28869752D01*
X6050500Y-28869750D01*
X6050500Y-28624500D01*
X6070185Y-28557461D01*
X6122989Y-28511706D01*
X6174500Y-28500500D01*
X9966324Y-28500500D01*
X10033363Y-28520185D01*
X10054005Y-28536819D01*
X10688181Y-29170995D01*
X10702884Y-29197922D01*
X10719477Y-29223741D01*
X10720368Y-29229941D01*
X10721666Y-29232318D01*
X10724500Y-29258676D01*
X10724500Y-29372389D01*
X10704815Y-29439428D01*
X10688181Y-29460070D01*
X10651476Y-29496774D01*
X10651473Y-29496778D01*
X10590279Y-29616878D01*
X10574500Y-29716506D01*
X10574500Y-30283493D01*
X10590279Y-30383123D01*
X10653146Y-30506506D01*
X10666042Y-30575175D01*
X10639765Y-30639915D01*
X10582659Y-30680172D01*
X10542661Y-30686800D01*
X10074207Y-30686800D01*
X9946912Y-30720908D01*
X9832786Y-30786800D01*
X9832783Y-30786802D01*
X9216502Y-31403083D01*
X9216500Y-31403086D01*
X9150608Y-31517212D01*
X9116500Y-31644508D01*
X9116500Y-32399324D01*
X9096815Y-32466363D01*
X9080181Y-32487005D01*
X8479005Y-33088181D01*
X8417682Y-33121666D01*
X8391324Y-33124500D01*
X8216507Y-33124500D01*
X8116878Y-33140279D01*
X7996778Y-33201473D01*
X7996774Y-33201476D01*
X7901476Y-33296774D01*
X7901473Y-33296778D01*
X7840279Y-33416878D01*
X7824500Y-33516506D01*
X7824500Y-34033493D01*
X7840279Y-34133121D01*
X7840280Y-34133124D01*
X7840281Y-34133126D01*
X7884037Y-34219001D01*
X7901473Y-34253221D01*
X7901476Y-34253225D01*
X7996774Y-34348523D01*
X7996778Y-34348526D01*
X7996780Y-34348528D01*
X8116874Y-34409719D01*
X8116876Y-34409719D01*
X8116878Y-34409720D01*
X8216507Y-34425500D01*
X8216512Y-34425500D01*
X8391324Y-34425500D01*
X8458363Y-34445185D01*
X8479005Y-34461819D01*
X10320159Y-36302972D01*
X10320169Y-36302983D01*
X10324499Y-36307313D01*
X10324500Y-36307314D01*
X10417686Y-36400500D01*
X10528076Y-36464234D01*
X10528078Y-36464235D01*
X10528077Y-36464235D01*
X10530361Y-36465553D01*
X10531814Y-36466392D01*
X10531816Y-36466392D01*
X10531819Y-36466394D01*
X10594982Y-36483317D01*
X10612865Y-36488109D01*
X10668454Y-36520203D01*
X10746774Y-36598523D01*
X10746778Y-36598526D01*
X10746780Y-36598528D01*
X10866874Y-36659719D01*
X10866876Y-36659719D01*
X10866878Y-36659720D01*
X10966507Y-36675500D01*
X10966512Y-36675500D01*
X11141324Y-36675500D01*
X11208363Y-36695185D01*
X11229005Y-36711819D01*
X11930286Y-37413100D01*
X12029121Y-37470163D01*
X12043033Y-37478195D01*
X12044414Y-37478992D01*
X12171708Y-37513100D01*
X12171710Y-37513100D01*
X13372590Y-37513100D01*
X13372592Y-37513100D01*
X13499886Y-37478992D01*
X13614014Y-37413100D01*
X15998100Y-35029014D01*
X16063992Y-34914886D01*
X16098100Y-34787592D01*
X16098100Y-34655807D01*
X16098100Y-28750986D01*
X16104338Y-28729740D01*
X16105918Y-28707652D01*
X16113990Y-28696868D01*
X16117785Y-28683947D01*
X16134518Y-28669447D01*
X16147790Y-28651719D01*
X16160410Y-28647011D01*
X16170589Y-28638192D01*
X16192506Y-28635040D01*
X16213254Y-28627302D01*
X16226414Y-28630164D01*
X16239747Y-28628248D01*
X16259890Y-28637447D01*
X16281527Y-28642154D01*
X16299252Y-28655422D01*
X16303303Y-28657273D01*
X16309781Y-28663305D01*
X16338181Y-28691705D01*
X16371666Y-28753028D01*
X16374500Y-28779386D01*
X16374500Y-29039562D01*
X16383319Y-29072475D01*
X16394979Y-29115990D01*
X16394982Y-29115995D01*
X16434535Y-29184504D01*
X16434541Y-29184512D01*
X16613535Y-29363506D01*
X16647020Y-29424829D01*
X16642036Y-29494521D01*
X16636339Y-29507481D01*
X16589353Y-29599695D01*
X16589352Y-29599698D01*
X16574500Y-29693475D01*
X16574500Y-30306517D01*
X16585292Y-30374657D01*
X16589354Y-30400304D01*
X16646950Y-30513342D01*
X16646952Y-30513344D01*
X16646954Y-30513347D01*
X16736652Y-30603045D01*
X16736654Y-30603046D01*
X16736658Y-30603050D01*
X16847877Y-30659719D01*
X16849698Y-30660647D01*
X16943475Y-30675499D01*
X16943481Y-30675500D01*
X17406518Y-30675499D01*
X17500304Y-30660646D01*
X17613342Y-30603050D01*
X17703050Y-30513342D01*
X17760646Y-30400304D01*
X17760646Y-30400302D01*
X17760647Y-30400301D01*
X17775499Y-30306524D01*
X17775500Y-30306519D01*
X17775499Y-29693482D01*
X17760646Y-29599696D01*
X17703050Y-29486658D01*
X17703046Y-29486654D01*
X17703045Y-29486652D01*
X17613347Y-29396954D01*
X17613344Y-29396952D01*
X17613342Y-29396950D01*
X17518305Y-29348526D01*
X17500301Y-29339352D01*
X17406524Y-29324500D01*
X17406519Y-29324500D01*
X17355963Y-29324500D01*
X17332688Y-29317665D01*
X17308562Y-29315083D01*
X17299760Y-29307997D01*
X17288924Y-29304815D01*
X17273038Y-29286482D01*
X17254139Y-29271266D01*
X17246300Y-29255624D01*
X17243169Y-29252011D01*
X17238326Y-29239713D01*
X17227526Y-29207314D01*
X17214099Y-29167032D01*
X17211965Y-29159924D01*
X17205022Y-29134015D01*
X17201910Y-29126501D01*
X17202004Y-29126461D01*
X17201216Y-29124709D01*
X17201125Y-29124754D01*
X17197569Y-29117441D01*
X17182784Y-29095048D01*
X17178879Y-29088731D01*
X17169493Y-29072475D01*
X17165460Y-29065489D01*
X17159001Y-29059030D01*
X17153972Y-29051413D01*
X17131115Y-29031144D01*
X17011819Y-28911848D01*
X16978334Y-28850525D01*
X16975500Y-28824167D01*
X16975500Y-28779386D01*
X16995185Y-28712347D01*
X17011819Y-28691705D01*
X17063517Y-28640007D01*
X17115509Y-28588015D01*
X17187984Y-28462485D01*
X17225500Y-28322475D01*
X17225500Y-28177525D01*
X17187984Y-28037515D01*
X17169875Y-28006150D01*
X17115511Y-27911988D01*
X17115506Y-27911982D01*
X17013017Y-27809493D01*
X17013011Y-27809488D01*
X16887488Y-27737017D01*
X16887489Y-27737017D01*
X16846817Y-27726119D01*
X16747475Y-27699500D01*
X16602525Y-27699500D01*
X16503183Y-27726119D01*
X16462511Y-27737017D01*
X16336988Y-27809488D01*
X16336982Y-27809493D01*
X16309781Y-27836695D01*
X16248458Y-27870180D01*
X16178766Y-27865196D01*
X16122833Y-27823324D01*
X16098416Y-27757860D01*
X16098100Y-27749014D01*
X16098100Y-24336075D01*
X16117785Y-24269036D01*
X16134414Y-24248398D01*
X17112821Y-23269991D01*
X17174142Y-23236508D01*
X17243833Y-23241492D01*
X17299767Y-23283364D01*
X17324184Y-23348828D01*
X17324500Y-23357673D01*
X17324500Y-23556517D01*
X17334988Y-23622734D01*
X17339354Y-23650304D01*
X17396950Y-23763342D01*
X17396952Y-23763344D01*
X17396954Y-23763347D01*
X17486652Y-23853045D01*
X17486654Y-23853046D01*
X17486658Y-23853050D01*
X17566764Y-23893866D01*
X17599698Y-23910647D01*
X17698293Y-23926263D01*
X17697997Y-23928127D01*
X17755773Y-23950130D01*
X17797259Y-24006350D01*
X17801764Y-24076074D01*
X17768463Y-24136565D01*
X17565489Y-24339540D01*
X17009541Y-24895487D01*
X17009535Y-24895495D01*
X16969982Y-24964004D01*
X16969979Y-24964009D01*
X16961200Y-24996774D01*
X16949500Y-25040438D01*
X16949500Y-25290438D01*
X16949500Y-25540438D01*
X16949500Y-25869562D01*
X16953372Y-25884011D01*
X16969979Y-25945990D01*
X16969982Y-25945995D01*
X17009535Y-26014504D01*
X17009539Y-26014509D01*
X17009540Y-26014511D01*
X17259540Y-26264511D01*
X17509540Y-26514511D01*
X17565489Y-26570460D01*
X17565491Y-26570461D01*
X17565495Y-26570464D01*
X17600154Y-26590474D01*
X17634011Y-26610021D01*
X17710438Y-26630500D01*
X17789562Y-26630500D01*
X17824167Y-26630500D01*
X17891206Y-26650185D01*
X17911848Y-26666819D01*
X19982848Y-28737819D01*
X20016333Y-28799142D01*
X20011349Y-28868834D01*
X19969477Y-28924767D01*
X19904013Y-28949184D01*
X19895167Y-28949500D01*
X19752525Y-28949500D01*
X19623993Y-28983940D01*
X19612511Y-28987017D01*
X19486988Y-29059488D01*
X19486982Y-29059493D01*
X19384493Y-29161982D01*
X19384491Y-29161985D01*
X19310966Y-29289332D01*
X19260398Y-29337547D01*
X19191791Y-29350769D01*
X19159872Y-29341478D01*
X19159583Y-29342369D01*
X19150301Y-29339352D01*
X19056524Y-29324500D01*
X18593482Y-29324500D01*
X18520116Y-29336120D01*
X18499696Y-29339354D01*
X18386658Y-29396950D01*
X18386657Y-29396951D01*
X18386652Y-29396954D01*
X18296954Y-29486652D01*
X18296951Y-29486657D01*
X18296950Y-29486658D01*
X18286340Y-29507481D01*
X18239352Y-29599698D01*
X18224500Y-29693475D01*
X18224500Y-30306517D01*
X18235292Y-30374657D01*
X18239354Y-30400304D01*
X18296950Y-30513342D01*
X18296952Y-30513344D01*
X18296954Y-30513347D01*
X18386652Y-30603045D01*
X18386654Y-30603046D01*
X18386658Y-30603050D01*
X18497877Y-30659719D01*
X18499698Y-30660647D01*
X18593475Y-30675499D01*
X18593481Y-30675500D01*
X19056518Y-30675499D01*
X19150304Y-30660646D01*
X19263342Y-30603050D01*
X19353050Y-30513342D01*
X19410646Y-30400304D01*
X19410646Y-30400302D01*
X19410647Y-30400301D01*
X19425499Y-30306524D01*
X19425500Y-30306519D01*
X19425499Y-30205961D01*
X19432334Y-30182683D01*
X19434917Y-30158561D01*
X19442000Y-30149762D01*
X19445183Y-30138924D01*
X19463518Y-30123035D01*
X19478733Y-30104138D01*
X19494369Y-30096301D01*
X19497986Y-30093168D01*
X19510279Y-30088327D01*
X19645814Y-30043149D01*
X19715636Y-30040625D01*
X19717016Y-30040985D01*
X19752525Y-30050500D01*
X19752528Y-30050500D01*
X19897472Y-30050500D01*
X19897475Y-30050500D01*
X20037485Y-30012984D01*
X20163015Y-29940509D01*
X20265509Y-29838015D01*
X20337984Y-29712485D01*
X20375500Y-29572475D01*
X20375500Y-29429833D01*
X20395185Y-29362794D01*
X20447989Y-29317039D01*
X20517147Y-29307095D01*
X20580703Y-29336120D01*
X20587181Y-29342152D01*
X23232848Y-31987819D01*
X23266333Y-32049142D01*
X23261349Y-32118834D01*
X23219477Y-32174767D01*
X23160370Y-32196812D01*
X23160585Y-32198439D01*
X23152528Y-32199499D01*
X23012511Y-32237017D01*
X22886988Y-32309488D01*
X22886982Y-32309493D01*
X22784493Y-32411982D01*
X22784488Y-32411988D01*
X22712017Y-32537511D01*
X22712016Y-32537515D01*
X22674500Y-32677525D01*
X22674500Y-32822475D01*
X22711654Y-32961133D01*
X22712017Y-32962488D01*
X22784488Y-33088011D01*
X22784490Y-33088013D01*
X22784491Y-33088015D01*
X22886985Y-33190509D01*
X22886986Y-33190510D01*
X22886988Y-33190511D01*
X23012511Y-33262982D01*
X23012512Y-33262982D01*
X23012515Y-33262984D01*
X23152525Y-33300500D01*
X23152528Y-33300500D01*
X23299167Y-33300500D01*
X23366206Y-33320185D01*
X23386848Y-33336819D01*
X23484540Y-33434511D01*
X23540489Y-33490460D01*
X23540491Y-33490461D01*
X23540495Y-33490464D01*
X23608526Y-33529741D01*
X23609011Y-33530021D01*
X23685438Y-33550500D01*
X23764562Y-33550500D01*
X23799167Y-33550500D01*
X23866206Y-33570185D01*
X23886848Y-33586819D01*
X23984540Y-33684511D01*
X24040489Y-33740460D01*
X24109012Y-33780021D01*
X24185438Y-33800500D01*
X24185440Y-33800500D01*
X24264560Y-33800500D01*
X24264562Y-33800500D01*
X24340988Y-33780021D01*
X24409511Y-33740460D01*
X24563152Y-33586819D01*
X24624475Y-33553334D01*
X24650833Y-33550500D01*
X24764560Y-33550500D01*
X24764562Y-33550500D01*
X24840989Y-33530021D01*
X24909511Y-33490460D01*
X24965460Y-33434511D01*
X25215460Y-33184511D01*
X25215464Y-33184503D01*
X25215510Y-33184445D01*
X25215569Y-33184401D01*
X25221207Y-33178764D01*
X25222086Y-33179643D01*
X25271938Y-33143241D01*
X25341683Y-33139086D01*
X25401568Y-33172249D01*
X32852431Y-40623112D01*
X32917688Y-40688369D01*
X32917691Y-40688370D01*
X32917694Y-40688373D01*
X32997606Y-40734511D01*
X32997607Y-40734511D01*
X32997612Y-40734514D01*
X33086756Y-40758400D01*
X33086758Y-40758400D01*
X37194142Y-40758400D01*
X37194144Y-40758400D01*
X37283288Y-40734514D01*
X37363212Y-40688370D01*
X38889670Y-39161912D01*
X38935814Y-39081988D01*
X38947829Y-39037147D01*
X38959700Y-38992844D01*
X38959700Y-38976530D01*
X54949500Y-38976530D01*
X54949500Y-39183469D01*
X54989868Y-39386412D01*
X54989870Y-39386420D01*
X55069059Y-39577598D01*
X55126541Y-39663626D01*
X55184024Y-39749657D01*
X55330342Y-39895975D01*
X55330345Y-39895977D01*
X55502402Y-40010941D01*
X55693580Y-40090130D01*
X55896530Y-40130499D01*
X55896534Y-40130500D01*
X55896535Y-40130500D01*
X56103466Y-40130500D01*
X56103467Y-40130499D01*
X56306420Y-40090130D01*
X56497598Y-40010941D01*
X56669655Y-39895977D01*
X56815977Y-39749655D01*
X56930941Y-39577598D01*
X57010130Y-39386420D01*
X57050500Y-39183465D01*
X57050500Y-38976535D01*
X57010130Y-38773580D01*
X56930941Y-38582402D01*
X56815977Y-38410345D01*
X56815975Y-38410342D01*
X56669657Y-38264024D01*
X56583626Y-38206541D01*
X56497598Y-38149059D01*
X56480114Y-38141817D01*
X56306420Y-38069870D01*
X56306412Y-38069868D01*
X56103469Y-38029500D01*
X56103465Y-38029500D01*
X55896535Y-38029500D01*
X55896530Y-38029500D01*
X55693587Y-38069868D01*
X55693579Y-38069870D01*
X55502403Y-38149058D01*
X55330342Y-38264024D01*
X55184024Y-38410342D01*
X55069058Y-38582403D01*
X54989870Y-38773579D01*
X54989868Y-38773587D01*
X54949500Y-38976530D01*
X38959700Y-38976530D01*
X38959700Y-34331795D01*
X38979385Y-34264756D01*
X39032189Y-34219001D01*
X39101347Y-34209057D01*
X39145697Y-34224406D01*
X39212515Y-34262984D01*
X39352525Y-34300500D01*
X39352528Y-34300500D01*
X39497472Y-34300500D01*
X39497475Y-34300500D01*
X39637485Y-34262984D01*
X39763015Y-34190509D01*
X39865509Y-34088015D01*
X39937984Y-33962485D01*
X39975500Y-33822475D01*
X39975500Y-33677525D01*
X39937984Y-33537515D01*
X39933657Y-33530021D01*
X39865511Y-33411988D01*
X39865506Y-33411982D01*
X39763017Y-33309493D01*
X39763011Y-33309488D01*
X39637488Y-33237017D01*
X39637483Y-33237015D01*
X39567405Y-33218237D01*
X39507745Y-33181872D01*
X39477217Y-33119024D01*
X39475500Y-33098463D01*
X39475500Y-25960439D01*
X39474009Y-25954875D01*
X39455021Y-25884011D01*
X39446678Y-25869560D01*
X39415464Y-25815495D01*
X39415458Y-25815487D01*
X35511819Y-21911848D01*
X35478334Y-21850525D01*
X35475500Y-21824167D01*
X35475500Y-20779386D01*
X35495185Y-20712347D01*
X35511819Y-20691705D01*
X35555661Y-20647863D01*
X35615509Y-20588015D01*
X35687984Y-20462485D01*
X35725500Y-20322475D01*
X35725500Y-20244500D01*
X35745185Y-20177461D01*
X35797989Y-20131706D01*
X35849500Y-20120500D01*
X62164856Y-20120500D01*
X62231895Y-20140185D01*
X62277650Y-20192989D01*
X62287594Y-20262147D01*
X62272243Y-20306499D01*
X62237016Y-20367515D01*
X62199500Y-20507525D01*
X62199500Y-20652475D01*
X62233506Y-20779386D01*
X62237017Y-20792488D01*
X62309488Y-20918011D01*
X62309493Y-20918017D01*
X62413181Y-21021705D01*
X62446666Y-21083028D01*
X62449500Y-21109386D01*
X62449500Y-21654167D01*
X62429815Y-21721206D01*
X62413181Y-21741848D01*
X50565491Y-33589537D01*
X50565490Y-33589539D01*
X50565489Y-33589540D01*
X50411845Y-33743182D01*
X50350524Y-33776666D01*
X50324166Y-33779500D01*
X50322475Y-33779500D01*
X50177525Y-33779500D01*
X50048993Y-33813940D01*
X50037511Y-33817017D01*
X49911988Y-33889488D01*
X49911982Y-33889493D01*
X49809493Y-33991982D01*
X49809488Y-33991988D01*
X49737017Y-34117511D01*
X49737016Y-34117515D01*
X49699500Y-34257525D01*
X49699500Y-34402475D01*
X49737016Y-34542485D01*
X49737017Y-34542488D01*
X49809488Y-34668011D01*
X49809490Y-34668013D01*
X49809491Y-34668015D01*
X49911985Y-34770509D01*
X49911986Y-34770510D01*
X49911988Y-34770511D01*
X50037511Y-34842982D01*
X50037512Y-34842982D01*
X50037515Y-34842984D01*
X50177525Y-34880500D01*
X50177528Y-34880500D01*
X50322472Y-34880500D01*
X50322475Y-34880500D01*
X50462485Y-34842984D01*
X50588015Y-34770509D01*
X50690509Y-34668015D01*
X50762984Y-34542485D01*
X50800500Y-34402475D01*
X50800500Y-34257525D01*
X50800500Y-34255832D01*
X50820185Y-34188793D01*
X50836813Y-34168156D01*
X50990460Y-34014511D01*
X51240460Y-33764511D01*
X51490460Y-33514511D01*
X51740460Y-33264511D01*
X51874724Y-33130247D01*
X54949500Y-33130247D01*
X54949500Y-34869752D01*
X54961131Y-34928229D01*
X54961132Y-34928230D01*
X55005447Y-34994552D01*
X55071769Y-35038867D01*
X55071770Y-35038868D01*
X55130247Y-35050499D01*
X55130250Y-35050500D01*
X55130252Y-35050500D01*
X56869750Y-35050500D01*
X56869751Y-35050499D01*
X56884568Y-35047552D01*
X56928229Y-35038868D01*
X56928229Y-35038867D01*
X56928231Y-35038867D01*
X56994552Y-34994552D01*
X57038867Y-34928231D01*
X57038867Y-34928229D01*
X57038868Y-34928229D01*
X57047552Y-34884568D01*
X57050500Y-34869748D01*
X57050500Y-33130252D01*
X57050500Y-33130249D01*
X57050499Y-33130247D01*
X57038868Y-33071770D01*
X57038867Y-33071769D01*
X56994552Y-33005447D01*
X56928230Y-32961132D01*
X56928229Y-32961131D01*
X56869752Y-32949500D01*
X56869748Y-32949500D01*
X55130252Y-32949500D01*
X55130247Y-32949500D01*
X55071770Y-32961131D01*
X55071769Y-32961132D01*
X55005447Y-33005447D01*
X54961132Y-33071769D01*
X54961131Y-33071770D01*
X54949500Y-33130247D01*
X51874724Y-33130247D01*
X51990460Y-33014511D01*
X52240460Y-32764511D01*
X52490460Y-32514511D01*
X52740460Y-32264511D01*
X52990460Y-32014511D01*
X53240460Y-31764511D01*
X53490460Y-31514511D01*
X53740460Y-31264511D01*
X53990460Y-31014511D01*
X54240460Y-30764511D01*
X54490460Y-30514511D01*
X54740460Y-30264511D01*
X54990460Y-30014511D01*
X55240460Y-29764511D01*
X55490460Y-29514511D01*
X55740460Y-29264511D01*
X55990460Y-29014511D01*
X56240460Y-28764511D01*
X56490460Y-28514511D01*
X56740460Y-28264511D01*
X56990460Y-28014511D01*
X57240460Y-27764511D01*
X57490460Y-27514511D01*
X57740460Y-27264511D01*
X57990460Y-27014511D01*
X58240460Y-26764511D01*
X58490460Y-26514511D01*
X58740460Y-26264511D01*
X58990460Y-26014511D01*
X59240460Y-25764511D01*
X59490460Y-25514511D01*
X59740460Y-25264511D01*
X59990460Y-25014511D01*
X60240460Y-24764511D01*
X60490460Y-24514511D01*
X60740460Y-24264511D01*
X60990460Y-24014511D01*
X61240460Y-23764511D01*
X61490460Y-23514511D01*
X61740460Y-23264511D01*
X61990460Y-23014511D01*
X62240460Y-22764511D01*
X62490460Y-22514511D01*
X62740460Y-22264511D01*
X62990460Y-22014511D01*
X62998662Y-22000304D01*
X63030021Y-21945989D01*
X63050500Y-21869562D01*
X63050500Y-21540438D01*
X63050500Y-21290438D01*
X63050500Y-21109386D01*
X63070185Y-21042347D01*
X63086819Y-21021705D01*
X63110736Y-20997788D01*
X63190509Y-20918015D01*
X63262984Y-20792485D01*
X63300500Y-20652475D01*
X63300500Y-20648022D01*
X63320185Y-20580983D01*
X63372989Y-20535228D01*
X63442147Y-20525284D01*
X63493390Y-20544919D01*
X63502402Y-20550941D01*
X63693580Y-20630130D01*
X63896530Y-20670499D01*
X63896534Y-20670500D01*
X63896535Y-20670500D01*
X64103466Y-20670500D01*
X64103467Y-20670499D01*
X64306420Y-20630130D01*
X64497598Y-20550941D01*
X64669655Y-20435977D01*
X64669657Y-20435974D01*
X64674509Y-20432733D01*
X64741187Y-20411855D01*
X64808567Y-20430340D01*
X64855257Y-20482319D01*
X64867400Y-20535835D01*
X64867400Y-32240910D01*
X64847715Y-32307949D01*
X64831081Y-32328591D01*
X56537103Y-40622568D01*
X56475780Y-40656053D01*
X56406088Y-40651069D01*
X56401981Y-40649452D01*
X56306420Y-40609870D01*
X56306412Y-40609868D01*
X56103469Y-40569500D01*
X56103465Y-40569500D01*
X55896535Y-40569500D01*
X55896530Y-40569500D01*
X55693587Y-40609868D01*
X55693579Y-40609870D01*
X55502403Y-40689058D01*
X55330342Y-40804024D01*
X55184024Y-40950342D01*
X55069058Y-41122403D01*
X54989870Y-41313579D01*
X54989868Y-41313587D01*
X54949500Y-41516530D01*
X54949500Y-41723469D01*
X54989868Y-41926412D01*
X54989870Y-41926420D01*
X55069058Y-42117596D01*
X55184024Y-42289657D01*
X55330342Y-42435975D01*
X55330345Y-42435977D01*
X55502402Y-42550941D01*
X55693580Y-42630130D01*
X55896530Y-42670499D01*
X55896534Y-42670500D01*
X55896535Y-42670500D01*
X56103466Y-42670500D01*
X56103467Y-42670499D01*
X56306420Y-42630130D01*
X56497598Y-42550941D01*
X56669655Y-42435977D01*
X56815977Y-42289655D01*
X56930941Y-42117598D01*
X57010130Y-41926420D01*
X57016636Y-41893713D01*
X65649500Y-41893713D01*
X65649500Y-42106287D01*
X65682754Y-42316243D01*
X65721657Y-42435975D01*
X65748444Y-42518414D01*
X65844951Y-42707820D01*
X65969890Y-42879786D01*
X66120213Y-43030109D01*
X66292179Y-43155048D01*
X66292181Y-43155049D01*
X66292184Y-43155051D01*
X66481588Y-43251557D01*
X66683757Y-43317246D01*
X66893713Y-43350500D01*
X66893714Y-43350500D01*
X67106286Y-43350500D01*
X67106287Y-43350500D01*
X67316243Y-43317246D01*
X67518412Y-43251557D01*
X67707816Y-43155051D01*
X67729789Y-43139086D01*
X67879786Y-43030109D01*
X67879788Y-43030106D01*
X67879792Y-43030104D01*
X68030104Y-42879792D01*
X68030106Y-42879788D01*
X68030109Y-42879786D01*
X68155048Y-42707820D01*
X68155047Y-42707820D01*
X68155051Y-42707816D01*
X68251557Y-42518412D01*
X68317246Y-42316243D01*
X68350500Y-42106287D01*
X68350500Y-41893713D01*
X68317246Y-41683757D01*
X68251557Y-41481588D01*
X68155051Y-41292184D01*
X68155049Y-41292181D01*
X68155048Y-41292179D01*
X68030109Y-41120213D01*
X67879786Y-40969890D01*
X67707820Y-40844951D01*
X67518414Y-40748444D01*
X67518413Y-40748443D01*
X67518412Y-40748443D01*
X67316243Y-40682754D01*
X67316241Y-40682753D01*
X67316240Y-40682753D01*
X67147661Y-40656053D01*
X67106287Y-40649500D01*
X66893713Y-40649500D01*
X66852339Y-40656053D01*
X66683760Y-40682753D01*
X66481585Y-40748444D01*
X66292179Y-40844951D01*
X66120213Y-40969890D01*
X65969890Y-41120213D01*
X65844951Y-41292179D01*
X65748444Y-41481585D01*
X65682753Y-41683760D01*
X65676464Y-41723468D01*
X65649500Y-41893713D01*
X57016636Y-41893713D01*
X57050500Y-41723465D01*
X57050500Y-41516535D01*
X57010130Y-41313580D01*
X56970551Y-41218028D01*
X56963082Y-41148558D01*
X56994357Y-41086079D01*
X56997403Y-41082922D01*
X65453365Y-32626962D01*
X65496218Y-32552739D01*
X65518400Y-32469953D01*
X65518400Y-32384247D01*
X65518400Y-16551147D01*
X65496218Y-16468362D01*
X65475512Y-16432498D01*
X65453369Y-16394144D01*
X65453363Y-16394136D01*
X64623962Y-15564735D01*
X64590477Y-15503412D01*
X64595461Y-15433720D01*
X64637333Y-15377787D01*
X64642732Y-15373965D01*
X64669655Y-15355977D01*
X64815977Y-15209655D01*
X64930941Y-15037598D01*
X65010130Y-14846420D01*
X65050500Y-14643465D01*
X65050500Y-14436535D01*
X65010130Y-14233580D01*
X64930941Y-14042402D01*
X64815977Y-13870345D01*
X64815975Y-13870342D01*
X64669657Y-13724024D01*
X64562575Y-13652475D01*
X64497598Y-13609059D01*
X64496480Y-13608596D01*
X64306420Y-13529870D01*
X64306412Y-13529868D01*
X64103469Y-13489500D01*
X64103465Y-13489500D01*
X63896535Y-13489500D01*
X63896530Y-13489500D01*
X63693587Y-13529868D01*
X63693579Y-13529870D01*
X63502403Y-13609058D01*
X63330342Y-13724024D01*
X63184024Y-13870342D01*
X63069058Y-14042403D01*
X62989870Y-14233579D01*
X62989868Y-14233587D01*
X62949500Y-14436530D01*
X62949500Y-14481911D01*
X62929815Y-14548950D01*
X62877011Y-14594705D01*
X62807853Y-14604649D01*
X62744297Y-14575624D01*
X62737819Y-14569592D01*
X51861819Y-3693592D01*
X51828334Y-3632269D01*
X51825500Y-3605911D01*
X51825500Y-2274238D01*
X51845185Y-2207199D01*
X51897989Y-2161444D01*
X51967147Y-2151500D01*
X51990049Y-2158762D01*
X51990417Y-2157631D01*
X51999698Y-2160647D01*
X52093475Y-2175499D01*
X52093481Y-2175500D01*
X52556518Y-2175499D01*
X52650304Y-2160646D01*
X52763342Y-2103050D01*
X52853050Y-2013342D01*
X52864212Y-1991434D01*
X52912183Y-1940640D01*
X52980003Y-1923843D01*
X53036697Y-1940342D01*
X53036983Y-1940507D01*
X53036985Y-1940509D01*
X53162515Y-2012984D01*
X53302525Y-2050500D01*
X53302528Y-2050500D01*
X53447472Y-2050500D01*
X53447475Y-2050500D01*
X53564950Y-2019022D01*
X53634798Y-2020685D01*
X53684723Y-2051116D01*
X53736652Y-2103045D01*
X53736654Y-2103046D01*
X53736658Y-2103050D01*
X53849095Y-2160340D01*
X53849698Y-2160647D01*
X53943475Y-2175499D01*
X53943481Y-2175500D01*
X54137301Y-2175499D01*
X54204340Y-2195183D01*
X54250095Y-2247987D01*
X54260039Y-2317145D01*
X54251866Y-2346942D01*
X54251358Y-2348166D01*
X54251356Y-2348175D01*
X54213840Y-2488185D01*
X54213840Y-2633135D01*
X54247327Y-2758108D01*
X54251357Y-2773148D01*
X54323828Y-2898671D01*
X54323830Y-2898673D01*
X54323831Y-2898675D01*
X54426325Y-3001169D01*
X54426326Y-3001170D01*
X54426328Y-3001171D01*
X54551851Y-3073642D01*
X54551852Y-3073642D01*
X54551855Y-3073644D01*
X54691865Y-3111160D01*
X54691868Y-3111160D01*
X54836812Y-3111160D01*
X54836815Y-3111160D01*
X54976825Y-3073644D01*
X55102355Y-3001169D01*
X55204849Y-2898675D01*
X55207714Y-2893713D01*
X65649500Y-2893713D01*
X65649500Y-3106287D01*
X65682754Y-3316243D01*
X65742840Y-3501169D01*
X65748444Y-3518414D01*
X65844951Y-3707820D01*
X65969890Y-3879786D01*
X66120213Y-4030109D01*
X66292179Y-4155048D01*
X66292181Y-4155049D01*
X66292184Y-4155051D01*
X66481588Y-4251557D01*
X66683757Y-4317246D01*
X66893713Y-4350500D01*
X66893714Y-4350500D01*
X67106286Y-4350500D01*
X67106287Y-4350500D01*
X67316243Y-4317246D01*
X67518412Y-4251557D01*
X67707816Y-4155051D01*
X67794397Y-4092147D01*
X67879786Y-4030109D01*
X67879788Y-4030106D01*
X67879792Y-4030104D01*
X68030104Y-3879792D01*
X68030106Y-3879788D01*
X68030109Y-3879786D01*
X68155048Y-3707820D01*
X68155047Y-3707820D01*
X68155051Y-3707816D01*
X68251557Y-3518412D01*
X68317246Y-3316243D01*
X68350500Y-3106287D01*
X68350500Y-2893713D01*
X68317246Y-2683757D01*
X68251557Y-2481588D01*
X68155051Y-2292184D01*
X68155049Y-2292181D01*
X68155048Y-2292179D01*
X68030109Y-2120213D01*
X67879786Y-1969890D01*
X67707820Y-1844951D01*
X67518414Y-1748444D01*
X67518413Y-1748443D01*
X67518412Y-1748443D01*
X67316243Y-1682754D01*
X67316241Y-1682753D01*
X67316240Y-1682753D01*
X67154957Y-1657208D01*
X67106287Y-1649500D01*
X66893713Y-1649500D01*
X66845042Y-1657208D01*
X66683760Y-1682753D01*
X66683757Y-1682754D01*
X66508275Y-1739772D01*
X66481585Y-1748444D01*
X66292179Y-1844951D01*
X66120213Y-1969890D01*
X65969890Y-2120213D01*
X65844951Y-2292179D01*
X65748444Y-2481585D01*
X65748443Y-2481587D01*
X65748443Y-2481588D01*
X65746299Y-2488187D01*
X65682753Y-2683760D01*
X65649500Y-2893713D01*
X55207714Y-2893713D01*
X55277324Y-2773145D01*
X55314840Y-2633135D01*
X55314840Y-2521847D01*
X55334525Y-2454808D01*
X55351159Y-2434166D01*
X55573507Y-2211818D01*
X55634830Y-2178333D01*
X55661188Y-2175499D01*
X56056517Y-2175499D01*
X56056518Y-2175499D01*
X56150304Y-2160646D01*
X56263342Y-2103050D01*
X56353050Y-2013342D01*
X56410646Y-1900304D01*
X56410646Y-1900302D01*
X56410647Y-1900301D01*
X56425499Y-1806524D01*
X56425500Y-1806519D01*
X56425499Y-1193482D01*
X56410646Y-1099696D01*
X56353050Y-986658D01*
X56353046Y-986654D01*
X56353045Y-986652D01*
X56263347Y-896954D01*
X56263344Y-896952D01*
X56263342Y-896950D01*
X56186517Y-857805D01*
X56150301Y-839352D01*
X56056524Y-824500D01*
X55593482Y-824500D01*
X55512519Y-837323D01*
X55499696Y-839354D01*
X55386658Y-896950D01*
X55386657Y-896951D01*
X55386652Y-896954D01*
X55296954Y-986652D01*
X55296951Y-986657D01*
X55296950Y-986658D01*
X55283349Y-1013352D01*
X55239352Y-1099698D01*
X55224500Y-1193475D01*
X55224500Y-1588810D01*
X55204815Y-1655849D01*
X55188181Y-1676491D01*
X54987180Y-1877491D01*
X54925857Y-1910976D01*
X54856165Y-1905992D01*
X54800232Y-1864120D01*
X54775815Y-1798656D01*
X54775499Y-1789837D01*
X54775499Y-1193482D01*
X54760646Y-1099696D01*
X54703050Y-986658D01*
X54703046Y-986654D01*
X54703045Y-986652D01*
X54613347Y-896954D01*
X54613344Y-896952D01*
X54613342Y-896950D01*
X54536517Y-857805D01*
X54500301Y-839352D01*
X54406524Y-824500D01*
X53943482Y-824500D01*
X53862519Y-837323D01*
X53849696Y-839354D01*
X53736658Y-896950D01*
X53736657Y-896951D01*
X53736652Y-896954D01*
X53684722Y-948884D01*
X53623399Y-982368D01*
X53564949Y-980977D01*
X53492754Y-961632D01*
X53447475Y-949500D01*
X53302525Y-949500D01*
X53173993Y-983940D01*
X53162511Y-987017D01*
X53061500Y-1045337D01*
X52993600Y-1061810D01*
X52927573Y-1038958D01*
X52884383Y-984037D01*
X52875500Y-937950D01*
X52875500Y-877527D01*
X52875500Y-877525D01*
X52837984Y-737515D01*
X52779373Y-635998D01*
X52762901Y-568101D01*
X52785753Y-502074D01*
X52840674Y-458883D01*
X52886761Y-450000D01*
X69426000Y-450000D01*
X69493039Y-469685D01*
X69538794Y-522489D01*
X69550000Y-574000D01*
X69550000Y-44426000D01*
X69530315Y-44493039D01*
X69477511Y-44538794D01*
X69426000Y-44550000D01*
X574000Y-44550000D01*
X506961Y-44530315D01*
X461206Y-44477511D01*
X450000Y-44426000D01*
X450000Y-41893713D01*
X1649500Y-41893713D01*
X1649500Y-42106287D01*
X1682754Y-42316243D01*
X1721657Y-42435975D01*
X1748444Y-42518414D01*
X1844951Y-42707820D01*
X1969890Y-42879786D01*
X2120213Y-43030109D01*
X2292179Y-43155048D01*
X2292181Y-43155049D01*
X2292184Y-43155051D01*
X2481588Y-43251557D01*
X2683757Y-43317246D01*
X2893713Y-43350500D01*
X2893714Y-43350500D01*
X3106286Y-43350500D01*
X3106287Y-43350500D01*
X3316243Y-43317246D01*
X3518412Y-43251557D01*
X3707816Y-43155051D01*
X3729789Y-43139086D01*
X3879786Y-43030109D01*
X3879788Y-43030106D01*
X3879792Y-43030104D01*
X4030104Y-42879792D01*
X4030106Y-42879788D01*
X4030109Y-42879786D01*
X4155048Y-42707820D01*
X4155047Y-42707820D01*
X4155051Y-42707816D01*
X4251557Y-42518412D01*
X4317246Y-42316243D01*
X4350500Y-42106287D01*
X4350500Y-41893713D01*
X4317246Y-41683757D01*
X4251557Y-41481588D01*
X4155051Y-41292184D01*
X4155049Y-41292181D01*
X4155048Y-41292179D01*
X4030109Y-41120213D01*
X3879786Y-40969890D01*
X3707820Y-40844951D01*
X3518414Y-40748444D01*
X3518413Y-40748443D01*
X3518412Y-40748443D01*
X3316243Y-40682754D01*
X3316241Y-40682753D01*
X3316240Y-40682753D01*
X3147661Y-40656053D01*
X3106287Y-40649500D01*
X2893713Y-40649500D01*
X2852339Y-40656053D01*
X2683760Y-40682753D01*
X2481585Y-40748444D01*
X2292179Y-40844951D01*
X2120213Y-40969890D01*
X1969890Y-41120213D01*
X1844951Y-41292179D01*
X1748444Y-41481585D01*
X1682753Y-41683760D01*
X1676464Y-41723468D01*
X1649500Y-41893713D01*
X450000Y-41893713D01*
X450000Y-2893713D01*
X1649500Y-2893713D01*
X1649500Y-3106287D01*
X1682754Y-3316243D01*
X1742840Y-3501169D01*
X1748444Y-3518414D01*
X1844951Y-3707820D01*
X1969890Y-3879786D01*
X2120213Y-4030109D01*
X2292179Y-4155048D01*
X2292181Y-4155049D01*
X2292184Y-4155051D01*
X2481588Y-4251557D01*
X2683757Y-4317246D01*
X2893713Y-4350500D01*
X2893714Y-4350500D01*
X3106286Y-4350500D01*
X3106287Y-4350500D01*
X3316243Y-4317246D01*
X3518412Y-4251557D01*
X3707816Y-4155051D01*
X3794397Y-4092147D01*
X3879786Y-4030109D01*
X3879788Y-4030106D01*
X3879792Y-4030104D01*
X4030104Y-3879792D01*
X4030106Y-3879788D01*
X4030109Y-3879786D01*
X4155048Y-3707820D01*
X4155047Y-3707820D01*
X4155051Y-3707816D01*
X4251557Y-3518412D01*
X4317246Y-3316243D01*
X4350500Y-3106287D01*
X4350500Y-2893713D01*
X4317246Y-2683757D01*
X4251557Y-2481588D01*
X4155051Y-2292184D01*
X4155049Y-2292181D01*
X4155048Y-2292179D01*
X4030109Y-2120213D01*
X3879786Y-1969890D01*
X3707820Y-1844951D01*
X3518414Y-1748444D01*
X3518413Y-1748443D01*
X3518412Y-1748443D01*
X3316243Y-1682754D01*
X3316241Y-1682753D01*
X3316240Y-1682753D01*
X3154957Y-1657208D01*
X3106287Y-1649500D01*
X2893713Y-1649500D01*
X2845042Y-1657208D01*
X2683760Y-1682753D01*
X2683757Y-1682754D01*
X2508275Y-1739772D01*
X2481585Y-1748444D01*
X2292179Y-1844951D01*
X2120213Y-1969890D01*
X1969890Y-2120213D01*
X1844951Y-2292179D01*
X1748444Y-2481585D01*
X1748443Y-2481587D01*
X1748443Y-2481588D01*
X1746299Y-2488187D01*
X1682753Y-2683760D01*
X1649500Y-2893713D01*
X450000Y-2893713D01*
X450000Y-574000D01*
X469685Y-506961D01*
X522489Y-461206D01*
X574000Y-450000D01*
X6967124Y-450000D01*
X7034163Y-469685D01*
G37*
%TD.AperFunction*%
%TA.AperFunction,Conductor*%
G36*
X24508620Y-26718487D02*
G01*
X24558613Y-26767298D01*
X24574500Y-26828023D01*
X24574500Y-27283493D01*
X24590279Y-27383121D01*
X24590280Y-27383124D01*
X24590281Y-27383126D01*
X24643187Y-27486959D01*
X24651473Y-27503221D01*
X24651476Y-27503225D01*
X24746774Y-27598523D01*
X24746778Y-27598526D01*
X24746780Y-27598528D01*
X24866874Y-27659719D01*
X24866876Y-27659719D01*
X24866878Y-27659720D01*
X24966507Y-27675500D01*
X24966512Y-27675500D01*
X25141324Y-27675500D01*
X25208363Y-27695185D01*
X25229005Y-27711819D01*
X29324500Y-31807314D01*
X29417686Y-31900500D01*
X29531814Y-31966392D01*
X29659108Y-32000500D01*
X34597390Y-32000500D01*
X34664429Y-32020185D01*
X34685066Y-32036814D01*
X34746780Y-32098528D01*
X34866874Y-32159719D01*
X34866876Y-32159719D01*
X34866878Y-32159720D01*
X34966507Y-32175500D01*
X34966512Y-32175500D01*
X35141324Y-32175500D01*
X35208363Y-32195185D01*
X35229005Y-32211819D01*
X35463181Y-32445995D01*
X35496666Y-32507318D01*
X35499500Y-32533676D01*
X35499500Y-33196081D01*
X35479815Y-33263120D01*
X35427011Y-33308875D01*
X35422957Y-33310640D01*
X35421771Y-33311131D01*
X35355447Y-33355447D01*
X35311132Y-33421769D01*
X35311131Y-33421770D01*
X35299500Y-33480247D01*
X35299500Y-34519752D01*
X35311131Y-34578229D01*
X35311132Y-34578230D01*
X35355447Y-34644552D01*
X35421769Y-34688867D01*
X35421770Y-34688868D01*
X35480247Y-34700499D01*
X35480250Y-34700500D01*
X35480252Y-34700500D01*
X36519748Y-34700500D01*
X36558623Y-34692767D01*
X36628212Y-34698993D01*
X36683390Y-34741855D01*
X36706636Y-34807744D01*
X36690569Y-34875742D01*
X36685917Y-34883274D01*
X36649227Y-34938184D01*
X36649221Y-34938195D01*
X36596421Y-35065667D01*
X36596418Y-35065677D01*
X36569500Y-35201004D01*
X36569500Y-35201005D01*
X36569500Y-35201007D01*
X36569500Y-35338993D01*
X36569500Y-35338995D01*
X36569499Y-35338995D01*
X36596418Y-35474322D01*
X36596421Y-35474332D01*
X36649221Y-35601804D01*
X36649228Y-35601817D01*
X36725885Y-35716541D01*
X36725888Y-35716545D01*
X36826662Y-35817319D01*
X36860147Y-35878642D01*
X36855163Y-35948334D01*
X36826662Y-35992681D01*
X36725888Y-36093454D01*
X36725885Y-36093458D01*
X36649228Y-36208182D01*
X36649221Y-36208195D01*
X36596421Y-36335667D01*
X36596418Y-36335677D01*
X36569500Y-36471004D01*
X36569500Y-36471007D01*
X36569500Y-36608993D01*
X36569500Y-36608995D01*
X36569499Y-36608995D01*
X36596418Y-36744322D01*
X36596421Y-36744332D01*
X36649221Y-36871804D01*
X36649228Y-36871817D01*
X36725885Y-36986541D01*
X36725888Y-36986545D01*
X36826662Y-37087319D01*
X36831000Y-37095264D01*
X36838248Y-37100690D01*
X36847482Y-37125449D01*
X36860147Y-37148642D01*
X36859501Y-37157671D01*
X36862665Y-37166154D01*
X36857048Y-37191974D01*
X36855163Y-37218334D01*
X36849344Y-37227387D01*
X36847813Y-37234427D01*
X36826662Y-37262681D01*
X36722681Y-37366662D01*
X36661358Y-37400147D01*
X36591666Y-37395163D01*
X36547319Y-37366662D01*
X36446545Y-37265888D01*
X36446541Y-37265885D01*
X36331817Y-37189228D01*
X36331804Y-37189221D01*
X36204332Y-37136421D01*
X36204322Y-37136418D01*
X36068995Y-37109500D01*
X36068993Y-37109500D01*
X35931007Y-37109500D01*
X35931005Y-37109500D01*
X35795677Y-37136418D01*
X35795667Y-37136421D01*
X35668195Y-37189221D01*
X35668182Y-37189228D01*
X35553458Y-37265885D01*
X35553454Y-37265888D01*
X35455888Y-37363454D01*
X35455885Y-37363458D01*
X35379228Y-37478182D01*
X35379221Y-37478195D01*
X35326421Y-37605667D01*
X35326418Y-37605677D01*
X35299500Y-37741004D01*
X35299500Y-37741007D01*
X35299500Y-37878993D01*
X35299500Y-37878995D01*
X35299499Y-37878995D01*
X35326418Y-38014322D01*
X35326421Y-38014332D01*
X35379221Y-38141804D01*
X35379228Y-38141817D01*
X35455885Y-38256541D01*
X35455888Y-38256545D01*
X35553454Y-38354111D01*
X35553458Y-38354114D01*
X35668182Y-38430771D01*
X35668195Y-38430778D01*
X35766165Y-38471358D01*
X35795672Y-38483580D01*
X35795676Y-38483580D01*
X35795677Y-38483581D01*
X35931004Y-38510500D01*
X35931007Y-38510500D01*
X36068995Y-38510500D01*
X36180428Y-38488334D01*
X36204328Y-38483580D01*
X36331811Y-38430775D01*
X36446542Y-38354114D01*
X36446545Y-38354111D01*
X36547319Y-38253338D01*
X36555264Y-38248999D01*
X36560690Y-38241752D01*
X36585449Y-38232517D01*
X36608642Y-38219853D01*
X36617671Y-38220498D01*
X36626154Y-38217335D01*
X36651974Y-38222951D01*
X36678334Y-38224837D01*
X36687387Y-38230655D01*
X36694427Y-38232187D01*
X36722681Y-38253338D01*
X36826662Y-38357319D01*
X36860147Y-38418642D01*
X36855163Y-38488334D01*
X36826662Y-38532681D01*
X36725888Y-38633454D01*
X36725885Y-38633458D01*
X36649228Y-38748182D01*
X36649221Y-38748195D01*
X36596421Y-38875667D01*
X36596418Y-38875677D01*
X36569500Y-39011004D01*
X36569500Y-39148997D01*
X36584969Y-39226766D01*
X36578742Y-39296358D01*
X36551033Y-39338638D01*
X36321590Y-39568082D01*
X36260270Y-39601566D01*
X36233911Y-39604400D01*
X33565588Y-39604400D01*
X33498549Y-39584715D01*
X33477907Y-39568081D01*
X23651743Y-29741917D01*
X23618258Y-29680594D01*
X23623242Y-29610902D01*
X23665114Y-29554969D01*
X23707326Y-29534462D01*
X23787485Y-29512984D01*
X23913015Y-29440509D01*
X24015509Y-29338015D01*
X24087984Y-29212485D01*
X24125500Y-29072475D01*
X24125500Y-28927525D01*
X24087984Y-28787515D01*
X24054627Y-28729740D01*
X24015511Y-28661988D01*
X24015506Y-28661982D01*
X23913017Y-28559493D01*
X23913011Y-28559488D01*
X23787488Y-28487017D01*
X23787489Y-28487017D01*
X23776006Y-28483940D01*
X23647475Y-28449500D01*
X23502525Y-28449500D01*
X23500833Y-28449500D01*
X23471392Y-28440855D01*
X23441406Y-28434332D01*
X23436390Y-28430577D01*
X23433794Y-28429815D01*
X23413152Y-28413181D01*
X23349916Y-28349945D01*
X23322226Y-28307713D01*
X23317919Y-28296780D01*
X23221717Y-28052575D01*
X23215461Y-27982989D01*
X23229701Y-27945131D01*
X23262984Y-27887485D01*
X23300500Y-27747475D01*
X23300500Y-27602525D01*
X23300499Y-27602524D01*
X23299439Y-27594468D01*
X23301928Y-27594140D01*
X23303286Y-27536896D01*
X23333719Y-27486961D01*
X23940970Y-26879712D01*
X24002293Y-26846227D01*
X24028651Y-26843393D01*
X24104579Y-26843393D01*
X24104582Y-26843393D01*
X24244592Y-26805877D01*
X24370122Y-26733402D01*
X24370125Y-26733398D01*
X24375007Y-26729653D01*
X24440174Y-26704454D01*
X24508620Y-26718487D01*
G37*
%TD.AperFunction*%
%TA.AperFunction,Conductor*%
G36*
X16033363Y-18520185D02*
G01*
X16054005Y-18536819D01*
X17288181Y-19770995D01*
X17321666Y-19832318D01*
X17324500Y-19858676D01*
X17324500Y-20033493D01*
X17340279Y-20133121D01*
X17340280Y-20133124D01*
X17340281Y-20133126D01*
X17397029Y-20244500D01*
X17401473Y-20253221D01*
X17401476Y-20253225D01*
X17463181Y-20314930D01*
X17496666Y-20376253D01*
X17499500Y-20402611D01*
X17499500Y-21082745D01*
X17479815Y-21149784D01*
X17463181Y-21170426D01*
X17396954Y-21236652D01*
X17396951Y-21236657D01*
X17396950Y-21236658D01*
X17377751Y-21274337D01*
X17339352Y-21349698D01*
X17324500Y-21443475D01*
X17324500Y-21591323D01*
X17304815Y-21658362D01*
X17288181Y-21679004D01*
X15290286Y-23676900D01*
X15197102Y-23770083D01*
X15197100Y-23770086D01*
X15131208Y-23884212D01*
X15097100Y-24011508D01*
X15097100Y-26794214D01*
X15077415Y-26861253D01*
X15024611Y-26907008D01*
X14955453Y-26916952D01*
X14891897Y-26887927D01*
X14885419Y-26881895D01*
X14813017Y-26809493D01*
X14813011Y-26809488D01*
X14687488Y-26737017D01*
X14687489Y-26737017D01*
X14676006Y-26733940D01*
X14547475Y-26699500D01*
X14402525Y-26699500D01*
X14400833Y-26699500D01*
X14333794Y-26679815D01*
X14313152Y-26663181D01*
X13909512Y-26259541D01*
X13909504Y-26259535D01*
X13872299Y-26238055D01*
X13872295Y-26238054D01*
X13851132Y-26225835D01*
X13840990Y-26219979D01*
X13840991Y-26219979D01*
X13802775Y-26209739D01*
X13764562Y-26199500D01*
X13764560Y-26199500D01*
X13650833Y-26199500D01*
X13583794Y-26179815D01*
X13563152Y-26163181D01*
X13194331Y-25794360D01*
X13174605Y-25771914D01*
X13166445Y-25766474D01*
X13159511Y-25759540D01*
X13137095Y-25746598D01*
X13130312Y-25742385D01*
X12930717Y-25609321D01*
X12885856Y-25555756D01*
X12875500Y-25506147D01*
X12875500Y-25216506D01*
X12859720Y-25116878D01*
X12859719Y-25116876D01*
X12859719Y-25116874D01*
X12798528Y-24996780D01*
X12798526Y-24996778D01*
X12798523Y-24996774D01*
X12703225Y-24901476D01*
X12703221Y-24901473D01*
X12703220Y-24901472D01*
X12583126Y-24840281D01*
X12583124Y-24840280D01*
X12583121Y-24840279D01*
X12483493Y-24824500D01*
X12483488Y-24824500D01*
X11966512Y-24824500D01*
X11966507Y-24824500D01*
X11866878Y-24840279D01*
X11746778Y-24901473D01*
X11746774Y-24901476D01*
X11651476Y-24996774D01*
X11651473Y-24996778D01*
X11590279Y-25116878D01*
X11574500Y-25216506D01*
X11574500Y-25783493D01*
X11590279Y-25883121D01*
X11590280Y-25883124D01*
X11590281Y-25883126D01*
X11651472Y-26003220D01*
X11651473Y-26003221D01*
X11651476Y-26003225D01*
X11746774Y-26098523D01*
X11746778Y-26098526D01*
X11746780Y-26098528D01*
X11866874Y-26159719D01*
X11866876Y-26159719D01*
X11866878Y-26159720D01*
X11966507Y-26175500D01*
X11966512Y-26175500D01*
X12483493Y-26175500D01*
X12583121Y-26159720D01*
X12583122Y-26159719D01*
X12583126Y-26159719D01*
X12583129Y-26159717D01*
X12586310Y-26158684D01*
X12589227Y-26158600D01*
X12591709Y-26157064D01*
X12623932Y-26157605D01*
X12656151Y-26156682D01*
X12659536Y-26158203D01*
X12661568Y-26158238D01*
X12693420Y-26173436D01*
X12767238Y-26222648D01*
X12773340Y-26226716D01*
X12792238Y-26242209D01*
X12984540Y-26434511D01*
X13234540Y-26684511D01*
X13290489Y-26740460D01*
X13290491Y-26740461D01*
X13290495Y-26740464D01*
X13336974Y-26767298D01*
X13359011Y-26780021D01*
X13435438Y-26800500D01*
X13549167Y-26800500D01*
X13616206Y-26820185D01*
X13636848Y-26836819D01*
X13888181Y-27088152D01*
X13921666Y-27149475D01*
X13924500Y-27175833D01*
X13924500Y-27177525D01*
X13924500Y-27322475D01*
X13952511Y-27427011D01*
X13962017Y-27462488D01*
X14034488Y-27588011D01*
X14034490Y-27588013D01*
X14034491Y-27588015D01*
X14136985Y-27690509D01*
X14136986Y-27690510D01*
X14136988Y-27690511D01*
X14262511Y-27762982D01*
X14262512Y-27762982D01*
X14262515Y-27762984D01*
X14402525Y-27800500D01*
X14402528Y-27800500D01*
X14547472Y-27800500D01*
X14547475Y-27800500D01*
X14687485Y-27762984D01*
X14813015Y-27690509D01*
X14885419Y-27618105D01*
X14946742Y-27584620D01*
X15016434Y-27589604D01*
X15072367Y-27631476D01*
X15096784Y-27696940D01*
X15097100Y-27705786D01*
X15097100Y-34463024D01*
X15077415Y-34530063D01*
X15060781Y-34550705D01*
X13135705Y-36475781D01*
X13074382Y-36509266D01*
X13048024Y-36512100D01*
X12496276Y-36512100D01*
X12429237Y-36492415D01*
X12408595Y-36475781D01*
X11911819Y-35979005D01*
X11878334Y-35917682D01*
X11875500Y-35891324D01*
X11875500Y-35716506D01*
X11859720Y-35616878D01*
X11859719Y-35616876D01*
X11859719Y-35616874D01*
X11798528Y-35496780D01*
X11798526Y-35496778D01*
X11798523Y-35496774D01*
X11703225Y-35401476D01*
X11703221Y-35401473D01*
X11703220Y-35401472D01*
X11583126Y-35340281D01*
X11583124Y-35340280D01*
X11583121Y-35340279D01*
X11483493Y-35324500D01*
X11483488Y-35324500D01*
X10966512Y-35324500D01*
X10966507Y-35324500D01*
X10857236Y-35341807D01*
X10856969Y-35340125D01*
X10798498Y-35341787D01*
X10742360Y-35309547D01*
X10039950Y-34607137D01*
X10006465Y-34545814D01*
X10011449Y-34476122D01*
X10053321Y-34420189D01*
X10118785Y-34395772D01*
X10182091Y-34408056D01*
X10248604Y-34440572D01*
X10248607Y-34440573D01*
X10316739Y-34450500D01*
X10316740Y-34450500D01*
X11618290Y-34450500D01*
X11618292Y-34450500D01*
X11745586Y-34416392D01*
X11859714Y-34350500D01*
X12074626Y-34135587D01*
X12135947Y-34102104D01*
X12205638Y-34107088D01*
X12261572Y-34148959D01*
X12279762Y-34192755D01*
X12281584Y-34192193D01*
X12284425Y-34201390D01*
X12335803Y-34306485D01*
X12418514Y-34389196D01*
X12418515Y-34389196D01*
X12418517Y-34389198D01*
X12523607Y-34440573D01*
X12534932Y-34442223D01*
X12591739Y-34450500D01*
X12591740Y-34450500D01*
X13683261Y-34450500D01*
X13710425Y-34446542D01*
X13751393Y-34440573D01*
X13856483Y-34389198D01*
X13939198Y-34306483D01*
X13990573Y-34201393D01*
X14000500Y-34133260D01*
X14000500Y-33766740D01*
X13990573Y-33698607D01*
X13939198Y-33593517D01*
X13939196Y-33593515D01*
X13939196Y-33593514D01*
X13936746Y-33591064D01*
X13934465Y-33586888D01*
X13933227Y-33585153D01*
X13933436Y-33585003D01*
X13903261Y-33529741D01*
X13908245Y-33460049D01*
X13950117Y-33404116D01*
X13992330Y-33383610D01*
X14088686Y-33357792D01*
X14202814Y-33291900D01*
X14748600Y-32746114D01*
X14814492Y-32631986D01*
X14848600Y-32504692D01*
X14848600Y-32372908D01*
X14848600Y-29964108D01*
X14814492Y-29836814D01*
X14748600Y-29722686D01*
X14655414Y-29629500D01*
X13625414Y-28599500D01*
X13556117Y-28559491D01*
X13511287Y-28533608D01*
X13429546Y-28511706D01*
X13383992Y-28499500D01*
X13383991Y-28499500D01*
X11483676Y-28499500D01*
X11416637Y-28479815D01*
X11395995Y-28463181D01*
X10532316Y-27599502D01*
X10532314Y-27599500D01*
X10475250Y-27566554D01*
X10418187Y-27533608D01*
X10342570Y-27513347D01*
X10290892Y-27499500D01*
X10290891Y-27499500D01*
X6174500Y-27499500D01*
X6107461Y-27479815D01*
X6061706Y-27427011D01*
X6050500Y-27375500D01*
X6050500Y-27130249D01*
X6050499Y-27130247D01*
X6038868Y-27071770D01*
X6038867Y-27071769D01*
X5994552Y-27005447D01*
X5928230Y-26961132D01*
X5928229Y-26961131D01*
X5869752Y-26949500D01*
X5869748Y-26949500D01*
X4272800Y-26949500D01*
X4205761Y-26929815D01*
X4160006Y-26877011D01*
X4148800Y-26825500D01*
X4148800Y-24006660D01*
X4168485Y-23939621D01*
X4221289Y-23893866D01*
X4290447Y-23883922D01*
X4341690Y-23903558D01*
X4502400Y-24010940D01*
X4502401Y-24010940D01*
X4502402Y-24010941D01*
X4693580Y-24090130D01*
X4896530Y-24130499D01*
X4896534Y-24130500D01*
X4896535Y-24130500D01*
X5103466Y-24130500D01*
X5103467Y-24130499D01*
X5306420Y-24090130D01*
X5497598Y-24010941D01*
X5669655Y-23895977D01*
X5815977Y-23749655D01*
X5930941Y-23577598D01*
X6010130Y-23386420D01*
X6050500Y-23183465D01*
X6050500Y-22976535D01*
X6010130Y-22773580D01*
X5930941Y-22582402D01*
X5815977Y-22410345D01*
X5815975Y-22410342D01*
X5669657Y-22264024D01*
X5574656Y-22200547D01*
X5497598Y-22149059D01*
X5494720Y-22147867D01*
X5306420Y-22069870D01*
X5306412Y-22069868D01*
X5103469Y-22029500D01*
X5103465Y-22029500D01*
X4896535Y-22029500D01*
X4896530Y-22029500D01*
X4693587Y-22069868D01*
X4693579Y-22069870D01*
X4502403Y-22149058D01*
X4341690Y-22256442D01*
X4275012Y-22277319D01*
X4207632Y-22258834D01*
X4160943Y-22206855D01*
X4148800Y-22153339D01*
X4148800Y-19174500D01*
X4168485Y-19107461D01*
X4221289Y-19061706D01*
X4272800Y-19050500D01*
X5869750Y-19050500D01*
X5869751Y-19050499D01*
X5885549Y-19047357D01*
X5928229Y-19038868D01*
X5928229Y-19038867D01*
X5928231Y-19038867D01*
X5994552Y-18994552D01*
X6038867Y-18928231D01*
X6038867Y-18928229D01*
X6038868Y-18928229D01*
X6047552Y-18884568D01*
X6050500Y-18869748D01*
X6050500Y-18624500D01*
X6070185Y-18557461D01*
X6122989Y-18511706D01*
X6174500Y-18500500D01*
X15966324Y-18500500D01*
X16033363Y-18520185D01*
G37*
%TD.AperFunction*%
%TA.AperFunction,Conductor*%
G36*
X10316740Y-32550500D02*
G01*
X10796608Y-32550500D01*
X11266324Y-32550500D01*
X11295764Y-32559144D01*
X11325751Y-32565668D01*
X11330766Y-32569422D01*
X11333363Y-32570185D01*
X11354005Y-32586819D01*
X11503681Y-32736495D01*
X11537166Y-32797818D01*
X11540000Y-32824176D01*
X11540000Y-33203224D01*
X11520315Y-33270263D01*
X11503681Y-33290905D01*
X11381405Y-33413181D01*
X11320082Y-33446666D01*
X11293724Y-33449500D01*
X10316739Y-33449500D01*
X10248608Y-33459426D01*
X10143514Y-33510803D01*
X10060803Y-33593514D01*
X10009426Y-33698608D01*
X9999500Y-33766739D01*
X9999500Y-34133260D01*
X10009426Y-34201391D01*
X10009427Y-34201393D01*
X10034763Y-34253220D01*
X10041944Y-34267908D01*
X10053702Y-34336781D01*
X10026359Y-34401078D01*
X9968595Y-34440385D01*
X9898749Y-34442223D01*
X9842862Y-34410049D01*
X9295494Y-33862681D01*
X9262009Y-33801358D01*
X9266993Y-33731666D01*
X9295494Y-33687319D01*
X9625022Y-33357792D01*
X10017500Y-32965314D01*
X10020315Y-32960438D01*
X10083392Y-32851186D01*
X10117500Y-32723892D01*
X10117500Y-32664846D01*
X10137185Y-32597807D01*
X10189989Y-32552052D01*
X10259144Y-32542108D01*
X10316740Y-32550500D01*
G37*
%TD.AperFunction*%
%TA.AperFunction,Conductor*%
G36*
X36945550Y-30875985D02*
G01*
X36966192Y-30892619D01*
X37229881Y-31156307D01*
X37263366Y-31217630D01*
X37266200Y-31243988D01*
X37266200Y-33184767D01*
X37246515Y-33251806D01*
X37193711Y-33297561D01*
X37166393Y-33306384D01*
X37065676Y-33326419D01*
X37065667Y-33326421D01*
X36938195Y-33379221D01*
X36938177Y-33379231D01*
X36849270Y-33438637D01*
X36782593Y-33459515D01*
X36715213Y-33441030D01*
X36697703Y-33427950D01*
X36686003Y-33417483D01*
X36644552Y-33355448D01*
X36578231Y-33311133D01*
X36563951Y-33308292D01*
X36541823Y-33288496D01*
X36534077Y-33276014D01*
X36522641Y-33266797D01*
X36516027Y-33246925D01*
X36504984Y-33229127D01*
X36505216Y-33214438D01*
X36500579Y-33200502D01*
X36500500Y-33196081D01*
X36500500Y-32209110D01*
X36500500Y-32209108D01*
X36466392Y-32081814D01*
X36400500Y-31967686D01*
X36307314Y-31874500D01*
X35911819Y-31479005D01*
X35878334Y-31417682D01*
X35875500Y-31391324D01*
X35875500Y-31216506D01*
X35859720Y-31116878D01*
X35859719Y-31116876D01*
X35859719Y-31116874D01*
X35818813Y-31036592D01*
X35805918Y-30967926D01*
X35832194Y-30903185D01*
X35889301Y-30862928D01*
X35929299Y-30856300D01*
X36878511Y-30856300D01*
X36945550Y-30875985D01*
G37*
%TD.AperFunction*%
%TA.AperFunction,Conductor*%
G36*
X13126463Y-29520185D02*
G01*
X13147105Y-29536819D01*
X13811281Y-30200995D01*
X13844766Y-30262318D01*
X13847600Y-30288676D01*
X13847600Y-31430068D01*
X13827915Y-31497107D01*
X13775111Y-31542862D01*
X13705953Y-31552806D01*
X13705725Y-31552773D01*
X13699767Y-31551905D01*
X13683260Y-31549500D01*
X13683257Y-31549500D01*
X13396176Y-31549500D01*
X13329137Y-31529815D01*
X13308495Y-31513181D01*
X12582116Y-30786802D01*
X12582114Y-30786800D01*
X12507695Y-30743834D01*
X12467987Y-30720908D01*
X12404339Y-30703854D01*
X12340692Y-30686800D01*
X11907339Y-30686800D01*
X11840300Y-30667115D01*
X11794545Y-30614311D01*
X11784601Y-30545153D01*
X11796854Y-30506506D01*
X11850967Y-30400302D01*
X11859719Y-30383126D01*
X11859719Y-30383124D01*
X11859720Y-30383123D01*
X11875500Y-30283493D01*
X11875500Y-29716506D01*
X11864000Y-29643898D01*
X11872955Y-29574604D01*
X11917951Y-29521152D01*
X11984702Y-29500513D01*
X11986473Y-29500500D01*
X13059424Y-29500500D01*
X13126463Y-29520185D01*
G37*
%TD.AperFunction*%
%TA.AperFunction,Conductor*%
G36*
X30795203Y-23674475D02*
G01*
X30801681Y-23680507D01*
X31085581Y-23964407D01*
X31119066Y-24025730D01*
X31121900Y-24052088D01*
X31121900Y-25995547D01*
X31121900Y-26081253D01*
X31126528Y-26098526D01*
X31144082Y-26164040D01*
X31153190Y-26179815D01*
X31186935Y-26238262D01*
X31186937Y-26238264D01*
X35561492Y-30612819D01*
X35594977Y-30674142D01*
X35589993Y-30743834D01*
X35548121Y-30799767D01*
X35482657Y-30824184D01*
X35473811Y-30824500D01*
X34966507Y-30824500D01*
X34866878Y-30840279D01*
X34746778Y-30901473D01*
X34715925Y-30932327D01*
X34685069Y-30963182D01*
X34623749Y-30996666D01*
X34597390Y-30999500D01*
X29983676Y-30999500D01*
X29916637Y-30979815D01*
X29895995Y-30963181D01*
X25911819Y-26979005D01*
X25878334Y-26917682D01*
X25875500Y-26891324D01*
X25875500Y-26716506D01*
X25859720Y-26616878D01*
X25859719Y-26616876D01*
X25859719Y-26616874D01*
X25798528Y-26496780D01*
X25798526Y-26496778D01*
X25798523Y-26496774D01*
X25703225Y-26401476D01*
X25703221Y-26401473D01*
X25703220Y-26401472D01*
X25583126Y-26340281D01*
X25583124Y-26340280D01*
X25583121Y-26340279D01*
X25483493Y-26324500D01*
X25483488Y-26324500D01*
X24966512Y-26324500D01*
X24966507Y-26324500D01*
X24866878Y-26340279D01*
X24866874Y-26340280D01*
X24866874Y-26340281D01*
X24762900Y-26393258D01*
X24694232Y-26406154D01*
X24629492Y-26379878D01*
X24589235Y-26322771D01*
X24582607Y-26282773D01*
X24582607Y-26220420D01*
X24582607Y-26220418D01*
X24545091Y-26080408D01*
X24514618Y-26027628D01*
X24472618Y-25954881D01*
X24472613Y-25954875D01*
X24364375Y-25846637D01*
X24366407Y-25844604D01*
X24333392Y-25799378D01*
X24329245Y-25729632D01*
X24363465Y-25668715D01*
X24406173Y-25641480D01*
X24415793Y-25637836D01*
X24432495Y-25634515D01*
X24442866Y-25627585D01*
X24456086Y-25622579D01*
X24477391Y-25620948D01*
X24497782Y-25614563D01*
X24511534Y-25618335D01*
X24525752Y-25617247D01*
X24544554Y-25627392D01*
X24555943Y-25630516D01*
X24556223Y-25629842D01*
X24561590Y-25632065D01*
X24565162Y-25633045D01*
X24567351Y-25634451D01*
X24567506Y-25634516D01*
X24617064Y-25644373D01*
X24647867Y-25650500D01*
X24852132Y-25650499D01*
X24932495Y-25634515D01*
X24932498Y-25634512D01*
X24943778Y-25629841D01*
X24944376Y-25631286D01*
X24997782Y-25614563D01*
X25055943Y-25630516D01*
X25056223Y-25629842D01*
X25061590Y-25632065D01*
X25065162Y-25633045D01*
X25067351Y-25634451D01*
X25067506Y-25634516D01*
X25117064Y-25644373D01*
X25147867Y-25650500D01*
X25352132Y-25650499D01*
X25432495Y-25634515D01*
X25432498Y-25634512D01*
X25443778Y-25629841D01*
X25444376Y-25631286D01*
X25497782Y-25614563D01*
X25555943Y-25630516D01*
X25556223Y-25629842D01*
X25561590Y-25632065D01*
X25565162Y-25633045D01*
X25567351Y-25634451D01*
X25567506Y-25634516D01*
X25617064Y-25644373D01*
X25647867Y-25650500D01*
X25852132Y-25650499D01*
X25932495Y-25634515D01*
X25932498Y-25634512D01*
X25943778Y-25629841D01*
X25944376Y-25631286D01*
X25997782Y-25614563D01*
X26055943Y-25630516D01*
X26056223Y-25629842D01*
X26061590Y-25632065D01*
X26065162Y-25633045D01*
X26067351Y-25634451D01*
X26067506Y-25634516D01*
X26117064Y-25644373D01*
X26147867Y-25650500D01*
X26352132Y-25650499D01*
X26432495Y-25634515D01*
X26432498Y-25634512D01*
X26443778Y-25629841D01*
X26444376Y-25631286D01*
X26497782Y-25614563D01*
X26555943Y-25630516D01*
X26556223Y-25629842D01*
X26561590Y-25632065D01*
X26565162Y-25633045D01*
X26567351Y-25634451D01*
X26567506Y-25634516D01*
X26617064Y-25644373D01*
X26647867Y-25650500D01*
X26852132Y-25650499D01*
X26932495Y-25634515D01*
X26932498Y-25634512D01*
X26943778Y-25629841D01*
X26944376Y-25631286D01*
X26997782Y-25614563D01*
X27055943Y-25630516D01*
X27056223Y-25629842D01*
X27061590Y-25632065D01*
X27065162Y-25633045D01*
X27067351Y-25634451D01*
X27067506Y-25634516D01*
X27117064Y-25644373D01*
X27147867Y-25650500D01*
X27352132Y-25650499D01*
X27432495Y-25634515D01*
X27432498Y-25634512D01*
X27443778Y-25629841D01*
X27444376Y-25631286D01*
X27497782Y-25614563D01*
X27555943Y-25630516D01*
X27556223Y-25629842D01*
X27561590Y-25632065D01*
X27565162Y-25633045D01*
X27567351Y-25634451D01*
X27567506Y-25634516D01*
X27617064Y-25644373D01*
X27647867Y-25650500D01*
X27852132Y-25650499D01*
X27932495Y-25634515D01*
X27932498Y-25634512D01*
X27943778Y-25629841D01*
X27944376Y-25631286D01*
X27997782Y-25614563D01*
X28055943Y-25630516D01*
X28056223Y-25629842D01*
X28061590Y-25632065D01*
X28065162Y-25633045D01*
X28067351Y-25634451D01*
X28067506Y-25634516D01*
X28117064Y-25644373D01*
X28147867Y-25650500D01*
X28352132Y-25650499D01*
X28432495Y-25634515D01*
X28432498Y-25634512D01*
X28443778Y-25629841D01*
X28444376Y-25631286D01*
X28497782Y-25614563D01*
X28555943Y-25630516D01*
X28556223Y-25629842D01*
X28561590Y-25632065D01*
X28565162Y-25633045D01*
X28567351Y-25634451D01*
X28567506Y-25634516D01*
X28617064Y-25644373D01*
X28647867Y-25650500D01*
X28852132Y-25650499D01*
X28932495Y-25634515D01*
X28932498Y-25634512D01*
X28943778Y-25629841D01*
X28944376Y-25631286D01*
X28997782Y-25614563D01*
X29055943Y-25630516D01*
X29056223Y-25629842D01*
X29061590Y-25632065D01*
X29065162Y-25633045D01*
X29067351Y-25634451D01*
X29067506Y-25634516D01*
X29117064Y-25644373D01*
X29147867Y-25650500D01*
X29352132Y-25650499D01*
X29382929Y-25644373D01*
X29452518Y-25650599D01*
X29507696Y-25693462D01*
X29530941Y-25759351D01*
X29514874Y-25827348D01*
X29494800Y-25853671D01*
X29052589Y-26295882D01*
X28991266Y-26329367D01*
X28945512Y-26330675D01*
X28906520Y-26324500D01*
X28443482Y-26324500D01*
X28362519Y-26337323D01*
X28349696Y-26339354D01*
X28236658Y-26396950D01*
X28236657Y-26396951D01*
X28236652Y-26396954D01*
X28146954Y-26486652D01*
X28146951Y-26486657D01*
X28089352Y-26599698D01*
X28074500Y-26693475D01*
X28074500Y-27306517D01*
X28085292Y-27374657D01*
X28089354Y-27400304D01*
X28146950Y-27513342D01*
X28146952Y-27513344D01*
X28146954Y-27513347D01*
X28236652Y-27603045D01*
X28236654Y-27603046D01*
X28236658Y-27603050D01*
X28347877Y-27659719D01*
X28349698Y-27660647D01*
X28443475Y-27675499D01*
X28443481Y-27675500D01*
X28906518Y-27675499D01*
X29000304Y-27660646D01*
X29113342Y-27603050D01*
X29203050Y-27513342D01*
X29260646Y-27400304D01*
X29260646Y-27400302D01*
X29260647Y-27400301D01*
X29275499Y-27306524D01*
X29275500Y-27306519D01*
X29275499Y-27044987D01*
X29295183Y-26977949D01*
X29311813Y-26957311D01*
X30464359Y-25804766D01*
X30464362Y-25804765D01*
X30524965Y-25744162D01*
X30546391Y-25707050D01*
X30567818Y-25669939D01*
X30590001Y-25587153D01*
X30590001Y-25501447D01*
X30590001Y-25493852D01*
X30590000Y-25493834D01*
X30590000Y-23768188D01*
X30609685Y-23701149D01*
X30662489Y-23655394D01*
X30731647Y-23645450D01*
X30795203Y-23674475D01*
G37*
%TD.AperFunction*%
%TA.AperFunction,Conductor*%
G36*
X32615662Y-23082709D02*
G01*
X32662354Y-23134686D01*
X32674500Y-23188208D01*
X32674500Y-23593252D01*
X32696682Y-23676040D01*
X32709123Y-23697588D01*
X32739535Y-23750262D01*
X33659534Y-24670261D01*
X33659535Y-24670262D01*
X33720138Y-24730865D01*
X33720140Y-24730866D01*
X33720144Y-24730869D01*
X33778415Y-24764511D01*
X33794362Y-24773718D01*
X33870087Y-24794008D01*
X33925674Y-24826101D01*
X35832975Y-26733402D01*
X37739581Y-28640007D01*
X37773066Y-28701330D01*
X37775900Y-28727688D01*
X37775900Y-30482311D01*
X37756215Y-30549350D01*
X37703411Y-30595105D01*
X37634253Y-30605049D01*
X37570697Y-30576024D01*
X37564219Y-30569992D01*
X37264564Y-30270337D01*
X37264562Y-30270335D01*
X37227450Y-30248908D01*
X37190340Y-30227482D01*
X37148946Y-30216391D01*
X37107553Y-30205300D01*
X37107552Y-30205300D01*
X36125989Y-30205300D01*
X36058950Y-30185615D01*
X36038308Y-30168981D01*
X32256508Y-26387181D01*
X32223023Y-26325858D01*
X32228007Y-26256166D01*
X32269879Y-26200233D01*
X32335343Y-26175816D01*
X32344189Y-26175500D01*
X32483493Y-26175500D01*
X32583121Y-26159720D01*
X32583121Y-26159719D01*
X32583126Y-26159719D01*
X32703220Y-26098528D01*
X32798528Y-26003220D01*
X32859719Y-25883126D01*
X32860350Y-25879142D01*
X32875500Y-25783493D01*
X32875500Y-25216506D01*
X32859720Y-25116878D01*
X32859719Y-25116876D01*
X32859719Y-25116874D01*
X32798528Y-24996780D01*
X32798526Y-24996778D01*
X32798523Y-24996774D01*
X32723366Y-24921617D01*
X32689881Y-24860294D01*
X32694865Y-24790602D01*
X32703660Y-24771935D01*
X32703723Y-24771826D01*
X32737984Y-24712485D01*
X32775500Y-24572475D01*
X32775500Y-24427525D01*
X32737984Y-24287515D01*
X32715397Y-24248394D01*
X32665511Y-24161988D01*
X32665506Y-24161982D01*
X32563017Y-24059493D01*
X32563011Y-24059488D01*
X32437488Y-23987017D01*
X32437489Y-23987017D01*
X32426006Y-23983940D01*
X32297475Y-23949500D01*
X32152525Y-23949500D01*
X32054108Y-23975870D01*
X32012510Y-23987017D01*
X32012507Y-23987018D01*
X31958900Y-24017969D01*
X31891000Y-24034442D01*
X31824973Y-24011589D01*
X31781783Y-23956668D01*
X31772901Y-23910582D01*
X31772901Y-23823048D01*
X31764713Y-23792488D01*
X31750718Y-23740261D01*
X31725157Y-23695989D01*
X31707865Y-23666038D01*
X31647262Y-23605435D01*
X31647259Y-23605433D01*
X31497333Y-23455507D01*
X31354007Y-23312180D01*
X31320522Y-23250857D01*
X31325506Y-23181165D01*
X31367378Y-23125232D01*
X31432842Y-23100815D01*
X31441688Y-23100499D01*
X32402130Y-23100499D01*
X32402132Y-23100499D01*
X32482495Y-23084515D01*
X32482498Y-23084512D01*
X32493778Y-23079841D01*
X32494311Y-23081129D01*
X32548281Y-23064228D01*
X32615662Y-23082709D01*
G37*
%TD.AperFunction*%
%TA.AperFunction,Conductor*%
G36*
X19486253Y-19063633D02*
G01*
X19517505Y-19084515D01*
X19517508Y-19084515D01*
X19517509Y-19084516D01*
X19535935Y-19088181D01*
X19597867Y-19100500D01*
X21052132Y-19100499D01*
X21132495Y-19084515D01*
X21132496Y-19084513D01*
X21132499Y-19084513D01*
X21152125Y-19071399D01*
X21218802Y-19050520D01*
X21221017Y-19050500D01*
X21616324Y-19050500D01*
X21683363Y-19070185D01*
X21704005Y-19086819D01*
X21767686Y-19150500D01*
X21881814Y-19216392D01*
X22009108Y-19250500D01*
X22024011Y-19250500D01*
X22091050Y-19270185D01*
X22136805Y-19322989D01*
X22146749Y-19392147D01*
X22117724Y-19455703D01*
X22111692Y-19462181D01*
X21480216Y-20093656D01*
X21461723Y-20103753D01*
X21446047Y-20117834D01*
X21431672Y-20120162D01*
X21418893Y-20127141D01*
X21397876Y-20125638D01*
X21377076Y-20129008D01*
X21363724Y-20123195D01*
X21349201Y-20122157D01*
X21332332Y-20109529D01*
X21313014Y-20101119D01*
X21296422Y-20082646D01*
X21293268Y-20080285D01*
X21289430Y-20074861D01*
X21285438Y-20068886D01*
X21264563Y-20002208D01*
X21280518Y-19944057D01*
X21279842Y-19943777D01*
X21282071Y-19938393D01*
X21283050Y-19934829D01*
X21284452Y-19932647D01*
X21284516Y-19932493D01*
X21294088Y-19884365D01*
X21300500Y-19852133D01*
X21300499Y-19647868D01*
X21284515Y-19567505D01*
X21264309Y-19537266D01*
X21223624Y-19476375D01*
X21157952Y-19432495D01*
X21132495Y-19415485D01*
X21132493Y-19415484D01*
X21132490Y-19415483D01*
X21052136Y-19399500D01*
X19597870Y-19399500D01*
X19517504Y-19415485D01*
X19426375Y-19476375D01*
X19365485Y-19567505D01*
X19365483Y-19567509D01*
X19349500Y-19647863D01*
X19349500Y-19852129D01*
X19365486Y-19932498D01*
X19370159Y-19943780D01*
X19368714Y-19944378D01*
X19385436Y-19997788D01*
X19369482Y-20055938D01*
X19370159Y-20056219D01*
X19367926Y-20061609D01*
X19366950Y-20065168D01*
X19365550Y-20067345D01*
X19365484Y-20067505D01*
X19349500Y-20147863D01*
X19349500Y-20352129D01*
X19357493Y-20392313D01*
X19365193Y-20431029D01*
X19365486Y-20432498D01*
X19370159Y-20443780D01*
X19368714Y-20444378D01*
X19385436Y-20497788D01*
X19369482Y-20555938D01*
X19370159Y-20556219D01*
X19367926Y-20561609D01*
X19366950Y-20565168D01*
X19365550Y-20567345D01*
X19365484Y-20567505D01*
X19349500Y-20647863D01*
X19349500Y-20852129D01*
X19349501Y-20852132D01*
X19362605Y-20918017D01*
X19365486Y-20932498D01*
X19370159Y-20943780D01*
X19368714Y-20944378D01*
X19385436Y-20997788D01*
X19369482Y-21055938D01*
X19370159Y-21056219D01*
X19367926Y-21061609D01*
X19366950Y-21065168D01*
X19365550Y-21067345D01*
X19365484Y-21067505D01*
X19349500Y-21147863D01*
X19349500Y-21352129D01*
X19349501Y-21352132D01*
X19365485Y-21432495D01*
X19365485Y-21432496D01*
X19365486Y-21432497D01*
X19370159Y-21443780D01*
X19368714Y-21444378D01*
X19385436Y-21497788D01*
X19369482Y-21555938D01*
X19370159Y-21556219D01*
X19367926Y-21561609D01*
X19366950Y-21565168D01*
X19365550Y-21567345D01*
X19365484Y-21567505D01*
X19349500Y-21647863D01*
X19349500Y-21852129D01*
X19355908Y-21884346D01*
X19364394Y-21927011D01*
X19365486Y-21932498D01*
X19370159Y-21943780D01*
X19368714Y-21944378D01*
X19385436Y-21997788D01*
X19369482Y-22055938D01*
X19370159Y-22056219D01*
X19367926Y-22061609D01*
X19366950Y-22065168D01*
X19365550Y-22067345D01*
X19365484Y-22067505D01*
X19349500Y-22147863D01*
X19349500Y-22352129D01*
X19349501Y-22352132D01*
X19361079Y-22410345D01*
X19365486Y-22432498D01*
X19370159Y-22443780D01*
X19368714Y-22444378D01*
X19385436Y-22497788D01*
X19383228Y-22523397D01*
X19378493Y-22548035D01*
X19365485Y-22567505D01*
X19349500Y-22647867D01*
X19349500Y-22698930D01*
X19347272Y-22710527D01*
X19336465Y-22731517D01*
X19329815Y-22754168D01*
X19320771Y-22762004D01*
X19315292Y-22772648D01*
X19294849Y-22784466D01*
X19277011Y-22799923D01*
X19265165Y-22801626D01*
X19254803Y-22807617D01*
X19231220Y-22806507D01*
X19207853Y-22809867D01*
X19193410Y-22806904D01*
X19072475Y-22774500D01*
X18927525Y-22774500D01*
X18826291Y-22801626D01*
X18787511Y-22812017D01*
X18705648Y-22859281D01*
X18637748Y-22875754D01*
X18571721Y-22852901D01*
X18555966Y-22839574D01*
X18513346Y-22796953D01*
X18513344Y-22796952D01*
X18513342Y-22796950D01*
X18429378Y-22754168D01*
X18400301Y-22739352D01*
X18306524Y-22724500D01*
X17957674Y-22724500D01*
X17890635Y-22704815D01*
X17844880Y-22652011D01*
X17834936Y-22582853D01*
X17863961Y-22519297D01*
X17869979Y-22512833D01*
X18070995Y-22311818D01*
X18132318Y-22278333D01*
X18158676Y-22275499D01*
X18306517Y-22275499D01*
X18306518Y-22275499D01*
X18400304Y-22260646D01*
X18513342Y-22203050D01*
X18603050Y-22113342D01*
X18660646Y-22000304D01*
X18660646Y-22000302D01*
X18660647Y-22000301D01*
X18675499Y-21906524D01*
X18675500Y-21906519D01*
X18675499Y-21443482D01*
X18660646Y-21349696D01*
X18603050Y-21236658D01*
X18603046Y-21236654D01*
X18603045Y-21236652D01*
X18536819Y-21170426D01*
X18503334Y-21109103D01*
X18500500Y-21082745D01*
X18500500Y-20402611D01*
X18520185Y-20335572D01*
X18536819Y-20314930D01*
X18598523Y-20253225D01*
X18598528Y-20253220D01*
X18659719Y-20133126D01*
X18661292Y-20123195D01*
X18675500Y-20033493D01*
X18675500Y-19896940D01*
X18695185Y-19829901D01*
X18704840Y-19816843D01*
X18712903Y-19807314D01*
X19322706Y-19086637D01*
X19381035Y-19048177D01*
X19450899Y-19047357D01*
X19486253Y-19063633D01*
G37*
%TD.AperFunction*%
%TA.AperFunction,Conductor*%
G36*
X33470488Y-16851606D02*
G01*
X33472388Y-16851416D01*
X33505795Y-16862801D01*
X33599693Y-16910645D01*
X33599698Y-16910647D01*
X33693475Y-16925499D01*
X33693481Y-16925500D01*
X34306518Y-16925499D01*
X34361104Y-16916854D01*
X34430397Y-16925810D01*
X34483848Y-16970807D01*
X34504487Y-17037558D01*
X34504500Y-17039328D01*
X34504500Y-18511324D01*
X34484815Y-18578363D01*
X34468181Y-18599005D01*
X33979005Y-19088181D01*
X33917682Y-19121666D01*
X33891324Y-19124500D01*
X33716507Y-19124500D01*
X33616878Y-19140279D01*
X33616874Y-19140280D01*
X33616874Y-19140281D01*
X33505793Y-19196879D01*
X33437125Y-19209775D01*
X33372385Y-19183498D01*
X33332128Y-19126392D01*
X33325500Y-19086394D01*
X33325500Y-16973285D01*
X33326275Y-16970644D01*
X33325614Y-16967974D01*
X33336061Y-16937318D01*
X33345185Y-16906246D01*
X33347264Y-16904444D01*
X33348152Y-16901839D01*
X33373521Y-16881692D01*
X33397989Y-16860491D01*
X33400711Y-16860099D01*
X33402867Y-16858388D01*
X33435087Y-16855156D01*
X33467147Y-16850547D01*
X33470488Y-16851606D01*
G37*
%TD.AperFunction*%
%TA.AperFunction,Conductor*%
G36*
X19335215Y-15944096D02*
G01*
X19367970Y-16005812D01*
X19363887Y-16054735D01*
X19367867Y-16055527D01*
X19349500Y-16147863D01*
X19349500Y-16352129D01*
X19350603Y-16357673D01*
X19365256Y-16431346D01*
X19365486Y-16432498D01*
X19370159Y-16443780D01*
X19368714Y-16444378D01*
X19385436Y-16497788D01*
X19369482Y-16555938D01*
X19370159Y-16556219D01*
X19367926Y-16561609D01*
X19366950Y-16565168D01*
X19365550Y-16567345D01*
X19365484Y-16567505D01*
X19349500Y-16647863D01*
X19349500Y-16852129D01*
X19351623Y-16862801D01*
X19364155Y-16925810D01*
X19365486Y-16932498D01*
X19370159Y-16943780D01*
X19368714Y-16944378D01*
X19385436Y-16997788D01*
X19369482Y-17055938D01*
X19370159Y-17056219D01*
X19367926Y-17061609D01*
X19366950Y-17065168D01*
X19365550Y-17067345D01*
X19365484Y-17067505D01*
X19349500Y-17147863D01*
X19349500Y-17352129D01*
X19349501Y-17352132D01*
X19364394Y-17427011D01*
X19365486Y-17432498D01*
X19370159Y-17443780D01*
X19368714Y-17444378D01*
X19385436Y-17497788D01*
X19381596Y-17530695D01*
X19376342Y-17551254D01*
X19365485Y-17567505D01*
X19349500Y-17647867D01*
X19349500Y-17656313D01*
X19345808Y-17670763D01*
X19332599Y-17693012D01*
X19322910Y-17717008D01*
X19314963Y-17722719D01*
X19310141Y-17730843D01*
X19288822Y-17741507D01*
X19267597Y-17756763D01*
X19143750Y-17801261D01*
X19143747Y-17801262D01*
X19035490Y-17876402D01*
X19035487Y-17876404D01*
X18102162Y-18979423D01*
X18043831Y-19017885D01*
X17973966Y-19018705D01*
X17919821Y-18987007D01*
X16761819Y-17829005D01*
X16728334Y-17767682D01*
X16725500Y-17741324D01*
X16725500Y-16708675D01*
X16745185Y-16641636D01*
X16761815Y-16620998D01*
X17112821Y-16269991D01*
X17174142Y-16236508D01*
X17243833Y-16241492D01*
X17299767Y-16283363D01*
X17324184Y-16348828D01*
X17324500Y-16357673D01*
X17324500Y-16556517D01*
X17334712Y-16620994D01*
X17339354Y-16650304D01*
X17396950Y-16763342D01*
X17396952Y-16763344D01*
X17396954Y-16763347D01*
X17486652Y-16853045D01*
X17486654Y-16853046D01*
X17486658Y-16853050D01*
X17587524Y-16904444D01*
X17599698Y-16910647D01*
X17693475Y-16925499D01*
X17693481Y-16925500D01*
X18306518Y-16925499D01*
X18400304Y-16910646D01*
X18513342Y-16853050D01*
X18603050Y-16763342D01*
X18660646Y-16650304D01*
X18660646Y-16650302D01*
X18660647Y-16650301D01*
X18675499Y-16556524D01*
X18675500Y-16556519D01*
X18675499Y-16290838D01*
X18695183Y-16223801D01*
X18747987Y-16178046D01*
X18771913Y-16171176D01*
X18771731Y-16170496D01*
X18779579Y-16168393D01*
X18779582Y-16168393D01*
X18919592Y-16130877D01*
X19045122Y-16058402D01*
X19147616Y-15955908D01*
X19147620Y-15955900D01*
X19148121Y-15955249D01*
X19148691Y-15954832D01*
X19153363Y-15950161D01*
X19154091Y-15950889D01*
X19204547Y-15914044D01*
X19274293Y-15909886D01*
X19335215Y-15944096D01*
G37*
%TD.AperFunction*%
%TA.AperFunction,Conductor*%
G36*
X7418834Y-1815794D02*
G01*
X7474767Y-1857666D01*
X7499184Y-1923130D01*
X7499500Y-1931976D01*
X7499500Y-2519752D01*
X7511131Y-2578229D01*
X7511132Y-2578230D01*
X7555447Y-2644552D01*
X7621769Y-2688867D01*
X7621770Y-2688868D01*
X7680247Y-2700499D01*
X7680250Y-2700500D01*
X7680252Y-2700500D01*
X10519750Y-2700500D01*
X10519751Y-2700499D01*
X10534568Y-2697552D01*
X10578229Y-2688868D01*
X10578229Y-2688867D01*
X10578231Y-2688867D01*
X10644552Y-2644552D01*
X10688867Y-2578231D01*
X10688867Y-2578229D01*
X10688868Y-2578229D01*
X10700499Y-2519752D01*
X10700500Y-2519750D01*
X10700500Y-2449500D01*
X10720185Y-2382461D01*
X10772989Y-2336706D01*
X10824500Y-2325500D01*
X13175500Y-2325500D01*
X13242539Y-2345185D01*
X13288294Y-2397989D01*
X13299500Y-2449500D01*
X13299500Y-2519752D01*
X13311131Y-2578229D01*
X13311132Y-2578230D01*
X13355447Y-2644552D01*
X13421769Y-2688867D01*
X13421770Y-2688868D01*
X13480247Y-2700499D01*
X13480250Y-2700500D01*
X13480252Y-2700500D01*
X16177200Y-2700500D01*
X16244239Y-2720185D01*
X16289994Y-2772989D01*
X16301200Y-2824500D01*
X16301200Y-9944552D01*
X16323382Y-10027340D01*
X16344808Y-10064450D01*
X16366235Y-10101562D01*
X17590368Y-11325695D01*
X18788181Y-12523507D01*
X18821666Y-12584830D01*
X18824500Y-12611188D01*
X18824500Y-13033493D01*
X18840279Y-13133121D01*
X18840280Y-13133124D01*
X18840281Y-13133126D01*
X18901472Y-13253220D01*
X18901473Y-13253221D01*
X18901476Y-13253225D01*
X18996774Y-13348523D01*
X18996778Y-13348526D01*
X18996780Y-13348528D01*
X19116874Y-13409719D01*
X19116876Y-13409719D01*
X19116878Y-13409720D01*
X19216507Y-13425500D01*
X19216512Y-13425500D01*
X19638811Y-13425500D01*
X19705850Y-13445185D01*
X19726492Y-13461819D01*
X20952492Y-14687819D01*
X20985977Y-14749142D01*
X20980993Y-14818834D01*
X20939121Y-14874767D01*
X20873657Y-14899184D01*
X20864811Y-14899500D01*
X19597870Y-14899500D01*
X19517504Y-14915485D01*
X19426375Y-14976375D01*
X19365485Y-15067505D01*
X19365483Y-15067509D01*
X19349500Y-15147863D01*
X19349500Y-15182400D01*
X19329815Y-15249439D01*
X19277011Y-15295194D01*
X19207853Y-15305138D01*
X19144297Y-15276113D01*
X19137819Y-15270081D01*
X19045124Y-15177386D01*
X19045118Y-15177381D01*
X18919595Y-15104910D01*
X18919596Y-15104910D01*
X18884589Y-15095530D01*
X18779582Y-15067393D01*
X18779581Y-15067393D01*
X18779570Y-15067390D01*
X18778853Y-15067296D01*
X18778293Y-15067048D01*
X18771731Y-15065290D01*
X18772005Y-15064265D01*
X18714959Y-15039023D01*
X18676495Y-14980694D01*
X18672579Y-14924959D01*
X18675500Y-14906519D01*
X18675499Y-14443482D01*
X18660646Y-14349696D01*
X18603050Y-14236658D01*
X18603046Y-14236654D01*
X18603045Y-14236652D01*
X18513347Y-14146954D01*
X18513344Y-14146952D01*
X18513342Y-14146950D01*
X18436517Y-14107805D01*
X18400301Y-14089352D01*
X18306524Y-14074500D01*
X17693482Y-14074500D01*
X17612519Y-14087323D01*
X17599696Y-14089354D01*
X17486658Y-14146950D01*
X17486657Y-14146951D01*
X17486652Y-14146954D01*
X17396954Y-14236652D01*
X17396951Y-14236657D01*
X17396950Y-14236658D01*
X17390328Y-14249655D01*
X17339352Y-14349698D01*
X17324500Y-14443475D01*
X17324500Y-14591323D01*
X17304815Y-14658362D01*
X17288181Y-14679004D01*
X15917686Y-16049500D01*
X15824502Y-16142683D01*
X15824500Y-16142686D01*
X15758608Y-16256812D01*
X15724500Y-16384108D01*
X15724500Y-17375500D01*
X15704815Y-17442539D01*
X15652011Y-17488294D01*
X15600500Y-17499500D01*
X6174500Y-17499500D01*
X6107461Y-17479815D01*
X6061706Y-17427011D01*
X6050500Y-17375500D01*
X6050500Y-17130249D01*
X6050499Y-17130247D01*
X6038868Y-17071770D01*
X6038867Y-17071769D01*
X5994552Y-17005447D01*
X5928230Y-16961132D01*
X5928229Y-16961131D01*
X5869752Y-16949500D01*
X5869748Y-16949500D01*
X4272800Y-16949500D01*
X4205761Y-16929815D01*
X4160006Y-16877011D01*
X4148800Y-16825500D01*
X4148800Y-14506660D01*
X4168485Y-14439621D01*
X4221289Y-14393866D01*
X4290447Y-14383922D01*
X4341690Y-14403558D01*
X4502400Y-14510940D01*
X4502401Y-14510940D01*
X4502402Y-14510941D01*
X4693580Y-14590130D01*
X4885802Y-14628365D01*
X4896530Y-14630499D01*
X4896534Y-14630500D01*
X4896535Y-14630500D01*
X5103466Y-14630500D01*
X5103467Y-14630499D01*
X5306420Y-14590130D01*
X5497598Y-14510941D01*
X5669655Y-14395977D01*
X5815977Y-14249655D01*
X5930941Y-14077598D01*
X5932225Y-14074500D01*
X5960164Y-14007048D01*
X6004005Y-13952644D01*
X6070299Y-13930579D01*
X6074725Y-13930500D01*
X7520614Y-13930500D01*
X7587653Y-13950185D01*
X7608295Y-13966819D01*
X7661985Y-14020509D01*
X7661986Y-14020510D01*
X7661988Y-14020511D01*
X7787511Y-14092982D01*
X7787512Y-14092982D01*
X7787515Y-14092984D01*
X7927525Y-14130500D01*
X7927528Y-14130500D01*
X8072472Y-14130500D01*
X8072475Y-14130500D01*
X8212485Y-14092984D01*
X8338015Y-14020509D01*
X8440509Y-13918015D01*
X8512984Y-13792485D01*
X8550500Y-13652475D01*
X8550500Y-13507525D01*
X8512984Y-13367515D01*
X8484579Y-13318317D01*
X8440511Y-13241988D01*
X8440506Y-13241982D01*
X8338017Y-13139493D01*
X8338011Y-13139488D01*
X8212488Y-13067017D01*
X8212489Y-13067017D01*
X8159337Y-13052775D01*
X8072475Y-13029500D01*
X7927525Y-13029500D01*
X7840663Y-13052775D01*
X7787511Y-13067017D01*
X7661988Y-13139488D01*
X7661982Y-13139493D01*
X7608295Y-13193181D01*
X7546972Y-13226666D01*
X7520614Y-13229500D01*
X6074725Y-13229500D01*
X6007686Y-13209815D01*
X5961931Y-13157011D01*
X5960164Y-13152952D01*
X5930943Y-13082405D01*
X5815975Y-12910342D01*
X5669657Y-12764024D01*
X5583626Y-12706541D01*
X5497598Y-12649059D01*
X5481251Y-12642288D01*
X5306420Y-12569870D01*
X5306412Y-12569868D01*
X5103469Y-12529500D01*
X5103465Y-12529500D01*
X4896535Y-12529500D01*
X4896530Y-12529500D01*
X4693587Y-12569868D01*
X4693579Y-12569870D01*
X4502403Y-12649058D01*
X4341690Y-12756442D01*
X4275012Y-12777319D01*
X4207632Y-12758834D01*
X4160943Y-12706855D01*
X4148800Y-12653339D01*
X4148800Y-9674500D01*
X4168485Y-9607461D01*
X4221289Y-9561706D01*
X4272800Y-9550500D01*
X5869750Y-9550500D01*
X5869751Y-9550499D01*
X5884568Y-9547552D01*
X5928229Y-9538868D01*
X5928229Y-9538867D01*
X5928231Y-9538867D01*
X5994552Y-9494552D01*
X6038867Y-9428231D01*
X6038867Y-9428229D01*
X6038868Y-9428229D01*
X6050499Y-9369752D01*
X6050500Y-9369750D01*
X6050500Y-7630249D01*
X6050499Y-7630247D01*
X6038868Y-7571770D01*
X6038867Y-7571769D01*
X5994552Y-7505447D01*
X5928230Y-7461132D01*
X5928229Y-7461131D01*
X5869752Y-7449500D01*
X5869748Y-7449500D01*
X4648076Y-7449500D01*
X4581037Y-7429815D01*
X4535282Y-7377011D01*
X4525338Y-7307853D01*
X4554363Y-7244297D01*
X4560395Y-7237819D01*
X4756614Y-7041600D01*
X6000800Y-5797414D01*
X6066692Y-5683286D01*
X6100800Y-5555992D01*
X6100800Y-5424207D01*
X6100800Y-3082676D01*
X6120485Y-3015637D01*
X6137119Y-2994995D01*
X7287819Y-1844295D01*
X7349142Y-1810810D01*
X7418834Y-1815794D01*
G37*
%TD.AperFunction*%
%TA.AperFunction,Conductor*%
G36*
X24531960Y-10511385D02*
G01*
X24577715Y-10564189D01*
X24587659Y-10633347D01*
X24587394Y-10635098D01*
X24574500Y-10716506D01*
X24574500Y-11283493D01*
X24590279Y-11383121D01*
X24590280Y-11383122D01*
X24590281Y-11383126D01*
X24651472Y-11503220D01*
X24651473Y-11503221D01*
X24651476Y-11503225D01*
X24746774Y-11598523D01*
X24746778Y-11598526D01*
X24746780Y-11598528D01*
X24866874Y-11659719D01*
X24866876Y-11659719D01*
X24866878Y-11659720D01*
X24966507Y-11675500D01*
X24966512Y-11675500D01*
X25483493Y-11675500D01*
X25583121Y-11659720D01*
X25583121Y-11659719D01*
X25583126Y-11659719D01*
X25703220Y-11598528D01*
X25798528Y-11503220D01*
X25859719Y-11383126D01*
X25866864Y-11338015D01*
X25875500Y-11283493D01*
X25875500Y-10716506D01*
X25862606Y-10635098D01*
X25871560Y-10565805D01*
X25916557Y-10512353D01*
X25983308Y-10491713D01*
X25985079Y-10491700D01*
X27568031Y-10491700D01*
X27635070Y-10511385D01*
X27680825Y-10564189D01*
X27690769Y-10633347D01*
X27675418Y-10677698D01*
X27612016Y-10787515D01*
X27574500Y-10927525D01*
X27574500Y-11072475D01*
X27611468Y-11210438D01*
X27612017Y-11212488D01*
X27684488Y-11338011D01*
X27684490Y-11338013D01*
X27684491Y-11338015D01*
X27786985Y-11440509D01*
X27786986Y-11440510D01*
X27786988Y-11440511D01*
X27912511Y-11512982D01*
X27912512Y-11512982D01*
X27912515Y-11512984D01*
X28052525Y-11550500D01*
X28132745Y-11550500D01*
X28199784Y-11570185D01*
X28220426Y-11586819D01*
X28236652Y-11603045D01*
X28236654Y-11603046D01*
X28236658Y-11603050D01*
X28347877Y-11659719D01*
X28349698Y-11660647D01*
X28443475Y-11675499D01*
X28443481Y-11675500D01*
X28906518Y-11675499D01*
X29000304Y-11660646D01*
X29113342Y-11603050D01*
X29203050Y-11513342D01*
X29260646Y-11400304D01*
X29260646Y-11400302D01*
X29260647Y-11400301D01*
X29275499Y-11306524D01*
X29275500Y-11306519D01*
X29275499Y-10693482D01*
X29275499Y-10693481D01*
X29275499Y-10693476D01*
X29266253Y-10635097D01*
X29268648Y-10616558D01*
X29265988Y-10598053D01*
X29273034Y-10582623D01*
X29275208Y-10565804D01*
X29287246Y-10551502D01*
X29295013Y-10534497D01*
X29309281Y-10525327D01*
X29320204Y-10512352D01*
X29338064Y-10506829D01*
X29353791Y-10496723D01*
X29385496Y-10492164D01*
X29386956Y-10491713D01*
X29388726Y-10491700D01*
X29611273Y-10491700D01*
X29678312Y-10511385D01*
X29724067Y-10564189D01*
X29734011Y-10633347D01*
X29733746Y-10635098D01*
X29724500Y-10693475D01*
X29724500Y-11306517D01*
X29733290Y-11362014D01*
X29739354Y-11400304D01*
X29796950Y-11513342D01*
X29796952Y-11513344D01*
X29796954Y-11513347D01*
X29886652Y-11603045D01*
X29886654Y-11603046D01*
X29886658Y-11603050D01*
X29997877Y-11659719D01*
X29999698Y-11660647D01*
X30093475Y-11675499D01*
X30093481Y-11675500D01*
X30556518Y-11675499D01*
X30650304Y-11660646D01*
X30763342Y-11603050D01*
X30853050Y-11513342D01*
X30910646Y-11400304D01*
X30910646Y-11400302D01*
X30910647Y-11400301D01*
X30925499Y-11306524D01*
X30925500Y-11306519D01*
X30925499Y-11158674D01*
X30945183Y-11091635D01*
X30961809Y-11071002D01*
X31259295Y-10773516D01*
X31320617Y-10740034D01*
X31346975Y-10737200D01*
X32823324Y-10737200D01*
X32890363Y-10756885D01*
X32911005Y-10773519D01*
X33463181Y-11325695D01*
X33496666Y-11387018D01*
X33499500Y-11413376D01*
X33499500Y-14082745D01*
X33479815Y-14149784D01*
X33463181Y-14170426D01*
X33396954Y-14236652D01*
X33396951Y-14236657D01*
X33396950Y-14236658D01*
X33390328Y-14249655D01*
X33339352Y-14349698D01*
X33324500Y-14443475D01*
X33324500Y-14708911D01*
X33304815Y-14775950D01*
X33252011Y-14821705D01*
X33182853Y-14831649D01*
X33119297Y-14802624D01*
X33112819Y-14796592D01*
X32778964Y-14462737D01*
X32778962Y-14462735D01*
X32733574Y-14436530D01*
X32704740Y-14419882D01*
X32663346Y-14408791D01*
X32621953Y-14397700D01*
X30139298Y-14397700D01*
X30072259Y-14378015D01*
X30026504Y-14325211D01*
X30016560Y-14256053D01*
X30036196Y-14204809D01*
X30039072Y-14200503D01*
X30084515Y-14132495D01*
X30100500Y-14052133D01*
X30100500Y-13792807D01*
X31113840Y-13792807D01*
X31113840Y-13878512D01*
X31136022Y-13961300D01*
X31136708Y-13962488D01*
X31178875Y-14035522D01*
X31239478Y-14096125D01*
X31313701Y-14138978D01*
X31396487Y-14161160D01*
X31482193Y-14161160D01*
X31564979Y-14138978D01*
X31639202Y-14096125D01*
X31652582Y-14082745D01*
X31666402Y-14068926D01*
X31727725Y-14035441D01*
X31754083Y-14032607D01*
X31865365Y-14032607D01*
X31865368Y-14032607D01*
X32005378Y-13995091D01*
X32130908Y-13922616D01*
X32233402Y-13820122D01*
X32305877Y-13694592D01*
X32343393Y-13554582D01*
X32343393Y-13549500D01*
X32363078Y-13482461D01*
X32415882Y-13436706D01*
X32467393Y-13425500D01*
X32783493Y-13425500D01*
X32883121Y-13409720D01*
X32883121Y-13409719D01*
X32883126Y-13409719D01*
X33003220Y-13348528D01*
X33098528Y-13253220D01*
X33159719Y-13133126D01*
X33165209Y-13098463D01*
X33175500Y-13033493D01*
X33175500Y-12516506D01*
X33159720Y-12416878D01*
X33159719Y-12416876D01*
X33159719Y-12416874D01*
X33098528Y-12296780D01*
X33098526Y-12296778D01*
X33098523Y-12296774D01*
X33003225Y-12201476D01*
X33003221Y-12201473D01*
X33003220Y-12201472D01*
X32883126Y-12140281D01*
X32883124Y-12140280D01*
X32883121Y-12140279D01*
X32783493Y-12124500D01*
X32783488Y-12124500D01*
X32216512Y-12124500D01*
X32216507Y-12124500D01*
X32116878Y-12140279D01*
X31996778Y-12201473D01*
X31996774Y-12201476D01*
X31901476Y-12296774D01*
X31901473Y-12296778D01*
X31840279Y-12416878D01*
X31824500Y-12516506D01*
X31824500Y-12809159D01*
X31804815Y-12876198D01*
X31752011Y-12921953D01*
X31728087Y-12928825D01*
X31728269Y-12929504D01*
X31720420Y-12931607D01*
X31720418Y-12931607D01*
X31603035Y-12963060D01*
X31580404Y-12969124D01*
X31454881Y-13041595D01*
X31454875Y-13041600D01*
X31352386Y-13144089D01*
X31352381Y-13144095D01*
X31279910Y-13269618D01*
X31279909Y-13269622D01*
X31242393Y-13409632D01*
X31242393Y-13409634D01*
X31242393Y-13520916D01*
X31222708Y-13587955D01*
X31206076Y-13608596D01*
X31178876Y-13635796D01*
X31136022Y-13710019D01*
X31113840Y-13792807D01*
X30100500Y-13792807D01*
X30100499Y-12597868D01*
X30084515Y-12517505D01*
X30046384Y-12460438D01*
X30023624Y-12426375D01*
X29968995Y-12389874D01*
X29932495Y-12365485D01*
X29932493Y-12365484D01*
X29932490Y-12365483D01*
X29852135Y-12349500D01*
X29647870Y-12349500D01*
X29587867Y-12361434D01*
X29567505Y-12365485D01*
X29567504Y-12365485D01*
X29567501Y-12365486D01*
X29556220Y-12370159D01*
X29555621Y-12368714D01*
X29502204Y-12385436D01*
X29444061Y-12369481D01*
X29443781Y-12370159D01*
X29438383Y-12367923D01*
X29434825Y-12366947D01*
X29432648Y-12365547D01*
X29432494Y-12365484D01*
X29352135Y-12349500D01*
X29147870Y-12349500D01*
X29087867Y-12361434D01*
X29067505Y-12365485D01*
X29067504Y-12365485D01*
X29067501Y-12365486D01*
X29056220Y-12370159D01*
X29055621Y-12368714D01*
X29002204Y-12385436D01*
X28944061Y-12369481D01*
X28943781Y-12370159D01*
X28938383Y-12367923D01*
X28934825Y-12366947D01*
X28932648Y-12365547D01*
X28932494Y-12365484D01*
X28852135Y-12349500D01*
X28647870Y-12349500D01*
X28587867Y-12361434D01*
X28567505Y-12365485D01*
X28567504Y-12365485D01*
X28567501Y-12365486D01*
X28556220Y-12370159D01*
X28555621Y-12368714D01*
X28502204Y-12385436D01*
X28444061Y-12369481D01*
X28443781Y-12370159D01*
X28438383Y-12367923D01*
X28434825Y-12366947D01*
X28432648Y-12365547D01*
X28432494Y-12365484D01*
X28352135Y-12349500D01*
X28147870Y-12349500D01*
X28087867Y-12361434D01*
X28067505Y-12365485D01*
X28067504Y-12365485D01*
X28067501Y-12365486D01*
X28056220Y-12370159D01*
X28055621Y-12368714D01*
X28002204Y-12385436D01*
X27944061Y-12369481D01*
X27943781Y-12370159D01*
X27938383Y-12367923D01*
X27934825Y-12366947D01*
X27932648Y-12365547D01*
X27932494Y-12365484D01*
X27852135Y-12349500D01*
X27647870Y-12349500D01*
X27587867Y-12361434D01*
X27567505Y-12365485D01*
X27567504Y-12365485D01*
X27567501Y-12365486D01*
X27556220Y-12370159D01*
X27555621Y-12368714D01*
X27502204Y-12385436D01*
X27444061Y-12369481D01*
X27443781Y-12370159D01*
X27438383Y-12367923D01*
X27434825Y-12366947D01*
X27432648Y-12365547D01*
X27432494Y-12365484D01*
X27352135Y-12349500D01*
X27147870Y-12349500D01*
X27087867Y-12361434D01*
X27067505Y-12365485D01*
X27067504Y-12365485D01*
X27067501Y-12365486D01*
X27056220Y-12370159D01*
X27055621Y-12368714D01*
X27002204Y-12385436D01*
X26944061Y-12369481D01*
X26943781Y-12370159D01*
X26938383Y-12367923D01*
X26934825Y-12366947D01*
X26932648Y-12365547D01*
X26932494Y-12365484D01*
X26852135Y-12349500D01*
X26647870Y-12349500D01*
X26587867Y-12361434D01*
X26567505Y-12365485D01*
X26567504Y-12365485D01*
X26567501Y-12365486D01*
X26556220Y-12370159D01*
X26555621Y-12368714D01*
X26502204Y-12385436D01*
X26444061Y-12369481D01*
X26443781Y-12370159D01*
X26438383Y-12367923D01*
X26434825Y-12366947D01*
X26432648Y-12365547D01*
X26432494Y-12365484D01*
X26352135Y-12349500D01*
X26147870Y-12349500D01*
X26087867Y-12361434D01*
X26067505Y-12365485D01*
X26067504Y-12365485D01*
X26067501Y-12365486D01*
X26056220Y-12370159D01*
X26055621Y-12368714D01*
X26002204Y-12385436D01*
X25944061Y-12369481D01*
X25943781Y-12370159D01*
X25938383Y-12367923D01*
X25934825Y-12366947D01*
X25932648Y-12365547D01*
X25932494Y-12365484D01*
X25852135Y-12349500D01*
X25647870Y-12349500D01*
X25587867Y-12361434D01*
X25567505Y-12365485D01*
X25567504Y-12365485D01*
X25567501Y-12365486D01*
X25556220Y-12370159D01*
X25555621Y-12368714D01*
X25502204Y-12385436D01*
X25444061Y-12369481D01*
X25443781Y-12370159D01*
X25438383Y-12367923D01*
X25434825Y-12366947D01*
X25432648Y-12365547D01*
X25432494Y-12365484D01*
X25352135Y-12349500D01*
X25147870Y-12349500D01*
X25087867Y-12361434D01*
X25067505Y-12365485D01*
X25067504Y-12365485D01*
X25067501Y-12365486D01*
X25056220Y-12370159D01*
X25055621Y-12368714D01*
X25002204Y-12385436D01*
X24944061Y-12369481D01*
X24943781Y-12370159D01*
X24938383Y-12367923D01*
X24934825Y-12366947D01*
X24932648Y-12365547D01*
X24932494Y-12365484D01*
X24852135Y-12349500D01*
X24647870Y-12349500D01*
X24587867Y-12361434D01*
X24567505Y-12365485D01*
X24567504Y-12365485D01*
X24567501Y-12365486D01*
X24556220Y-12370159D01*
X24555621Y-12368714D01*
X24502204Y-12385436D01*
X24444061Y-12369481D01*
X24443781Y-12370159D01*
X24438383Y-12367923D01*
X24434825Y-12366947D01*
X24432648Y-12365547D01*
X24432494Y-12365484D01*
X24352135Y-12349500D01*
X24147870Y-12349500D01*
X24087867Y-12361434D01*
X24067505Y-12365485D01*
X24067504Y-12365485D01*
X24067501Y-12365486D01*
X24056220Y-12370159D01*
X24055621Y-12368714D01*
X24002204Y-12385436D01*
X23944061Y-12369481D01*
X23943781Y-12370159D01*
X23938383Y-12367923D01*
X23934825Y-12366947D01*
X23932648Y-12365547D01*
X23932494Y-12365484D01*
X23852135Y-12349500D01*
X23647870Y-12349500D01*
X23587867Y-12361434D01*
X23567505Y-12365485D01*
X23567504Y-12365485D01*
X23567501Y-12365486D01*
X23556220Y-12370159D01*
X23555621Y-12368714D01*
X23502204Y-12385436D01*
X23444061Y-12369481D01*
X23443781Y-12370159D01*
X23438383Y-12367923D01*
X23434825Y-12366947D01*
X23432648Y-12365547D01*
X23432494Y-12365484D01*
X23352136Y-12349500D01*
X23161478Y-12349500D01*
X23094439Y-12329815D01*
X23054091Y-12287500D01*
X23032169Y-12249531D01*
X23010465Y-12211938D01*
X22363318Y-11564791D01*
X22329833Y-11503468D01*
X22334817Y-11433776D01*
X22340508Y-11420828D01*
X22359719Y-11383126D01*
X22366864Y-11338015D01*
X22375500Y-11283493D01*
X22375500Y-11108676D01*
X22395185Y-11041637D01*
X22411819Y-11020995D01*
X22904795Y-10528019D01*
X22966118Y-10494534D01*
X22992476Y-10491700D01*
X24464921Y-10491700D01*
X24531960Y-10511385D01*
G37*
%TD.AperFunction*%
%TA.AperFunction,Conductor*%
G36*
X26806663Y-1518485D02*
G01*
X26827305Y-1535119D01*
X27121562Y-1829376D01*
X27155047Y-1890699D01*
X27151812Y-1955375D01*
X27085216Y-2160335D01*
X27085216Y-2160338D01*
X27049500Y-2385837D01*
X27049500Y-2614161D01*
X27085215Y-2839660D01*
X27155770Y-3056803D01*
X27242393Y-3226808D01*
X27259421Y-3260228D01*
X27393621Y-3444937D01*
X27555063Y-3606379D01*
X27739772Y-3740579D01*
X27795122Y-3768781D01*
X27943196Y-3844229D01*
X27943198Y-3844229D01*
X27943201Y-3844231D01*
X28048473Y-3878436D01*
X28160339Y-3914784D01*
X28385838Y-3950500D01*
X28590810Y-3950500D01*
X28657849Y-3970185D01*
X28703604Y-4022989D01*
X28713548Y-4092147D01*
X28684523Y-4155703D01*
X28678491Y-4162181D01*
X24441492Y-8399181D01*
X24380169Y-8432666D01*
X24353811Y-8435500D01*
X22599747Y-8435500D01*
X22516959Y-8457682D01*
X22442738Y-8500535D01*
X22442735Y-8500537D01*
X20648637Y-10294635D01*
X20648635Y-10294638D01*
X20605782Y-10368860D01*
X20605782Y-10368861D01*
X20586584Y-10440509D01*
X20585092Y-10446078D01*
X20583600Y-10451645D01*
X20583600Y-12475913D01*
X20563915Y-12542952D01*
X20547282Y-12563594D01*
X20468591Y-12642285D01*
X20406887Y-12749159D01*
X20356319Y-12797374D01*
X20287712Y-12810596D01*
X20222848Y-12784628D01*
X20182320Y-12727714D01*
X20175500Y-12687158D01*
X20175500Y-12516506D01*
X20159720Y-12416878D01*
X20159719Y-12416876D01*
X20159719Y-12416874D01*
X20098528Y-12296780D01*
X20098526Y-12296778D01*
X20098523Y-12296774D01*
X20003225Y-12201476D01*
X20003221Y-12201473D01*
X20003220Y-12201472D01*
X19883126Y-12140281D01*
X19883124Y-12140280D01*
X19883121Y-12140279D01*
X19783493Y-12124500D01*
X19783488Y-12124500D01*
X19361188Y-12124500D01*
X19294149Y-12104815D01*
X19273507Y-12088181D01*
X16988519Y-9803192D01*
X16955034Y-9741869D01*
X16952200Y-9715511D01*
X16952200Y-2804208D01*
X16971885Y-2737169D01*
X17024689Y-2691414D01*
X17093847Y-2681470D01*
X17118281Y-2688174D01*
X17180247Y-2700499D01*
X17180250Y-2700500D01*
X17180252Y-2700500D01*
X20019750Y-2700500D01*
X20019751Y-2700499D01*
X20034568Y-2697552D01*
X20078229Y-2688868D01*
X20078229Y-2688867D01*
X20078231Y-2688867D01*
X20144552Y-2644552D01*
X20188867Y-2578231D01*
X20188867Y-2578229D01*
X20188868Y-2578229D01*
X20200499Y-2519752D01*
X20200500Y-2519750D01*
X20200500Y-2449500D01*
X20220185Y-2382461D01*
X20272989Y-2336706D01*
X20324500Y-2325500D01*
X22675500Y-2325500D01*
X22742539Y-2345185D01*
X22788294Y-2397989D01*
X22799500Y-2449500D01*
X22799500Y-2519752D01*
X22811131Y-2578229D01*
X22811132Y-2578230D01*
X22855447Y-2644552D01*
X22921769Y-2688867D01*
X22921770Y-2688868D01*
X22980247Y-2700499D01*
X22980250Y-2700500D01*
X22980252Y-2700500D01*
X24588811Y-2700500D01*
X24655850Y-2720185D01*
X24676492Y-2736819D01*
X24873841Y-2934167D01*
X24907326Y-2995490D01*
X24910160Y-3021848D01*
X24910160Y-3133135D01*
X24935260Y-3226808D01*
X24947677Y-3273148D01*
X25020148Y-3398671D01*
X25020150Y-3398673D01*
X25020151Y-3398675D01*
X25122645Y-3501169D01*
X25122646Y-3501170D01*
X25122648Y-3501171D01*
X25248171Y-3573642D01*
X25248172Y-3573642D01*
X25248175Y-3573644D01*
X25388185Y-3611160D01*
X25388188Y-3611160D01*
X25533132Y-3611160D01*
X25533135Y-3611160D01*
X25673145Y-3573644D01*
X25798675Y-3501169D01*
X25901169Y-3398675D01*
X25973644Y-3273145D01*
X26011160Y-3133135D01*
X26011160Y-2988185D01*
X25973644Y-2848175D01*
X25935644Y-2782358D01*
X25919172Y-2714460D01*
X25939931Y-2651467D01*
X25952181Y-2633135D01*
X25988867Y-2578231D01*
X25988867Y-2578230D01*
X25988868Y-2578229D01*
X26000499Y-2519752D01*
X26000500Y-2519750D01*
X26000500Y-1622800D01*
X26020185Y-1555761D01*
X26072989Y-1510006D01*
X26124500Y-1498800D01*
X26739624Y-1498800D01*
X26806663Y-1518485D01*
G37*
%TD.AperFunction*%
%TA.AperFunction,Conductor*%
G36*
X39813783Y-1012385D02*
G01*
X39859538Y-1065189D01*
X39869482Y-1134347D01*
X39840457Y-1197903D01*
X39803039Y-1227185D01*
X39739771Y-1259421D01*
X39555061Y-1393622D01*
X39393622Y-1555061D01*
X39259421Y-1739771D01*
X39155770Y-1943196D01*
X39085215Y-2160339D01*
X39049500Y-2385837D01*
X39049500Y-2614161D01*
X39085215Y-2839660D01*
X39155770Y-3056803D01*
X39228878Y-3200283D01*
X39242393Y-3256578D01*
X39242393Y-3279582D01*
X39274305Y-3398677D01*
X39279910Y-3419595D01*
X39352381Y-3545118D01*
X39352386Y-3545124D01*
X39400681Y-3593419D01*
X39434166Y-3654742D01*
X39429182Y-3724434D01*
X39387310Y-3780367D01*
X39321846Y-3804784D01*
X39313000Y-3805100D01*
X34564276Y-3805100D01*
X34497237Y-3785415D01*
X34476595Y-3768781D01*
X33878436Y-3170622D01*
X33844951Y-3109299D01*
X33848185Y-3044627D01*
X33914784Y-2839660D01*
X33950500Y-2614161D01*
X33950500Y-2385837D01*
X33914784Y-2160339D01*
X33882049Y-2059592D01*
X33844231Y-1943201D01*
X33844229Y-1943198D01*
X33844229Y-1943196D01*
X33780955Y-1819014D01*
X33740579Y-1739772D01*
X33606379Y-1555063D01*
X33444937Y-1393621D01*
X33260228Y-1259421D01*
X33196960Y-1227184D01*
X33146165Y-1179210D01*
X33129370Y-1111389D01*
X33151907Y-1045255D01*
X33206622Y-1001803D01*
X33253256Y-992700D01*
X39746744Y-992700D01*
X39813783Y-1012385D01*
G37*
%TD.AperFunction*%
%TA.AperFunction,Conductor*%
G36*
X44556787Y-997966D02*
G01*
X44575479Y-998234D01*
X44589615Y-1007606D01*
X44605889Y-1012385D01*
X44618130Y-1026512D01*
X44633712Y-1036843D01*
X44640537Y-1052371D01*
X44651644Y-1065189D01*
X44654304Y-1083692D01*
X44661827Y-1100807D01*
X44661369Y-1132828D01*
X44661588Y-1134347D01*
X44661323Y-1136097D01*
X44649500Y-1210747D01*
X44649500Y-1789251D01*
X44665047Y-1887417D01*
X44674512Y-1905992D01*
X44725342Y-2005751D01*
X44725344Y-2005753D01*
X44725346Y-2005756D01*
X44819243Y-2099653D01*
X44819245Y-2099654D01*
X44819249Y-2099658D01*
X44937580Y-2159951D01*
X44937581Y-2159951D01*
X44937583Y-2159952D01*
X44937582Y-2159952D01*
X45035749Y-2175500D01*
X45035754Y-2175500D01*
X45539251Y-2175500D01*
X45637417Y-2159952D01*
X45637418Y-2159951D01*
X45637420Y-2159951D01*
X45755751Y-2099658D01*
X45760734Y-2094675D01*
X45768591Y-2086819D01*
X45829914Y-2053334D01*
X45856272Y-2050500D01*
X45909972Y-2050500D01*
X45909975Y-2050500D01*
X46049985Y-2012984D01*
X46175515Y-1940509D01*
X46278009Y-1838015D01*
X46350484Y-1712485D01*
X46388000Y-1572475D01*
X46388000Y-1427525D01*
X46350484Y-1287515D01*
X46334264Y-1259421D01*
X46287660Y-1178700D01*
X46271187Y-1110800D01*
X46294039Y-1044773D01*
X46348961Y-1001582D01*
X46395047Y-992700D01*
X48038850Y-992700D01*
X48105889Y-1012385D01*
X48151644Y-1065189D01*
X48161588Y-1134347D01*
X48161323Y-1136097D01*
X48149500Y-1210747D01*
X48149500Y-1532607D01*
X48129815Y-1599646D01*
X48077011Y-1645401D01*
X48025500Y-1656607D01*
X48007918Y-1656607D01*
X47879386Y-1691047D01*
X47867904Y-1694124D01*
X47742381Y-1766595D01*
X47742375Y-1766600D01*
X47639886Y-1869089D01*
X47639881Y-1869095D01*
X47567410Y-1994618D01*
X47567409Y-1994622D01*
X47529893Y-2134632D01*
X47529893Y-2279582D01*
X47567409Y-2419592D01*
X47567410Y-2419595D01*
X47639881Y-2545118D01*
X47639883Y-2545120D01*
X47639884Y-2545122D01*
X47742378Y-2647616D01*
X47742379Y-2647617D01*
X47742381Y-2647618D01*
X47867904Y-2720089D01*
X47867905Y-2720089D01*
X47867908Y-2720091D01*
X48007918Y-2757607D01*
X48007921Y-2757607D01*
X48152865Y-2757607D01*
X48152868Y-2757607D01*
X48292878Y-2720091D01*
X48418408Y-2647616D01*
X48520902Y-2545122D01*
X48593377Y-2419592D01*
X48630893Y-2279582D01*
X48630893Y-2279579D01*
X48632996Y-2271731D01*
X48635259Y-2272337D01*
X48658660Y-2219427D01*
X48716981Y-2180950D01*
X48753340Y-2175500D01*
X48992323Y-2175500D01*
X49059362Y-2195185D01*
X49105117Y-2247989D01*
X49115061Y-2317147D01*
X49086036Y-2380703D01*
X49080004Y-2387181D01*
X47698405Y-3768781D01*
X47637082Y-3802266D01*
X47610724Y-3805100D01*
X41545578Y-3805100D01*
X41478539Y-3785415D01*
X41432784Y-3732611D01*
X41422840Y-3663453D01*
X41451865Y-3599897D01*
X41457897Y-3593419D01*
X41506198Y-3545118D01*
X41606379Y-3444937D01*
X41740579Y-3260228D01*
X41844231Y-3056799D01*
X41914784Y-2839660D01*
X41950500Y-2614161D01*
X41950500Y-2385837D01*
X41914784Y-2160339D01*
X41882049Y-2059592D01*
X41844231Y-1943201D01*
X41844229Y-1943198D01*
X41844229Y-1943196D01*
X41780955Y-1819014D01*
X41740579Y-1739772D01*
X41606379Y-1555063D01*
X41444937Y-1393621D01*
X41260228Y-1259421D01*
X41196960Y-1227184D01*
X41146165Y-1179210D01*
X41129370Y-1111389D01*
X41151907Y-1045255D01*
X41206622Y-1001803D01*
X41253256Y-992700D01*
X44538850Y-992700D01*
X44556787Y-997966D01*
G37*
%TD.AperFunction*%
%TD*%
M02*
