%TF.GenerationSoftware,KiCad,Pcbnew,9.0.2+dfsg-1*%
%TF.CreationDate,2026-09-07T16:07:51+00:00*%
%TF.ProjectId,stm32g070rbt6-board,73746d33-3267-4303-9730-726274362d62,rev?*%
%TF.SameCoordinates,Original*%
%TF.FileFunction,Drillmap*%
%TF.FilePolarity,Positive*%
%FSLAX45Y45*%
G04 Gerber Fmt 4.5, Leading zero omitted, Abs format (unit mm)*
G04 Created by KiCad (PCBNEW 9.0.2+dfsg-1) date 2026-09-07 16:07:51*
%MOMM*%
%LPD*%
G01*
G04 APERTURE LIST*
%ADD10C,0.100000*%
%ADD11C,0.200000*%
G04 APERTURE END LIST*
D10*
X0Y0D02*
X7000000Y0D01*
X0Y-4500000D02*
X0Y0D01*
X7000000Y0D02*
X7000000Y-4500000D01*
X7000000Y-4500000D02*
X0Y-4500000D01*
D11*
D10*
X785000Y-1343000D02*
X815000Y-1373000D01*
X815000Y-1343000D02*
X785000Y-1373000D01*
X1071250Y-3285000D02*
X1101250Y-3315000D01*
X1101250Y-3285000D02*
X1071250Y-3315000D01*
X1262500Y-2985000D02*
X1292500Y-3015000D01*
X1292500Y-2985000D02*
X1262500Y-3015000D01*
X1262500Y-3585000D02*
X1292500Y-3615000D01*
X1292500Y-3585000D02*
X1262500Y-3615000D01*
X1432500Y-2710000D02*
X1462500Y-2740000D01*
X1462500Y-2710000D02*
X1432500Y-2740000D01*
X1575000Y-585000D02*
X1605000Y-615000D01*
X1605000Y-585000D02*
X1575000Y-615000D01*
X1652500Y-2810000D02*
X1682500Y-2840000D01*
X1682500Y-2810000D02*
X1652500Y-2840000D01*
X1685000Y-2085000D02*
X1715000Y-2115000D01*
X1715000Y-2085000D02*
X1685000Y-2115000D01*
X1745000Y-585000D02*
X1775000Y-615000D01*
X1775000Y-585000D02*
X1745000Y-615000D01*
X1785000Y-1807500D02*
X1815000Y-1837500D01*
X1815000Y-1807500D02*
X1785000Y-1837500D01*
X1855711Y-1546789D02*
X1885711Y-1576789D01*
X1885711Y-1546789D02*
X1855711Y-1576789D01*
X1885000Y-2085000D02*
X1915000Y-2115000D01*
X1915000Y-2085000D02*
X1885000Y-2115000D01*
X1885000Y-2317500D02*
X1915000Y-2347500D01*
X1915000Y-2317500D02*
X1885000Y-2347500D01*
X1913566Y-2641066D02*
X1943566Y-2671066D01*
X1943566Y-2641066D02*
X1913566Y-2671066D01*
X1967500Y-2935000D02*
X1997500Y-2965000D01*
X1997500Y-2935000D02*
X1967500Y-2965000D01*
X1985000Y-2343000D02*
X2015000Y-2373000D01*
X2015000Y-2343000D02*
X1985000Y-2373000D01*
X2075910Y-1283030D02*
X2105910Y-1313030D01*
X2105910Y-1283030D02*
X2075910Y-1313030D01*
X2210000Y-2302500D02*
X2240000Y-2332500D01*
X2240000Y-2302500D02*
X2210000Y-2332500D01*
X2217500Y-1760000D02*
X2247500Y-1790000D01*
X2247500Y-1760000D02*
X2217500Y-1790000D01*
X2217500Y-1860000D02*
X2247500Y-1890000D01*
X2247500Y-1860000D02*
X2217500Y-1890000D01*
X2260000Y-2752500D02*
X2290000Y-2782500D01*
X2290000Y-2752500D02*
X2260000Y-2782500D01*
X2307500Y-3260000D02*
X2337500Y-3290000D01*
X2337500Y-3260000D02*
X2307500Y-3290000D01*
X2310000Y-1472500D02*
X2340000Y-1502500D01*
X2340000Y-1472500D02*
X2310000Y-1502500D01*
X2342500Y-2885000D02*
X2372500Y-2915000D01*
X2372500Y-2885000D02*
X2342500Y-2915000D01*
X2383000Y-2240000D02*
X2413000Y-2270000D01*
X2413000Y-2240000D02*
X2383000Y-2270000D01*
X2383211Y-1155711D02*
X2413211Y-1185711D01*
X2413211Y-1155711D02*
X2383211Y-1185711D01*
X2388211Y-2614289D02*
X2418211Y-2644289D01*
X2418211Y-2614289D02*
X2388211Y-2644289D01*
X2410000Y-1610000D02*
X2440000Y-1640000D01*
X2440000Y-1610000D02*
X2410000Y-1640000D01*
X2410000Y-3243000D02*
X2440000Y-3273000D01*
X2440000Y-3243000D02*
X2410000Y-3273000D01*
X2460000Y-2297500D02*
X2490000Y-2327500D01*
X2490000Y-2297500D02*
X2460000Y-2327500D01*
X2531066Y-291066D02*
X2561066Y-321066D01*
X2561066Y-291066D02*
X2531066Y-321066D01*
X2560250Y-1182750D02*
X2590250Y-1212750D01*
X2590250Y-1182750D02*
X2560250Y-1212750D01*
X2635000Y-860000D02*
X2665000Y-890000D01*
X2665000Y-860000D02*
X2635000Y-890000D01*
X2727500Y-885000D02*
X2757500Y-915000D01*
X2757500Y-885000D02*
X2727500Y-915000D01*
X2760000Y-2302500D02*
X2790000Y-2332500D01*
X2790000Y-2302500D02*
X2760000Y-2332500D01*
X2797500Y-1085000D02*
X2827500Y-1115000D01*
X2827500Y-1085000D02*
X2797500Y-1115000D01*
X2906236Y-2932934D02*
X2936236Y-2962934D01*
X2936236Y-2932934D02*
X2906236Y-2962934D01*
X3002500Y-885000D02*
X3032500Y-915000D01*
X3032500Y-885000D02*
X3002500Y-915000D01*
X3117500Y-2685000D02*
X3147500Y-2715000D01*
X3147500Y-2685000D02*
X3117500Y-2715000D01*
X3164289Y-1333211D02*
X3194289Y-1363211D01*
X3194289Y-1333211D02*
X3164289Y-1363211D01*
X3185000Y-885000D02*
X3215000Y-915000D01*
X3215000Y-885000D02*
X3185000Y-915000D01*
X3198641Y-1143859D02*
X3228641Y-1173859D01*
X3228641Y-1143859D02*
X3198641Y-1173859D01*
X3207500Y-2435000D02*
X3237500Y-2465000D01*
X3237500Y-2435000D02*
X3207500Y-2465000D01*
X3348976Y-1563386D02*
X3378976Y-1593386D01*
X3378976Y-1563386D02*
X3348976Y-1593386D01*
X3362500Y-2685000D02*
X3392500Y-2715000D01*
X3392500Y-2685000D02*
X3362500Y-2715000D01*
X3385000Y-1727500D02*
X3415000Y-1757500D01*
X3415000Y-1727500D02*
X3385000Y-1757500D01*
X3402500Y-985000D02*
X3432500Y-1015000D01*
X3432500Y-985000D02*
X3402500Y-1015000D01*
X3455711Y-2388211D02*
X3485711Y-2418211D01*
X3485711Y-2388211D02*
X3455711Y-2418211D01*
X3477500Y-1360000D02*
X3507500Y-1390000D01*
X3507500Y-1360000D02*
X3477500Y-1390000D01*
X3502500Y-2010000D02*
X3532500Y-2040000D01*
X3532500Y-2010000D02*
X3502500Y-2040000D01*
X3662500Y-3135000D02*
X3692500Y-3165000D01*
X3692500Y-3135000D02*
X3662500Y-3165000D01*
X3741066Y-128934D02*
X3771066Y-158934D01*
X3771066Y-128934D02*
X3741066Y-158934D01*
X3927500Y-3360000D02*
X3957500Y-3390000D01*
X3957500Y-3360000D02*
X3927500Y-3390000D01*
X3964289Y-305711D02*
X3994289Y-335711D01*
X3994289Y-305711D02*
X3964289Y-335711D01*
X4206250Y-135000D02*
X4236250Y-165000D01*
X4236250Y-135000D02*
X4206250Y-165000D01*
X4568750Y-135000D02*
X4598750Y-165000D01*
X4598750Y-135000D02*
X4568750Y-165000D01*
X4793039Y-205711D02*
X4823039Y-235711D01*
X4823039Y-205711D02*
X4793039Y-235711D01*
X5010000Y-3418000D02*
X5040000Y-3448000D01*
X5040000Y-3418000D02*
X5010000Y-3448000D01*
X5217500Y-80000D02*
X5247500Y-110000D01*
X5247500Y-80000D02*
X5217500Y-110000D01*
X5322500Y-135000D02*
X5352500Y-165000D01*
X5352500Y-135000D02*
X5322500Y-165000D01*
X5461434Y-241066D02*
X5491434Y-271066D01*
X5491434Y-241066D02*
X5461434Y-271066D01*
X6260000Y-2043000D02*
X6290000Y-2073000D01*
X6290000Y-2043000D02*
X6260000Y-2073000D01*
X3632500Y-3400000D02*
G75*
G02*
X3567500Y-3400000I-32500J0D01*
G01*
X3567500Y-3400000D02*
G75*
G02*
X3632500Y-3400000I32500J0D01*
G01*
X3632500Y-3527000D02*
G75*
G02*
X3567500Y-3527000I-32500J0D01*
G01*
X3567500Y-3527000D02*
G75*
G02*
X3632500Y-3527000I32500J0D01*
G01*
X3632500Y-3654000D02*
G75*
G02*
X3567500Y-3654000I-32500J0D01*
G01*
X3567500Y-3654000D02*
G75*
G02*
X3632500Y-3654000I32500J0D01*
G01*
X3632500Y-3781000D02*
G75*
G02*
X3567500Y-3781000I-32500J0D01*
G01*
X3567500Y-3781000D02*
G75*
G02*
X3632500Y-3781000I32500J0D01*
G01*
X3632500Y-3908000D02*
G75*
G02*
X3567500Y-3908000I-32500J0D01*
G01*
X3567500Y-3908000D02*
G75*
G02*
X3632500Y-3908000I32500J0D01*
G01*
X3759500Y-3400000D02*
G75*
G02*
X3694500Y-3400000I-32500J0D01*
G01*
X3694500Y-3400000D02*
G75*
G02*
X3759500Y-3400000I32500J0D01*
G01*
X3759500Y-3527000D02*
G75*
G02*
X3694500Y-3527000I-32500J0D01*
G01*
X3694500Y-3527000D02*
G75*
G02*
X3759500Y-3527000I32500J0D01*
G01*
X3759500Y-3654000D02*
G75*
G02*
X3694500Y-3654000I-32500J0D01*
G01*
X3694500Y-3654000D02*
G75*
G02*
X3759500Y-3654000I32500J0D01*
G01*
X3759500Y-3781000D02*
G75*
G02*
X3694500Y-3781000I-32500J0D01*
G01*
X3694500Y-3781000D02*
G75*
G02*
X3759500Y-3781000I32500J0D01*
G01*
X3759500Y-3908000D02*
G75*
G02*
X3694500Y-3908000I-32500J0D01*
G01*
X3694500Y-3908000D02*
G75*
G02*
X3759500Y-3908000I32500J0D01*
G01*
X500000Y-800000D02*
X500000Y-900000D01*
X450000Y-850000D02*
X550000Y-850000D01*
X500000Y-1054000D02*
X500000Y-1154000D01*
X450000Y-1104000D02*
X550000Y-1104000D01*
X500000Y-1308000D02*
X500000Y-1408000D01*
X450000Y-1358000D02*
X550000Y-1358000D01*
X500000Y-1750000D02*
X500000Y-1850000D01*
X450000Y-1800000D02*
X550000Y-1800000D01*
X500000Y-2004000D02*
X500000Y-2104000D01*
X450000Y-2054000D02*
X550000Y-2054000D01*
X500000Y-2258000D02*
X500000Y-2358000D01*
X450000Y-2308000D02*
X550000Y-2308000D01*
X500000Y-2750000D02*
X500000Y-2850000D01*
X450000Y-2800000D02*
X550000Y-2800000D01*
X500000Y-3004000D02*
X500000Y-3104000D01*
X450000Y-3054000D02*
X550000Y-3054000D01*
X5600000Y-3350000D02*
X5600000Y-3450000D01*
X5550000Y-3400000D02*
X5650000Y-3400000D01*
X5600000Y-3604000D02*
X5600000Y-3704000D01*
X5550000Y-3654000D02*
X5650000Y-3654000D01*
X5600000Y-3858000D02*
X5600000Y-3958000D01*
X5550000Y-3908000D02*
X5650000Y-3908000D01*
X5600000Y-4112000D02*
X5600000Y-4212000D01*
X5550000Y-4162000D02*
X5650000Y-4162000D01*
X6400000Y-1150000D02*
X6400000Y-1250000D01*
X6350000Y-1200000D02*
X6450000Y-1200000D01*
X6400000Y-1404000D02*
X6400000Y-1504000D01*
X6350000Y-1454000D02*
X6450000Y-1454000D01*
X6400000Y-1658000D02*
X6400000Y-1758000D01*
X6350000Y-1708000D02*
X6450000Y-1708000D01*
X6400000Y-1912000D02*
X6400000Y-2012000D01*
X6350000Y-1962000D02*
X6450000Y-1962000D01*
D11*
X255777Y-4816484D02*
X255777Y-4616484D01*
X255777Y-4616484D02*
X303396Y-4616484D01*
X303396Y-4616484D02*
X331967Y-4626008D01*
X331967Y-4626008D02*
X351015Y-4645055D01*
X351015Y-4645055D02*
X360539Y-4664103D01*
X360539Y-4664103D02*
X370062Y-4702198D01*
X370062Y-4702198D02*
X370062Y-4730770D01*
X370062Y-4730770D02*
X360539Y-4768865D01*
X360539Y-4768865D02*
X351015Y-4787912D01*
X351015Y-4787912D02*
X331967Y-4806960D01*
X331967Y-4806960D02*
X303396Y-4816484D01*
X303396Y-4816484D02*
X255777Y-4816484D01*
X455777Y-4816484D02*
X455777Y-4683150D01*
X455777Y-4721246D02*
X465301Y-4702198D01*
X465301Y-4702198D02*
X474824Y-4692674D01*
X474824Y-4692674D02*
X493872Y-4683150D01*
X493872Y-4683150D02*
X512920Y-4683150D01*
X579586Y-4816484D02*
X579586Y-4683150D01*
X579586Y-4616484D02*
X570063Y-4626008D01*
X570063Y-4626008D02*
X579586Y-4635531D01*
X579586Y-4635531D02*
X589110Y-4626008D01*
X589110Y-4626008D02*
X579586Y-4616484D01*
X579586Y-4616484D02*
X579586Y-4635531D01*
X703396Y-4816484D02*
X684348Y-4806960D01*
X684348Y-4806960D02*
X674824Y-4787912D01*
X674824Y-4787912D02*
X674824Y-4616484D01*
X808158Y-4816484D02*
X789110Y-4806960D01*
X789110Y-4806960D02*
X779586Y-4787912D01*
X779586Y-4787912D02*
X779586Y-4616484D01*
X1036729Y-4816484D02*
X1036729Y-4616484D01*
X1036729Y-4616484D02*
X1103396Y-4759341D01*
X1103396Y-4759341D02*
X1170063Y-4616484D01*
X1170063Y-4616484D02*
X1170063Y-4816484D01*
X1351015Y-4816484D02*
X1351015Y-4711722D01*
X1351015Y-4711722D02*
X1341491Y-4692674D01*
X1341491Y-4692674D02*
X1322444Y-4683150D01*
X1322444Y-4683150D02*
X1284348Y-4683150D01*
X1284348Y-4683150D02*
X1265301Y-4692674D01*
X1351015Y-4806960D02*
X1331967Y-4816484D01*
X1331967Y-4816484D02*
X1284348Y-4816484D01*
X1284348Y-4816484D02*
X1265301Y-4806960D01*
X1265301Y-4806960D02*
X1255777Y-4787912D01*
X1255777Y-4787912D02*
X1255777Y-4768865D01*
X1255777Y-4768865D02*
X1265301Y-4749817D01*
X1265301Y-4749817D02*
X1284348Y-4740293D01*
X1284348Y-4740293D02*
X1331967Y-4740293D01*
X1331967Y-4740293D02*
X1351015Y-4730770D01*
X1446253Y-4683150D02*
X1446253Y-4883150D01*
X1446253Y-4692674D02*
X1465301Y-4683150D01*
X1465301Y-4683150D02*
X1503396Y-4683150D01*
X1503396Y-4683150D02*
X1522443Y-4692674D01*
X1522443Y-4692674D02*
X1531967Y-4702198D01*
X1531967Y-4702198D02*
X1541491Y-4721246D01*
X1541491Y-4721246D02*
X1541491Y-4778389D01*
X1541491Y-4778389D02*
X1531967Y-4797436D01*
X1531967Y-4797436D02*
X1522443Y-4806960D01*
X1522443Y-4806960D02*
X1503396Y-4816484D01*
X1503396Y-4816484D02*
X1465301Y-4816484D01*
X1465301Y-4816484D02*
X1446253Y-4806960D01*
X1627205Y-4797436D02*
X1636729Y-4806960D01*
X1636729Y-4806960D02*
X1627205Y-4816484D01*
X1627205Y-4816484D02*
X1617682Y-4806960D01*
X1617682Y-4806960D02*
X1627205Y-4797436D01*
X1627205Y-4797436D02*
X1627205Y-4816484D01*
X1627205Y-4692674D02*
X1636729Y-4702198D01*
X1636729Y-4702198D02*
X1627205Y-4711722D01*
X1627205Y-4711722D02*
X1617682Y-4702198D01*
X1617682Y-4702198D02*
X1627205Y-4692674D01*
X1627205Y-4692674D02*
X1627205Y-4711722D01*
D10*
X-35000Y-5130000D02*
X-5000Y-5160000D01*
X-5000Y-5130000D02*
X-35000Y-5160000D01*
D11*
X293872Y-5036484D02*
X312920Y-5036484D01*
X312920Y-5036484D02*
X331967Y-5046008D01*
X331967Y-5046008D02*
X341491Y-5055531D01*
X341491Y-5055531D02*
X351015Y-5074579D01*
X351015Y-5074579D02*
X360539Y-5112674D01*
X360539Y-5112674D02*
X360539Y-5160293D01*
X360539Y-5160293D02*
X351015Y-5198389D01*
X351015Y-5198389D02*
X341491Y-5217436D01*
X341491Y-5217436D02*
X331967Y-5226960D01*
X331967Y-5226960D02*
X312920Y-5236484D01*
X312920Y-5236484D02*
X293872Y-5236484D01*
X293872Y-5236484D02*
X274824Y-5226960D01*
X274824Y-5226960D02*
X265301Y-5217436D01*
X265301Y-5217436D02*
X255777Y-5198389D01*
X255777Y-5198389D02*
X246253Y-5160293D01*
X246253Y-5160293D02*
X246253Y-5112674D01*
X246253Y-5112674D02*
X255777Y-5074579D01*
X255777Y-5074579D02*
X265301Y-5055531D01*
X265301Y-5055531D02*
X274824Y-5046008D01*
X274824Y-5046008D02*
X293872Y-5036484D01*
X446253Y-5217436D02*
X455777Y-5226960D01*
X455777Y-5226960D02*
X446253Y-5236484D01*
X446253Y-5236484D02*
X436729Y-5226960D01*
X436729Y-5226960D02*
X446253Y-5217436D01*
X446253Y-5217436D02*
X446253Y-5236484D01*
X522443Y-5036484D02*
X646253Y-5036484D01*
X646253Y-5036484D02*
X579586Y-5112674D01*
X579586Y-5112674D02*
X608158Y-5112674D01*
X608158Y-5112674D02*
X627205Y-5122198D01*
X627205Y-5122198D02*
X636729Y-5131722D01*
X636729Y-5131722D02*
X646253Y-5150770D01*
X646253Y-5150770D02*
X646253Y-5198389D01*
X646253Y-5198389D02*
X636729Y-5217436D01*
X636729Y-5217436D02*
X627205Y-5226960D01*
X627205Y-5226960D02*
X608158Y-5236484D01*
X608158Y-5236484D02*
X551015Y-5236484D01*
X551015Y-5236484D02*
X531967Y-5226960D01*
X531967Y-5226960D02*
X522443Y-5217436D01*
X770062Y-5036484D02*
X789110Y-5036484D01*
X789110Y-5036484D02*
X808158Y-5046008D01*
X808158Y-5046008D02*
X817682Y-5055531D01*
X817682Y-5055531D02*
X827205Y-5074579D01*
X827205Y-5074579D02*
X836729Y-5112674D01*
X836729Y-5112674D02*
X836729Y-5160293D01*
X836729Y-5160293D02*
X827205Y-5198389D01*
X827205Y-5198389D02*
X817682Y-5217436D01*
X817682Y-5217436D02*
X808158Y-5226960D01*
X808158Y-5226960D02*
X789110Y-5236484D01*
X789110Y-5236484D02*
X770062Y-5236484D01*
X770062Y-5236484D02*
X751015Y-5226960D01*
X751015Y-5226960D02*
X741491Y-5217436D01*
X741491Y-5217436D02*
X731967Y-5198389D01*
X731967Y-5198389D02*
X722443Y-5160293D01*
X722443Y-5160293D02*
X722443Y-5112674D01*
X722443Y-5112674D02*
X731967Y-5074579D01*
X731967Y-5074579D02*
X741491Y-5055531D01*
X741491Y-5055531D02*
X751015Y-5046008D01*
X751015Y-5046008D02*
X770062Y-5036484D01*
X960539Y-5036484D02*
X979586Y-5036484D01*
X979586Y-5036484D02*
X998634Y-5046008D01*
X998634Y-5046008D02*
X1008158Y-5055531D01*
X1008158Y-5055531D02*
X1017682Y-5074579D01*
X1017682Y-5074579D02*
X1027205Y-5112674D01*
X1027205Y-5112674D02*
X1027205Y-5160293D01*
X1027205Y-5160293D02*
X1017682Y-5198389D01*
X1017682Y-5198389D02*
X1008158Y-5217436D01*
X1008158Y-5217436D02*
X998634Y-5226960D01*
X998634Y-5226960D02*
X979586Y-5236484D01*
X979586Y-5236484D02*
X960539Y-5236484D01*
X960539Y-5236484D02*
X941491Y-5226960D01*
X941491Y-5226960D02*
X931967Y-5217436D01*
X931967Y-5217436D02*
X922443Y-5198389D01*
X922443Y-5198389D02*
X912920Y-5160293D01*
X912920Y-5160293D02*
X912920Y-5112674D01*
X912920Y-5112674D02*
X922443Y-5074579D01*
X922443Y-5074579D02*
X931967Y-5055531D01*
X931967Y-5055531D02*
X941491Y-5046008D01*
X941491Y-5046008D02*
X960539Y-5036484D01*
X1112920Y-5236484D02*
X1112920Y-5103150D01*
X1112920Y-5122198D02*
X1122444Y-5112674D01*
X1122444Y-5112674D02*
X1141491Y-5103150D01*
X1141491Y-5103150D02*
X1170063Y-5103150D01*
X1170063Y-5103150D02*
X1189110Y-5112674D01*
X1189110Y-5112674D02*
X1198634Y-5131722D01*
X1198634Y-5131722D02*
X1198634Y-5236484D01*
X1198634Y-5131722D02*
X1208158Y-5112674D01*
X1208158Y-5112674D02*
X1227205Y-5103150D01*
X1227205Y-5103150D02*
X1255777Y-5103150D01*
X1255777Y-5103150D02*
X1274825Y-5112674D01*
X1274825Y-5112674D02*
X1284348Y-5131722D01*
X1284348Y-5131722D02*
X1284348Y-5236484D01*
X1379586Y-5236484D02*
X1379586Y-5103150D01*
X1379586Y-5122198D02*
X1389110Y-5112674D01*
X1389110Y-5112674D02*
X1408158Y-5103150D01*
X1408158Y-5103150D02*
X1436729Y-5103150D01*
X1436729Y-5103150D02*
X1455777Y-5112674D01*
X1455777Y-5112674D02*
X1465301Y-5131722D01*
X1465301Y-5131722D02*
X1465301Y-5236484D01*
X1465301Y-5131722D02*
X1474824Y-5112674D01*
X1474824Y-5112674D02*
X1493872Y-5103150D01*
X1493872Y-5103150D02*
X1522443Y-5103150D01*
X1522443Y-5103150D02*
X1541491Y-5112674D01*
X1541491Y-5112674D02*
X1551015Y-5131722D01*
X1551015Y-5131722D02*
X1551015Y-5236484D01*
X1941491Y-5026960D02*
X1770063Y-5284103D01*
X2198634Y-5036484D02*
X2217682Y-5036484D01*
X2217682Y-5036484D02*
X2236729Y-5046008D01*
X2236729Y-5046008D02*
X2246253Y-5055531D01*
X2246253Y-5055531D02*
X2255777Y-5074579D01*
X2255777Y-5074579D02*
X2265301Y-5112674D01*
X2265301Y-5112674D02*
X2265301Y-5160293D01*
X2265301Y-5160293D02*
X2255777Y-5198389D01*
X2255777Y-5198389D02*
X2246253Y-5217436D01*
X2246253Y-5217436D02*
X2236729Y-5226960D01*
X2236729Y-5226960D02*
X2217682Y-5236484D01*
X2217682Y-5236484D02*
X2198634Y-5236484D01*
X2198634Y-5236484D02*
X2179587Y-5226960D01*
X2179587Y-5226960D02*
X2170063Y-5217436D01*
X2170063Y-5217436D02*
X2160539Y-5198389D01*
X2160539Y-5198389D02*
X2151015Y-5160293D01*
X2151015Y-5160293D02*
X2151015Y-5112674D01*
X2151015Y-5112674D02*
X2160539Y-5074579D01*
X2160539Y-5074579D02*
X2170063Y-5055531D01*
X2170063Y-5055531D02*
X2179587Y-5046008D01*
X2179587Y-5046008D02*
X2198634Y-5036484D01*
X2351015Y-5217436D02*
X2360539Y-5226960D01*
X2360539Y-5226960D02*
X2351015Y-5236484D01*
X2351015Y-5236484D02*
X2341491Y-5226960D01*
X2341491Y-5226960D02*
X2351015Y-5217436D01*
X2351015Y-5217436D02*
X2351015Y-5236484D01*
X2484348Y-5036484D02*
X2503396Y-5036484D01*
X2503396Y-5036484D02*
X2522444Y-5046008D01*
X2522444Y-5046008D02*
X2531968Y-5055531D01*
X2531968Y-5055531D02*
X2541491Y-5074579D01*
X2541491Y-5074579D02*
X2551015Y-5112674D01*
X2551015Y-5112674D02*
X2551015Y-5160293D01*
X2551015Y-5160293D02*
X2541491Y-5198389D01*
X2541491Y-5198389D02*
X2531968Y-5217436D01*
X2531968Y-5217436D02*
X2522444Y-5226960D01*
X2522444Y-5226960D02*
X2503396Y-5236484D01*
X2503396Y-5236484D02*
X2484348Y-5236484D01*
X2484348Y-5236484D02*
X2465301Y-5226960D01*
X2465301Y-5226960D02*
X2455777Y-5217436D01*
X2455777Y-5217436D02*
X2446253Y-5198389D01*
X2446253Y-5198389D02*
X2436729Y-5160293D01*
X2436729Y-5160293D02*
X2436729Y-5112674D01*
X2436729Y-5112674D02*
X2446253Y-5074579D01*
X2446253Y-5074579D02*
X2455777Y-5055531D01*
X2455777Y-5055531D02*
X2465301Y-5046008D01*
X2465301Y-5046008D02*
X2484348Y-5036484D01*
X2741491Y-5236484D02*
X2627206Y-5236484D01*
X2684348Y-5236484D02*
X2684348Y-5036484D01*
X2684348Y-5036484D02*
X2665301Y-5065055D01*
X2665301Y-5065055D02*
X2646253Y-5084103D01*
X2646253Y-5084103D02*
X2627206Y-5093627D01*
X2931967Y-5236484D02*
X2817682Y-5236484D01*
X2874825Y-5236484D02*
X2874825Y-5036484D01*
X2874825Y-5036484D02*
X2855777Y-5065055D01*
X2855777Y-5065055D02*
X2836729Y-5084103D01*
X2836729Y-5084103D02*
X2817682Y-5093627D01*
X3046253Y-5122198D02*
X3027206Y-5112674D01*
X3027206Y-5112674D02*
X3017682Y-5103150D01*
X3017682Y-5103150D02*
X3008158Y-5084103D01*
X3008158Y-5084103D02*
X3008158Y-5074579D01*
X3008158Y-5074579D02*
X3017682Y-5055531D01*
X3017682Y-5055531D02*
X3027206Y-5046008D01*
X3027206Y-5046008D02*
X3046253Y-5036484D01*
X3046253Y-5036484D02*
X3084348Y-5036484D01*
X3084348Y-5036484D02*
X3103396Y-5046008D01*
X3103396Y-5046008D02*
X3112920Y-5055531D01*
X3112920Y-5055531D02*
X3122444Y-5074579D01*
X3122444Y-5074579D02*
X3122444Y-5084103D01*
X3122444Y-5084103D02*
X3112920Y-5103150D01*
X3112920Y-5103150D02*
X3103396Y-5112674D01*
X3103396Y-5112674D02*
X3084348Y-5122198D01*
X3084348Y-5122198D02*
X3046253Y-5122198D01*
X3046253Y-5122198D02*
X3027206Y-5131722D01*
X3027206Y-5131722D02*
X3017682Y-5141246D01*
X3017682Y-5141246D02*
X3008158Y-5160293D01*
X3008158Y-5160293D02*
X3008158Y-5198389D01*
X3008158Y-5198389D02*
X3017682Y-5217436D01*
X3017682Y-5217436D02*
X3027206Y-5226960D01*
X3027206Y-5226960D02*
X3046253Y-5236484D01*
X3046253Y-5236484D02*
X3084348Y-5236484D01*
X3084348Y-5236484D02*
X3103396Y-5226960D01*
X3103396Y-5226960D02*
X3112920Y-5217436D01*
X3112920Y-5217436D02*
X3122444Y-5198389D01*
X3122444Y-5198389D02*
X3122444Y-5160293D01*
X3122444Y-5160293D02*
X3112920Y-5141246D01*
X3112920Y-5141246D02*
X3103396Y-5131722D01*
X3103396Y-5131722D02*
X3084348Y-5122198D01*
X3198634Y-5036484D02*
X3198634Y-5074579D01*
X3274825Y-5036484D02*
X3274825Y-5074579D01*
X3570063Y-5312674D02*
X3560539Y-5303150D01*
X3560539Y-5303150D02*
X3541491Y-5274579D01*
X3541491Y-5274579D02*
X3531968Y-5255531D01*
X3531968Y-5255531D02*
X3522444Y-5226960D01*
X3522444Y-5226960D02*
X3512920Y-5179341D01*
X3512920Y-5179341D02*
X3512920Y-5141246D01*
X3512920Y-5141246D02*
X3522444Y-5093627D01*
X3522444Y-5093627D02*
X3531968Y-5065055D01*
X3531968Y-5065055D02*
X3541491Y-5046008D01*
X3541491Y-5046008D02*
X3560539Y-5017436D01*
X3560539Y-5017436D02*
X3570063Y-5007912D01*
X3731968Y-5036484D02*
X3693872Y-5036484D01*
X3693872Y-5036484D02*
X3674825Y-5046008D01*
X3674825Y-5046008D02*
X3665301Y-5055531D01*
X3665301Y-5055531D02*
X3646253Y-5084103D01*
X3646253Y-5084103D02*
X3636729Y-5122198D01*
X3636729Y-5122198D02*
X3636729Y-5198389D01*
X3636729Y-5198389D02*
X3646253Y-5217436D01*
X3646253Y-5217436D02*
X3655777Y-5226960D01*
X3655777Y-5226960D02*
X3674825Y-5236484D01*
X3674825Y-5236484D02*
X3712920Y-5236484D01*
X3712920Y-5236484D02*
X3731968Y-5226960D01*
X3731968Y-5226960D02*
X3741491Y-5217436D01*
X3741491Y-5217436D02*
X3751015Y-5198389D01*
X3751015Y-5198389D02*
X3751015Y-5150770D01*
X3751015Y-5150770D02*
X3741491Y-5131722D01*
X3741491Y-5131722D02*
X3731968Y-5122198D01*
X3731968Y-5122198D02*
X3712920Y-5112674D01*
X3712920Y-5112674D02*
X3674825Y-5112674D01*
X3674825Y-5112674D02*
X3655777Y-5122198D01*
X3655777Y-5122198D02*
X3646253Y-5131722D01*
X3646253Y-5131722D02*
X3636729Y-5150770D01*
X3827206Y-5055531D02*
X3836729Y-5046008D01*
X3836729Y-5046008D02*
X3855777Y-5036484D01*
X3855777Y-5036484D02*
X3903396Y-5036484D01*
X3903396Y-5036484D02*
X3922444Y-5046008D01*
X3922444Y-5046008D02*
X3931968Y-5055531D01*
X3931968Y-5055531D02*
X3941491Y-5074579D01*
X3941491Y-5074579D02*
X3941491Y-5093627D01*
X3941491Y-5093627D02*
X3931968Y-5122198D01*
X3931968Y-5122198D02*
X3817682Y-5236484D01*
X3817682Y-5236484D02*
X3941491Y-5236484D01*
X4179587Y-5236484D02*
X4179587Y-5036484D01*
X4265301Y-5236484D02*
X4265301Y-5131722D01*
X4265301Y-5131722D02*
X4255777Y-5112674D01*
X4255777Y-5112674D02*
X4236730Y-5103150D01*
X4236730Y-5103150D02*
X4208158Y-5103150D01*
X4208158Y-5103150D02*
X4189110Y-5112674D01*
X4189110Y-5112674D02*
X4179587Y-5122198D01*
X4389111Y-5236484D02*
X4370063Y-5226960D01*
X4370063Y-5226960D02*
X4360539Y-5217436D01*
X4360539Y-5217436D02*
X4351015Y-5198389D01*
X4351015Y-5198389D02*
X4351015Y-5141246D01*
X4351015Y-5141246D02*
X4360539Y-5122198D01*
X4360539Y-5122198D02*
X4370063Y-5112674D01*
X4370063Y-5112674D02*
X4389111Y-5103150D01*
X4389111Y-5103150D02*
X4417682Y-5103150D01*
X4417682Y-5103150D02*
X4436730Y-5112674D01*
X4436730Y-5112674D02*
X4446253Y-5122198D01*
X4446253Y-5122198D02*
X4455777Y-5141246D01*
X4455777Y-5141246D02*
X4455777Y-5198389D01*
X4455777Y-5198389D02*
X4446253Y-5217436D01*
X4446253Y-5217436D02*
X4436730Y-5226960D01*
X4436730Y-5226960D02*
X4417682Y-5236484D01*
X4417682Y-5236484D02*
X4389111Y-5236484D01*
X4570063Y-5236484D02*
X4551015Y-5226960D01*
X4551015Y-5226960D02*
X4541492Y-5207912D01*
X4541492Y-5207912D02*
X4541492Y-5036484D01*
X4722444Y-5226960D02*
X4703396Y-5236484D01*
X4703396Y-5236484D02*
X4665301Y-5236484D01*
X4665301Y-5236484D02*
X4646253Y-5226960D01*
X4646253Y-5226960D02*
X4636730Y-5207912D01*
X4636730Y-5207912D02*
X4636730Y-5131722D01*
X4636730Y-5131722D02*
X4646253Y-5112674D01*
X4646253Y-5112674D02*
X4665301Y-5103150D01*
X4665301Y-5103150D02*
X4703396Y-5103150D01*
X4703396Y-5103150D02*
X4722444Y-5112674D01*
X4722444Y-5112674D02*
X4731968Y-5131722D01*
X4731968Y-5131722D02*
X4731968Y-5150770D01*
X4731968Y-5150770D02*
X4636730Y-5169817D01*
X4808158Y-5226960D02*
X4827206Y-5236484D01*
X4827206Y-5236484D02*
X4865301Y-5236484D01*
X4865301Y-5236484D02*
X4884349Y-5226960D01*
X4884349Y-5226960D02*
X4893873Y-5207912D01*
X4893873Y-5207912D02*
X4893873Y-5198389D01*
X4893873Y-5198389D02*
X4884349Y-5179341D01*
X4884349Y-5179341D02*
X4865301Y-5169817D01*
X4865301Y-5169817D02*
X4836730Y-5169817D01*
X4836730Y-5169817D02*
X4817682Y-5160293D01*
X4817682Y-5160293D02*
X4808158Y-5141246D01*
X4808158Y-5141246D02*
X4808158Y-5131722D01*
X4808158Y-5131722D02*
X4817682Y-5112674D01*
X4817682Y-5112674D02*
X4836730Y-5103150D01*
X4836730Y-5103150D02*
X4865301Y-5103150D01*
X4865301Y-5103150D02*
X4884349Y-5112674D01*
X4960539Y-5312674D02*
X4970063Y-5303150D01*
X4970063Y-5303150D02*
X4989111Y-5274579D01*
X4989111Y-5274579D02*
X4998634Y-5255531D01*
X4998634Y-5255531D02*
X5008158Y-5226960D01*
X5008158Y-5226960D02*
X5017682Y-5179341D01*
X5017682Y-5179341D02*
X5017682Y-5141246D01*
X5017682Y-5141246D02*
X5008158Y-5093627D01*
X5008158Y-5093627D02*
X4998634Y-5065055D01*
X4998634Y-5065055D02*
X4989111Y-5046008D01*
X4989111Y-5046008D02*
X4970063Y-5017436D01*
X4970063Y-5017436D02*
X4960539Y-5007912D01*
D10*
X-5000Y-5409000D02*
G75*
G02*
X-70000Y-5409000I-32500J0D01*
G01*
X-70000Y-5409000D02*
G75*
G02*
X-5000Y-5409000I32500J0D01*
G01*
D11*
X293872Y-5300484D02*
X312920Y-5300484D01*
X312920Y-5300484D02*
X331967Y-5310008D01*
X331967Y-5310008D02*
X341491Y-5319531D01*
X341491Y-5319531D02*
X351015Y-5338579D01*
X351015Y-5338579D02*
X360539Y-5376674D01*
X360539Y-5376674D02*
X360539Y-5424293D01*
X360539Y-5424293D02*
X351015Y-5462389D01*
X351015Y-5462389D02*
X341491Y-5481436D01*
X341491Y-5481436D02*
X331967Y-5490960D01*
X331967Y-5490960D02*
X312920Y-5500484D01*
X312920Y-5500484D02*
X293872Y-5500484D01*
X293872Y-5500484D02*
X274824Y-5490960D01*
X274824Y-5490960D02*
X265301Y-5481436D01*
X265301Y-5481436D02*
X255777Y-5462389D01*
X255777Y-5462389D02*
X246253Y-5424293D01*
X246253Y-5424293D02*
X246253Y-5376674D01*
X246253Y-5376674D02*
X255777Y-5338579D01*
X255777Y-5338579D02*
X265301Y-5319531D01*
X265301Y-5319531D02*
X274824Y-5310008D01*
X274824Y-5310008D02*
X293872Y-5300484D01*
X446253Y-5481436D02*
X455777Y-5490960D01*
X455777Y-5490960D02*
X446253Y-5500484D01*
X446253Y-5500484D02*
X436729Y-5490960D01*
X436729Y-5490960D02*
X446253Y-5481436D01*
X446253Y-5481436D02*
X446253Y-5500484D01*
X627205Y-5300484D02*
X589110Y-5300484D01*
X589110Y-5300484D02*
X570063Y-5310008D01*
X570063Y-5310008D02*
X560539Y-5319531D01*
X560539Y-5319531D02*
X541491Y-5348103D01*
X541491Y-5348103D02*
X531967Y-5386198D01*
X531967Y-5386198D02*
X531967Y-5462389D01*
X531967Y-5462389D02*
X541491Y-5481436D01*
X541491Y-5481436D02*
X551015Y-5490960D01*
X551015Y-5490960D02*
X570063Y-5500484D01*
X570063Y-5500484D02*
X608158Y-5500484D01*
X608158Y-5500484D02*
X627205Y-5490960D01*
X627205Y-5490960D02*
X636729Y-5481436D01*
X636729Y-5481436D02*
X646253Y-5462389D01*
X646253Y-5462389D02*
X646253Y-5414770D01*
X646253Y-5414770D02*
X636729Y-5395722D01*
X636729Y-5395722D02*
X627205Y-5386198D01*
X627205Y-5386198D02*
X608158Y-5376674D01*
X608158Y-5376674D02*
X570063Y-5376674D01*
X570063Y-5376674D02*
X551015Y-5386198D01*
X551015Y-5386198D02*
X541491Y-5395722D01*
X541491Y-5395722D02*
X531967Y-5414770D01*
X827205Y-5300484D02*
X731967Y-5300484D01*
X731967Y-5300484D02*
X722443Y-5395722D01*
X722443Y-5395722D02*
X731967Y-5386198D01*
X731967Y-5386198D02*
X751015Y-5376674D01*
X751015Y-5376674D02*
X798634Y-5376674D01*
X798634Y-5376674D02*
X817682Y-5386198D01*
X817682Y-5386198D02*
X827205Y-5395722D01*
X827205Y-5395722D02*
X836729Y-5414770D01*
X836729Y-5414770D02*
X836729Y-5462389D01*
X836729Y-5462389D02*
X827205Y-5481436D01*
X827205Y-5481436D02*
X817682Y-5490960D01*
X817682Y-5490960D02*
X798634Y-5500484D01*
X798634Y-5500484D02*
X751015Y-5500484D01*
X751015Y-5500484D02*
X731967Y-5490960D01*
X731967Y-5490960D02*
X722443Y-5481436D01*
X960539Y-5300484D02*
X979586Y-5300484D01*
X979586Y-5300484D02*
X998634Y-5310008D01*
X998634Y-5310008D02*
X1008158Y-5319531D01*
X1008158Y-5319531D02*
X1017682Y-5338579D01*
X1017682Y-5338579D02*
X1027205Y-5376674D01*
X1027205Y-5376674D02*
X1027205Y-5424293D01*
X1027205Y-5424293D02*
X1017682Y-5462389D01*
X1017682Y-5462389D02*
X1008158Y-5481436D01*
X1008158Y-5481436D02*
X998634Y-5490960D01*
X998634Y-5490960D02*
X979586Y-5500484D01*
X979586Y-5500484D02*
X960539Y-5500484D01*
X960539Y-5500484D02*
X941491Y-5490960D01*
X941491Y-5490960D02*
X931967Y-5481436D01*
X931967Y-5481436D02*
X922443Y-5462389D01*
X922443Y-5462389D02*
X912920Y-5424293D01*
X912920Y-5424293D02*
X912920Y-5376674D01*
X912920Y-5376674D02*
X922443Y-5338579D01*
X922443Y-5338579D02*
X931967Y-5319531D01*
X931967Y-5319531D02*
X941491Y-5310008D01*
X941491Y-5310008D02*
X960539Y-5300484D01*
X1112920Y-5500484D02*
X1112920Y-5367150D01*
X1112920Y-5386198D02*
X1122444Y-5376674D01*
X1122444Y-5376674D02*
X1141491Y-5367150D01*
X1141491Y-5367150D02*
X1170063Y-5367150D01*
X1170063Y-5367150D02*
X1189110Y-5376674D01*
X1189110Y-5376674D02*
X1198634Y-5395722D01*
X1198634Y-5395722D02*
X1198634Y-5500484D01*
X1198634Y-5395722D02*
X1208158Y-5376674D01*
X1208158Y-5376674D02*
X1227205Y-5367150D01*
X1227205Y-5367150D02*
X1255777Y-5367150D01*
X1255777Y-5367150D02*
X1274825Y-5376674D01*
X1274825Y-5376674D02*
X1284348Y-5395722D01*
X1284348Y-5395722D02*
X1284348Y-5500484D01*
X1379586Y-5500484D02*
X1379586Y-5367150D01*
X1379586Y-5386198D02*
X1389110Y-5376674D01*
X1389110Y-5376674D02*
X1408158Y-5367150D01*
X1408158Y-5367150D02*
X1436729Y-5367150D01*
X1436729Y-5367150D02*
X1455777Y-5376674D01*
X1455777Y-5376674D02*
X1465301Y-5395722D01*
X1465301Y-5395722D02*
X1465301Y-5500484D01*
X1465301Y-5395722D02*
X1474824Y-5376674D01*
X1474824Y-5376674D02*
X1493872Y-5367150D01*
X1493872Y-5367150D02*
X1522443Y-5367150D01*
X1522443Y-5367150D02*
X1541491Y-5376674D01*
X1541491Y-5376674D02*
X1551015Y-5395722D01*
X1551015Y-5395722D02*
X1551015Y-5500484D01*
X1941491Y-5290960D02*
X1770063Y-5548103D01*
X2198634Y-5300484D02*
X2217682Y-5300484D01*
X2217682Y-5300484D02*
X2236729Y-5310008D01*
X2236729Y-5310008D02*
X2246253Y-5319531D01*
X2246253Y-5319531D02*
X2255777Y-5338579D01*
X2255777Y-5338579D02*
X2265301Y-5376674D01*
X2265301Y-5376674D02*
X2265301Y-5424293D01*
X2265301Y-5424293D02*
X2255777Y-5462389D01*
X2255777Y-5462389D02*
X2246253Y-5481436D01*
X2246253Y-5481436D02*
X2236729Y-5490960D01*
X2236729Y-5490960D02*
X2217682Y-5500484D01*
X2217682Y-5500484D02*
X2198634Y-5500484D01*
X2198634Y-5500484D02*
X2179587Y-5490960D01*
X2179587Y-5490960D02*
X2170063Y-5481436D01*
X2170063Y-5481436D02*
X2160539Y-5462389D01*
X2160539Y-5462389D02*
X2151015Y-5424293D01*
X2151015Y-5424293D02*
X2151015Y-5376674D01*
X2151015Y-5376674D02*
X2160539Y-5338579D01*
X2160539Y-5338579D02*
X2170063Y-5319531D01*
X2170063Y-5319531D02*
X2179587Y-5310008D01*
X2179587Y-5310008D02*
X2198634Y-5300484D01*
X2351015Y-5481436D02*
X2360539Y-5490960D01*
X2360539Y-5490960D02*
X2351015Y-5500484D01*
X2351015Y-5500484D02*
X2341491Y-5490960D01*
X2341491Y-5490960D02*
X2351015Y-5481436D01*
X2351015Y-5481436D02*
X2351015Y-5500484D01*
X2484348Y-5300484D02*
X2503396Y-5300484D01*
X2503396Y-5300484D02*
X2522444Y-5310008D01*
X2522444Y-5310008D02*
X2531968Y-5319531D01*
X2531968Y-5319531D02*
X2541491Y-5338579D01*
X2541491Y-5338579D02*
X2551015Y-5376674D01*
X2551015Y-5376674D02*
X2551015Y-5424293D01*
X2551015Y-5424293D02*
X2541491Y-5462389D01*
X2541491Y-5462389D02*
X2531968Y-5481436D01*
X2531968Y-5481436D02*
X2522444Y-5490960D01*
X2522444Y-5490960D02*
X2503396Y-5500484D01*
X2503396Y-5500484D02*
X2484348Y-5500484D01*
X2484348Y-5500484D02*
X2465301Y-5490960D01*
X2465301Y-5490960D02*
X2455777Y-5481436D01*
X2455777Y-5481436D02*
X2446253Y-5462389D01*
X2446253Y-5462389D02*
X2436729Y-5424293D01*
X2436729Y-5424293D02*
X2436729Y-5376674D01*
X2436729Y-5376674D02*
X2446253Y-5338579D01*
X2446253Y-5338579D02*
X2455777Y-5319531D01*
X2455777Y-5319531D02*
X2465301Y-5310008D01*
X2465301Y-5310008D02*
X2484348Y-5300484D01*
X2627206Y-5319531D02*
X2636729Y-5310008D01*
X2636729Y-5310008D02*
X2655777Y-5300484D01*
X2655777Y-5300484D02*
X2703396Y-5300484D01*
X2703396Y-5300484D02*
X2722444Y-5310008D01*
X2722444Y-5310008D02*
X2731968Y-5319531D01*
X2731968Y-5319531D02*
X2741491Y-5338579D01*
X2741491Y-5338579D02*
X2741491Y-5357627D01*
X2741491Y-5357627D02*
X2731968Y-5386198D01*
X2731968Y-5386198D02*
X2617682Y-5500484D01*
X2617682Y-5500484D02*
X2741491Y-5500484D01*
X2922444Y-5300484D02*
X2827206Y-5300484D01*
X2827206Y-5300484D02*
X2817682Y-5395722D01*
X2817682Y-5395722D02*
X2827206Y-5386198D01*
X2827206Y-5386198D02*
X2846253Y-5376674D01*
X2846253Y-5376674D02*
X2893872Y-5376674D01*
X2893872Y-5376674D02*
X2912920Y-5386198D01*
X2912920Y-5386198D02*
X2922444Y-5395722D01*
X2922444Y-5395722D02*
X2931967Y-5414770D01*
X2931967Y-5414770D02*
X2931967Y-5462389D01*
X2931967Y-5462389D02*
X2922444Y-5481436D01*
X2922444Y-5481436D02*
X2912920Y-5490960D01*
X2912920Y-5490960D02*
X2893872Y-5500484D01*
X2893872Y-5500484D02*
X2846253Y-5500484D01*
X2846253Y-5500484D02*
X2827206Y-5490960D01*
X2827206Y-5490960D02*
X2817682Y-5481436D01*
X3103396Y-5300484D02*
X3065301Y-5300484D01*
X3065301Y-5300484D02*
X3046253Y-5310008D01*
X3046253Y-5310008D02*
X3036729Y-5319531D01*
X3036729Y-5319531D02*
X3017682Y-5348103D01*
X3017682Y-5348103D02*
X3008158Y-5386198D01*
X3008158Y-5386198D02*
X3008158Y-5462389D01*
X3008158Y-5462389D02*
X3017682Y-5481436D01*
X3017682Y-5481436D02*
X3027206Y-5490960D01*
X3027206Y-5490960D02*
X3046253Y-5500484D01*
X3046253Y-5500484D02*
X3084348Y-5500484D01*
X3084348Y-5500484D02*
X3103396Y-5490960D01*
X3103396Y-5490960D02*
X3112920Y-5481436D01*
X3112920Y-5481436D02*
X3122444Y-5462389D01*
X3122444Y-5462389D02*
X3122444Y-5414770D01*
X3122444Y-5414770D02*
X3112920Y-5395722D01*
X3112920Y-5395722D02*
X3103396Y-5386198D01*
X3103396Y-5386198D02*
X3084348Y-5376674D01*
X3084348Y-5376674D02*
X3046253Y-5376674D01*
X3046253Y-5376674D02*
X3027206Y-5386198D01*
X3027206Y-5386198D02*
X3017682Y-5395722D01*
X3017682Y-5395722D02*
X3008158Y-5414770D01*
X3198634Y-5300484D02*
X3198634Y-5338579D01*
X3274825Y-5300484D02*
X3274825Y-5338579D01*
X3570063Y-5576674D02*
X3560539Y-5567150D01*
X3560539Y-5567150D02*
X3541491Y-5538579D01*
X3541491Y-5538579D02*
X3531968Y-5519531D01*
X3531968Y-5519531D02*
X3522444Y-5490960D01*
X3522444Y-5490960D02*
X3512920Y-5443341D01*
X3512920Y-5443341D02*
X3512920Y-5405246D01*
X3512920Y-5405246D02*
X3522444Y-5357627D01*
X3522444Y-5357627D02*
X3531968Y-5329055D01*
X3531968Y-5329055D02*
X3541491Y-5310008D01*
X3541491Y-5310008D02*
X3560539Y-5281436D01*
X3560539Y-5281436D02*
X3570063Y-5271912D01*
X3751015Y-5500484D02*
X3636729Y-5500484D01*
X3693872Y-5500484D02*
X3693872Y-5300484D01*
X3693872Y-5300484D02*
X3674825Y-5329055D01*
X3674825Y-5329055D02*
X3655777Y-5348103D01*
X3655777Y-5348103D02*
X3636729Y-5357627D01*
X3874825Y-5300484D02*
X3893872Y-5300484D01*
X3893872Y-5300484D02*
X3912920Y-5310008D01*
X3912920Y-5310008D02*
X3922444Y-5319531D01*
X3922444Y-5319531D02*
X3931968Y-5338579D01*
X3931968Y-5338579D02*
X3941491Y-5376674D01*
X3941491Y-5376674D02*
X3941491Y-5424293D01*
X3941491Y-5424293D02*
X3931968Y-5462389D01*
X3931968Y-5462389D02*
X3922444Y-5481436D01*
X3922444Y-5481436D02*
X3912920Y-5490960D01*
X3912920Y-5490960D02*
X3893872Y-5500484D01*
X3893872Y-5500484D02*
X3874825Y-5500484D01*
X3874825Y-5500484D02*
X3855777Y-5490960D01*
X3855777Y-5490960D02*
X3846253Y-5481436D01*
X3846253Y-5481436D02*
X3836729Y-5462389D01*
X3836729Y-5462389D02*
X3827206Y-5424293D01*
X3827206Y-5424293D02*
X3827206Y-5376674D01*
X3827206Y-5376674D02*
X3836729Y-5338579D01*
X3836729Y-5338579D02*
X3846253Y-5319531D01*
X3846253Y-5319531D02*
X3855777Y-5310008D01*
X3855777Y-5310008D02*
X3874825Y-5300484D01*
X4179587Y-5500484D02*
X4179587Y-5300484D01*
X4265301Y-5500484D02*
X4265301Y-5395722D01*
X4265301Y-5395722D02*
X4255777Y-5376674D01*
X4255777Y-5376674D02*
X4236730Y-5367150D01*
X4236730Y-5367150D02*
X4208158Y-5367150D01*
X4208158Y-5367150D02*
X4189110Y-5376674D01*
X4189110Y-5376674D02*
X4179587Y-5386198D01*
X4389111Y-5500484D02*
X4370063Y-5490960D01*
X4370063Y-5490960D02*
X4360539Y-5481436D01*
X4360539Y-5481436D02*
X4351015Y-5462389D01*
X4351015Y-5462389D02*
X4351015Y-5405246D01*
X4351015Y-5405246D02*
X4360539Y-5386198D01*
X4360539Y-5386198D02*
X4370063Y-5376674D01*
X4370063Y-5376674D02*
X4389111Y-5367150D01*
X4389111Y-5367150D02*
X4417682Y-5367150D01*
X4417682Y-5367150D02*
X4436730Y-5376674D01*
X4436730Y-5376674D02*
X4446253Y-5386198D01*
X4446253Y-5386198D02*
X4455777Y-5405246D01*
X4455777Y-5405246D02*
X4455777Y-5462389D01*
X4455777Y-5462389D02*
X4446253Y-5481436D01*
X4446253Y-5481436D02*
X4436730Y-5490960D01*
X4436730Y-5490960D02*
X4417682Y-5500484D01*
X4417682Y-5500484D02*
X4389111Y-5500484D01*
X4570063Y-5500484D02*
X4551015Y-5490960D01*
X4551015Y-5490960D02*
X4541492Y-5471912D01*
X4541492Y-5471912D02*
X4541492Y-5300484D01*
X4722444Y-5490960D02*
X4703396Y-5500484D01*
X4703396Y-5500484D02*
X4665301Y-5500484D01*
X4665301Y-5500484D02*
X4646253Y-5490960D01*
X4646253Y-5490960D02*
X4636730Y-5471912D01*
X4636730Y-5471912D02*
X4636730Y-5395722D01*
X4636730Y-5395722D02*
X4646253Y-5376674D01*
X4646253Y-5376674D02*
X4665301Y-5367150D01*
X4665301Y-5367150D02*
X4703396Y-5367150D01*
X4703396Y-5367150D02*
X4722444Y-5376674D01*
X4722444Y-5376674D02*
X4731968Y-5395722D01*
X4731968Y-5395722D02*
X4731968Y-5414770D01*
X4731968Y-5414770D02*
X4636730Y-5433817D01*
X4808158Y-5490960D02*
X4827206Y-5500484D01*
X4827206Y-5500484D02*
X4865301Y-5500484D01*
X4865301Y-5500484D02*
X4884349Y-5490960D01*
X4884349Y-5490960D02*
X4893873Y-5471912D01*
X4893873Y-5471912D02*
X4893873Y-5462389D01*
X4893873Y-5462389D02*
X4884349Y-5443341D01*
X4884349Y-5443341D02*
X4865301Y-5433817D01*
X4865301Y-5433817D02*
X4836730Y-5433817D01*
X4836730Y-5433817D02*
X4817682Y-5424293D01*
X4817682Y-5424293D02*
X4808158Y-5405246D01*
X4808158Y-5405246D02*
X4808158Y-5395722D01*
X4808158Y-5395722D02*
X4817682Y-5376674D01*
X4817682Y-5376674D02*
X4836730Y-5367150D01*
X4836730Y-5367150D02*
X4865301Y-5367150D01*
X4865301Y-5367150D02*
X4884349Y-5376674D01*
X4960539Y-5576674D02*
X4970063Y-5567150D01*
X4970063Y-5567150D02*
X4989111Y-5538579D01*
X4989111Y-5538579D02*
X4998634Y-5519531D01*
X4998634Y-5519531D02*
X5008158Y-5490960D01*
X5008158Y-5490960D02*
X5017682Y-5443341D01*
X5017682Y-5443341D02*
X5017682Y-5405246D01*
X5017682Y-5405246D02*
X5008158Y-5357627D01*
X5008158Y-5357627D02*
X4998634Y-5329055D01*
X4998634Y-5329055D02*
X4989111Y-5310008D01*
X4989111Y-5310008D02*
X4970063Y-5281436D01*
X4970063Y-5281436D02*
X4960539Y-5271912D01*
D10*
X-55000Y-5623000D02*
X-55000Y-5723000D01*
X-105000Y-5673000D02*
X-5000Y-5673000D01*
D11*
X360539Y-5764484D02*
X246253Y-5764484D01*
X303396Y-5764484D02*
X303396Y-5564484D01*
X303396Y-5564484D02*
X284348Y-5593055D01*
X284348Y-5593055D02*
X265301Y-5612103D01*
X265301Y-5612103D02*
X246253Y-5621627D01*
X446253Y-5745436D02*
X455777Y-5754960D01*
X455777Y-5754960D02*
X446253Y-5764484D01*
X446253Y-5764484D02*
X436729Y-5754960D01*
X436729Y-5754960D02*
X446253Y-5745436D01*
X446253Y-5745436D02*
X446253Y-5764484D01*
X579586Y-5564484D02*
X598634Y-5564484D01*
X598634Y-5564484D02*
X617682Y-5574008D01*
X617682Y-5574008D02*
X627205Y-5583531D01*
X627205Y-5583531D02*
X636729Y-5602579D01*
X636729Y-5602579D02*
X646253Y-5640674D01*
X646253Y-5640674D02*
X646253Y-5688293D01*
X646253Y-5688293D02*
X636729Y-5726388D01*
X636729Y-5726388D02*
X627205Y-5745436D01*
X627205Y-5745436D02*
X617682Y-5754960D01*
X617682Y-5754960D02*
X598634Y-5764484D01*
X598634Y-5764484D02*
X579586Y-5764484D01*
X579586Y-5764484D02*
X560539Y-5754960D01*
X560539Y-5754960D02*
X551015Y-5745436D01*
X551015Y-5745436D02*
X541491Y-5726388D01*
X541491Y-5726388D02*
X531967Y-5688293D01*
X531967Y-5688293D02*
X531967Y-5640674D01*
X531967Y-5640674D02*
X541491Y-5602579D01*
X541491Y-5602579D02*
X551015Y-5583531D01*
X551015Y-5583531D02*
X560539Y-5574008D01*
X560539Y-5574008D02*
X579586Y-5564484D01*
X770062Y-5564484D02*
X789110Y-5564484D01*
X789110Y-5564484D02*
X808158Y-5574008D01*
X808158Y-5574008D02*
X817682Y-5583531D01*
X817682Y-5583531D02*
X827205Y-5602579D01*
X827205Y-5602579D02*
X836729Y-5640674D01*
X836729Y-5640674D02*
X836729Y-5688293D01*
X836729Y-5688293D02*
X827205Y-5726388D01*
X827205Y-5726388D02*
X817682Y-5745436D01*
X817682Y-5745436D02*
X808158Y-5754960D01*
X808158Y-5754960D02*
X789110Y-5764484D01*
X789110Y-5764484D02*
X770062Y-5764484D01*
X770062Y-5764484D02*
X751015Y-5754960D01*
X751015Y-5754960D02*
X741491Y-5745436D01*
X741491Y-5745436D02*
X731967Y-5726388D01*
X731967Y-5726388D02*
X722443Y-5688293D01*
X722443Y-5688293D02*
X722443Y-5640674D01*
X722443Y-5640674D02*
X731967Y-5602579D01*
X731967Y-5602579D02*
X741491Y-5583531D01*
X741491Y-5583531D02*
X751015Y-5574008D01*
X751015Y-5574008D02*
X770062Y-5564484D01*
X960539Y-5564484D02*
X979586Y-5564484D01*
X979586Y-5564484D02*
X998634Y-5574008D01*
X998634Y-5574008D02*
X1008158Y-5583531D01*
X1008158Y-5583531D02*
X1017682Y-5602579D01*
X1017682Y-5602579D02*
X1027205Y-5640674D01*
X1027205Y-5640674D02*
X1027205Y-5688293D01*
X1027205Y-5688293D02*
X1017682Y-5726388D01*
X1017682Y-5726388D02*
X1008158Y-5745436D01*
X1008158Y-5745436D02*
X998634Y-5754960D01*
X998634Y-5754960D02*
X979586Y-5764484D01*
X979586Y-5764484D02*
X960539Y-5764484D01*
X960539Y-5764484D02*
X941491Y-5754960D01*
X941491Y-5754960D02*
X931967Y-5745436D01*
X931967Y-5745436D02*
X922443Y-5726388D01*
X922443Y-5726388D02*
X912920Y-5688293D01*
X912920Y-5688293D02*
X912920Y-5640674D01*
X912920Y-5640674D02*
X922443Y-5602579D01*
X922443Y-5602579D02*
X931967Y-5583531D01*
X931967Y-5583531D02*
X941491Y-5574008D01*
X941491Y-5574008D02*
X960539Y-5564484D01*
X1112920Y-5764484D02*
X1112920Y-5631150D01*
X1112920Y-5650198D02*
X1122444Y-5640674D01*
X1122444Y-5640674D02*
X1141491Y-5631150D01*
X1141491Y-5631150D02*
X1170063Y-5631150D01*
X1170063Y-5631150D02*
X1189110Y-5640674D01*
X1189110Y-5640674D02*
X1198634Y-5659722D01*
X1198634Y-5659722D02*
X1198634Y-5764484D01*
X1198634Y-5659722D02*
X1208158Y-5640674D01*
X1208158Y-5640674D02*
X1227205Y-5631150D01*
X1227205Y-5631150D02*
X1255777Y-5631150D01*
X1255777Y-5631150D02*
X1274825Y-5640674D01*
X1274825Y-5640674D02*
X1284348Y-5659722D01*
X1284348Y-5659722D02*
X1284348Y-5764484D01*
X1379586Y-5764484D02*
X1379586Y-5631150D01*
X1379586Y-5650198D02*
X1389110Y-5640674D01*
X1389110Y-5640674D02*
X1408158Y-5631150D01*
X1408158Y-5631150D02*
X1436729Y-5631150D01*
X1436729Y-5631150D02*
X1455777Y-5640674D01*
X1455777Y-5640674D02*
X1465301Y-5659722D01*
X1465301Y-5659722D02*
X1465301Y-5764484D01*
X1465301Y-5659722D02*
X1474824Y-5640674D01*
X1474824Y-5640674D02*
X1493872Y-5631150D01*
X1493872Y-5631150D02*
X1522443Y-5631150D01*
X1522443Y-5631150D02*
X1541491Y-5640674D01*
X1541491Y-5640674D02*
X1551015Y-5659722D01*
X1551015Y-5659722D02*
X1551015Y-5764484D01*
X1941491Y-5554960D02*
X1770063Y-5812103D01*
X2198634Y-5564484D02*
X2217682Y-5564484D01*
X2217682Y-5564484D02*
X2236729Y-5574008D01*
X2236729Y-5574008D02*
X2246253Y-5583531D01*
X2246253Y-5583531D02*
X2255777Y-5602579D01*
X2255777Y-5602579D02*
X2265301Y-5640674D01*
X2265301Y-5640674D02*
X2265301Y-5688293D01*
X2265301Y-5688293D02*
X2255777Y-5726388D01*
X2255777Y-5726388D02*
X2246253Y-5745436D01*
X2246253Y-5745436D02*
X2236729Y-5754960D01*
X2236729Y-5754960D02*
X2217682Y-5764484D01*
X2217682Y-5764484D02*
X2198634Y-5764484D01*
X2198634Y-5764484D02*
X2179587Y-5754960D01*
X2179587Y-5754960D02*
X2170063Y-5745436D01*
X2170063Y-5745436D02*
X2160539Y-5726388D01*
X2160539Y-5726388D02*
X2151015Y-5688293D01*
X2151015Y-5688293D02*
X2151015Y-5640674D01*
X2151015Y-5640674D02*
X2160539Y-5602579D01*
X2160539Y-5602579D02*
X2170063Y-5583531D01*
X2170063Y-5583531D02*
X2179587Y-5574008D01*
X2179587Y-5574008D02*
X2198634Y-5564484D01*
X2351015Y-5745436D02*
X2360539Y-5754960D01*
X2360539Y-5754960D02*
X2351015Y-5764484D01*
X2351015Y-5764484D02*
X2341491Y-5754960D01*
X2341491Y-5754960D02*
X2351015Y-5745436D01*
X2351015Y-5745436D02*
X2351015Y-5764484D01*
X2484348Y-5564484D02*
X2503396Y-5564484D01*
X2503396Y-5564484D02*
X2522444Y-5574008D01*
X2522444Y-5574008D02*
X2531968Y-5583531D01*
X2531968Y-5583531D02*
X2541491Y-5602579D01*
X2541491Y-5602579D02*
X2551015Y-5640674D01*
X2551015Y-5640674D02*
X2551015Y-5688293D01*
X2551015Y-5688293D02*
X2541491Y-5726388D01*
X2541491Y-5726388D02*
X2531968Y-5745436D01*
X2531968Y-5745436D02*
X2522444Y-5754960D01*
X2522444Y-5754960D02*
X2503396Y-5764484D01*
X2503396Y-5764484D02*
X2484348Y-5764484D01*
X2484348Y-5764484D02*
X2465301Y-5754960D01*
X2465301Y-5754960D02*
X2455777Y-5745436D01*
X2455777Y-5745436D02*
X2446253Y-5726388D01*
X2446253Y-5726388D02*
X2436729Y-5688293D01*
X2436729Y-5688293D02*
X2436729Y-5640674D01*
X2436729Y-5640674D02*
X2446253Y-5602579D01*
X2446253Y-5602579D02*
X2455777Y-5583531D01*
X2455777Y-5583531D02*
X2465301Y-5574008D01*
X2465301Y-5574008D02*
X2484348Y-5564484D01*
X2617682Y-5564484D02*
X2741491Y-5564484D01*
X2741491Y-5564484D02*
X2674825Y-5640674D01*
X2674825Y-5640674D02*
X2703396Y-5640674D01*
X2703396Y-5640674D02*
X2722444Y-5650198D01*
X2722444Y-5650198D02*
X2731968Y-5659722D01*
X2731968Y-5659722D02*
X2741491Y-5678769D01*
X2741491Y-5678769D02*
X2741491Y-5726388D01*
X2741491Y-5726388D02*
X2731968Y-5745436D01*
X2731968Y-5745436D02*
X2722444Y-5754960D01*
X2722444Y-5754960D02*
X2703396Y-5764484D01*
X2703396Y-5764484D02*
X2646253Y-5764484D01*
X2646253Y-5764484D02*
X2627206Y-5754960D01*
X2627206Y-5754960D02*
X2617682Y-5745436D01*
X2836729Y-5764484D02*
X2874825Y-5764484D01*
X2874825Y-5764484D02*
X2893872Y-5754960D01*
X2893872Y-5754960D02*
X2903396Y-5745436D01*
X2903396Y-5745436D02*
X2922444Y-5716865D01*
X2922444Y-5716865D02*
X2931967Y-5678769D01*
X2931967Y-5678769D02*
X2931967Y-5602579D01*
X2931967Y-5602579D02*
X2922444Y-5583531D01*
X2922444Y-5583531D02*
X2912920Y-5574008D01*
X2912920Y-5574008D02*
X2893872Y-5564484D01*
X2893872Y-5564484D02*
X2855777Y-5564484D01*
X2855777Y-5564484D02*
X2836729Y-5574008D01*
X2836729Y-5574008D02*
X2827206Y-5583531D01*
X2827206Y-5583531D02*
X2817682Y-5602579D01*
X2817682Y-5602579D02*
X2817682Y-5650198D01*
X2817682Y-5650198D02*
X2827206Y-5669246D01*
X2827206Y-5669246D02*
X2836729Y-5678769D01*
X2836729Y-5678769D02*
X2855777Y-5688293D01*
X2855777Y-5688293D02*
X2893872Y-5688293D01*
X2893872Y-5688293D02*
X2912920Y-5678769D01*
X2912920Y-5678769D02*
X2922444Y-5669246D01*
X2922444Y-5669246D02*
X2931967Y-5650198D01*
X3103396Y-5631150D02*
X3103396Y-5764484D01*
X3055777Y-5554960D02*
X3008158Y-5697817D01*
X3008158Y-5697817D02*
X3131967Y-5697817D01*
X3198634Y-5564484D02*
X3198634Y-5602579D01*
X3274825Y-5564484D02*
X3274825Y-5602579D01*
X3570063Y-5840674D02*
X3560539Y-5831150D01*
X3560539Y-5831150D02*
X3541491Y-5802579D01*
X3541491Y-5802579D02*
X3531968Y-5783531D01*
X3531968Y-5783531D02*
X3522444Y-5754960D01*
X3522444Y-5754960D02*
X3512920Y-5707341D01*
X3512920Y-5707341D02*
X3512920Y-5669246D01*
X3512920Y-5669246D02*
X3522444Y-5621627D01*
X3522444Y-5621627D02*
X3531968Y-5593055D01*
X3531968Y-5593055D02*
X3541491Y-5574008D01*
X3541491Y-5574008D02*
X3560539Y-5545436D01*
X3560539Y-5545436D02*
X3570063Y-5535912D01*
X3751015Y-5764484D02*
X3636729Y-5764484D01*
X3693872Y-5764484D02*
X3693872Y-5564484D01*
X3693872Y-5564484D02*
X3674825Y-5593055D01*
X3674825Y-5593055D02*
X3655777Y-5612103D01*
X3655777Y-5612103D02*
X3636729Y-5621627D01*
X3922444Y-5564484D02*
X3884348Y-5564484D01*
X3884348Y-5564484D02*
X3865301Y-5574008D01*
X3865301Y-5574008D02*
X3855777Y-5583531D01*
X3855777Y-5583531D02*
X3836729Y-5612103D01*
X3836729Y-5612103D02*
X3827206Y-5650198D01*
X3827206Y-5650198D02*
X3827206Y-5726388D01*
X3827206Y-5726388D02*
X3836729Y-5745436D01*
X3836729Y-5745436D02*
X3846253Y-5754960D01*
X3846253Y-5754960D02*
X3865301Y-5764484D01*
X3865301Y-5764484D02*
X3903396Y-5764484D01*
X3903396Y-5764484D02*
X3922444Y-5754960D01*
X3922444Y-5754960D02*
X3931968Y-5745436D01*
X3931968Y-5745436D02*
X3941491Y-5726388D01*
X3941491Y-5726388D02*
X3941491Y-5678769D01*
X3941491Y-5678769D02*
X3931968Y-5659722D01*
X3931968Y-5659722D02*
X3922444Y-5650198D01*
X3922444Y-5650198D02*
X3903396Y-5640674D01*
X3903396Y-5640674D02*
X3865301Y-5640674D01*
X3865301Y-5640674D02*
X3846253Y-5650198D01*
X3846253Y-5650198D02*
X3836729Y-5659722D01*
X3836729Y-5659722D02*
X3827206Y-5678769D01*
X4179587Y-5764484D02*
X4179587Y-5564484D01*
X4265301Y-5764484D02*
X4265301Y-5659722D01*
X4265301Y-5659722D02*
X4255777Y-5640674D01*
X4255777Y-5640674D02*
X4236730Y-5631150D01*
X4236730Y-5631150D02*
X4208158Y-5631150D01*
X4208158Y-5631150D02*
X4189110Y-5640674D01*
X4189110Y-5640674D02*
X4179587Y-5650198D01*
X4389111Y-5764484D02*
X4370063Y-5754960D01*
X4370063Y-5754960D02*
X4360539Y-5745436D01*
X4360539Y-5745436D02*
X4351015Y-5726388D01*
X4351015Y-5726388D02*
X4351015Y-5669246D01*
X4351015Y-5669246D02*
X4360539Y-5650198D01*
X4360539Y-5650198D02*
X4370063Y-5640674D01*
X4370063Y-5640674D02*
X4389111Y-5631150D01*
X4389111Y-5631150D02*
X4417682Y-5631150D01*
X4417682Y-5631150D02*
X4436730Y-5640674D01*
X4436730Y-5640674D02*
X4446253Y-5650198D01*
X4446253Y-5650198D02*
X4455777Y-5669246D01*
X4455777Y-5669246D02*
X4455777Y-5726388D01*
X4455777Y-5726388D02*
X4446253Y-5745436D01*
X4446253Y-5745436D02*
X4436730Y-5754960D01*
X4436730Y-5754960D02*
X4417682Y-5764484D01*
X4417682Y-5764484D02*
X4389111Y-5764484D01*
X4570063Y-5764484D02*
X4551015Y-5754960D01*
X4551015Y-5754960D02*
X4541492Y-5735912D01*
X4541492Y-5735912D02*
X4541492Y-5564484D01*
X4722444Y-5754960D02*
X4703396Y-5764484D01*
X4703396Y-5764484D02*
X4665301Y-5764484D01*
X4665301Y-5764484D02*
X4646253Y-5754960D01*
X4646253Y-5754960D02*
X4636730Y-5735912D01*
X4636730Y-5735912D02*
X4636730Y-5659722D01*
X4636730Y-5659722D02*
X4646253Y-5640674D01*
X4646253Y-5640674D02*
X4665301Y-5631150D01*
X4665301Y-5631150D02*
X4703396Y-5631150D01*
X4703396Y-5631150D02*
X4722444Y-5640674D01*
X4722444Y-5640674D02*
X4731968Y-5659722D01*
X4731968Y-5659722D02*
X4731968Y-5678769D01*
X4731968Y-5678769D02*
X4636730Y-5697817D01*
X4808158Y-5754960D02*
X4827206Y-5764484D01*
X4827206Y-5764484D02*
X4865301Y-5764484D01*
X4865301Y-5764484D02*
X4884349Y-5754960D01*
X4884349Y-5754960D02*
X4893873Y-5735912D01*
X4893873Y-5735912D02*
X4893873Y-5726388D01*
X4893873Y-5726388D02*
X4884349Y-5707341D01*
X4884349Y-5707341D02*
X4865301Y-5697817D01*
X4865301Y-5697817D02*
X4836730Y-5697817D01*
X4836730Y-5697817D02*
X4817682Y-5688293D01*
X4817682Y-5688293D02*
X4808158Y-5669246D01*
X4808158Y-5669246D02*
X4808158Y-5659722D01*
X4808158Y-5659722D02*
X4817682Y-5640674D01*
X4817682Y-5640674D02*
X4836730Y-5631150D01*
X4836730Y-5631150D02*
X4865301Y-5631150D01*
X4865301Y-5631150D02*
X4884349Y-5640674D01*
X4960539Y-5840674D02*
X4970063Y-5831150D01*
X4970063Y-5831150D02*
X4989111Y-5802579D01*
X4989111Y-5802579D02*
X4998634Y-5783531D01*
X4998634Y-5783531D02*
X5008158Y-5754960D01*
X5008158Y-5754960D02*
X5017682Y-5707341D01*
X5017682Y-5707341D02*
X5017682Y-5669246D01*
X5017682Y-5669246D02*
X5008158Y-5621627D01*
X5008158Y-5621627D02*
X4998634Y-5593055D01*
X4998634Y-5593055D02*
X4989111Y-5574008D01*
X4989111Y-5574008D02*
X4970063Y-5545436D01*
X4970063Y-5545436D02*
X4960539Y-5535912D01*
M02*
