%TF.GenerationSoftware,KiCad,Pcbnew,9.0.2+dfsg-1*%
%TF.CreationDate,2026-09-07T16:07:51+00:00*%
%TF.ProjectId,stm32g070rbt6-board,73746d33-3267-4303-9730-726274362d62,rev?*%
%TF.SameCoordinates,Original*%
%TF.FileFunction,AssemblyDrawing,Top*%
%FSLAX46Y46*%
G04 Gerber Fmt 4.6, Leading zero omitted, Abs format (unit mm)*
G04 Created by KiCad (PCBNEW 9.0.2+dfsg-1) date 2026-09-07 16:07:51*
%MOMM*%
%LPD*%
G01*
G04 APERTURE LIST*
%ADD10C,0.150000*%
%ADD11C,0.060000*%
%ADD12C,0.100000*%
G04 APERTURE END LIST*
D10*
X2190476Y-45604819D02*
X2190476Y-44604819D01*
X2190476Y-44604819D02*
X2523809Y-45319104D01*
X2523809Y-45319104D02*
X2857142Y-44604819D01*
X2857142Y-44604819D02*
X2857142Y-45604819D01*
X3285714Y-44700057D02*
X3333333Y-44652438D01*
X3333333Y-44652438D02*
X3428571Y-44604819D01*
X3428571Y-44604819D02*
X3666666Y-44604819D01*
X3666666Y-44604819D02*
X3761904Y-44652438D01*
X3761904Y-44652438D02*
X3809523Y-44700057D01*
X3809523Y-44700057D02*
X3857142Y-44795295D01*
X3857142Y-44795295D02*
X3857142Y-44890533D01*
X3857142Y-44890533D02*
X3809523Y-45033390D01*
X3809523Y-45033390D02*
X3238095Y-45604819D01*
X3238095Y-45604819D02*
X3857142Y-45604819D01*
X2238095Y-42454819D02*
X2238095Y-41454819D01*
X2238095Y-41931009D02*
X2809523Y-41931009D01*
X2809523Y-42454819D02*
X2809523Y-41454819D01*
X3190476Y-41454819D02*
X3809523Y-41454819D01*
X3809523Y-41454819D02*
X3476190Y-41835771D01*
X3476190Y-41835771D02*
X3619047Y-41835771D01*
X3619047Y-41835771D02*
X3714285Y-41883390D01*
X3714285Y-41883390D02*
X3761904Y-41931009D01*
X3761904Y-41931009D02*
X3809523Y-42026247D01*
X3809523Y-42026247D02*
X3809523Y-42264342D01*
X3809523Y-42264342D02*
X3761904Y-42359580D01*
X3761904Y-42359580D02*
X3714285Y-42407200D01*
X3714285Y-42407200D02*
X3619047Y-42454819D01*
X3619047Y-42454819D02*
X3333333Y-42454819D01*
X3333333Y-42454819D02*
X3238095Y-42407200D01*
X3238095Y-42407200D02*
X3190476Y-42359580D01*
X21095238Y-12218152D02*
X21095238Y-12884819D01*
X20857143Y-11837200D02*
X20619048Y-12551485D01*
X20619048Y-12551485D02*
X21238095Y-12551485D01*
X21619048Y-12789580D02*
X21666667Y-12837200D01*
X21666667Y-12837200D02*
X21619048Y-12884819D01*
X21619048Y-12884819D02*
X21571429Y-12837200D01*
X21571429Y-12837200D02*
X21619048Y-12789580D01*
X21619048Y-12789580D02*
X21619048Y-12884819D01*
X22000000Y-11884819D02*
X22666666Y-11884819D01*
X22666666Y-11884819D02*
X22238095Y-12884819D01*
X23476190Y-12218152D02*
X23476190Y-12884819D01*
X23047619Y-12218152D02*
X23047619Y-12741961D01*
X23047619Y-12741961D02*
X23095238Y-12837200D01*
X23095238Y-12837200D02*
X23190476Y-12884819D01*
X23190476Y-12884819D02*
X23333333Y-12884819D01*
X23333333Y-12884819D02*
X23428571Y-12837200D01*
X23428571Y-12837200D02*
X23476190Y-12789580D01*
X24285714Y-12361009D02*
X23952381Y-12361009D01*
X23952381Y-12884819D02*
X23952381Y-11884819D01*
X23952381Y-11884819D02*
X24428571Y-11884819D01*
D11*
X22242857Y-11143832D02*
X22223809Y-11162880D01*
X22223809Y-11162880D02*
X22166667Y-11181927D01*
X22166667Y-11181927D02*
X22128571Y-11181927D01*
X22128571Y-11181927D02*
X22071428Y-11162880D01*
X22071428Y-11162880D02*
X22033333Y-11124784D01*
X22033333Y-11124784D02*
X22014286Y-11086689D01*
X22014286Y-11086689D02*
X21995238Y-11010499D01*
X21995238Y-11010499D02*
X21995238Y-10953356D01*
X21995238Y-10953356D02*
X22014286Y-10877165D01*
X22014286Y-10877165D02*
X22033333Y-10839070D01*
X22033333Y-10839070D02*
X22071428Y-10800975D01*
X22071428Y-10800975D02*
X22128571Y-10781927D01*
X22128571Y-10781927D02*
X22166667Y-10781927D01*
X22166667Y-10781927D02*
X22223809Y-10800975D01*
X22223809Y-10800975D02*
X22242857Y-10820022D01*
X22623809Y-11181927D02*
X22395238Y-11181927D01*
X22509524Y-11181927D02*
X22509524Y-10781927D01*
X22509524Y-10781927D02*
X22471428Y-10839070D01*
X22471428Y-10839070D02*
X22433333Y-10877165D01*
X22433333Y-10877165D02*
X22395238Y-10896213D01*
X22871428Y-10781927D02*
X22909523Y-10781927D01*
X22909523Y-10781927D02*
X22947619Y-10800975D01*
X22947619Y-10800975D02*
X22966666Y-10820022D01*
X22966666Y-10820022D02*
X22985714Y-10858118D01*
X22985714Y-10858118D02*
X23004761Y-10934308D01*
X23004761Y-10934308D02*
X23004761Y-11029546D01*
X23004761Y-11029546D02*
X22985714Y-11105737D01*
X22985714Y-11105737D02*
X22966666Y-11143832D01*
X22966666Y-11143832D02*
X22947619Y-11162880D01*
X22947619Y-11162880D02*
X22909523Y-11181927D01*
X22909523Y-11181927D02*
X22871428Y-11181927D01*
X22871428Y-11181927D02*
X22833333Y-11162880D01*
X22833333Y-11162880D02*
X22814285Y-11143832D01*
X22814285Y-11143832D02*
X22795238Y-11105737D01*
X22795238Y-11105737D02*
X22776190Y-11029546D01*
X22776190Y-11029546D02*
X22776190Y-10934308D01*
X22776190Y-10934308D02*
X22795238Y-10858118D01*
X22795238Y-10858118D02*
X22814285Y-10820022D01*
X22814285Y-10820022D02*
X22833333Y-10800975D01*
X22833333Y-10800975D02*
X22871428Y-10781927D01*
D10*
X11833333Y-34929580D02*
X11785714Y-34977200D01*
X11785714Y-34977200D02*
X11642857Y-35024819D01*
X11642857Y-35024819D02*
X11547619Y-35024819D01*
X11547619Y-35024819D02*
X11404762Y-34977200D01*
X11404762Y-34977200D02*
X11309524Y-34881961D01*
X11309524Y-34881961D02*
X11261905Y-34786723D01*
X11261905Y-34786723D02*
X11214286Y-34596247D01*
X11214286Y-34596247D02*
X11214286Y-34453390D01*
X11214286Y-34453390D02*
X11261905Y-34262914D01*
X11261905Y-34262914D02*
X11309524Y-34167676D01*
X11309524Y-34167676D02*
X11404762Y-34072438D01*
X11404762Y-34072438D02*
X11547619Y-34024819D01*
X11547619Y-34024819D02*
X11642857Y-34024819D01*
X11642857Y-34024819D02*
X11785714Y-34072438D01*
X11785714Y-34072438D02*
X11833333Y-34120057D01*
X12166667Y-34024819D02*
X12785714Y-34024819D01*
X12785714Y-34024819D02*
X12452381Y-34405771D01*
X12452381Y-34405771D02*
X12595238Y-34405771D01*
X12595238Y-34405771D02*
X12690476Y-34453390D01*
X12690476Y-34453390D02*
X12738095Y-34501009D01*
X12738095Y-34501009D02*
X12785714Y-34596247D01*
X12785714Y-34596247D02*
X12785714Y-34834342D01*
X12785714Y-34834342D02*
X12738095Y-34929580D01*
X12738095Y-34929580D02*
X12690476Y-34977200D01*
X12690476Y-34977200D02*
X12595238Y-35024819D01*
X12595238Y-35024819D02*
X12309524Y-35024819D01*
X12309524Y-35024819D02*
X12214286Y-34977200D01*
X12214286Y-34977200D02*
X12166667Y-34929580D01*
X11404761Y-37884819D02*
X10833333Y-37884819D01*
X11119047Y-37884819D02*
X11119047Y-36884819D01*
X11119047Y-36884819D02*
X11023809Y-37027676D01*
X11023809Y-37027676D02*
X10928571Y-37122914D01*
X10928571Y-37122914D02*
X10833333Y-37170533D01*
X12261904Y-37218152D02*
X12261904Y-37884819D01*
X11833333Y-37218152D02*
X11833333Y-37741961D01*
X11833333Y-37741961D02*
X11880952Y-37837200D01*
X11880952Y-37837200D02*
X11976190Y-37884819D01*
X11976190Y-37884819D02*
X12119047Y-37884819D01*
X12119047Y-37884819D02*
X12214285Y-37837200D01*
X12214285Y-37837200D02*
X12261904Y-37789580D01*
X13071428Y-37361009D02*
X12738095Y-37361009D01*
X12738095Y-37884819D02*
X12738095Y-36884819D01*
X12738095Y-36884819D02*
X13214285Y-36884819D01*
D11*
X11933333Y-36143832D02*
X11914285Y-36162880D01*
X11914285Y-36162880D02*
X11857143Y-36181927D01*
X11857143Y-36181927D02*
X11819047Y-36181927D01*
X11819047Y-36181927D02*
X11761904Y-36162880D01*
X11761904Y-36162880D02*
X11723809Y-36124784D01*
X11723809Y-36124784D02*
X11704762Y-36086689D01*
X11704762Y-36086689D02*
X11685714Y-36010499D01*
X11685714Y-36010499D02*
X11685714Y-35953356D01*
X11685714Y-35953356D02*
X11704762Y-35877165D01*
X11704762Y-35877165D02*
X11723809Y-35839070D01*
X11723809Y-35839070D02*
X11761904Y-35800975D01*
X11761904Y-35800975D02*
X11819047Y-35781927D01*
X11819047Y-35781927D02*
X11857143Y-35781927D01*
X11857143Y-35781927D02*
X11914285Y-35800975D01*
X11914285Y-35800975D02*
X11933333Y-35820022D01*
X12066666Y-35781927D02*
X12314285Y-35781927D01*
X12314285Y-35781927D02*
X12180952Y-35934308D01*
X12180952Y-35934308D02*
X12238095Y-35934308D01*
X12238095Y-35934308D02*
X12276190Y-35953356D01*
X12276190Y-35953356D02*
X12295238Y-35972403D01*
X12295238Y-35972403D02*
X12314285Y-36010499D01*
X12314285Y-36010499D02*
X12314285Y-36105737D01*
X12314285Y-36105737D02*
X12295238Y-36143832D01*
X12295238Y-36143832D02*
X12276190Y-36162880D01*
X12276190Y-36162880D02*
X12238095Y-36181927D01*
X12238095Y-36181927D02*
X12123809Y-36181927D01*
X12123809Y-36181927D02*
X12085714Y-36162880D01*
X12085714Y-36162880D02*
X12066666Y-36143832D01*
D10*
X66190476Y-45604819D02*
X66190476Y-44604819D01*
X66190476Y-44604819D02*
X66523809Y-45319104D01*
X66523809Y-45319104D02*
X66857142Y-44604819D01*
X66857142Y-44604819D02*
X66857142Y-45604819D01*
X67285714Y-44700057D02*
X67333333Y-44652438D01*
X67333333Y-44652438D02*
X67428571Y-44604819D01*
X67428571Y-44604819D02*
X67666666Y-44604819D01*
X67666666Y-44604819D02*
X67761904Y-44652438D01*
X67761904Y-44652438D02*
X67809523Y-44700057D01*
X67809523Y-44700057D02*
X67857142Y-44795295D01*
X67857142Y-44795295D02*
X67857142Y-44890533D01*
X67857142Y-44890533D02*
X67809523Y-45033390D01*
X67809523Y-45033390D02*
X67238095Y-45604819D01*
X67238095Y-45604819D02*
X67857142Y-45604819D01*
X66238095Y-42454819D02*
X66238095Y-41454819D01*
X66238095Y-41931009D02*
X66809523Y-41931009D01*
X66809523Y-42454819D02*
X66809523Y-41454819D01*
X67714285Y-41788152D02*
X67714285Y-42454819D01*
X67476190Y-41407200D02*
X67238095Y-42121485D01*
X67238095Y-42121485D02*
X67857142Y-42121485D01*
X60261904Y-22359580D02*
X60214285Y-22407200D01*
X60214285Y-22407200D02*
X60071428Y-22454819D01*
X60071428Y-22454819D02*
X59976190Y-22454819D01*
X59976190Y-22454819D02*
X59833333Y-22407200D01*
X59833333Y-22407200D02*
X59738095Y-22311961D01*
X59738095Y-22311961D02*
X59690476Y-22216723D01*
X59690476Y-22216723D02*
X59642857Y-22026247D01*
X59642857Y-22026247D02*
X59642857Y-21883390D01*
X59642857Y-21883390D02*
X59690476Y-21692914D01*
X59690476Y-21692914D02*
X59738095Y-21597676D01*
X59738095Y-21597676D02*
X59833333Y-21502438D01*
X59833333Y-21502438D02*
X59976190Y-21454819D01*
X59976190Y-21454819D02*
X60071428Y-21454819D01*
X60071428Y-21454819D02*
X60214285Y-21502438D01*
X60214285Y-21502438D02*
X60261904Y-21550057D01*
X60833333Y-22454819D02*
X60738095Y-22407200D01*
X60738095Y-22407200D02*
X60690476Y-22359580D01*
X60690476Y-22359580D02*
X60642857Y-22264342D01*
X60642857Y-22264342D02*
X60642857Y-21978628D01*
X60642857Y-21978628D02*
X60690476Y-21883390D01*
X60690476Y-21883390D02*
X60738095Y-21835771D01*
X60738095Y-21835771D02*
X60833333Y-21788152D01*
X60833333Y-21788152D02*
X60976190Y-21788152D01*
X60976190Y-21788152D02*
X61071428Y-21835771D01*
X61071428Y-21835771D02*
X61119047Y-21883390D01*
X61119047Y-21883390D02*
X61166666Y-21978628D01*
X61166666Y-21978628D02*
X61166666Y-22264342D01*
X61166666Y-22264342D02*
X61119047Y-22359580D01*
X61119047Y-22359580D02*
X61071428Y-22407200D01*
X61071428Y-22407200D02*
X60976190Y-22454819D01*
X60976190Y-22454819D02*
X60833333Y-22454819D01*
X61595238Y-21788152D02*
X61595238Y-22454819D01*
X61595238Y-21883390D02*
X61642857Y-21835771D01*
X61642857Y-21835771D02*
X61738095Y-21788152D01*
X61738095Y-21788152D02*
X61880952Y-21788152D01*
X61880952Y-21788152D02*
X61976190Y-21835771D01*
X61976190Y-21835771D02*
X62023809Y-21931009D01*
X62023809Y-21931009D02*
X62023809Y-22454819D01*
X62500000Y-21788152D02*
X62500000Y-22454819D01*
X62500000Y-21883390D02*
X62547619Y-21835771D01*
X62547619Y-21835771D02*
X62642857Y-21788152D01*
X62642857Y-21788152D02*
X62785714Y-21788152D01*
X62785714Y-21788152D02*
X62880952Y-21835771D01*
X62880952Y-21835771D02*
X62928571Y-21931009D01*
X62928571Y-21931009D02*
X62928571Y-22454819D01*
X63166667Y-22550057D02*
X63928571Y-22550057D01*
X64357143Y-21454819D02*
X64452381Y-21454819D01*
X64452381Y-21454819D02*
X64547619Y-21502438D01*
X64547619Y-21502438D02*
X64595238Y-21550057D01*
X64595238Y-21550057D02*
X64642857Y-21645295D01*
X64642857Y-21645295D02*
X64690476Y-21835771D01*
X64690476Y-21835771D02*
X64690476Y-22073866D01*
X64690476Y-22073866D02*
X64642857Y-22264342D01*
X64642857Y-22264342D02*
X64595238Y-22359580D01*
X64595238Y-22359580D02*
X64547619Y-22407200D01*
X64547619Y-22407200D02*
X64452381Y-22454819D01*
X64452381Y-22454819D02*
X64357143Y-22454819D01*
X64357143Y-22454819D02*
X64261905Y-22407200D01*
X64261905Y-22407200D02*
X64214286Y-22359580D01*
X64214286Y-22359580D02*
X64166667Y-22264342D01*
X64166667Y-22264342D02*
X64119048Y-22073866D01*
X64119048Y-22073866D02*
X64119048Y-21835771D01*
X64119048Y-21835771D02*
X64166667Y-21645295D01*
X64166667Y-21645295D02*
X64214286Y-21550057D01*
X64214286Y-21550057D02*
X64261905Y-21502438D01*
X64261905Y-21502438D02*
X64357143Y-21454819D01*
X65642857Y-22454819D02*
X65071429Y-22454819D01*
X65357143Y-22454819D02*
X65357143Y-21454819D01*
X65357143Y-21454819D02*
X65261905Y-21597676D01*
X65261905Y-21597676D02*
X65166667Y-21692914D01*
X65166667Y-21692914D02*
X65071429Y-21740533D01*
X65976191Y-22454819D02*
X66500000Y-21788152D01*
X65976191Y-21788152D02*
X66500000Y-22454819D01*
X67071429Y-21454819D02*
X67166667Y-21454819D01*
X67166667Y-21454819D02*
X67261905Y-21502438D01*
X67261905Y-21502438D02*
X67309524Y-21550057D01*
X67309524Y-21550057D02*
X67357143Y-21645295D01*
X67357143Y-21645295D02*
X67404762Y-21835771D01*
X67404762Y-21835771D02*
X67404762Y-22073866D01*
X67404762Y-22073866D02*
X67357143Y-22264342D01*
X67357143Y-22264342D02*
X67309524Y-22359580D01*
X67309524Y-22359580D02*
X67261905Y-22407200D01*
X67261905Y-22407200D02*
X67166667Y-22454819D01*
X67166667Y-22454819D02*
X67071429Y-22454819D01*
X67071429Y-22454819D02*
X66976191Y-22407200D01*
X66976191Y-22407200D02*
X66928572Y-22359580D01*
X66928572Y-22359580D02*
X66880953Y-22264342D01*
X66880953Y-22264342D02*
X66833334Y-22073866D01*
X66833334Y-22073866D02*
X66833334Y-21835771D01*
X66833334Y-21835771D02*
X66880953Y-21645295D01*
X66880953Y-21645295D02*
X66928572Y-21550057D01*
X66928572Y-21550057D02*
X66976191Y-21502438D01*
X66976191Y-21502438D02*
X67071429Y-21454819D01*
X68261905Y-21788152D02*
X68261905Y-22454819D01*
X68023810Y-21407200D02*
X67785715Y-22121485D01*
X67785715Y-22121485D02*
X68404762Y-22121485D01*
X63454819Y-16143333D02*
X64169104Y-16143333D01*
X64169104Y-16143333D02*
X64311961Y-16190952D01*
X64311961Y-16190952D02*
X64407200Y-16286190D01*
X64407200Y-16286190D02*
X64454819Y-16429047D01*
X64454819Y-16429047D02*
X64454819Y-16524285D01*
X63788152Y-15238571D02*
X64454819Y-15238571D01*
X63407200Y-15476666D02*
X64121485Y-15714761D01*
X64121485Y-15714761D02*
X64121485Y-15095714D01*
X2238095Y-304819D02*
X2238095Y695180D01*
X2238095Y218990D02*
X2809523Y218990D01*
X2809523Y-304819D02*
X2809523Y695180D01*
X3809523Y-304819D02*
X3238095Y-304819D01*
X3523809Y-304819D02*
X3523809Y695180D01*
X3523809Y695180D02*
X3428571Y552323D01*
X3428571Y552323D02*
X3333333Y457085D01*
X3333333Y457085D02*
X3238095Y409466D01*
X2190476Y-6604819D02*
X2190476Y-5604819D01*
X2190476Y-5604819D02*
X2523809Y-6319104D01*
X2523809Y-6319104D02*
X2857142Y-5604819D01*
X2857142Y-5604819D02*
X2857142Y-6604819D01*
X3285714Y-5700057D02*
X3333333Y-5652438D01*
X3333333Y-5652438D02*
X3428571Y-5604819D01*
X3428571Y-5604819D02*
X3666666Y-5604819D01*
X3666666Y-5604819D02*
X3761904Y-5652438D01*
X3761904Y-5652438D02*
X3809523Y-5700057D01*
X3809523Y-5700057D02*
X3857142Y-5795295D01*
X3857142Y-5795295D02*
X3857142Y-5890533D01*
X3857142Y-5890533D02*
X3809523Y-6033390D01*
X3809523Y-6033390D02*
X3238095Y-6604819D01*
X3238095Y-6604819D02*
X3857142Y-6604819D01*
X2238095Y-3454819D02*
X2238095Y-2454819D01*
X2238095Y-2931009D02*
X2809523Y-2931009D01*
X2809523Y-3454819D02*
X2809523Y-2454819D01*
X3809523Y-3454819D02*
X3238095Y-3454819D01*
X3523809Y-3454819D02*
X3523809Y-2454819D01*
X3523809Y-2454819D02*
X3428571Y-2597676D01*
X3428571Y-2597676D02*
X3333333Y-2692914D01*
X3333333Y-2692914D02*
X3238095Y-2740533D01*
X11404761Y-31884819D02*
X10833333Y-31884819D01*
X11119047Y-31884819D02*
X11119047Y-30884819D01*
X11119047Y-30884819D02*
X11023809Y-31027676D01*
X11023809Y-31027676D02*
X10928571Y-31122914D01*
X10928571Y-31122914D02*
X10833333Y-31170533D01*
X12261904Y-31218152D02*
X12261904Y-31884819D01*
X11833333Y-31218152D02*
X11833333Y-31741961D01*
X11833333Y-31741961D02*
X11880952Y-31837200D01*
X11880952Y-31837200D02*
X11976190Y-31884819D01*
X11976190Y-31884819D02*
X12119047Y-31884819D01*
X12119047Y-31884819D02*
X12214285Y-31837200D01*
X12214285Y-31837200D02*
X12261904Y-31789580D01*
X13071428Y-31361009D02*
X12738095Y-31361009D01*
X12738095Y-31884819D02*
X12738095Y-30884819D01*
X12738095Y-30884819D02*
X13214285Y-30884819D01*
D11*
X11933333Y-30143832D02*
X11914285Y-30162880D01*
X11914285Y-30162880D02*
X11857143Y-30181927D01*
X11857143Y-30181927D02*
X11819047Y-30181927D01*
X11819047Y-30181927D02*
X11761904Y-30162880D01*
X11761904Y-30162880D02*
X11723809Y-30124784D01*
X11723809Y-30124784D02*
X11704762Y-30086689D01*
X11704762Y-30086689D02*
X11685714Y-30010499D01*
X11685714Y-30010499D02*
X11685714Y-29953356D01*
X11685714Y-29953356D02*
X11704762Y-29877165D01*
X11704762Y-29877165D02*
X11723809Y-29839070D01*
X11723809Y-29839070D02*
X11761904Y-29800975D01*
X11761904Y-29800975D02*
X11819047Y-29781927D01*
X11819047Y-29781927D02*
X11857143Y-29781927D01*
X11857143Y-29781927D02*
X11914285Y-29800975D01*
X11914285Y-29800975D02*
X11933333Y-29820022D01*
X12085714Y-29820022D02*
X12104762Y-29800975D01*
X12104762Y-29800975D02*
X12142857Y-29781927D01*
X12142857Y-29781927D02*
X12238095Y-29781927D01*
X12238095Y-29781927D02*
X12276190Y-29800975D01*
X12276190Y-29800975D02*
X12295238Y-29820022D01*
X12295238Y-29820022D02*
X12314285Y-29858118D01*
X12314285Y-29858118D02*
X12314285Y-29896213D01*
X12314285Y-29896213D02*
X12295238Y-29953356D01*
X12295238Y-29953356D02*
X12066666Y-30181927D01*
X12066666Y-30181927D02*
X12314285Y-30181927D01*
D10*
X18452381Y-177200D02*
X18595238Y-224819D01*
X18595238Y-224819D02*
X18833333Y-224819D01*
X18833333Y-224819D02*
X18928571Y-177200D01*
X18928571Y-177200D02*
X18976190Y-129580D01*
X18976190Y-129580D02*
X19023809Y-34342D01*
X19023809Y-34342D02*
X19023809Y60895D01*
X19023809Y60895D02*
X18976190Y156133D01*
X18976190Y156133D02*
X18928571Y203752D01*
X18928571Y203752D02*
X18833333Y251371D01*
X18833333Y251371D02*
X18642857Y298990D01*
X18642857Y298990D02*
X18547619Y346609D01*
X18547619Y346609D02*
X18500000Y394228D01*
X18500000Y394228D02*
X18452381Y489466D01*
X18452381Y489466D02*
X18452381Y584704D01*
X18452381Y584704D02*
X18500000Y679942D01*
X18500000Y679942D02*
X18547619Y727561D01*
X18547619Y727561D02*
X18642857Y775180D01*
X18642857Y775180D02*
X18880952Y775180D01*
X18880952Y775180D02*
X19023809Y727561D01*
X19357143Y775180D02*
X19595238Y-224819D01*
X19595238Y-224819D02*
X19785714Y489466D01*
X19785714Y489466D02*
X19976190Y-224819D01*
X19976190Y-224819D02*
X20214286Y775180D01*
X20357143Y-320057D02*
X21119047Y-320057D01*
X21357143Y-224819D02*
X21357143Y775180D01*
X21357143Y775180D02*
X21738095Y775180D01*
X21738095Y775180D02*
X21833333Y727561D01*
X21833333Y727561D02*
X21880952Y679942D01*
X21880952Y679942D02*
X21928571Y584704D01*
X21928571Y584704D02*
X21928571Y441847D01*
X21928571Y441847D02*
X21880952Y346609D01*
X21880952Y346609D02*
X21833333Y298990D01*
X21833333Y298990D02*
X21738095Y251371D01*
X21738095Y251371D02*
X21357143Y251371D01*
X22785714Y441847D02*
X22785714Y-224819D01*
X22357143Y441847D02*
X22357143Y-81961D01*
X22357143Y-81961D02*
X22404762Y-177200D01*
X22404762Y-177200D02*
X22500000Y-224819D01*
X22500000Y-224819D02*
X22642857Y-224819D01*
X22642857Y-224819D02*
X22738095Y-177200D01*
X22738095Y-177200D02*
X22785714Y-129580D01*
X23214286Y-177200D02*
X23309524Y-224819D01*
X23309524Y-224819D02*
X23500000Y-224819D01*
X23500000Y-224819D02*
X23595238Y-177200D01*
X23595238Y-177200D02*
X23642857Y-81961D01*
X23642857Y-81961D02*
X23642857Y-34342D01*
X23642857Y-34342D02*
X23595238Y60895D01*
X23595238Y60895D02*
X23500000Y108514D01*
X23500000Y108514D02*
X23357143Y108514D01*
X23357143Y108514D02*
X23261905Y156133D01*
X23261905Y156133D02*
X23214286Y251371D01*
X23214286Y251371D02*
X23214286Y298990D01*
X23214286Y298990D02*
X23261905Y394228D01*
X23261905Y394228D02*
X23357143Y441847D01*
X23357143Y441847D02*
X23500000Y441847D01*
X23500000Y441847D02*
X23595238Y394228D01*
X24071429Y-224819D02*
X24071429Y775180D01*
X24500000Y-224819D02*
X24500000Y298990D01*
X24500000Y298990D02*
X24452381Y394228D01*
X24452381Y394228D02*
X24357143Y441847D01*
X24357143Y441847D02*
X24214286Y441847D01*
X24214286Y441847D02*
X24119048Y394228D01*
X24119048Y394228D02*
X24071429Y346609D01*
X20166667Y-4407200D02*
X20309524Y-4454819D01*
X20309524Y-4454819D02*
X20547619Y-4454819D01*
X20547619Y-4454819D02*
X20642857Y-4407200D01*
X20642857Y-4407200D02*
X20690476Y-4359580D01*
X20690476Y-4359580D02*
X20738095Y-4264342D01*
X20738095Y-4264342D02*
X20738095Y-4169104D01*
X20738095Y-4169104D02*
X20690476Y-4073866D01*
X20690476Y-4073866D02*
X20642857Y-4026247D01*
X20642857Y-4026247D02*
X20547619Y-3978628D01*
X20547619Y-3978628D02*
X20357143Y-3931009D01*
X20357143Y-3931009D02*
X20261905Y-3883390D01*
X20261905Y-3883390D02*
X20214286Y-3835771D01*
X20214286Y-3835771D02*
X20166667Y-3740533D01*
X20166667Y-3740533D02*
X20166667Y-3645295D01*
X20166667Y-3645295D02*
X20214286Y-3550057D01*
X20214286Y-3550057D02*
X20261905Y-3502438D01*
X20261905Y-3502438D02*
X20357143Y-3454819D01*
X20357143Y-3454819D02*
X20595238Y-3454819D01*
X20595238Y-3454819D02*
X20738095Y-3502438D01*
X21071429Y-3454819D02*
X21309524Y-4454819D01*
X21309524Y-4454819D02*
X21500000Y-3740533D01*
X21500000Y-3740533D02*
X21690476Y-4454819D01*
X21690476Y-4454819D02*
X21928572Y-3454819D01*
X22261905Y-3550057D02*
X22309524Y-3502438D01*
X22309524Y-3502438D02*
X22404762Y-3454819D01*
X22404762Y-3454819D02*
X22642857Y-3454819D01*
X22642857Y-3454819D02*
X22738095Y-3502438D01*
X22738095Y-3502438D02*
X22785714Y-3550057D01*
X22785714Y-3550057D02*
X22833333Y-3645295D01*
X22833333Y-3645295D02*
X22833333Y-3740533D01*
X22833333Y-3740533D02*
X22785714Y-3883390D01*
X22785714Y-3883390D02*
X22214286Y-4454819D01*
X22214286Y-4454819D02*
X22833333Y-4454819D01*
X403333Y-28359580D02*
X355714Y-28407200D01*
X355714Y-28407200D02*
X212857Y-28454819D01*
X212857Y-28454819D02*
X117619Y-28454819D01*
X117619Y-28454819D02*
X-25237Y-28407200D01*
X-25237Y-28407200D02*
X-120475Y-28311961D01*
X-120475Y-28311961D02*
X-168094Y-28216723D01*
X-168094Y-28216723D02*
X-215713Y-28026247D01*
X-215713Y-28026247D02*
X-215713Y-27883390D01*
X-215713Y-27883390D02*
X-168094Y-27692914D01*
X-168094Y-27692914D02*
X-120475Y-27597676D01*
X-120475Y-27597676D02*
X-25237Y-27502438D01*
X-25237Y-27502438D02*
X117619Y-27454819D01*
X117619Y-27454819D02*
X212857Y-27454819D01*
X212857Y-27454819D02*
X355714Y-27502438D01*
X355714Y-27502438D02*
X403333Y-27550057D01*
X1355714Y-28454819D02*
X784286Y-28454819D01*
X1070000Y-28454819D02*
X1070000Y-27454819D01*
X1070000Y-27454819D02*
X974762Y-27597676D01*
X974762Y-27597676D02*
X879524Y-27692914D01*
X879524Y-27692914D02*
X784286Y-27740533D01*
X2358571Y-28454819D02*
X1787143Y-28454819D01*
X2072857Y-28454819D02*
X2072857Y-27454819D01*
X2072857Y-27454819D02*
X1977619Y-27597676D01*
X1977619Y-27597676D02*
X1882381Y-27692914D01*
X1882381Y-27692914D02*
X1787143Y-27740533D01*
X2977619Y-27454819D02*
X3072857Y-27454819D01*
X3072857Y-27454819D02*
X3168095Y-27502438D01*
X3168095Y-27502438D02*
X3215714Y-27550057D01*
X3215714Y-27550057D02*
X3263333Y-27645295D01*
X3263333Y-27645295D02*
X3310952Y-27835771D01*
X3310952Y-27835771D02*
X3310952Y-28073866D01*
X3310952Y-28073866D02*
X3263333Y-28264342D01*
X3263333Y-28264342D02*
X3215714Y-28359580D01*
X3215714Y-28359580D02*
X3168095Y-28407200D01*
X3168095Y-28407200D02*
X3072857Y-28454819D01*
X3072857Y-28454819D02*
X2977619Y-28454819D01*
X2977619Y-28454819D02*
X2882381Y-28407200D01*
X2882381Y-28407200D02*
X2834762Y-28359580D01*
X2834762Y-28359580D02*
X2787143Y-28264342D01*
X2787143Y-28264342D02*
X2739524Y-28073866D01*
X2739524Y-28073866D02*
X2739524Y-27835771D01*
X2739524Y-27835771D02*
X2787143Y-27645295D01*
X2787143Y-27645295D02*
X2834762Y-27550057D01*
X2834762Y-27550057D02*
X2882381Y-27502438D01*
X2882381Y-27502438D02*
X2977619Y-27454819D01*
X4168095Y-27788152D02*
X4168095Y-28454819D01*
X3739524Y-27788152D02*
X3739524Y-28311961D01*
X3739524Y-28311961D02*
X3787143Y-28407200D01*
X3787143Y-28407200D02*
X3882381Y-28454819D01*
X3882381Y-28454819D02*
X4025238Y-28454819D01*
X4025238Y-28454819D02*
X4120476Y-28407200D01*
X4120476Y-28407200D02*
X4168095Y-28359580D01*
X4977619Y-27931009D02*
X4644286Y-27931009D01*
X4644286Y-28454819D02*
X4644286Y-27454819D01*
X4644286Y-27454819D02*
X5120476Y-27454819D01*
D11*
X1933333Y-28143832D02*
X1914285Y-28162880D01*
X1914285Y-28162880D02*
X1857143Y-28181927D01*
X1857143Y-28181927D02*
X1819047Y-28181927D01*
X1819047Y-28181927D02*
X1761904Y-28162880D01*
X1761904Y-28162880D02*
X1723809Y-28124784D01*
X1723809Y-28124784D02*
X1704762Y-28086689D01*
X1704762Y-28086689D02*
X1685714Y-28010499D01*
X1685714Y-28010499D02*
X1685714Y-27953356D01*
X1685714Y-27953356D02*
X1704762Y-27877165D01*
X1704762Y-27877165D02*
X1723809Y-27839070D01*
X1723809Y-27839070D02*
X1761904Y-27800975D01*
X1761904Y-27800975D02*
X1819047Y-27781927D01*
X1819047Y-27781927D02*
X1857143Y-27781927D01*
X1857143Y-27781927D02*
X1914285Y-27800975D01*
X1914285Y-27800975D02*
X1933333Y-27820022D01*
X2314285Y-28181927D02*
X2085714Y-28181927D01*
X2200000Y-28181927D02*
X2200000Y-27781927D01*
X2200000Y-27781927D02*
X2161904Y-27839070D01*
X2161904Y-27839070D02*
X2123809Y-27877165D01*
X2123809Y-27877165D02*
X2085714Y-27896213D01*
D10*
X54833333Y-524819D02*
X54500000Y-48628D01*
X54261905Y-524819D02*
X54261905Y475180D01*
X54261905Y475180D02*
X54642857Y475180D01*
X54642857Y475180D02*
X54738095Y427561D01*
X54738095Y427561D02*
X54785714Y379942D01*
X54785714Y379942D02*
X54833333Y284704D01*
X54833333Y284704D02*
X54833333Y141847D01*
X54833333Y141847D02*
X54785714Y46609D01*
X54785714Y46609D02*
X54738095Y-1009D01*
X54738095Y-1009D02*
X54642857Y-48628D01*
X54642857Y-48628D02*
X54261905Y-48628D01*
X55690476Y475180D02*
X55500000Y475180D01*
X55500000Y475180D02*
X55404762Y427561D01*
X55404762Y427561D02*
X55357143Y379942D01*
X55357143Y379942D02*
X55261905Y237085D01*
X55261905Y237085D02*
X55214286Y46609D01*
X55214286Y46609D02*
X55214286Y-334342D01*
X55214286Y-334342D02*
X55261905Y-429580D01*
X55261905Y-429580D02*
X55309524Y-477200D01*
X55309524Y-477200D02*
X55404762Y-524819D01*
X55404762Y-524819D02*
X55595238Y-524819D01*
X55595238Y-524819D02*
X55690476Y-477200D01*
X55690476Y-477200D02*
X55738095Y-429580D01*
X55738095Y-429580D02*
X55785714Y-334342D01*
X55785714Y-334342D02*
X55785714Y-96247D01*
X55785714Y-96247D02*
X55738095Y-1009D01*
X55738095Y-1009D02*
X55690476Y46609D01*
X55690476Y46609D02*
X55595238Y94228D01*
X55595238Y94228D02*
X55404762Y94228D01*
X55404762Y94228D02*
X55309524Y46609D01*
X55309524Y46609D02*
X55261905Y-1009D01*
X55261905Y-1009D02*
X55214286Y-96247D01*
X54880952Y-3384819D02*
X54309524Y-3384819D01*
X54595238Y-3384819D02*
X54595238Y-2384819D01*
X54595238Y-2384819D02*
X54500000Y-2527676D01*
X54500000Y-2527676D02*
X54404762Y-2622914D01*
X54404762Y-2622914D02*
X54309524Y-2670533D01*
X55309524Y-3384819D02*
X55309524Y-2384819D01*
X55404762Y-3003866D02*
X55690476Y-3384819D01*
X55690476Y-2718152D02*
X55309524Y-3099104D01*
D11*
X54933333Y-1681927D02*
X54800000Y-1491451D01*
X54704762Y-1681927D02*
X54704762Y-1281927D01*
X54704762Y-1281927D02*
X54857143Y-1281927D01*
X54857143Y-1281927D02*
X54895238Y-1300975D01*
X54895238Y-1300975D02*
X54914285Y-1320022D01*
X54914285Y-1320022D02*
X54933333Y-1358118D01*
X54933333Y-1358118D02*
X54933333Y-1415260D01*
X54933333Y-1415260D02*
X54914285Y-1453356D01*
X54914285Y-1453356D02*
X54895238Y-1472403D01*
X54895238Y-1472403D02*
X54857143Y-1491451D01*
X54857143Y-1491451D02*
X54704762Y-1491451D01*
X55276190Y-1281927D02*
X55200000Y-1281927D01*
X55200000Y-1281927D02*
X55161904Y-1300975D01*
X55161904Y-1300975D02*
X55142857Y-1320022D01*
X55142857Y-1320022D02*
X55104762Y-1377165D01*
X55104762Y-1377165D02*
X55085714Y-1453356D01*
X55085714Y-1453356D02*
X55085714Y-1605737D01*
X55085714Y-1605737D02*
X55104762Y-1643832D01*
X55104762Y-1643832D02*
X55123809Y-1662880D01*
X55123809Y-1662880D02*
X55161904Y-1681927D01*
X55161904Y-1681927D02*
X55238095Y-1681927D01*
X55238095Y-1681927D02*
X55276190Y-1662880D01*
X55276190Y-1662880D02*
X55295238Y-1643832D01*
X55295238Y-1643832D02*
X55314285Y-1605737D01*
X55314285Y-1605737D02*
X55314285Y-1510499D01*
X55314285Y-1510499D02*
X55295238Y-1472403D01*
X55295238Y-1472403D02*
X55276190Y-1453356D01*
X55276190Y-1453356D02*
X55238095Y-1434308D01*
X55238095Y-1434308D02*
X55161904Y-1434308D01*
X55161904Y-1434308D02*
X55123809Y-1453356D01*
X55123809Y-1453356D02*
X55104762Y-1472403D01*
X55104762Y-1472403D02*
X55085714Y-1510499D01*
D10*
X17882380Y-19454819D02*
X17310952Y-19454819D01*
X17596666Y-19454819D02*
X17596666Y-18454819D01*
X17596666Y-18454819D02*
X17501428Y-18597676D01*
X17501428Y-18597676D02*
X17406190Y-18692914D01*
X17406190Y-18692914D02*
X17310952Y-18740533D01*
X18501428Y-18454819D02*
X18596666Y-18454819D01*
X18596666Y-18454819D02*
X18691904Y-18502438D01*
X18691904Y-18502438D02*
X18739523Y-18550057D01*
X18739523Y-18550057D02*
X18787142Y-18645295D01*
X18787142Y-18645295D02*
X18834761Y-18835771D01*
X18834761Y-18835771D02*
X18834761Y-19073866D01*
X18834761Y-19073866D02*
X18787142Y-19264342D01*
X18787142Y-19264342D02*
X18739523Y-19359580D01*
X18739523Y-19359580D02*
X18691904Y-19407200D01*
X18691904Y-19407200D02*
X18596666Y-19454819D01*
X18596666Y-19454819D02*
X18501428Y-19454819D01*
X18501428Y-19454819D02*
X18406190Y-19407200D01*
X18406190Y-19407200D02*
X18358571Y-19359580D01*
X18358571Y-19359580D02*
X18310952Y-19264342D01*
X18310952Y-19264342D02*
X18263333Y-19073866D01*
X18263333Y-19073866D02*
X18263333Y-18835771D01*
X18263333Y-18835771D02*
X18310952Y-18645295D01*
X18310952Y-18645295D02*
X18358571Y-18550057D01*
X18358571Y-18550057D02*
X18406190Y-18502438D01*
X18406190Y-18502438D02*
X18501428Y-18454819D01*
X19453809Y-18454819D02*
X19549047Y-18454819D01*
X19549047Y-18454819D02*
X19644285Y-18502438D01*
X19644285Y-18502438D02*
X19691904Y-18550057D01*
X19691904Y-18550057D02*
X19739523Y-18645295D01*
X19739523Y-18645295D02*
X19787142Y-18835771D01*
X19787142Y-18835771D02*
X19787142Y-19073866D01*
X19787142Y-19073866D02*
X19739523Y-19264342D01*
X19739523Y-19264342D02*
X19691904Y-19359580D01*
X19691904Y-19359580D02*
X19644285Y-19407200D01*
X19644285Y-19407200D02*
X19549047Y-19454819D01*
X19549047Y-19454819D02*
X19453809Y-19454819D01*
X19453809Y-19454819D02*
X19358571Y-19407200D01*
X19358571Y-19407200D02*
X19310952Y-19359580D01*
X19310952Y-19359580D02*
X19263333Y-19264342D01*
X19263333Y-19264342D02*
X19215714Y-19073866D01*
X19215714Y-19073866D02*
X19215714Y-18835771D01*
X19215714Y-18835771D02*
X19263333Y-18645295D01*
X19263333Y-18645295D02*
X19310952Y-18550057D01*
X19310952Y-18550057D02*
X19358571Y-18502438D01*
X19358571Y-18502438D02*
X19453809Y-18454819D01*
X20215714Y-18788152D02*
X20215714Y-19454819D01*
X20215714Y-18883390D02*
X20263333Y-18835771D01*
X20263333Y-18835771D02*
X20358571Y-18788152D01*
X20358571Y-18788152D02*
X20501428Y-18788152D01*
X20501428Y-18788152D02*
X20596666Y-18835771D01*
X20596666Y-18835771D02*
X20644285Y-18931009D01*
X20644285Y-18931009D02*
X20644285Y-19454819D01*
X21453809Y-18931009D02*
X21120476Y-18931009D01*
X21120476Y-19454819D02*
X21120476Y-18454819D01*
X21120476Y-18454819D02*
X21596666Y-18454819D01*
D11*
X17933333Y-19143832D02*
X17914285Y-19162880D01*
X17914285Y-19162880D02*
X17857143Y-19181927D01*
X17857143Y-19181927D02*
X17819047Y-19181927D01*
X17819047Y-19181927D02*
X17761904Y-19162880D01*
X17761904Y-19162880D02*
X17723809Y-19124784D01*
X17723809Y-19124784D02*
X17704762Y-19086689D01*
X17704762Y-19086689D02*
X17685714Y-19010499D01*
X17685714Y-19010499D02*
X17685714Y-18953356D01*
X17685714Y-18953356D02*
X17704762Y-18877165D01*
X17704762Y-18877165D02*
X17723809Y-18839070D01*
X17723809Y-18839070D02*
X17761904Y-18800975D01*
X17761904Y-18800975D02*
X17819047Y-18781927D01*
X17819047Y-18781927D02*
X17857143Y-18781927D01*
X17857143Y-18781927D02*
X17914285Y-18800975D01*
X17914285Y-18800975D02*
X17933333Y-18820022D01*
X18066666Y-18781927D02*
X18333333Y-18781927D01*
X18333333Y-18781927D02*
X18161904Y-19181927D01*
D10*
X36301666Y-31709819D02*
X36301666Y-32424104D01*
X36301666Y-32424104D02*
X36254047Y-32566961D01*
X36254047Y-32566961D02*
X36158809Y-32662200D01*
X36158809Y-32662200D02*
X36015952Y-32709819D01*
X36015952Y-32709819D02*
X35920714Y-32709819D01*
X36730238Y-31805057D02*
X36777857Y-31757438D01*
X36777857Y-31757438D02*
X36873095Y-31709819D01*
X36873095Y-31709819D02*
X37111190Y-31709819D01*
X37111190Y-31709819D02*
X37206428Y-31757438D01*
X37206428Y-31757438D02*
X37254047Y-31805057D01*
X37254047Y-31805057D02*
X37301666Y-31900295D01*
X37301666Y-31900295D02*
X37301666Y-31995533D01*
X37301666Y-31995533D02*
X37254047Y-32138390D01*
X37254047Y-32138390D02*
X36682619Y-32709819D01*
X36682619Y-32709819D02*
X37301666Y-32709819D01*
X28992141Y-41184580D02*
X28944522Y-41232200D01*
X28944522Y-41232200D02*
X28801665Y-41279819D01*
X28801665Y-41279819D02*
X28706427Y-41279819D01*
X28706427Y-41279819D02*
X28563570Y-41232200D01*
X28563570Y-41232200D02*
X28468332Y-41136961D01*
X28468332Y-41136961D02*
X28420713Y-41041723D01*
X28420713Y-41041723D02*
X28373094Y-40851247D01*
X28373094Y-40851247D02*
X28373094Y-40708390D01*
X28373094Y-40708390D02*
X28420713Y-40517914D01*
X28420713Y-40517914D02*
X28468332Y-40422676D01*
X28468332Y-40422676D02*
X28563570Y-40327438D01*
X28563570Y-40327438D02*
X28706427Y-40279819D01*
X28706427Y-40279819D02*
X28801665Y-40279819D01*
X28801665Y-40279819D02*
X28944522Y-40327438D01*
X28944522Y-40327438D02*
X28992141Y-40375057D01*
X29563570Y-41279819D02*
X29468332Y-41232200D01*
X29468332Y-41232200D02*
X29420713Y-41184580D01*
X29420713Y-41184580D02*
X29373094Y-41089342D01*
X29373094Y-41089342D02*
X29373094Y-40803628D01*
X29373094Y-40803628D02*
X29420713Y-40708390D01*
X29420713Y-40708390D02*
X29468332Y-40660771D01*
X29468332Y-40660771D02*
X29563570Y-40613152D01*
X29563570Y-40613152D02*
X29706427Y-40613152D01*
X29706427Y-40613152D02*
X29801665Y-40660771D01*
X29801665Y-40660771D02*
X29849284Y-40708390D01*
X29849284Y-40708390D02*
X29896903Y-40803628D01*
X29896903Y-40803628D02*
X29896903Y-41089342D01*
X29896903Y-41089342D02*
X29849284Y-41184580D01*
X29849284Y-41184580D02*
X29801665Y-41232200D01*
X29801665Y-41232200D02*
X29706427Y-41279819D01*
X29706427Y-41279819D02*
X29563570Y-41279819D01*
X30325475Y-40613152D02*
X30325475Y-41279819D01*
X30325475Y-40708390D02*
X30373094Y-40660771D01*
X30373094Y-40660771D02*
X30468332Y-40613152D01*
X30468332Y-40613152D02*
X30611189Y-40613152D01*
X30611189Y-40613152D02*
X30706427Y-40660771D01*
X30706427Y-40660771D02*
X30754046Y-40756009D01*
X30754046Y-40756009D02*
X30754046Y-41279819D01*
X31230237Y-40613152D02*
X31230237Y-41279819D01*
X31230237Y-40708390D02*
X31277856Y-40660771D01*
X31277856Y-40660771D02*
X31373094Y-40613152D01*
X31373094Y-40613152D02*
X31515951Y-40613152D01*
X31515951Y-40613152D02*
X31611189Y-40660771D01*
X31611189Y-40660771D02*
X31658808Y-40756009D01*
X31658808Y-40756009D02*
X31658808Y-41279819D01*
X31896904Y-41375057D02*
X32658808Y-41375057D01*
X33087380Y-40279819D02*
X33182618Y-40279819D01*
X33182618Y-40279819D02*
X33277856Y-40327438D01*
X33277856Y-40327438D02*
X33325475Y-40375057D01*
X33325475Y-40375057D02*
X33373094Y-40470295D01*
X33373094Y-40470295D02*
X33420713Y-40660771D01*
X33420713Y-40660771D02*
X33420713Y-40898866D01*
X33420713Y-40898866D02*
X33373094Y-41089342D01*
X33373094Y-41089342D02*
X33325475Y-41184580D01*
X33325475Y-41184580D02*
X33277856Y-41232200D01*
X33277856Y-41232200D02*
X33182618Y-41279819D01*
X33182618Y-41279819D02*
X33087380Y-41279819D01*
X33087380Y-41279819D02*
X32992142Y-41232200D01*
X32992142Y-41232200D02*
X32944523Y-41184580D01*
X32944523Y-41184580D02*
X32896904Y-41089342D01*
X32896904Y-41089342D02*
X32849285Y-40898866D01*
X32849285Y-40898866D02*
X32849285Y-40660771D01*
X32849285Y-40660771D02*
X32896904Y-40470295D01*
X32896904Y-40470295D02*
X32944523Y-40375057D01*
X32944523Y-40375057D02*
X32992142Y-40327438D01*
X32992142Y-40327438D02*
X33087380Y-40279819D01*
X33801666Y-40375057D02*
X33849285Y-40327438D01*
X33849285Y-40327438D02*
X33944523Y-40279819D01*
X33944523Y-40279819D02*
X34182618Y-40279819D01*
X34182618Y-40279819D02*
X34277856Y-40327438D01*
X34277856Y-40327438D02*
X34325475Y-40375057D01*
X34325475Y-40375057D02*
X34373094Y-40470295D01*
X34373094Y-40470295D02*
X34373094Y-40565533D01*
X34373094Y-40565533D02*
X34325475Y-40708390D01*
X34325475Y-40708390D02*
X33754047Y-41279819D01*
X33754047Y-41279819D02*
X34373094Y-41279819D01*
X34706428Y-41279819D02*
X35230237Y-40613152D01*
X34706428Y-40613152D02*
X35230237Y-41279819D01*
X35801666Y-40279819D02*
X35896904Y-40279819D01*
X35896904Y-40279819D02*
X35992142Y-40327438D01*
X35992142Y-40327438D02*
X36039761Y-40375057D01*
X36039761Y-40375057D02*
X36087380Y-40470295D01*
X36087380Y-40470295D02*
X36134999Y-40660771D01*
X36134999Y-40660771D02*
X36134999Y-40898866D01*
X36134999Y-40898866D02*
X36087380Y-41089342D01*
X36087380Y-41089342D02*
X36039761Y-41184580D01*
X36039761Y-41184580D02*
X35992142Y-41232200D01*
X35992142Y-41232200D02*
X35896904Y-41279819D01*
X35896904Y-41279819D02*
X35801666Y-41279819D01*
X35801666Y-41279819D02*
X35706428Y-41232200D01*
X35706428Y-41232200D02*
X35658809Y-41184580D01*
X35658809Y-41184580D02*
X35611190Y-41089342D01*
X35611190Y-41089342D02*
X35563571Y-40898866D01*
X35563571Y-40898866D02*
X35563571Y-40660771D01*
X35563571Y-40660771D02*
X35611190Y-40470295D01*
X35611190Y-40470295D02*
X35658809Y-40375057D01*
X35658809Y-40375057D02*
X35706428Y-40327438D01*
X35706428Y-40327438D02*
X35801666Y-40279819D01*
X37039761Y-40279819D02*
X36563571Y-40279819D01*
X36563571Y-40279819D02*
X36515952Y-40756009D01*
X36515952Y-40756009D02*
X36563571Y-40708390D01*
X36563571Y-40708390D02*
X36658809Y-40660771D01*
X36658809Y-40660771D02*
X36896904Y-40660771D01*
X36896904Y-40660771D02*
X36992142Y-40708390D01*
X36992142Y-40708390D02*
X37039761Y-40756009D01*
X37039761Y-40756009D02*
X37087380Y-40851247D01*
X37087380Y-40851247D02*
X37087380Y-41089342D01*
X37087380Y-41089342D02*
X37039761Y-41184580D01*
X37039761Y-41184580D02*
X36992142Y-41232200D01*
X36992142Y-41232200D02*
X36896904Y-41279819D01*
X36896904Y-41279819D02*
X36658809Y-41279819D01*
X36658809Y-41279819D02*
X36563571Y-41232200D01*
X36563571Y-41232200D02*
X36515952Y-41184580D01*
X37277857Y-41375057D02*
X38039761Y-41375057D01*
X38468333Y-40279819D02*
X38658809Y-40279819D01*
X38658809Y-40279819D02*
X38754047Y-40327438D01*
X38754047Y-40327438D02*
X38849285Y-40422676D01*
X38849285Y-40422676D02*
X38896904Y-40613152D01*
X38896904Y-40613152D02*
X38896904Y-40946485D01*
X38896904Y-40946485D02*
X38849285Y-41136961D01*
X38849285Y-41136961D02*
X38754047Y-41232200D01*
X38754047Y-41232200D02*
X38658809Y-41279819D01*
X38658809Y-41279819D02*
X38468333Y-41279819D01*
X38468333Y-41279819D02*
X38373095Y-41232200D01*
X38373095Y-41232200D02*
X38277857Y-41136961D01*
X38277857Y-41136961D02*
X38230238Y-40946485D01*
X38230238Y-40946485D02*
X38230238Y-40613152D01*
X38230238Y-40613152D02*
X38277857Y-40422676D01*
X38277857Y-40422676D02*
X38373095Y-40327438D01*
X38373095Y-40327438D02*
X38468333Y-40279819D01*
X39754047Y-41279819D02*
X39754047Y-40279819D01*
X39754047Y-41232200D02*
X39658809Y-41279819D01*
X39658809Y-41279819D02*
X39468333Y-41279819D01*
X39468333Y-41279819D02*
X39373095Y-41232200D01*
X39373095Y-41232200D02*
X39325476Y-41184580D01*
X39325476Y-41184580D02*
X39277857Y-41089342D01*
X39277857Y-41089342D02*
X39277857Y-40803628D01*
X39277857Y-40803628D02*
X39325476Y-40708390D01*
X39325476Y-40708390D02*
X39373095Y-40660771D01*
X39373095Y-40660771D02*
X39468333Y-40613152D01*
X39468333Y-40613152D02*
X39658809Y-40613152D01*
X39658809Y-40613152D02*
X39754047Y-40660771D01*
X40658809Y-41279819D02*
X40658809Y-40279819D01*
X40658809Y-41232200D02*
X40563571Y-41279819D01*
X40563571Y-41279819D02*
X40373095Y-41279819D01*
X40373095Y-41279819D02*
X40277857Y-41232200D01*
X40277857Y-41232200D02*
X40230238Y-41184580D01*
X40230238Y-41184580D02*
X40182619Y-41089342D01*
X40182619Y-41089342D02*
X40182619Y-40803628D01*
X40182619Y-40803628D02*
X40230238Y-40708390D01*
X40230238Y-40708390D02*
X40277857Y-40660771D01*
X40277857Y-40660771D02*
X40373095Y-40613152D01*
X40373095Y-40613152D02*
X40563571Y-40613152D01*
X40563571Y-40613152D02*
X40658809Y-40660771D01*
X40896905Y-41375057D02*
X41658809Y-41375057D01*
X41896905Y-40756009D02*
X42230238Y-40756009D01*
X42373095Y-41279819D02*
X41896905Y-41279819D01*
X41896905Y-41279819D02*
X41896905Y-40279819D01*
X41896905Y-40279819D02*
X42373095Y-40279819D01*
X42706429Y-40613152D02*
X42944524Y-41279819D01*
X42944524Y-41279819D02*
X43182619Y-40613152D01*
X43944524Y-41232200D02*
X43849286Y-41279819D01*
X43849286Y-41279819D02*
X43658810Y-41279819D01*
X43658810Y-41279819D02*
X43563572Y-41232200D01*
X43563572Y-41232200D02*
X43515953Y-41136961D01*
X43515953Y-41136961D02*
X43515953Y-40756009D01*
X43515953Y-40756009D02*
X43563572Y-40660771D01*
X43563572Y-40660771D02*
X43658810Y-40613152D01*
X43658810Y-40613152D02*
X43849286Y-40613152D01*
X43849286Y-40613152D02*
X43944524Y-40660771D01*
X43944524Y-40660771D02*
X43992143Y-40756009D01*
X43992143Y-40756009D02*
X43992143Y-40851247D01*
X43992143Y-40851247D02*
X43515953Y-40946485D01*
X44420715Y-40613152D02*
X44420715Y-41279819D01*
X44420715Y-40708390D02*
X44468334Y-40660771D01*
X44468334Y-40660771D02*
X44563572Y-40613152D01*
X44563572Y-40613152D02*
X44706429Y-40613152D01*
X44706429Y-40613152D02*
X44801667Y-40660771D01*
X44801667Y-40660771D02*
X44849286Y-40756009D01*
X44849286Y-40756009D02*
X44849286Y-41279819D01*
X36089819Y-36873333D02*
X36804104Y-36873333D01*
X36804104Y-36873333D02*
X36946961Y-36920952D01*
X36946961Y-36920952D02*
X37042200Y-37016190D01*
X37042200Y-37016190D02*
X37089819Y-37159047D01*
X37089819Y-37159047D02*
X37089819Y-37254285D01*
X36185057Y-36444761D02*
X36137438Y-36397142D01*
X36137438Y-36397142D02*
X36089819Y-36301904D01*
X36089819Y-36301904D02*
X36089819Y-36063809D01*
X36089819Y-36063809D02*
X36137438Y-35968571D01*
X36137438Y-35968571D02*
X36185057Y-35920952D01*
X36185057Y-35920952D02*
X36280295Y-35873333D01*
X36280295Y-35873333D02*
X36375533Y-35873333D01*
X36375533Y-35873333D02*
X36518390Y-35920952D01*
X36518390Y-35920952D02*
X37089819Y-36492380D01*
X37089819Y-36492380D02*
X37089819Y-35873333D01*
X16403333Y-15954819D02*
X16070000Y-15478628D01*
X15831905Y-15954819D02*
X15831905Y-14954819D01*
X15831905Y-14954819D02*
X16212857Y-14954819D01*
X16212857Y-14954819D02*
X16308095Y-15002438D01*
X16308095Y-15002438D02*
X16355714Y-15050057D01*
X16355714Y-15050057D02*
X16403333Y-15145295D01*
X16403333Y-15145295D02*
X16403333Y-15288152D01*
X16403333Y-15288152D02*
X16355714Y-15383390D01*
X16355714Y-15383390D02*
X16308095Y-15431009D01*
X16308095Y-15431009D02*
X16212857Y-15478628D01*
X16212857Y-15478628D02*
X15831905Y-15478628D01*
X16784286Y-15050057D02*
X16831905Y-15002438D01*
X16831905Y-15002438D02*
X16927143Y-14954819D01*
X16927143Y-14954819D02*
X17165238Y-14954819D01*
X17165238Y-14954819D02*
X17260476Y-15002438D01*
X17260476Y-15002438D02*
X17308095Y-15050057D01*
X17308095Y-15050057D02*
X17355714Y-15145295D01*
X17355714Y-15145295D02*
X17355714Y-15240533D01*
X17355714Y-15240533D02*
X17308095Y-15383390D01*
X17308095Y-15383390D02*
X16736667Y-15954819D01*
X16736667Y-15954819D02*
X17355714Y-15954819D01*
X18501428Y-15288152D02*
X18501428Y-15954819D01*
X18263333Y-14907200D02*
X18025238Y-15621485D01*
X18025238Y-15621485D02*
X18644285Y-15621485D01*
X19025238Y-15859580D02*
X19072857Y-15907200D01*
X19072857Y-15907200D02*
X19025238Y-15954819D01*
X19025238Y-15954819D02*
X18977619Y-15907200D01*
X18977619Y-15907200D02*
X19025238Y-15859580D01*
X19025238Y-15859580D02*
X19025238Y-15954819D01*
X19406190Y-14954819D02*
X20072856Y-14954819D01*
X20072856Y-14954819D02*
X19644285Y-15954819D01*
X20453809Y-15954819D02*
X20453809Y-14954819D01*
X20549047Y-15573866D02*
X20834761Y-15954819D01*
X20834761Y-15288152D02*
X20453809Y-15669104D01*
D11*
X17933333Y-15681927D02*
X17800000Y-15491451D01*
X17704762Y-15681927D02*
X17704762Y-15281927D01*
X17704762Y-15281927D02*
X17857143Y-15281927D01*
X17857143Y-15281927D02*
X17895238Y-15300975D01*
X17895238Y-15300975D02*
X17914285Y-15320022D01*
X17914285Y-15320022D02*
X17933333Y-15358118D01*
X17933333Y-15358118D02*
X17933333Y-15415260D01*
X17933333Y-15415260D02*
X17914285Y-15453356D01*
X17914285Y-15453356D02*
X17895238Y-15472403D01*
X17895238Y-15472403D02*
X17857143Y-15491451D01*
X17857143Y-15491451D02*
X17704762Y-15491451D01*
X18085714Y-15320022D02*
X18104762Y-15300975D01*
X18104762Y-15300975D02*
X18142857Y-15281927D01*
X18142857Y-15281927D02*
X18238095Y-15281927D01*
X18238095Y-15281927D02*
X18276190Y-15300975D01*
X18276190Y-15300975D02*
X18295238Y-15320022D01*
X18295238Y-15320022D02*
X18314285Y-15358118D01*
X18314285Y-15358118D02*
X18314285Y-15396213D01*
X18314285Y-15396213D02*
X18295238Y-15453356D01*
X18295238Y-15453356D02*
X18066666Y-15681927D01*
X18066666Y-15681927D02*
X18314285Y-15681927D01*
D10*
X17427142Y-12359580D02*
X17379523Y-12407200D01*
X17379523Y-12407200D02*
X17236666Y-12454819D01*
X17236666Y-12454819D02*
X17141428Y-12454819D01*
X17141428Y-12454819D02*
X16998571Y-12407200D01*
X16998571Y-12407200D02*
X16903333Y-12311961D01*
X16903333Y-12311961D02*
X16855714Y-12216723D01*
X16855714Y-12216723D02*
X16808095Y-12026247D01*
X16808095Y-12026247D02*
X16808095Y-11883390D01*
X16808095Y-11883390D02*
X16855714Y-11692914D01*
X16855714Y-11692914D02*
X16903333Y-11597676D01*
X16903333Y-11597676D02*
X16998571Y-11502438D01*
X16998571Y-11502438D02*
X17141428Y-11454819D01*
X17141428Y-11454819D02*
X17236666Y-11454819D01*
X17236666Y-11454819D02*
X17379523Y-11502438D01*
X17379523Y-11502438D02*
X17427142Y-11550057D01*
X18379523Y-12454819D02*
X17808095Y-12454819D01*
X18093809Y-12454819D02*
X18093809Y-11454819D01*
X18093809Y-11454819D02*
X17998571Y-11597676D01*
X17998571Y-11597676D02*
X17903333Y-11692914D01*
X17903333Y-11692914D02*
X17808095Y-11740533D01*
X19331904Y-12454819D02*
X18760476Y-12454819D01*
X19046190Y-12454819D02*
X19046190Y-11454819D01*
X19046190Y-11454819D02*
X18950952Y-11597676D01*
X18950952Y-11597676D02*
X18855714Y-11692914D01*
X18855714Y-11692914D02*
X18760476Y-11740533D01*
X19382380Y-12454819D02*
X18810952Y-12454819D01*
X19096666Y-12454819D02*
X19096666Y-11454819D01*
X19096666Y-11454819D02*
X19001428Y-11597676D01*
X19001428Y-11597676D02*
X18906190Y-11692914D01*
X18906190Y-11692914D02*
X18810952Y-11740533D01*
X20001428Y-11454819D02*
X20096666Y-11454819D01*
X20096666Y-11454819D02*
X20191904Y-11502438D01*
X20191904Y-11502438D02*
X20239523Y-11550057D01*
X20239523Y-11550057D02*
X20287142Y-11645295D01*
X20287142Y-11645295D02*
X20334761Y-11835771D01*
X20334761Y-11835771D02*
X20334761Y-12073866D01*
X20334761Y-12073866D02*
X20287142Y-12264342D01*
X20287142Y-12264342D02*
X20239523Y-12359580D01*
X20239523Y-12359580D02*
X20191904Y-12407200D01*
X20191904Y-12407200D02*
X20096666Y-12454819D01*
X20096666Y-12454819D02*
X20001428Y-12454819D01*
X20001428Y-12454819D02*
X19906190Y-12407200D01*
X19906190Y-12407200D02*
X19858571Y-12359580D01*
X19858571Y-12359580D02*
X19810952Y-12264342D01*
X19810952Y-12264342D02*
X19763333Y-12073866D01*
X19763333Y-12073866D02*
X19763333Y-11835771D01*
X19763333Y-11835771D02*
X19810952Y-11645295D01*
X19810952Y-11645295D02*
X19858571Y-11550057D01*
X19858571Y-11550057D02*
X19906190Y-11502438D01*
X19906190Y-11502438D02*
X20001428Y-11454819D01*
X20953809Y-11454819D02*
X21049047Y-11454819D01*
X21049047Y-11454819D02*
X21144285Y-11502438D01*
X21144285Y-11502438D02*
X21191904Y-11550057D01*
X21191904Y-11550057D02*
X21239523Y-11645295D01*
X21239523Y-11645295D02*
X21287142Y-11835771D01*
X21287142Y-11835771D02*
X21287142Y-12073866D01*
X21287142Y-12073866D02*
X21239523Y-12264342D01*
X21239523Y-12264342D02*
X21191904Y-12359580D01*
X21191904Y-12359580D02*
X21144285Y-12407200D01*
X21144285Y-12407200D02*
X21049047Y-12454819D01*
X21049047Y-12454819D02*
X20953809Y-12454819D01*
X20953809Y-12454819D02*
X20858571Y-12407200D01*
X20858571Y-12407200D02*
X20810952Y-12359580D01*
X20810952Y-12359580D02*
X20763333Y-12264342D01*
X20763333Y-12264342D02*
X20715714Y-12073866D01*
X20715714Y-12073866D02*
X20715714Y-11835771D01*
X20715714Y-11835771D02*
X20763333Y-11645295D01*
X20763333Y-11645295D02*
X20810952Y-11550057D01*
X20810952Y-11550057D02*
X20858571Y-11502438D01*
X20858571Y-11502438D02*
X20953809Y-11454819D01*
X21715714Y-11788152D02*
X21715714Y-12454819D01*
X21715714Y-11883390D02*
X21763333Y-11835771D01*
X21763333Y-11835771D02*
X21858571Y-11788152D01*
X21858571Y-11788152D02*
X22001428Y-11788152D01*
X22001428Y-11788152D02*
X22096666Y-11835771D01*
X22096666Y-11835771D02*
X22144285Y-11931009D01*
X22144285Y-11931009D02*
X22144285Y-12454819D01*
X22953809Y-11931009D02*
X22620476Y-11931009D01*
X22620476Y-12454819D02*
X22620476Y-11454819D01*
X22620476Y-11454819D02*
X23096666Y-11454819D01*
D11*
X19242857Y-12143832D02*
X19223809Y-12162880D01*
X19223809Y-12162880D02*
X19166667Y-12181927D01*
X19166667Y-12181927D02*
X19128571Y-12181927D01*
X19128571Y-12181927D02*
X19071428Y-12162880D01*
X19071428Y-12162880D02*
X19033333Y-12124784D01*
X19033333Y-12124784D02*
X19014286Y-12086689D01*
X19014286Y-12086689D02*
X18995238Y-12010499D01*
X18995238Y-12010499D02*
X18995238Y-11953356D01*
X18995238Y-11953356D02*
X19014286Y-11877165D01*
X19014286Y-11877165D02*
X19033333Y-11839070D01*
X19033333Y-11839070D02*
X19071428Y-11800975D01*
X19071428Y-11800975D02*
X19128571Y-11781927D01*
X19128571Y-11781927D02*
X19166667Y-11781927D01*
X19166667Y-11781927D02*
X19223809Y-11800975D01*
X19223809Y-11800975D02*
X19242857Y-11820022D01*
X19623809Y-12181927D02*
X19395238Y-12181927D01*
X19509524Y-12181927D02*
X19509524Y-11781927D01*
X19509524Y-11781927D02*
X19471428Y-11839070D01*
X19471428Y-11839070D02*
X19433333Y-11877165D01*
X19433333Y-11877165D02*
X19395238Y-11896213D01*
X20004761Y-12181927D02*
X19776190Y-12181927D01*
X19890476Y-12181927D02*
X19890476Y-11781927D01*
X19890476Y-11781927D02*
X19852380Y-11839070D01*
X19852380Y-11839070D02*
X19814285Y-11877165D01*
X19814285Y-11877165D02*
X19776190Y-11896213D01*
D10*
X11928571Y-27384819D02*
X11357143Y-27384819D01*
X11642857Y-27384819D02*
X11642857Y-26384819D01*
X11642857Y-26384819D02*
X11547619Y-26527676D01*
X11547619Y-26527676D02*
X11452381Y-26622914D01*
X11452381Y-26622914D02*
X11357143Y-26670533D01*
X12547619Y-26384819D02*
X12642857Y-26384819D01*
X12642857Y-26384819D02*
X12738095Y-26432438D01*
X12738095Y-26432438D02*
X12785714Y-26480057D01*
X12785714Y-26480057D02*
X12833333Y-26575295D01*
X12833333Y-26575295D02*
X12880952Y-26765771D01*
X12880952Y-26765771D02*
X12880952Y-27003866D01*
X12880952Y-27003866D02*
X12833333Y-27194342D01*
X12833333Y-27194342D02*
X12785714Y-27289580D01*
X12785714Y-27289580D02*
X12738095Y-27337200D01*
X12738095Y-27337200D02*
X12642857Y-27384819D01*
X12642857Y-27384819D02*
X12547619Y-27384819D01*
X12547619Y-27384819D02*
X12452381Y-27337200D01*
X12452381Y-27337200D02*
X12404762Y-27289580D01*
X12404762Y-27289580D02*
X12357143Y-27194342D01*
X12357143Y-27194342D02*
X12309524Y-27003866D01*
X12309524Y-27003866D02*
X12309524Y-26765771D01*
X12309524Y-26765771D02*
X12357143Y-26575295D01*
X12357143Y-26575295D02*
X12404762Y-26480057D01*
X12404762Y-26480057D02*
X12452381Y-26432438D01*
X12452381Y-26432438D02*
X12547619Y-26384819D01*
X13738095Y-26718152D02*
X13738095Y-27384819D01*
X13309524Y-26718152D02*
X13309524Y-27241961D01*
X13309524Y-27241961D02*
X13357143Y-27337200D01*
X13357143Y-27337200D02*
X13452381Y-27384819D01*
X13452381Y-27384819D02*
X13595238Y-27384819D01*
X13595238Y-27384819D02*
X13690476Y-27337200D01*
X13690476Y-27337200D02*
X13738095Y-27289580D01*
X14547619Y-26861009D02*
X14214286Y-26861009D01*
X14214286Y-27384819D02*
X14214286Y-26384819D01*
X14214286Y-26384819D02*
X14690476Y-26384819D01*
D11*
X12742857Y-25643832D02*
X12723809Y-25662880D01*
X12723809Y-25662880D02*
X12666667Y-25681927D01*
X12666667Y-25681927D02*
X12628571Y-25681927D01*
X12628571Y-25681927D02*
X12571428Y-25662880D01*
X12571428Y-25662880D02*
X12533333Y-25624784D01*
X12533333Y-25624784D02*
X12514286Y-25586689D01*
X12514286Y-25586689D02*
X12495238Y-25510499D01*
X12495238Y-25510499D02*
X12495238Y-25453356D01*
X12495238Y-25453356D02*
X12514286Y-25377165D01*
X12514286Y-25377165D02*
X12533333Y-25339070D01*
X12533333Y-25339070D02*
X12571428Y-25300975D01*
X12571428Y-25300975D02*
X12628571Y-25281927D01*
X12628571Y-25281927D02*
X12666667Y-25281927D01*
X12666667Y-25281927D02*
X12723809Y-25300975D01*
X12723809Y-25300975D02*
X12742857Y-25320022D01*
X13123809Y-25681927D02*
X12895238Y-25681927D01*
X13009524Y-25681927D02*
X13009524Y-25281927D01*
X13009524Y-25281927D02*
X12971428Y-25339070D01*
X12971428Y-25339070D02*
X12933333Y-25377165D01*
X12933333Y-25377165D02*
X12895238Y-25396213D01*
X13257142Y-25281927D02*
X13504761Y-25281927D01*
X13504761Y-25281927D02*
X13371428Y-25434308D01*
X13371428Y-25434308D02*
X13428571Y-25434308D01*
X13428571Y-25434308D02*
X13466666Y-25453356D01*
X13466666Y-25453356D02*
X13485714Y-25472403D01*
X13485714Y-25472403D02*
X13504761Y-25510499D01*
X13504761Y-25510499D02*
X13504761Y-25605737D01*
X13504761Y-25605737D02*
X13485714Y-25643832D01*
X13485714Y-25643832D02*
X13466666Y-25662880D01*
X13466666Y-25662880D02*
X13428571Y-25681927D01*
X13428571Y-25681927D02*
X13314285Y-25681927D01*
X13314285Y-25681927D02*
X13276190Y-25662880D01*
X13276190Y-25662880D02*
X13257142Y-25643832D01*
D10*
X29333333Y-26024819D02*
X29000000Y-25548628D01*
X28761905Y-26024819D02*
X28761905Y-25024819D01*
X28761905Y-25024819D02*
X29142857Y-25024819D01*
X29142857Y-25024819D02*
X29238095Y-25072438D01*
X29238095Y-25072438D02*
X29285714Y-25120057D01*
X29285714Y-25120057D02*
X29333333Y-25215295D01*
X29333333Y-25215295D02*
X29333333Y-25358152D01*
X29333333Y-25358152D02*
X29285714Y-25453390D01*
X29285714Y-25453390D02*
X29238095Y-25501009D01*
X29238095Y-25501009D02*
X29142857Y-25548628D01*
X29142857Y-25548628D02*
X28761905Y-25548628D01*
X29809524Y-26024819D02*
X30000000Y-26024819D01*
X30000000Y-26024819D02*
X30095238Y-25977200D01*
X30095238Y-25977200D02*
X30142857Y-25929580D01*
X30142857Y-25929580D02*
X30238095Y-25786723D01*
X30238095Y-25786723D02*
X30285714Y-25596247D01*
X30285714Y-25596247D02*
X30285714Y-25215295D01*
X30285714Y-25215295D02*
X30238095Y-25120057D01*
X30238095Y-25120057D02*
X30190476Y-25072438D01*
X30190476Y-25072438D02*
X30095238Y-25024819D01*
X30095238Y-25024819D02*
X29904762Y-25024819D01*
X29904762Y-25024819D02*
X29809524Y-25072438D01*
X29809524Y-25072438D02*
X29761905Y-25120057D01*
X29761905Y-25120057D02*
X29714286Y-25215295D01*
X29714286Y-25215295D02*
X29714286Y-25453390D01*
X29714286Y-25453390D02*
X29761905Y-25548628D01*
X29761905Y-25548628D02*
X29809524Y-25596247D01*
X29809524Y-25596247D02*
X29904762Y-25643866D01*
X29904762Y-25643866D02*
X30095238Y-25643866D01*
X30095238Y-25643866D02*
X30190476Y-25596247D01*
X30190476Y-25596247D02*
X30238095Y-25548628D01*
X30238095Y-25548628D02*
X30285714Y-25453390D01*
X28904761Y-28884819D02*
X28333333Y-28884819D01*
X28619047Y-28884819D02*
X28619047Y-27884819D01*
X28619047Y-27884819D02*
X28523809Y-28027676D01*
X28523809Y-28027676D02*
X28428571Y-28122914D01*
X28428571Y-28122914D02*
X28333333Y-28170533D01*
X29523809Y-27884819D02*
X29619047Y-27884819D01*
X29619047Y-27884819D02*
X29714285Y-27932438D01*
X29714285Y-27932438D02*
X29761904Y-27980057D01*
X29761904Y-27980057D02*
X29809523Y-28075295D01*
X29809523Y-28075295D02*
X29857142Y-28265771D01*
X29857142Y-28265771D02*
X29857142Y-28503866D01*
X29857142Y-28503866D02*
X29809523Y-28694342D01*
X29809523Y-28694342D02*
X29761904Y-28789580D01*
X29761904Y-28789580D02*
X29714285Y-28837200D01*
X29714285Y-28837200D02*
X29619047Y-28884819D01*
X29619047Y-28884819D02*
X29523809Y-28884819D01*
X29523809Y-28884819D02*
X29428571Y-28837200D01*
X29428571Y-28837200D02*
X29380952Y-28789580D01*
X29380952Y-28789580D02*
X29333333Y-28694342D01*
X29333333Y-28694342D02*
X29285714Y-28503866D01*
X29285714Y-28503866D02*
X29285714Y-28265771D01*
X29285714Y-28265771D02*
X29333333Y-28075295D01*
X29333333Y-28075295D02*
X29380952Y-27980057D01*
X29380952Y-27980057D02*
X29428571Y-27932438D01*
X29428571Y-27932438D02*
X29523809Y-27884819D01*
X30285714Y-28884819D02*
X30285714Y-27884819D01*
X30380952Y-28503866D02*
X30666666Y-28884819D01*
X30666666Y-28218152D02*
X30285714Y-28599104D01*
D11*
X29433333Y-27181927D02*
X29300000Y-26991451D01*
X29204762Y-27181927D02*
X29204762Y-26781927D01*
X29204762Y-26781927D02*
X29357143Y-26781927D01*
X29357143Y-26781927D02*
X29395238Y-26800975D01*
X29395238Y-26800975D02*
X29414285Y-26820022D01*
X29414285Y-26820022D02*
X29433333Y-26858118D01*
X29433333Y-26858118D02*
X29433333Y-26915260D01*
X29433333Y-26915260D02*
X29414285Y-26953356D01*
X29414285Y-26953356D02*
X29395238Y-26972403D01*
X29395238Y-26972403D02*
X29357143Y-26991451D01*
X29357143Y-26991451D02*
X29204762Y-26991451D01*
X29623809Y-27181927D02*
X29700000Y-27181927D01*
X29700000Y-27181927D02*
X29738095Y-27162880D01*
X29738095Y-27162880D02*
X29757143Y-27143832D01*
X29757143Y-27143832D02*
X29795238Y-27086689D01*
X29795238Y-27086689D02*
X29814285Y-27010499D01*
X29814285Y-27010499D02*
X29814285Y-26858118D01*
X29814285Y-26858118D02*
X29795238Y-26820022D01*
X29795238Y-26820022D02*
X29776190Y-26800975D01*
X29776190Y-26800975D02*
X29738095Y-26781927D01*
X29738095Y-26781927D02*
X29661904Y-26781927D01*
X29661904Y-26781927D02*
X29623809Y-26800975D01*
X29623809Y-26800975D02*
X29604762Y-26820022D01*
X29604762Y-26820022D02*
X29585714Y-26858118D01*
X29585714Y-26858118D02*
X29585714Y-26953356D01*
X29585714Y-26953356D02*
X29604762Y-26991451D01*
X29604762Y-26991451D02*
X29623809Y-27010499D01*
X29623809Y-27010499D02*
X29661904Y-27029546D01*
X29661904Y-27029546D02*
X29738095Y-27029546D01*
X29738095Y-27029546D02*
X29776190Y-27010499D01*
X29776190Y-27010499D02*
X29795238Y-26991451D01*
X29795238Y-26991451D02*
X29814285Y-26953356D01*
D10*
X30427142Y-12359580D02*
X30379523Y-12407200D01*
X30379523Y-12407200D02*
X30236666Y-12454819D01*
X30236666Y-12454819D02*
X30141428Y-12454819D01*
X30141428Y-12454819D02*
X29998571Y-12407200D01*
X29998571Y-12407200D02*
X29903333Y-12311961D01*
X29903333Y-12311961D02*
X29855714Y-12216723D01*
X29855714Y-12216723D02*
X29808095Y-12026247D01*
X29808095Y-12026247D02*
X29808095Y-11883390D01*
X29808095Y-11883390D02*
X29855714Y-11692914D01*
X29855714Y-11692914D02*
X29903333Y-11597676D01*
X29903333Y-11597676D02*
X29998571Y-11502438D01*
X29998571Y-11502438D02*
X30141428Y-11454819D01*
X30141428Y-11454819D02*
X30236666Y-11454819D01*
X30236666Y-11454819D02*
X30379523Y-11502438D01*
X30379523Y-11502438D02*
X30427142Y-11550057D01*
X31379523Y-12454819D02*
X30808095Y-12454819D01*
X31093809Y-12454819D02*
X31093809Y-11454819D01*
X31093809Y-11454819D02*
X30998571Y-11597676D01*
X30998571Y-11597676D02*
X30903333Y-11692914D01*
X30903333Y-11692914D02*
X30808095Y-11740533D01*
X31760476Y-11550057D02*
X31808095Y-11502438D01*
X31808095Y-11502438D02*
X31903333Y-11454819D01*
X31903333Y-11454819D02*
X32141428Y-11454819D01*
X32141428Y-11454819D02*
X32236666Y-11502438D01*
X32236666Y-11502438D02*
X32284285Y-11550057D01*
X32284285Y-11550057D02*
X32331904Y-11645295D01*
X32331904Y-11645295D02*
X32331904Y-11740533D01*
X32331904Y-11740533D02*
X32284285Y-11883390D01*
X32284285Y-11883390D02*
X31712857Y-12454819D01*
X31712857Y-12454819D02*
X32331904Y-12454819D01*
X32382380Y-12454819D02*
X31810952Y-12454819D01*
X32096666Y-12454819D02*
X32096666Y-11454819D01*
X32096666Y-11454819D02*
X32001428Y-11597676D01*
X32001428Y-11597676D02*
X31906190Y-11692914D01*
X31906190Y-11692914D02*
X31810952Y-11740533D01*
X33001428Y-11454819D02*
X33096666Y-11454819D01*
X33096666Y-11454819D02*
X33191904Y-11502438D01*
X33191904Y-11502438D02*
X33239523Y-11550057D01*
X33239523Y-11550057D02*
X33287142Y-11645295D01*
X33287142Y-11645295D02*
X33334761Y-11835771D01*
X33334761Y-11835771D02*
X33334761Y-12073866D01*
X33334761Y-12073866D02*
X33287142Y-12264342D01*
X33287142Y-12264342D02*
X33239523Y-12359580D01*
X33239523Y-12359580D02*
X33191904Y-12407200D01*
X33191904Y-12407200D02*
X33096666Y-12454819D01*
X33096666Y-12454819D02*
X33001428Y-12454819D01*
X33001428Y-12454819D02*
X32906190Y-12407200D01*
X32906190Y-12407200D02*
X32858571Y-12359580D01*
X32858571Y-12359580D02*
X32810952Y-12264342D01*
X32810952Y-12264342D02*
X32763333Y-12073866D01*
X32763333Y-12073866D02*
X32763333Y-11835771D01*
X32763333Y-11835771D02*
X32810952Y-11645295D01*
X32810952Y-11645295D02*
X32858571Y-11550057D01*
X32858571Y-11550057D02*
X32906190Y-11502438D01*
X32906190Y-11502438D02*
X33001428Y-11454819D01*
X33953809Y-11454819D02*
X34049047Y-11454819D01*
X34049047Y-11454819D02*
X34144285Y-11502438D01*
X34144285Y-11502438D02*
X34191904Y-11550057D01*
X34191904Y-11550057D02*
X34239523Y-11645295D01*
X34239523Y-11645295D02*
X34287142Y-11835771D01*
X34287142Y-11835771D02*
X34287142Y-12073866D01*
X34287142Y-12073866D02*
X34239523Y-12264342D01*
X34239523Y-12264342D02*
X34191904Y-12359580D01*
X34191904Y-12359580D02*
X34144285Y-12407200D01*
X34144285Y-12407200D02*
X34049047Y-12454819D01*
X34049047Y-12454819D02*
X33953809Y-12454819D01*
X33953809Y-12454819D02*
X33858571Y-12407200D01*
X33858571Y-12407200D02*
X33810952Y-12359580D01*
X33810952Y-12359580D02*
X33763333Y-12264342D01*
X33763333Y-12264342D02*
X33715714Y-12073866D01*
X33715714Y-12073866D02*
X33715714Y-11835771D01*
X33715714Y-11835771D02*
X33763333Y-11645295D01*
X33763333Y-11645295D02*
X33810952Y-11550057D01*
X33810952Y-11550057D02*
X33858571Y-11502438D01*
X33858571Y-11502438D02*
X33953809Y-11454819D01*
X34715714Y-11788152D02*
X34715714Y-12454819D01*
X34715714Y-11883390D02*
X34763333Y-11835771D01*
X34763333Y-11835771D02*
X34858571Y-11788152D01*
X34858571Y-11788152D02*
X35001428Y-11788152D01*
X35001428Y-11788152D02*
X35096666Y-11835771D01*
X35096666Y-11835771D02*
X35144285Y-11931009D01*
X35144285Y-11931009D02*
X35144285Y-12454819D01*
X35953809Y-11931009D02*
X35620476Y-11931009D01*
X35620476Y-12454819D02*
X35620476Y-11454819D01*
X35620476Y-11454819D02*
X36096666Y-11454819D01*
D11*
X32242857Y-12143832D02*
X32223809Y-12162880D01*
X32223809Y-12162880D02*
X32166667Y-12181927D01*
X32166667Y-12181927D02*
X32128571Y-12181927D01*
X32128571Y-12181927D02*
X32071428Y-12162880D01*
X32071428Y-12162880D02*
X32033333Y-12124784D01*
X32033333Y-12124784D02*
X32014286Y-12086689D01*
X32014286Y-12086689D02*
X31995238Y-12010499D01*
X31995238Y-12010499D02*
X31995238Y-11953356D01*
X31995238Y-11953356D02*
X32014286Y-11877165D01*
X32014286Y-11877165D02*
X32033333Y-11839070D01*
X32033333Y-11839070D02*
X32071428Y-11800975D01*
X32071428Y-11800975D02*
X32128571Y-11781927D01*
X32128571Y-11781927D02*
X32166667Y-11781927D01*
X32166667Y-11781927D02*
X32223809Y-11800975D01*
X32223809Y-11800975D02*
X32242857Y-11820022D01*
X32623809Y-12181927D02*
X32395238Y-12181927D01*
X32509524Y-12181927D02*
X32509524Y-11781927D01*
X32509524Y-11781927D02*
X32471428Y-11839070D01*
X32471428Y-11839070D02*
X32433333Y-11877165D01*
X32433333Y-11877165D02*
X32395238Y-11896213D01*
X32776190Y-11820022D02*
X32795238Y-11800975D01*
X32795238Y-11800975D02*
X32833333Y-11781927D01*
X32833333Y-11781927D02*
X32928571Y-11781927D01*
X32928571Y-11781927D02*
X32966666Y-11800975D01*
X32966666Y-11800975D02*
X32985714Y-11820022D01*
X32985714Y-11820022D02*
X33004761Y-11858118D01*
X33004761Y-11858118D02*
X33004761Y-11896213D01*
X33004761Y-11896213D02*
X32985714Y-11953356D01*
X32985714Y-11953356D02*
X32757142Y-12181927D01*
X32757142Y-12181927D02*
X33004761Y-12181927D01*
D10*
X52261904Y-44359580D02*
X52214285Y-44407200D01*
X52214285Y-44407200D02*
X52071428Y-44454819D01*
X52071428Y-44454819D02*
X51976190Y-44454819D01*
X51976190Y-44454819D02*
X51833333Y-44407200D01*
X51833333Y-44407200D02*
X51738095Y-44311961D01*
X51738095Y-44311961D02*
X51690476Y-44216723D01*
X51690476Y-44216723D02*
X51642857Y-44026247D01*
X51642857Y-44026247D02*
X51642857Y-43883390D01*
X51642857Y-43883390D02*
X51690476Y-43692914D01*
X51690476Y-43692914D02*
X51738095Y-43597676D01*
X51738095Y-43597676D02*
X51833333Y-43502438D01*
X51833333Y-43502438D02*
X51976190Y-43454819D01*
X51976190Y-43454819D02*
X52071428Y-43454819D01*
X52071428Y-43454819D02*
X52214285Y-43502438D01*
X52214285Y-43502438D02*
X52261904Y-43550057D01*
X52833333Y-44454819D02*
X52738095Y-44407200D01*
X52738095Y-44407200D02*
X52690476Y-44359580D01*
X52690476Y-44359580D02*
X52642857Y-44264342D01*
X52642857Y-44264342D02*
X52642857Y-43978628D01*
X52642857Y-43978628D02*
X52690476Y-43883390D01*
X52690476Y-43883390D02*
X52738095Y-43835771D01*
X52738095Y-43835771D02*
X52833333Y-43788152D01*
X52833333Y-43788152D02*
X52976190Y-43788152D01*
X52976190Y-43788152D02*
X53071428Y-43835771D01*
X53071428Y-43835771D02*
X53119047Y-43883390D01*
X53119047Y-43883390D02*
X53166666Y-43978628D01*
X53166666Y-43978628D02*
X53166666Y-44264342D01*
X53166666Y-44264342D02*
X53119047Y-44359580D01*
X53119047Y-44359580D02*
X53071428Y-44407200D01*
X53071428Y-44407200D02*
X52976190Y-44454819D01*
X52976190Y-44454819D02*
X52833333Y-44454819D01*
X53595238Y-43788152D02*
X53595238Y-44454819D01*
X53595238Y-43883390D02*
X53642857Y-43835771D01*
X53642857Y-43835771D02*
X53738095Y-43788152D01*
X53738095Y-43788152D02*
X53880952Y-43788152D01*
X53880952Y-43788152D02*
X53976190Y-43835771D01*
X53976190Y-43835771D02*
X54023809Y-43931009D01*
X54023809Y-43931009D02*
X54023809Y-44454819D01*
X54500000Y-43788152D02*
X54500000Y-44454819D01*
X54500000Y-43883390D02*
X54547619Y-43835771D01*
X54547619Y-43835771D02*
X54642857Y-43788152D01*
X54642857Y-43788152D02*
X54785714Y-43788152D01*
X54785714Y-43788152D02*
X54880952Y-43835771D01*
X54880952Y-43835771D02*
X54928571Y-43931009D01*
X54928571Y-43931009D02*
X54928571Y-44454819D01*
X55166667Y-44550057D02*
X55928571Y-44550057D01*
X56357143Y-43454819D02*
X56452381Y-43454819D01*
X56452381Y-43454819D02*
X56547619Y-43502438D01*
X56547619Y-43502438D02*
X56595238Y-43550057D01*
X56595238Y-43550057D02*
X56642857Y-43645295D01*
X56642857Y-43645295D02*
X56690476Y-43835771D01*
X56690476Y-43835771D02*
X56690476Y-44073866D01*
X56690476Y-44073866D02*
X56642857Y-44264342D01*
X56642857Y-44264342D02*
X56595238Y-44359580D01*
X56595238Y-44359580D02*
X56547619Y-44407200D01*
X56547619Y-44407200D02*
X56452381Y-44454819D01*
X56452381Y-44454819D02*
X56357143Y-44454819D01*
X56357143Y-44454819D02*
X56261905Y-44407200D01*
X56261905Y-44407200D02*
X56214286Y-44359580D01*
X56214286Y-44359580D02*
X56166667Y-44264342D01*
X56166667Y-44264342D02*
X56119048Y-44073866D01*
X56119048Y-44073866D02*
X56119048Y-43835771D01*
X56119048Y-43835771D02*
X56166667Y-43645295D01*
X56166667Y-43645295D02*
X56214286Y-43550057D01*
X56214286Y-43550057D02*
X56261905Y-43502438D01*
X56261905Y-43502438D02*
X56357143Y-43454819D01*
X57642857Y-44454819D02*
X57071429Y-44454819D01*
X57357143Y-44454819D02*
X57357143Y-43454819D01*
X57357143Y-43454819D02*
X57261905Y-43597676D01*
X57261905Y-43597676D02*
X57166667Y-43692914D01*
X57166667Y-43692914D02*
X57071429Y-43740533D01*
X57976191Y-44454819D02*
X58500000Y-43788152D01*
X57976191Y-43788152D02*
X58500000Y-44454819D01*
X59071429Y-43454819D02*
X59166667Y-43454819D01*
X59166667Y-43454819D02*
X59261905Y-43502438D01*
X59261905Y-43502438D02*
X59309524Y-43550057D01*
X59309524Y-43550057D02*
X59357143Y-43645295D01*
X59357143Y-43645295D02*
X59404762Y-43835771D01*
X59404762Y-43835771D02*
X59404762Y-44073866D01*
X59404762Y-44073866D02*
X59357143Y-44264342D01*
X59357143Y-44264342D02*
X59309524Y-44359580D01*
X59309524Y-44359580D02*
X59261905Y-44407200D01*
X59261905Y-44407200D02*
X59166667Y-44454819D01*
X59166667Y-44454819D02*
X59071429Y-44454819D01*
X59071429Y-44454819D02*
X58976191Y-44407200D01*
X58976191Y-44407200D02*
X58928572Y-44359580D01*
X58928572Y-44359580D02*
X58880953Y-44264342D01*
X58880953Y-44264342D02*
X58833334Y-44073866D01*
X58833334Y-44073866D02*
X58833334Y-43835771D01*
X58833334Y-43835771D02*
X58880953Y-43645295D01*
X58880953Y-43645295D02*
X58928572Y-43550057D01*
X58928572Y-43550057D02*
X58976191Y-43502438D01*
X58976191Y-43502438D02*
X59071429Y-43454819D01*
X60261905Y-43788152D02*
X60261905Y-44454819D01*
X60023810Y-43407200D02*
X59785715Y-44121485D01*
X59785715Y-44121485D02*
X60404762Y-44121485D01*
X55454819Y-38143333D02*
X56169104Y-38143333D01*
X56169104Y-38143333D02*
X56311961Y-38190952D01*
X56311961Y-38190952D02*
X56407200Y-38286190D01*
X56407200Y-38286190D02*
X56454819Y-38429047D01*
X56454819Y-38429047D02*
X56454819Y-38524285D01*
X55454819Y-37762380D02*
X55454819Y-37143333D01*
X55454819Y-37143333D02*
X55835771Y-37476666D01*
X55835771Y-37476666D02*
X55835771Y-37333809D01*
X55835771Y-37333809D02*
X55883390Y-37238571D01*
X55883390Y-37238571D02*
X55931009Y-37190952D01*
X55931009Y-37190952D02*
X56026247Y-37143333D01*
X56026247Y-37143333D02*
X56264342Y-37143333D01*
X56264342Y-37143333D02*
X56359580Y-37190952D01*
X56359580Y-37190952D02*
X56407200Y-37238571D01*
X56407200Y-37238571D02*
X56454819Y-37333809D01*
X56454819Y-37333809D02*
X56454819Y-37619523D01*
X56454819Y-37619523D02*
X56407200Y-37714761D01*
X56407200Y-37714761D02*
X56359580Y-37762380D01*
X32357142Y-24429580D02*
X32309523Y-24477200D01*
X32309523Y-24477200D02*
X32166666Y-24524819D01*
X32166666Y-24524819D02*
X32071428Y-24524819D01*
X32071428Y-24524819D02*
X31928571Y-24477200D01*
X31928571Y-24477200D02*
X31833333Y-24381961D01*
X31833333Y-24381961D02*
X31785714Y-24286723D01*
X31785714Y-24286723D02*
X31738095Y-24096247D01*
X31738095Y-24096247D02*
X31738095Y-23953390D01*
X31738095Y-23953390D02*
X31785714Y-23762914D01*
X31785714Y-23762914D02*
X31833333Y-23667676D01*
X31833333Y-23667676D02*
X31928571Y-23572438D01*
X31928571Y-23572438D02*
X32071428Y-23524819D01*
X32071428Y-23524819D02*
X32166666Y-23524819D01*
X32166666Y-23524819D02*
X32309523Y-23572438D01*
X32309523Y-23572438D02*
X32357142Y-23620057D01*
X33309523Y-24524819D02*
X32738095Y-24524819D01*
X33023809Y-24524819D02*
X33023809Y-23524819D01*
X33023809Y-23524819D02*
X32928571Y-23667676D01*
X32928571Y-23667676D02*
X32833333Y-23762914D01*
X32833333Y-23762914D02*
X32738095Y-23810533D01*
X34166666Y-23858152D02*
X34166666Y-24524819D01*
X33928571Y-23477200D02*
X33690476Y-24191485D01*
X33690476Y-24191485D02*
X34309523Y-24191485D01*
X31928571Y-27384819D02*
X31357143Y-27384819D01*
X31642857Y-27384819D02*
X31642857Y-26384819D01*
X31642857Y-26384819D02*
X31547619Y-26527676D01*
X31547619Y-26527676D02*
X31452381Y-26622914D01*
X31452381Y-26622914D02*
X31357143Y-26670533D01*
X32547619Y-26384819D02*
X32642857Y-26384819D01*
X32642857Y-26384819D02*
X32738095Y-26432438D01*
X32738095Y-26432438D02*
X32785714Y-26480057D01*
X32785714Y-26480057D02*
X32833333Y-26575295D01*
X32833333Y-26575295D02*
X32880952Y-26765771D01*
X32880952Y-26765771D02*
X32880952Y-27003866D01*
X32880952Y-27003866D02*
X32833333Y-27194342D01*
X32833333Y-27194342D02*
X32785714Y-27289580D01*
X32785714Y-27289580D02*
X32738095Y-27337200D01*
X32738095Y-27337200D02*
X32642857Y-27384819D01*
X32642857Y-27384819D02*
X32547619Y-27384819D01*
X32547619Y-27384819D02*
X32452381Y-27337200D01*
X32452381Y-27337200D02*
X32404762Y-27289580D01*
X32404762Y-27289580D02*
X32357143Y-27194342D01*
X32357143Y-27194342D02*
X32309524Y-27003866D01*
X32309524Y-27003866D02*
X32309524Y-26765771D01*
X32309524Y-26765771D02*
X32357143Y-26575295D01*
X32357143Y-26575295D02*
X32404762Y-26480057D01*
X32404762Y-26480057D02*
X32452381Y-26432438D01*
X32452381Y-26432438D02*
X32547619Y-26384819D01*
X33738095Y-26718152D02*
X33738095Y-27384819D01*
X33309524Y-26718152D02*
X33309524Y-27241961D01*
X33309524Y-27241961D02*
X33357143Y-27337200D01*
X33357143Y-27337200D02*
X33452381Y-27384819D01*
X33452381Y-27384819D02*
X33595238Y-27384819D01*
X33595238Y-27384819D02*
X33690476Y-27337200D01*
X33690476Y-27337200D02*
X33738095Y-27289580D01*
X34547619Y-26861009D02*
X34214286Y-26861009D01*
X34214286Y-27384819D02*
X34214286Y-26384819D01*
X34214286Y-26384819D02*
X34690476Y-26384819D01*
D11*
X32742857Y-25643832D02*
X32723809Y-25662880D01*
X32723809Y-25662880D02*
X32666667Y-25681927D01*
X32666667Y-25681927D02*
X32628571Y-25681927D01*
X32628571Y-25681927D02*
X32571428Y-25662880D01*
X32571428Y-25662880D02*
X32533333Y-25624784D01*
X32533333Y-25624784D02*
X32514286Y-25586689D01*
X32514286Y-25586689D02*
X32495238Y-25510499D01*
X32495238Y-25510499D02*
X32495238Y-25453356D01*
X32495238Y-25453356D02*
X32514286Y-25377165D01*
X32514286Y-25377165D02*
X32533333Y-25339070D01*
X32533333Y-25339070D02*
X32571428Y-25300975D01*
X32571428Y-25300975D02*
X32628571Y-25281927D01*
X32628571Y-25281927D02*
X32666667Y-25281927D01*
X32666667Y-25281927D02*
X32723809Y-25300975D01*
X32723809Y-25300975D02*
X32742857Y-25320022D01*
X33123809Y-25681927D02*
X32895238Y-25681927D01*
X33009524Y-25681927D02*
X33009524Y-25281927D01*
X33009524Y-25281927D02*
X32971428Y-25339070D01*
X32971428Y-25339070D02*
X32933333Y-25377165D01*
X32933333Y-25377165D02*
X32895238Y-25396213D01*
X33466666Y-25415260D02*
X33466666Y-25681927D01*
X33371428Y-25262880D02*
X33276190Y-25548594D01*
X33276190Y-25548594D02*
X33523809Y-25548594D01*
D10*
X16403333Y-22954819D02*
X16070000Y-22478628D01*
X15831905Y-22954819D02*
X15831905Y-21954819D01*
X15831905Y-21954819D02*
X16212857Y-21954819D01*
X16212857Y-21954819D02*
X16308095Y-22002438D01*
X16308095Y-22002438D02*
X16355714Y-22050057D01*
X16355714Y-22050057D02*
X16403333Y-22145295D01*
X16403333Y-22145295D02*
X16403333Y-22288152D01*
X16403333Y-22288152D02*
X16355714Y-22383390D01*
X16355714Y-22383390D02*
X16308095Y-22431009D01*
X16308095Y-22431009D02*
X16212857Y-22478628D01*
X16212857Y-22478628D02*
X15831905Y-22478628D01*
X17260476Y-22288152D02*
X17260476Y-22954819D01*
X17022381Y-21907200D02*
X16784286Y-22621485D01*
X16784286Y-22621485D02*
X17403333Y-22621485D01*
X18834761Y-22954819D02*
X18263333Y-22954819D01*
X18549047Y-22954819D02*
X18549047Y-21954819D01*
X18549047Y-21954819D02*
X18453809Y-22097676D01*
X18453809Y-22097676D02*
X18358571Y-22192914D01*
X18358571Y-22192914D02*
X18263333Y-22240533D01*
X19453809Y-21954819D02*
X19549047Y-21954819D01*
X19549047Y-21954819D02*
X19644285Y-22002438D01*
X19644285Y-22002438D02*
X19691904Y-22050057D01*
X19691904Y-22050057D02*
X19739523Y-22145295D01*
X19739523Y-22145295D02*
X19787142Y-22335771D01*
X19787142Y-22335771D02*
X19787142Y-22573866D01*
X19787142Y-22573866D02*
X19739523Y-22764342D01*
X19739523Y-22764342D02*
X19691904Y-22859580D01*
X19691904Y-22859580D02*
X19644285Y-22907200D01*
X19644285Y-22907200D02*
X19549047Y-22954819D01*
X19549047Y-22954819D02*
X19453809Y-22954819D01*
X19453809Y-22954819D02*
X19358571Y-22907200D01*
X19358571Y-22907200D02*
X19310952Y-22859580D01*
X19310952Y-22859580D02*
X19263333Y-22764342D01*
X19263333Y-22764342D02*
X19215714Y-22573866D01*
X19215714Y-22573866D02*
X19215714Y-22335771D01*
X19215714Y-22335771D02*
X19263333Y-22145295D01*
X19263333Y-22145295D02*
X19310952Y-22050057D01*
X19310952Y-22050057D02*
X19358571Y-22002438D01*
X19358571Y-22002438D02*
X19453809Y-21954819D01*
X20215714Y-22954819D02*
X20215714Y-21954819D01*
X20310952Y-22573866D02*
X20596666Y-22954819D01*
X20596666Y-22288152D02*
X20215714Y-22669104D01*
D11*
X17933333Y-22681927D02*
X17800000Y-22491451D01*
X17704762Y-22681927D02*
X17704762Y-22281927D01*
X17704762Y-22281927D02*
X17857143Y-22281927D01*
X17857143Y-22281927D02*
X17895238Y-22300975D01*
X17895238Y-22300975D02*
X17914285Y-22320022D01*
X17914285Y-22320022D02*
X17933333Y-22358118D01*
X17933333Y-22358118D02*
X17933333Y-22415260D01*
X17933333Y-22415260D02*
X17914285Y-22453356D01*
X17914285Y-22453356D02*
X17895238Y-22472403D01*
X17895238Y-22472403D02*
X17857143Y-22491451D01*
X17857143Y-22491451D02*
X17704762Y-22491451D01*
X18276190Y-22415260D02*
X18276190Y-22681927D01*
X18180952Y-22262880D02*
X18085714Y-22548594D01*
X18085714Y-22548594D02*
X18333333Y-22548594D01*
D10*
X47261905Y-524819D02*
X47261905Y475180D01*
X47261905Y475180D02*
X47500000Y475180D01*
X47500000Y475180D02*
X47642857Y427561D01*
X47642857Y427561D02*
X47738095Y332323D01*
X47738095Y332323D02*
X47785714Y237085D01*
X47785714Y237085D02*
X47833333Y46609D01*
X47833333Y46609D02*
X47833333Y-96247D01*
X47833333Y-96247D02*
X47785714Y-286723D01*
X47785714Y-286723D02*
X47738095Y-381961D01*
X47738095Y-381961D02*
X47642857Y-477200D01*
X47642857Y-477200D02*
X47500000Y-524819D01*
X47500000Y-524819D02*
X47261905Y-524819D01*
X48214286Y379942D02*
X48261905Y427561D01*
X48261905Y427561D02*
X48357143Y475180D01*
X48357143Y475180D02*
X48595238Y475180D01*
X48595238Y475180D02*
X48690476Y427561D01*
X48690476Y427561D02*
X48738095Y379942D01*
X48738095Y379942D02*
X48785714Y284704D01*
X48785714Y284704D02*
X48785714Y189466D01*
X48785714Y189466D02*
X48738095Y46609D01*
X48738095Y46609D02*
X48166667Y-524819D01*
X48166667Y-524819D02*
X48785714Y-524819D01*
X47357142Y-3384819D02*
X46880952Y-3384819D01*
X46880952Y-3384819D02*
X46880952Y-2384819D01*
X47690476Y-2861009D02*
X48023809Y-2861009D01*
X48166666Y-3384819D02*
X47690476Y-3384819D01*
X47690476Y-3384819D02*
X47690476Y-2384819D01*
X47690476Y-2384819D02*
X48166666Y-2384819D01*
X48595238Y-3384819D02*
X48595238Y-2384819D01*
X48595238Y-2384819D02*
X48833333Y-2384819D01*
X48833333Y-2384819D02*
X48976190Y-2432438D01*
X48976190Y-2432438D02*
X49071428Y-2527676D01*
X49071428Y-2527676D02*
X49119047Y-2622914D01*
X49119047Y-2622914D02*
X49166666Y-2813390D01*
X49166666Y-2813390D02*
X49166666Y-2956247D01*
X49166666Y-2956247D02*
X49119047Y-3146723D01*
X49119047Y-3146723D02*
X49071428Y-3241961D01*
X49071428Y-3241961D02*
X48976190Y-3337200D01*
X48976190Y-3337200D02*
X48833333Y-3384819D01*
X48833333Y-3384819D02*
X48595238Y-3384819D01*
D11*
X47704762Y-1681927D02*
X47704762Y-1281927D01*
X47704762Y-1281927D02*
X47800000Y-1281927D01*
X47800000Y-1281927D02*
X47857143Y-1300975D01*
X47857143Y-1300975D02*
X47895238Y-1339070D01*
X47895238Y-1339070D02*
X47914285Y-1377165D01*
X47914285Y-1377165D02*
X47933333Y-1453356D01*
X47933333Y-1453356D02*
X47933333Y-1510499D01*
X47933333Y-1510499D02*
X47914285Y-1586689D01*
X47914285Y-1586689D02*
X47895238Y-1624784D01*
X47895238Y-1624784D02*
X47857143Y-1662880D01*
X47857143Y-1662880D02*
X47800000Y-1681927D01*
X47800000Y-1681927D02*
X47704762Y-1681927D01*
X48085714Y-1320022D02*
X48104762Y-1300975D01*
X48104762Y-1300975D02*
X48142857Y-1281927D01*
X48142857Y-1281927D02*
X48238095Y-1281927D01*
X48238095Y-1281927D02*
X48276190Y-1300975D01*
X48276190Y-1300975D02*
X48295238Y-1320022D01*
X48295238Y-1320022D02*
X48314285Y-1358118D01*
X48314285Y-1358118D02*
X48314285Y-1396213D01*
X48314285Y-1396213D02*
X48295238Y-1453356D01*
X48295238Y-1453356D02*
X48066666Y-1681927D01*
X48066666Y-1681927D02*
X48314285Y-1681927D01*
D10*
X31238095Y193180D02*
X31809523Y193180D01*
X31523809Y-806819D02*
X31523809Y193180D01*
X32142857Y-806819D02*
X32142857Y193180D01*
X32142857Y193180D02*
X32523809Y193180D01*
X32523809Y193180D02*
X32619047Y145561D01*
X32619047Y145561D02*
X32666666Y97942D01*
X32666666Y97942D02*
X32714285Y2704D01*
X32714285Y2704D02*
X32714285Y-140152D01*
X32714285Y-140152D02*
X32666666Y-235390D01*
X32666666Y-235390D02*
X32619047Y-283009D01*
X32619047Y-283009D02*
X32523809Y-330628D01*
X32523809Y-330628D02*
X32142857Y-330628D01*
X33095238Y97942D02*
X33142857Y145561D01*
X33142857Y145561D02*
X33238095Y193180D01*
X33238095Y193180D02*
X33476190Y193180D01*
X33476190Y193180D02*
X33571428Y145561D01*
X33571428Y145561D02*
X33619047Y97942D01*
X33619047Y97942D02*
X33666666Y2704D01*
X33666666Y2704D02*
X33666666Y-92533D01*
X33666666Y-92533D02*
X33619047Y-235390D01*
X33619047Y-235390D02*
X33047619Y-806819D01*
X33047619Y-806819D02*
X33666666Y-806819D01*
X29166666Y-4204819D02*
X29738094Y-4204819D01*
X29452380Y-5204819D02*
X29452380Y-4204819D01*
X30452380Y-5157200D02*
X30357142Y-5204819D01*
X30357142Y-5204819D02*
X30166666Y-5204819D01*
X30166666Y-5204819D02*
X30071428Y-5157200D01*
X30071428Y-5157200D02*
X30023809Y-5061961D01*
X30023809Y-5061961D02*
X30023809Y-4681009D01*
X30023809Y-4681009D02*
X30071428Y-4585771D01*
X30071428Y-4585771D02*
X30166666Y-4538152D01*
X30166666Y-4538152D02*
X30357142Y-4538152D01*
X30357142Y-4538152D02*
X30452380Y-4585771D01*
X30452380Y-4585771D02*
X30499999Y-4681009D01*
X30499999Y-4681009D02*
X30499999Y-4776247D01*
X30499999Y-4776247D02*
X30023809Y-4871485D01*
X30880952Y-5157200D02*
X30976190Y-5204819D01*
X30976190Y-5204819D02*
X31166666Y-5204819D01*
X31166666Y-5204819D02*
X31261904Y-5157200D01*
X31261904Y-5157200D02*
X31309523Y-5061961D01*
X31309523Y-5061961D02*
X31309523Y-5014342D01*
X31309523Y-5014342D02*
X31261904Y-4919104D01*
X31261904Y-4919104D02*
X31166666Y-4871485D01*
X31166666Y-4871485D02*
X31023809Y-4871485D01*
X31023809Y-4871485D02*
X30928571Y-4823866D01*
X30928571Y-4823866D02*
X30880952Y-4728628D01*
X30880952Y-4728628D02*
X30880952Y-4681009D01*
X30880952Y-4681009D02*
X30928571Y-4585771D01*
X30928571Y-4585771D02*
X31023809Y-4538152D01*
X31023809Y-4538152D02*
X31166666Y-4538152D01*
X31166666Y-4538152D02*
X31261904Y-4585771D01*
X31595238Y-4538152D02*
X31976190Y-4538152D01*
X31738095Y-4204819D02*
X31738095Y-5061961D01*
X31738095Y-5061961D02*
X31785714Y-5157200D01*
X31785714Y-5157200D02*
X31880952Y-5204819D01*
X31880952Y-5204819D02*
X31976190Y-5204819D01*
X32309524Y-5204819D02*
X32309524Y-4204819D01*
X32309524Y-4204819D02*
X32690476Y-4204819D01*
X32690476Y-4204819D02*
X32785714Y-4252438D01*
X32785714Y-4252438D02*
X32833333Y-4300057D01*
X32833333Y-4300057D02*
X32880952Y-4395295D01*
X32880952Y-4395295D02*
X32880952Y-4538152D01*
X32880952Y-4538152D02*
X32833333Y-4633390D01*
X32833333Y-4633390D02*
X32785714Y-4681009D01*
X32785714Y-4681009D02*
X32690476Y-4728628D01*
X32690476Y-4728628D02*
X32309524Y-4728628D01*
X33452381Y-5204819D02*
X33357143Y-5157200D01*
X33357143Y-5157200D02*
X33309524Y-5109580D01*
X33309524Y-5109580D02*
X33261905Y-5014342D01*
X33261905Y-5014342D02*
X33261905Y-4728628D01*
X33261905Y-4728628D02*
X33309524Y-4633390D01*
X33309524Y-4633390D02*
X33357143Y-4585771D01*
X33357143Y-4585771D02*
X33452381Y-4538152D01*
X33452381Y-4538152D02*
X33595238Y-4538152D01*
X33595238Y-4538152D02*
X33690476Y-4585771D01*
X33690476Y-4585771D02*
X33738095Y-4633390D01*
X33738095Y-4633390D02*
X33785714Y-4728628D01*
X33785714Y-4728628D02*
X33785714Y-5014342D01*
X33785714Y-5014342D02*
X33738095Y-5109580D01*
X33738095Y-5109580D02*
X33690476Y-5157200D01*
X33690476Y-5157200D02*
X33595238Y-5204819D01*
X33595238Y-5204819D02*
X33452381Y-5204819D01*
X34214286Y-5204819D02*
X34214286Y-4538152D01*
X34214286Y-4204819D02*
X34166667Y-4252438D01*
X34166667Y-4252438D02*
X34214286Y-4300057D01*
X34214286Y-4300057D02*
X34261905Y-4252438D01*
X34261905Y-4252438D02*
X34214286Y-4204819D01*
X34214286Y-4204819D02*
X34214286Y-4300057D01*
X34690476Y-4538152D02*
X34690476Y-5204819D01*
X34690476Y-4633390D02*
X34738095Y-4585771D01*
X34738095Y-4585771D02*
X34833333Y-4538152D01*
X34833333Y-4538152D02*
X34976190Y-4538152D01*
X34976190Y-4538152D02*
X35071428Y-4585771D01*
X35071428Y-4585771D02*
X35119047Y-4681009D01*
X35119047Y-4681009D02*
X35119047Y-5204819D01*
X35452381Y-4538152D02*
X35833333Y-4538152D01*
X35595238Y-4204819D02*
X35595238Y-5061961D01*
X35595238Y-5061961D02*
X35642857Y-5157200D01*
X35642857Y-5157200D02*
X35738095Y-5204819D01*
X35738095Y-5204819D02*
X35833333Y-5204819D01*
X31238095Y195180D02*
X31809523Y195180D01*
X31523809Y-804819D02*
X31523809Y195180D01*
X32142857Y-804819D02*
X32142857Y195180D01*
X32142857Y195180D02*
X32523809Y195180D01*
X32523809Y195180D02*
X32619047Y147561D01*
X32619047Y147561D02*
X32666666Y99942D01*
X32666666Y99942D02*
X32714285Y4704D01*
X32714285Y4704D02*
X32714285Y-138152D01*
X32714285Y-138152D02*
X32666666Y-233390D01*
X32666666Y-233390D02*
X32619047Y-281009D01*
X32619047Y-281009D02*
X32523809Y-328628D01*
X32523809Y-328628D02*
X32142857Y-328628D01*
X33095238Y99942D02*
X33142857Y147561D01*
X33142857Y147561D02*
X33238095Y195180D01*
X33238095Y195180D02*
X33476190Y195180D01*
X33476190Y195180D02*
X33571428Y147561D01*
X33571428Y147561D02*
X33619047Y99942D01*
X33619047Y99942D02*
X33666666Y4704D01*
X33666666Y4704D02*
X33666666Y-90533D01*
X33666666Y-90533D02*
X33619047Y-233390D01*
X33619047Y-233390D02*
X33047619Y-804819D01*
X33047619Y-804819D02*
X33666666Y-804819D01*
X34928571Y-33384819D02*
X34357143Y-33384819D01*
X34642857Y-33384819D02*
X34642857Y-32384819D01*
X34642857Y-32384819D02*
X34547619Y-32527676D01*
X34547619Y-32527676D02*
X34452381Y-32622914D01*
X34452381Y-32622914D02*
X34357143Y-32670533D01*
X35547619Y-32384819D02*
X35642857Y-32384819D01*
X35642857Y-32384819D02*
X35738095Y-32432438D01*
X35738095Y-32432438D02*
X35785714Y-32480057D01*
X35785714Y-32480057D02*
X35833333Y-32575295D01*
X35833333Y-32575295D02*
X35880952Y-32765771D01*
X35880952Y-32765771D02*
X35880952Y-33003866D01*
X35880952Y-33003866D02*
X35833333Y-33194342D01*
X35833333Y-33194342D02*
X35785714Y-33289580D01*
X35785714Y-33289580D02*
X35738095Y-33337200D01*
X35738095Y-33337200D02*
X35642857Y-33384819D01*
X35642857Y-33384819D02*
X35547619Y-33384819D01*
X35547619Y-33384819D02*
X35452381Y-33337200D01*
X35452381Y-33337200D02*
X35404762Y-33289580D01*
X35404762Y-33289580D02*
X35357143Y-33194342D01*
X35357143Y-33194342D02*
X35309524Y-33003866D01*
X35309524Y-33003866D02*
X35309524Y-32765771D01*
X35309524Y-32765771D02*
X35357143Y-32575295D01*
X35357143Y-32575295D02*
X35404762Y-32480057D01*
X35404762Y-32480057D02*
X35452381Y-32432438D01*
X35452381Y-32432438D02*
X35547619Y-32384819D01*
X36738095Y-32718152D02*
X36738095Y-33384819D01*
X36309524Y-32718152D02*
X36309524Y-33241961D01*
X36309524Y-33241961D02*
X36357143Y-33337200D01*
X36357143Y-33337200D02*
X36452381Y-33384819D01*
X36452381Y-33384819D02*
X36595238Y-33384819D01*
X36595238Y-33384819D02*
X36690476Y-33337200D01*
X36690476Y-33337200D02*
X36738095Y-33289580D01*
X37547619Y-32861009D02*
X37214286Y-32861009D01*
X37214286Y-33384819D02*
X37214286Y-32384819D01*
X37214286Y-32384819D02*
X37690476Y-32384819D01*
D11*
X35933333Y-31643832D02*
X35914285Y-31662880D01*
X35914285Y-31662880D02*
X35857143Y-31681927D01*
X35857143Y-31681927D02*
X35819047Y-31681927D01*
X35819047Y-31681927D02*
X35761904Y-31662880D01*
X35761904Y-31662880D02*
X35723809Y-31624784D01*
X35723809Y-31624784D02*
X35704762Y-31586689D01*
X35704762Y-31586689D02*
X35685714Y-31510499D01*
X35685714Y-31510499D02*
X35685714Y-31453356D01*
X35685714Y-31453356D02*
X35704762Y-31377165D01*
X35704762Y-31377165D02*
X35723809Y-31339070D01*
X35723809Y-31339070D02*
X35761904Y-31300975D01*
X35761904Y-31300975D02*
X35819047Y-31281927D01*
X35819047Y-31281927D02*
X35857143Y-31281927D01*
X35857143Y-31281927D02*
X35914285Y-31300975D01*
X35914285Y-31300975D02*
X35933333Y-31320022D01*
X36276190Y-31415260D02*
X36276190Y-31681927D01*
X36180952Y-31262880D02*
X36085714Y-31548594D01*
X36085714Y-31548594D02*
X36333333Y-31548594D01*
D10*
X28571428Y-12218152D02*
X28571428Y-12884819D01*
X28333333Y-11837200D02*
X28095238Y-12551485D01*
X28095238Y-12551485D02*
X28714285Y-12551485D01*
X29095238Y-12789580D02*
X29142857Y-12837200D01*
X29142857Y-12837200D02*
X29095238Y-12884819D01*
X29095238Y-12884819D02*
X29047619Y-12837200D01*
X29047619Y-12837200D02*
X29095238Y-12789580D01*
X29095238Y-12789580D02*
X29095238Y-12884819D01*
X29476190Y-11884819D02*
X30142856Y-11884819D01*
X30142856Y-11884819D02*
X29714285Y-12884819D01*
X30523809Y-12884819D02*
X30523809Y-11884819D01*
X30619047Y-12503866D02*
X30904761Y-12884819D01*
X30904761Y-12218152D02*
X30523809Y-12599104D01*
D11*
X29433333Y-11181927D02*
X29300000Y-10991451D01*
X29204762Y-11181927D02*
X29204762Y-10781927D01*
X29204762Y-10781927D02*
X29357143Y-10781927D01*
X29357143Y-10781927D02*
X29395238Y-10800975D01*
X29395238Y-10800975D02*
X29414285Y-10820022D01*
X29414285Y-10820022D02*
X29433333Y-10858118D01*
X29433333Y-10858118D02*
X29433333Y-10915260D01*
X29433333Y-10915260D02*
X29414285Y-10953356D01*
X29414285Y-10953356D02*
X29395238Y-10972403D01*
X29395238Y-10972403D02*
X29357143Y-10991451D01*
X29357143Y-10991451D02*
X29204762Y-10991451D01*
X29814285Y-11181927D02*
X29585714Y-11181927D01*
X29700000Y-11181927D02*
X29700000Y-10781927D01*
X29700000Y-10781927D02*
X29661904Y-10839070D01*
X29661904Y-10839070D02*
X29623809Y-10877165D01*
X29623809Y-10877165D02*
X29585714Y-10896213D01*
D10*
X6903333Y-33359580D02*
X6855714Y-33407200D01*
X6855714Y-33407200D02*
X6712857Y-33454819D01*
X6712857Y-33454819D02*
X6617619Y-33454819D01*
X6617619Y-33454819D02*
X6474762Y-33407200D01*
X6474762Y-33407200D02*
X6379524Y-33311961D01*
X6379524Y-33311961D02*
X6331905Y-33216723D01*
X6331905Y-33216723D02*
X6284286Y-33026247D01*
X6284286Y-33026247D02*
X6284286Y-32883390D01*
X6284286Y-32883390D02*
X6331905Y-32692914D01*
X6331905Y-32692914D02*
X6379524Y-32597676D01*
X6379524Y-32597676D02*
X6474762Y-32502438D01*
X6474762Y-32502438D02*
X6617619Y-32454819D01*
X6617619Y-32454819D02*
X6712857Y-32454819D01*
X6712857Y-32454819D02*
X6855714Y-32502438D01*
X6855714Y-32502438D02*
X6903333Y-32550057D01*
X7808095Y-32454819D02*
X7331905Y-32454819D01*
X7331905Y-32454819D02*
X7284286Y-32931009D01*
X7284286Y-32931009D02*
X7331905Y-32883390D01*
X7331905Y-32883390D02*
X7427143Y-32835771D01*
X7427143Y-32835771D02*
X7665238Y-32835771D01*
X7665238Y-32835771D02*
X7760476Y-32883390D01*
X7760476Y-32883390D02*
X7808095Y-32931009D01*
X7808095Y-32931009D02*
X7855714Y-33026247D01*
X7855714Y-33026247D02*
X7855714Y-33264342D01*
X7855714Y-33264342D02*
X7808095Y-33359580D01*
X7808095Y-33359580D02*
X7760476Y-33407200D01*
X7760476Y-33407200D02*
X7665238Y-33454819D01*
X7665238Y-33454819D02*
X7427143Y-33454819D01*
X7427143Y-33454819D02*
X7331905Y-33407200D01*
X7331905Y-33407200D02*
X7284286Y-33359580D01*
X8858571Y-33454819D02*
X8287143Y-33454819D01*
X8572857Y-33454819D02*
X8572857Y-32454819D01*
X8572857Y-32454819D02*
X8477619Y-32597676D01*
X8477619Y-32597676D02*
X8382381Y-32692914D01*
X8382381Y-32692914D02*
X8287143Y-32740533D01*
X9477619Y-32454819D02*
X9572857Y-32454819D01*
X9572857Y-32454819D02*
X9668095Y-32502438D01*
X9668095Y-32502438D02*
X9715714Y-32550057D01*
X9715714Y-32550057D02*
X9763333Y-32645295D01*
X9763333Y-32645295D02*
X9810952Y-32835771D01*
X9810952Y-32835771D02*
X9810952Y-33073866D01*
X9810952Y-33073866D02*
X9763333Y-33264342D01*
X9763333Y-33264342D02*
X9715714Y-33359580D01*
X9715714Y-33359580D02*
X9668095Y-33407200D01*
X9668095Y-33407200D02*
X9572857Y-33454819D01*
X9572857Y-33454819D02*
X9477619Y-33454819D01*
X9477619Y-33454819D02*
X9382381Y-33407200D01*
X9382381Y-33407200D02*
X9334762Y-33359580D01*
X9334762Y-33359580D02*
X9287143Y-33264342D01*
X9287143Y-33264342D02*
X9239524Y-33073866D01*
X9239524Y-33073866D02*
X9239524Y-32835771D01*
X9239524Y-32835771D02*
X9287143Y-32645295D01*
X9287143Y-32645295D02*
X9334762Y-32550057D01*
X9334762Y-32550057D02*
X9382381Y-32502438D01*
X9382381Y-32502438D02*
X9477619Y-32454819D01*
X10239524Y-32788152D02*
X10239524Y-33454819D01*
X10239524Y-32883390D02*
X10287143Y-32835771D01*
X10287143Y-32835771D02*
X10382381Y-32788152D01*
X10382381Y-32788152D02*
X10525238Y-32788152D01*
X10525238Y-32788152D02*
X10620476Y-32835771D01*
X10620476Y-32835771D02*
X10668095Y-32931009D01*
X10668095Y-32931009D02*
X10668095Y-33454819D01*
X11477619Y-32931009D02*
X11144286Y-32931009D01*
X11144286Y-33454819D02*
X11144286Y-32454819D01*
X11144286Y-32454819D02*
X11620476Y-32454819D01*
D11*
X8433333Y-33143832D02*
X8414285Y-33162880D01*
X8414285Y-33162880D02*
X8357143Y-33181927D01*
X8357143Y-33181927D02*
X8319047Y-33181927D01*
X8319047Y-33181927D02*
X8261904Y-33162880D01*
X8261904Y-33162880D02*
X8223809Y-33124784D01*
X8223809Y-33124784D02*
X8204762Y-33086689D01*
X8204762Y-33086689D02*
X8185714Y-33010499D01*
X8185714Y-33010499D02*
X8185714Y-32953356D01*
X8185714Y-32953356D02*
X8204762Y-32877165D01*
X8204762Y-32877165D02*
X8223809Y-32839070D01*
X8223809Y-32839070D02*
X8261904Y-32800975D01*
X8261904Y-32800975D02*
X8319047Y-32781927D01*
X8319047Y-32781927D02*
X8357143Y-32781927D01*
X8357143Y-32781927D02*
X8414285Y-32800975D01*
X8414285Y-32800975D02*
X8433333Y-32820022D01*
X8795238Y-32781927D02*
X8604762Y-32781927D01*
X8604762Y-32781927D02*
X8585714Y-32972403D01*
X8585714Y-32972403D02*
X8604762Y-32953356D01*
X8604762Y-32953356D02*
X8642857Y-32934308D01*
X8642857Y-32934308D02*
X8738095Y-32934308D01*
X8738095Y-32934308D02*
X8776190Y-32953356D01*
X8776190Y-32953356D02*
X8795238Y-32972403D01*
X8795238Y-32972403D02*
X8814285Y-33010499D01*
X8814285Y-33010499D02*
X8814285Y-33105737D01*
X8814285Y-33105737D02*
X8795238Y-33143832D01*
X8795238Y-33143832D02*
X8776190Y-33162880D01*
X8776190Y-33162880D02*
X8738095Y-33181927D01*
X8738095Y-33181927D02*
X8642857Y-33181927D01*
X8642857Y-33181927D02*
X8604762Y-33162880D01*
X8604762Y-33162880D02*
X8585714Y-33143832D01*
D10*
X32403333Y-19359580D02*
X32355714Y-19407200D01*
X32355714Y-19407200D02*
X32212857Y-19454819D01*
X32212857Y-19454819D02*
X32117619Y-19454819D01*
X32117619Y-19454819D02*
X31974762Y-19407200D01*
X31974762Y-19407200D02*
X31879524Y-19311961D01*
X31879524Y-19311961D02*
X31831905Y-19216723D01*
X31831905Y-19216723D02*
X31784286Y-19026247D01*
X31784286Y-19026247D02*
X31784286Y-18883390D01*
X31784286Y-18883390D02*
X31831905Y-18692914D01*
X31831905Y-18692914D02*
X31879524Y-18597676D01*
X31879524Y-18597676D02*
X31974762Y-18502438D01*
X31974762Y-18502438D02*
X32117619Y-18454819D01*
X32117619Y-18454819D02*
X32212857Y-18454819D01*
X32212857Y-18454819D02*
X32355714Y-18502438D01*
X32355714Y-18502438D02*
X32403333Y-18550057D01*
X32974762Y-18883390D02*
X32879524Y-18835771D01*
X32879524Y-18835771D02*
X32831905Y-18788152D01*
X32831905Y-18788152D02*
X32784286Y-18692914D01*
X32784286Y-18692914D02*
X32784286Y-18645295D01*
X32784286Y-18645295D02*
X32831905Y-18550057D01*
X32831905Y-18550057D02*
X32879524Y-18502438D01*
X32879524Y-18502438D02*
X32974762Y-18454819D01*
X32974762Y-18454819D02*
X33165238Y-18454819D01*
X33165238Y-18454819D02*
X33260476Y-18502438D01*
X33260476Y-18502438D02*
X33308095Y-18550057D01*
X33308095Y-18550057D02*
X33355714Y-18645295D01*
X33355714Y-18645295D02*
X33355714Y-18692914D01*
X33355714Y-18692914D02*
X33308095Y-18788152D01*
X33308095Y-18788152D02*
X33260476Y-18835771D01*
X33260476Y-18835771D02*
X33165238Y-18883390D01*
X33165238Y-18883390D02*
X32974762Y-18883390D01*
X32974762Y-18883390D02*
X32879524Y-18931009D01*
X32879524Y-18931009D02*
X32831905Y-18978628D01*
X32831905Y-18978628D02*
X32784286Y-19073866D01*
X32784286Y-19073866D02*
X32784286Y-19264342D01*
X32784286Y-19264342D02*
X32831905Y-19359580D01*
X32831905Y-19359580D02*
X32879524Y-19407200D01*
X32879524Y-19407200D02*
X32974762Y-19454819D01*
X32974762Y-19454819D02*
X33165238Y-19454819D01*
X33165238Y-19454819D02*
X33260476Y-19407200D01*
X33260476Y-19407200D02*
X33308095Y-19359580D01*
X33308095Y-19359580D02*
X33355714Y-19264342D01*
X33355714Y-19264342D02*
X33355714Y-19073866D01*
X33355714Y-19073866D02*
X33308095Y-18978628D01*
X33308095Y-18978628D02*
X33260476Y-18931009D01*
X33260476Y-18931009D02*
X33165238Y-18883390D01*
X34834761Y-19454819D02*
X34263333Y-19454819D01*
X34549047Y-19454819D02*
X34549047Y-18454819D01*
X34549047Y-18454819D02*
X34453809Y-18597676D01*
X34453809Y-18597676D02*
X34358571Y-18692914D01*
X34358571Y-18692914D02*
X34263333Y-18740533D01*
X35691904Y-18788152D02*
X35691904Y-19454819D01*
X35263333Y-18788152D02*
X35263333Y-19311961D01*
X35263333Y-19311961D02*
X35310952Y-19407200D01*
X35310952Y-19407200D02*
X35406190Y-19454819D01*
X35406190Y-19454819D02*
X35549047Y-19454819D01*
X35549047Y-19454819D02*
X35644285Y-19407200D01*
X35644285Y-19407200D02*
X35691904Y-19359580D01*
X36501428Y-18931009D02*
X36168095Y-18931009D01*
X36168095Y-19454819D02*
X36168095Y-18454819D01*
X36168095Y-18454819D02*
X36644285Y-18454819D01*
D11*
X33933333Y-19143832D02*
X33914285Y-19162880D01*
X33914285Y-19162880D02*
X33857143Y-19181927D01*
X33857143Y-19181927D02*
X33819047Y-19181927D01*
X33819047Y-19181927D02*
X33761904Y-19162880D01*
X33761904Y-19162880D02*
X33723809Y-19124784D01*
X33723809Y-19124784D02*
X33704762Y-19086689D01*
X33704762Y-19086689D02*
X33685714Y-19010499D01*
X33685714Y-19010499D02*
X33685714Y-18953356D01*
X33685714Y-18953356D02*
X33704762Y-18877165D01*
X33704762Y-18877165D02*
X33723809Y-18839070D01*
X33723809Y-18839070D02*
X33761904Y-18800975D01*
X33761904Y-18800975D02*
X33819047Y-18781927D01*
X33819047Y-18781927D02*
X33857143Y-18781927D01*
X33857143Y-18781927D02*
X33914285Y-18800975D01*
X33914285Y-18800975D02*
X33933333Y-18820022D01*
X34161904Y-18953356D02*
X34123809Y-18934308D01*
X34123809Y-18934308D02*
X34104762Y-18915260D01*
X34104762Y-18915260D02*
X34085714Y-18877165D01*
X34085714Y-18877165D02*
X34085714Y-18858118D01*
X34085714Y-18858118D02*
X34104762Y-18820022D01*
X34104762Y-18820022D02*
X34123809Y-18800975D01*
X34123809Y-18800975D02*
X34161904Y-18781927D01*
X34161904Y-18781927D02*
X34238095Y-18781927D01*
X34238095Y-18781927D02*
X34276190Y-18800975D01*
X34276190Y-18800975D02*
X34295238Y-18820022D01*
X34295238Y-18820022D02*
X34314285Y-18858118D01*
X34314285Y-18858118D02*
X34314285Y-18877165D01*
X34314285Y-18877165D02*
X34295238Y-18915260D01*
X34295238Y-18915260D02*
X34276190Y-18934308D01*
X34276190Y-18934308D02*
X34238095Y-18953356D01*
X34238095Y-18953356D02*
X34161904Y-18953356D01*
X34161904Y-18953356D02*
X34123809Y-18972403D01*
X34123809Y-18972403D02*
X34104762Y-18991451D01*
X34104762Y-18991451D02*
X34085714Y-19029546D01*
X34085714Y-19029546D02*
X34085714Y-19105737D01*
X34085714Y-19105737D02*
X34104762Y-19143832D01*
X34104762Y-19143832D02*
X34123809Y-19162880D01*
X34123809Y-19162880D02*
X34161904Y-19181927D01*
X34161904Y-19181927D02*
X34238095Y-19181927D01*
X34238095Y-19181927D02*
X34276190Y-19162880D01*
X34276190Y-19162880D02*
X34295238Y-19143832D01*
X34295238Y-19143832D02*
X34314285Y-19105737D01*
X34314285Y-19105737D02*
X34314285Y-19029546D01*
X34314285Y-19029546D02*
X34295238Y-18991451D01*
X34295238Y-18991451D02*
X34276190Y-18972403D01*
X34276190Y-18972403D02*
X34238095Y-18953356D01*
D10*
X66238095Y-304819D02*
X66238095Y695180D01*
X66238095Y218990D02*
X66809523Y218990D01*
X66809523Y-304819D02*
X66809523Y695180D01*
X67238095Y599942D02*
X67285714Y647561D01*
X67285714Y647561D02*
X67380952Y695180D01*
X67380952Y695180D02*
X67619047Y695180D01*
X67619047Y695180D02*
X67714285Y647561D01*
X67714285Y647561D02*
X67761904Y599942D01*
X67761904Y599942D02*
X67809523Y504704D01*
X67809523Y504704D02*
X67809523Y409466D01*
X67809523Y409466D02*
X67761904Y266609D01*
X67761904Y266609D02*
X67190476Y-304819D01*
X67190476Y-304819D02*
X67809523Y-304819D01*
X66190476Y-6604819D02*
X66190476Y-5604819D01*
X66190476Y-5604819D02*
X66523809Y-6319104D01*
X66523809Y-6319104D02*
X66857142Y-5604819D01*
X66857142Y-5604819D02*
X66857142Y-6604819D01*
X67285714Y-5700057D02*
X67333333Y-5652438D01*
X67333333Y-5652438D02*
X67428571Y-5604819D01*
X67428571Y-5604819D02*
X67666666Y-5604819D01*
X67666666Y-5604819D02*
X67761904Y-5652438D01*
X67761904Y-5652438D02*
X67809523Y-5700057D01*
X67809523Y-5700057D02*
X67857142Y-5795295D01*
X67857142Y-5795295D02*
X67857142Y-5890533D01*
X67857142Y-5890533D02*
X67809523Y-6033390D01*
X67809523Y-6033390D02*
X67238095Y-6604819D01*
X67238095Y-6604819D02*
X67857142Y-6604819D01*
X66238095Y-3454819D02*
X66238095Y-2454819D01*
X66238095Y-2931009D02*
X66809523Y-2931009D01*
X66809523Y-3454819D02*
X66809523Y-2454819D01*
X67238095Y-2550057D02*
X67285714Y-2502438D01*
X67285714Y-2502438D02*
X67380952Y-2454819D01*
X67380952Y-2454819D02*
X67619047Y-2454819D01*
X67619047Y-2454819D02*
X67714285Y-2502438D01*
X67714285Y-2502438D02*
X67761904Y-2550057D01*
X67761904Y-2550057D02*
X67809523Y-2645295D01*
X67809523Y-2645295D02*
X67809523Y-2740533D01*
X67809523Y-2740533D02*
X67761904Y-2883390D01*
X67761904Y-2883390D02*
X67190476Y-3454819D01*
X67190476Y-3454819D02*
X67809523Y-3454819D01*
X51333333Y-524819D02*
X51000000Y-48628D01*
X50761905Y-524819D02*
X50761905Y475180D01*
X50761905Y475180D02*
X51142857Y475180D01*
X51142857Y475180D02*
X51238095Y427561D01*
X51238095Y427561D02*
X51285714Y379942D01*
X51285714Y379942D02*
X51333333Y284704D01*
X51333333Y284704D02*
X51333333Y141847D01*
X51333333Y141847D02*
X51285714Y46609D01*
X51285714Y46609D02*
X51238095Y-1009D01*
X51238095Y-1009D02*
X51142857Y-48628D01*
X51142857Y-48628D02*
X50761905Y-48628D01*
X52238095Y475180D02*
X51761905Y475180D01*
X51761905Y475180D02*
X51714286Y-1009D01*
X51714286Y-1009D02*
X51761905Y46609D01*
X51761905Y46609D02*
X51857143Y94228D01*
X51857143Y94228D02*
X52095238Y94228D01*
X52095238Y94228D02*
X52190476Y46609D01*
X52190476Y46609D02*
X52238095Y-1009D01*
X52238095Y-1009D02*
X52285714Y-96247D01*
X52285714Y-96247D02*
X52285714Y-334342D01*
X52285714Y-334342D02*
X52238095Y-429580D01*
X52238095Y-429580D02*
X52190476Y-477200D01*
X52190476Y-477200D02*
X52095238Y-524819D01*
X52095238Y-524819D02*
X51857143Y-524819D01*
X51857143Y-524819D02*
X51761905Y-477200D01*
X51761905Y-477200D02*
X51714286Y-429580D01*
X51380952Y-3384819D02*
X50809524Y-3384819D01*
X51095238Y-3384819D02*
X51095238Y-2384819D01*
X51095238Y-2384819D02*
X51000000Y-2527676D01*
X51000000Y-2527676D02*
X50904762Y-2622914D01*
X50904762Y-2622914D02*
X50809524Y-2670533D01*
X51809524Y-3384819D02*
X51809524Y-2384819D01*
X51904762Y-3003866D02*
X52190476Y-3384819D01*
X52190476Y-2718152D02*
X51809524Y-3099104D01*
D11*
X51433333Y-1681927D02*
X51300000Y-1491451D01*
X51204762Y-1681927D02*
X51204762Y-1281927D01*
X51204762Y-1281927D02*
X51357143Y-1281927D01*
X51357143Y-1281927D02*
X51395238Y-1300975D01*
X51395238Y-1300975D02*
X51414285Y-1320022D01*
X51414285Y-1320022D02*
X51433333Y-1358118D01*
X51433333Y-1358118D02*
X51433333Y-1415260D01*
X51433333Y-1415260D02*
X51414285Y-1453356D01*
X51414285Y-1453356D02*
X51395238Y-1472403D01*
X51395238Y-1472403D02*
X51357143Y-1491451D01*
X51357143Y-1491451D02*
X51204762Y-1491451D01*
X51795238Y-1281927D02*
X51604762Y-1281927D01*
X51604762Y-1281927D02*
X51585714Y-1472403D01*
X51585714Y-1472403D02*
X51604762Y-1453356D01*
X51604762Y-1453356D02*
X51642857Y-1434308D01*
X51642857Y-1434308D02*
X51738095Y-1434308D01*
X51738095Y-1434308D02*
X51776190Y-1453356D01*
X51776190Y-1453356D02*
X51795238Y-1472403D01*
X51795238Y-1472403D02*
X51814285Y-1510499D01*
X51814285Y-1510499D02*
X51814285Y-1605737D01*
X51814285Y-1605737D02*
X51795238Y-1643832D01*
X51795238Y-1643832D02*
X51776190Y-1662880D01*
X51776190Y-1662880D02*
X51738095Y-1681927D01*
X51738095Y-1681927D02*
X51642857Y-1681927D01*
X51642857Y-1681927D02*
X51604762Y-1662880D01*
X51604762Y-1662880D02*
X51585714Y-1643832D01*
D10*
X8952381Y-177200D02*
X9095238Y-224819D01*
X9095238Y-224819D02*
X9333333Y-224819D01*
X9333333Y-224819D02*
X9428571Y-177200D01*
X9428571Y-177200D02*
X9476190Y-129580D01*
X9476190Y-129580D02*
X9523809Y-34342D01*
X9523809Y-34342D02*
X9523809Y60895D01*
X9523809Y60895D02*
X9476190Y156133D01*
X9476190Y156133D02*
X9428571Y203752D01*
X9428571Y203752D02*
X9333333Y251371D01*
X9333333Y251371D02*
X9142857Y298990D01*
X9142857Y298990D02*
X9047619Y346609D01*
X9047619Y346609D02*
X9000000Y394228D01*
X9000000Y394228D02*
X8952381Y489466D01*
X8952381Y489466D02*
X8952381Y584704D01*
X8952381Y584704D02*
X9000000Y679942D01*
X9000000Y679942D02*
X9047619Y727561D01*
X9047619Y727561D02*
X9142857Y775180D01*
X9142857Y775180D02*
X9380952Y775180D01*
X9380952Y775180D02*
X9523809Y727561D01*
X9857143Y775180D02*
X10095238Y-224819D01*
X10095238Y-224819D02*
X10285714Y489466D01*
X10285714Y489466D02*
X10476190Y-224819D01*
X10476190Y-224819D02*
X10714286Y775180D01*
X10857143Y-320057D02*
X11619047Y-320057D01*
X11857143Y-224819D02*
X11857143Y775180D01*
X11857143Y775180D02*
X12238095Y775180D01*
X12238095Y775180D02*
X12333333Y727561D01*
X12333333Y727561D02*
X12380952Y679942D01*
X12380952Y679942D02*
X12428571Y584704D01*
X12428571Y584704D02*
X12428571Y441847D01*
X12428571Y441847D02*
X12380952Y346609D01*
X12380952Y346609D02*
X12333333Y298990D01*
X12333333Y298990D02*
X12238095Y251371D01*
X12238095Y251371D02*
X11857143Y251371D01*
X13285714Y441847D02*
X13285714Y-224819D01*
X12857143Y441847D02*
X12857143Y-81961D01*
X12857143Y-81961D02*
X12904762Y-177200D01*
X12904762Y-177200D02*
X13000000Y-224819D01*
X13000000Y-224819D02*
X13142857Y-224819D01*
X13142857Y-224819D02*
X13238095Y-177200D01*
X13238095Y-177200D02*
X13285714Y-129580D01*
X13714286Y-177200D02*
X13809524Y-224819D01*
X13809524Y-224819D02*
X14000000Y-224819D01*
X14000000Y-224819D02*
X14095238Y-177200D01*
X14095238Y-177200D02*
X14142857Y-81961D01*
X14142857Y-81961D02*
X14142857Y-34342D01*
X14142857Y-34342D02*
X14095238Y60895D01*
X14095238Y60895D02*
X14000000Y108514D01*
X14000000Y108514D02*
X13857143Y108514D01*
X13857143Y108514D02*
X13761905Y156133D01*
X13761905Y156133D02*
X13714286Y251371D01*
X13714286Y251371D02*
X13714286Y298990D01*
X13714286Y298990D02*
X13761905Y394228D01*
X13761905Y394228D02*
X13857143Y441847D01*
X13857143Y441847D02*
X14000000Y441847D01*
X14000000Y441847D02*
X14095238Y394228D01*
X14571429Y-224819D02*
X14571429Y775180D01*
X15000000Y-224819D02*
X15000000Y298990D01*
X15000000Y298990D02*
X14952381Y394228D01*
X14952381Y394228D02*
X14857143Y441847D01*
X14857143Y441847D02*
X14714286Y441847D01*
X14714286Y441847D02*
X14619048Y394228D01*
X14619048Y394228D02*
X14571429Y346609D01*
X10666667Y-4407200D02*
X10809524Y-4454819D01*
X10809524Y-4454819D02*
X11047619Y-4454819D01*
X11047619Y-4454819D02*
X11142857Y-4407200D01*
X11142857Y-4407200D02*
X11190476Y-4359580D01*
X11190476Y-4359580D02*
X11238095Y-4264342D01*
X11238095Y-4264342D02*
X11238095Y-4169104D01*
X11238095Y-4169104D02*
X11190476Y-4073866D01*
X11190476Y-4073866D02*
X11142857Y-4026247D01*
X11142857Y-4026247D02*
X11047619Y-3978628D01*
X11047619Y-3978628D02*
X10857143Y-3931009D01*
X10857143Y-3931009D02*
X10761905Y-3883390D01*
X10761905Y-3883390D02*
X10714286Y-3835771D01*
X10714286Y-3835771D02*
X10666667Y-3740533D01*
X10666667Y-3740533D02*
X10666667Y-3645295D01*
X10666667Y-3645295D02*
X10714286Y-3550057D01*
X10714286Y-3550057D02*
X10761905Y-3502438D01*
X10761905Y-3502438D02*
X10857143Y-3454819D01*
X10857143Y-3454819D02*
X11095238Y-3454819D01*
X11095238Y-3454819D02*
X11238095Y-3502438D01*
X11571429Y-3454819D02*
X11809524Y-4454819D01*
X11809524Y-4454819D02*
X12000000Y-3740533D01*
X12000000Y-3740533D02*
X12190476Y-4454819D01*
X12190476Y-4454819D02*
X12428572Y-3454819D01*
X13333333Y-4454819D02*
X12761905Y-4454819D01*
X13047619Y-4454819D02*
X13047619Y-3454819D01*
X13047619Y-3454819D02*
X12952381Y-3597676D01*
X12952381Y-3597676D02*
X12857143Y-3692914D01*
X12857143Y-3692914D02*
X12761905Y-3740533D01*
X24452380Y-12884819D02*
X23880952Y-12884819D01*
X24166666Y-12884819D02*
X24166666Y-11884819D01*
X24166666Y-11884819D02*
X24071428Y-12027676D01*
X24071428Y-12027676D02*
X23976190Y-12122914D01*
X23976190Y-12122914D02*
X23880952Y-12170533D01*
X25071428Y-11884819D02*
X25166666Y-11884819D01*
X25166666Y-11884819D02*
X25261904Y-11932438D01*
X25261904Y-11932438D02*
X25309523Y-11980057D01*
X25309523Y-11980057D02*
X25357142Y-12075295D01*
X25357142Y-12075295D02*
X25404761Y-12265771D01*
X25404761Y-12265771D02*
X25404761Y-12503866D01*
X25404761Y-12503866D02*
X25357142Y-12694342D01*
X25357142Y-12694342D02*
X25309523Y-12789580D01*
X25309523Y-12789580D02*
X25261904Y-12837200D01*
X25261904Y-12837200D02*
X25166666Y-12884819D01*
X25166666Y-12884819D02*
X25071428Y-12884819D01*
X25071428Y-12884819D02*
X24976190Y-12837200D01*
X24976190Y-12837200D02*
X24928571Y-12789580D01*
X24928571Y-12789580D02*
X24880952Y-12694342D01*
X24880952Y-12694342D02*
X24833333Y-12503866D01*
X24833333Y-12503866D02*
X24833333Y-12265771D01*
X24833333Y-12265771D02*
X24880952Y-12075295D01*
X24880952Y-12075295D02*
X24928571Y-11980057D01*
X24928571Y-11980057D02*
X24976190Y-11932438D01*
X24976190Y-11932438D02*
X25071428Y-11884819D01*
X26023809Y-11884819D02*
X26119047Y-11884819D01*
X26119047Y-11884819D02*
X26214285Y-11932438D01*
X26214285Y-11932438D02*
X26261904Y-11980057D01*
X26261904Y-11980057D02*
X26309523Y-12075295D01*
X26309523Y-12075295D02*
X26357142Y-12265771D01*
X26357142Y-12265771D02*
X26357142Y-12503866D01*
X26357142Y-12503866D02*
X26309523Y-12694342D01*
X26309523Y-12694342D02*
X26261904Y-12789580D01*
X26261904Y-12789580D02*
X26214285Y-12837200D01*
X26214285Y-12837200D02*
X26119047Y-12884819D01*
X26119047Y-12884819D02*
X26023809Y-12884819D01*
X26023809Y-12884819D02*
X25928571Y-12837200D01*
X25928571Y-12837200D02*
X25880952Y-12789580D01*
X25880952Y-12789580D02*
X25833333Y-12694342D01*
X25833333Y-12694342D02*
X25785714Y-12503866D01*
X25785714Y-12503866D02*
X25785714Y-12265771D01*
X25785714Y-12265771D02*
X25833333Y-12075295D01*
X25833333Y-12075295D02*
X25880952Y-11980057D01*
X25880952Y-11980057D02*
X25928571Y-11932438D01*
X25928571Y-11932438D02*
X26023809Y-11884819D01*
X26785714Y-12218152D02*
X26785714Y-12884819D01*
X26785714Y-12313390D02*
X26833333Y-12265771D01*
X26833333Y-12265771D02*
X26928571Y-12218152D01*
X26928571Y-12218152D02*
X27071428Y-12218152D01*
X27071428Y-12218152D02*
X27166666Y-12265771D01*
X27166666Y-12265771D02*
X27214285Y-12361009D01*
X27214285Y-12361009D02*
X27214285Y-12884819D01*
X28023809Y-12361009D02*
X27690476Y-12361009D01*
X27690476Y-12884819D02*
X27690476Y-11884819D01*
X27690476Y-11884819D02*
X28166666Y-11884819D01*
D11*
X25933333Y-11143832D02*
X25914285Y-11162880D01*
X25914285Y-11162880D02*
X25857143Y-11181927D01*
X25857143Y-11181927D02*
X25819047Y-11181927D01*
X25819047Y-11181927D02*
X25761904Y-11162880D01*
X25761904Y-11162880D02*
X25723809Y-11124784D01*
X25723809Y-11124784D02*
X25704762Y-11086689D01*
X25704762Y-11086689D02*
X25685714Y-11010499D01*
X25685714Y-11010499D02*
X25685714Y-10953356D01*
X25685714Y-10953356D02*
X25704762Y-10877165D01*
X25704762Y-10877165D02*
X25723809Y-10839070D01*
X25723809Y-10839070D02*
X25761904Y-10800975D01*
X25761904Y-10800975D02*
X25819047Y-10781927D01*
X25819047Y-10781927D02*
X25857143Y-10781927D01*
X25857143Y-10781927D02*
X25914285Y-10800975D01*
X25914285Y-10800975D02*
X25933333Y-10820022D01*
X26276190Y-10781927D02*
X26200000Y-10781927D01*
X26200000Y-10781927D02*
X26161904Y-10800975D01*
X26161904Y-10800975D02*
X26142857Y-10820022D01*
X26142857Y-10820022D02*
X26104762Y-10877165D01*
X26104762Y-10877165D02*
X26085714Y-10953356D01*
X26085714Y-10953356D02*
X26085714Y-11105737D01*
X26085714Y-11105737D02*
X26104762Y-11143832D01*
X26104762Y-11143832D02*
X26123809Y-11162880D01*
X26123809Y-11162880D02*
X26161904Y-11181927D01*
X26161904Y-11181927D02*
X26238095Y-11181927D01*
X26238095Y-11181927D02*
X26276190Y-11162880D01*
X26276190Y-11162880D02*
X26295238Y-11143832D01*
X26295238Y-11143832D02*
X26314285Y-11105737D01*
X26314285Y-11105737D02*
X26314285Y-11010499D01*
X26314285Y-11010499D02*
X26295238Y-10972403D01*
X26295238Y-10972403D02*
X26276190Y-10953356D01*
X26276190Y-10953356D02*
X26238095Y-10934308D01*
X26238095Y-10934308D02*
X26161904Y-10934308D01*
X26161904Y-10934308D02*
X26123809Y-10953356D01*
X26123809Y-10953356D02*
X26104762Y-10972403D01*
X26104762Y-10972403D02*
X26085714Y-11010499D01*
D10*
X17880952Y-31884819D02*
X17309524Y-31884819D01*
X17595238Y-31884819D02*
X17595238Y-30884819D01*
X17595238Y-30884819D02*
X17500000Y-31027676D01*
X17500000Y-31027676D02*
X17404762Y-31122914D01*
X17404762Y-31122914D02*
X17309524Y-31170533D01*
X18309524Y-31884819D02*
X18309524Y-30884819D01*
X18404762Y-31503866D02*
X18690476Y-31884819D01*
X18690476Y-31218152D02*
X18309524Y-31599104D01*
D11*
X17933333Y-30181927D02*
X17800000Y-29991451D01*
X17704762Y-30181927D02*
X17704762Y-29781927D01*
X17704762Y-29781927D02*
X17857143Y-29781927D01*
X17857143Y-29781927D02*
X17895238Y-29800975D01*
X17895238Y-29800975D02*
X17914285Y-29820022D01*
X17914285Y-29820022D02*
X17933333Y-29858118D01*
X17933333Y-29858118D02*
X17933333Y-29915260D01*
X17933333Y-29915260D02*
X17914285Y-29953356D01*
X17914285Y-29953356D02*
X17895238Y-29972403D01*
X17895238Y-29972403D02*
X17857143Y-29991451D01*
X17857143Y-29991451D02*
X17704762Y-29991451D01*
X18161904Y-29953356D02*
X18123809Y-29934308D01*
X18123809Y-29934308D02*
X18104762Y-29915260D01*
X18104762Y-29915260D02*
X18085714Y-29877165D01*
X18085714Y-29877165D02*
X18085714Y-29858118D01*
X18085714Y-29858118D02*
X18104762Y-29820022D01*
X18104762Y-29820022D02*
X18123809Y-29800975D01*
X18123809Y-29800975D02*
X18161904Y-29781927D01*
X18161904Y-29781927D02*
X18238095Y-29781927D01*
X18238095Y-29781927D02*
X18276190Y-29800975D01*
X18276190Y-29800975D02*
X18295238Y-29820022D01*
X18295238Y-29820022D02*
X18314285Y-29858118D01*
X18314285Y-29858118D02*
X18314285Y-29877165D01*
X18314285Y-29877165D02*
X18295238Y-29915260D01*
X18295238Y-29915260D02*
X18276190Y-29934308D01*
X18276190Y-29934308D02*
X18238095Y-29953356D01*
X18238095Y-29953356D02*
X18161904Y-29953356D01*
X18161904Y-29953356D02*
X18123809Y-29972403D01*
X18123809Y-29972403D02*
X18104762Y-29991451D01*
X18104762Y-29991451D02*
X18085714Y-30029546D01*
X18085714Y-30029546D02*
X18085714Y-30105737D01*
X18085714Y-30105737D02*
X18104762Y-30143832D01*
X18104762Y-30143832D02*
X18123809Y-30162880D01*
X18123809Y-30162880D02*
X18161904Y-30181927D01*
X18161904Y-30181927D02*
X18238095Y-30181927D01*
X18238095Y-30181927D02*
X18276190Y-30162880D01*
X18276190Y-30162880D02*
X18295238Y-30143832D01*
X18295238Y-30143832D02*
X18314285Y-30105737D01*
X18314285Y-30105737D02*
X18314285Y-30029546D01*
X18314285Y-30029546D02*
X18295238Y-29991451D01*
X18295238Y-29991451D02*
X18276190Y-29972403D01*
X18276190Y-29972403D02*
X18238095Y-29953356D01*
D10*
X35238095Y193180D02*
X35809523Y193180D01*
X35523809Y-806819D02*
X35523809Y193180D01*
X36142857Y-806819D02*
X36142857Y193180D01*
X36142857Y193180D02*
X36523809Y193180D01*
X36523809Y193180D02*
X36619047Y145561D01*
X36619047Y145561D02*
X36666666Y97942D01*
X36666666Y97942D02*
X36714285Y2704D01*
X36714285Y2704D02*
X36714285Y-140152D01*
X36714285Y-140152D02*
X36666666Y-235390D01*
X36666666Y-235390D02*
X36619047Y-283009D01*
X36619047Y-283009D02*
X36523809Y-330628D01*
X36523809Y-330628D02*
X36142857Y-330628D01*
X37047619Y193180D02*
X37666666Y193180D01*
X37666666Y193180D02*
X37333333Y-187771D01*
X37333333Y-187771D02*
X37476190Y-187771D01*
X37476190Y-187771D02*
X37571428Y-235390D01*
X37571428Y-235390D02*
X37619047Y-283009D01*
X37619047Y-283009D02*
X37666666Y-378247D01*
X37666666Y-378247D02*
X37666666Y-616342D01*
X37666666Y-616342D02*
X37619047Y-711580D01*
X37619047Y-711580D02*
X37571428Y-759200D01*
X37571428Y-759200D02*
X37476190Y-806819D01*
X37476190Y-806819D02*
X37190476Y-806819D01*
X37190476Y-806819D02*
X37095238Y-759200D01*
X37095238Y-759200D02*
X37047619Y-711580D01*
X33166666Y-4204819D02*
X33738094Y-4204819D01*
X33452380Y-5204819D02*
X33452380Y-4204819D01*
X34452380Y-5157200D02*
X34357142Y-5204819D01*
X34357142Y-5204819D02*
X34166666Y-5204819D01*
X34166666Y-5204819D02*
X34071428Y-5157200D01*
X34071428Y-5157200D02*
X34023809Y-5061961D01*
X34023809Y-5061961D02*
X34023809Y-4681009D01*
X34023809Y-4681009D02*
X34071428Y-4585771D01*
X34071428Y-4585771D02*
X34166666Y-4538152D01*
X34166666Y-4538152D02*
X34357142Y-4538152D01*
X34357142Y-4538152D02*
X34452380Y-4585771D01*
X34452380Y-4585771D02*
X34499999Y-4681009D01*
X34499999Y-4681009D02*
X34499999Y-4776247D01*
X34499999Y-4776247D02*
X34023809Y-4871485D01*
X34880952Y-5157200D02*
X34976190Y-5204819D01*
X34976190Y-5204819D02*
X35166666Y-5204819D01*
X35166666Y-5204819D02*
X35261904Y-5157200D01*
X35261904Y-5157200D02*
X35309523Y-5061961D01*
X35309523Y-5061961D02*
X35309523Y-5014342D01*
X35309523Y-5014342D02*
X35261904Y-4919104D01*
X35261904Y-4919104D02*
X35166666Y-4871485D01*
X35166666Y-4871485D02*
X35023809Y-4871485D01*
X35023809Y-4871485D02*
X34928571Y-4823866D01*
X34928571Y-4823866D02*
X34880952Y-4728628D01*
X34880952Y-4728628D02*
X34880952Y-4681009D01*
X34880952Y-4681009D02*
X34928571Y-4585771D01*
X34928571Y-4585771D02*
X35023809Y-4538152D01*
X35023809Y-4538152D02*
X35166666Y-4538152D01*
X35166666Y-4538152D02*
X35261904Y-4585771D01*
X35595238Y-4538152D02*
X35976190Y-4538152D01*
X35738095Y-4204819D02*
X35738095Y-5061961D01*
X35738095Y-5061961D02*
X35785714Y-5157200D01*
X35785714Y-5157200D02*
X35880952Y-5204819D01*
X35880952Y-5204819D02*
X35976190Y-5204819D01*
X36309524Y-5204819D02*
X36309524Y-4204819D01*
X36309524Y-4204819D02*
X36690476Y-4204819D01*
X36690476Y-4204819D02*
X36785714Y-4252438D01*
X36785714Y-4252438D02*
X36833333Y-4300057D01*
X36833333Y-4300057D02*
X36880952Y-4395295D01*
X36880952Y-4395295D02*
X36880952Y-4538152D01*
X36880952Y-4538152D02*
X36833333Y-4633390D01*
X36833333Y-4633390D02*
X36785714Y-4681009D01*
X36785714Y-4681009D02*
X36690476Y-4728628D01*
X36690476Y-4728628D02*
X36309524Y-4728628D01*
X37452381Y-5204819D02*
X37357143Y-5157200D01*
X37357143Y-5157200D02*
X37309524Y-5109580D01*
X37309524Y-5109580D02*
X37261905Y-5014342D01*
X37261905Y-5014342D02*
X37261905Y-4728628D01*
X37261905Y-4728628D02*
X37309524Y-4633390D01*
X37309524Y-4633390D02*
X37357143Y-4585771D01*
X37357143Y-4585771D02*
X37452381Y-4538152D01*
X37452381Y-4538152D02*
X37595238Y-4538152D01*
X37595238Y-4538152D02*
X37690476Y-4585771D01*
X37690476Y-4585771D02*
X37738095Y-4633390D01*
X37738095Y-4633390D02*
X37785714Y-4728628D01*
X37785714Y-4728628D02*
X37785714Y-5014342D01*
X37785714Y-5014342D02*
X37738095Y-5109580D01*
X37738095Y-5109580D02*
X37690476Y-5157200D01*
X37690476Y-5157200D02*
X37595238Y-5204819D01*
X37595238Y-5204819D02*
X37452381Y-5204819D01*
X38214286Y-5204819D02*
X38214286Y-4538152D01*
X38214286Y-4204819D02*
X38166667Y-4252438D01*
X38166667Y-4252438D02*
X38214286Y-4300057D01*
X38214286Y-4300057D02*
X38261905Y-4252438D01*
X38261905Y-4252438D02*
X38214286Y-4204819D01*
X38214286Y-4204819D02*
X38214286Y-4300057D01*
X38690476Y-4538152D02*
X38690476Y-5204819D01*
X38690476Y-4633390D02*
X38738095Y-4585771D01*
X38738095Y-4585771D02*
X38833333Y-4538152D01*
X38833333Y-4538152D02*
X38976190Y-4538152D01*
X38976190Y-4538152D02*
X39071428Y-4585771D01*
X39071428Y-4585771D02*
X39119047Y-4681009D01*
X39119047Y-4681009D02*
X39119047Y-5204819D01*
X39452381Y-4538152D02*
X39833333Y-4538152D01*
X39595238Y-4204819D02*
X39595238Y-5061961D01*
X39595238Y-5061961D02*
X39642857Y-5157200D01*
X39642857Y-5157200D02*
X39738095Y-5204819D01*
X39738095Y-5204819D02*
X39833333Y-5204819D01*
X35238095Y195180D02*
X35809523Y195180D01*
X35523809Y-804819D02*
X35523809Y195180D01*
X36142857Y-804819D02*
X36142857Y195180D01*
X36142857Y195180D02*
X36523809Y195180D01*
X36523809Y195180D02*
X36619047Y147561D01*
X36619047Y147561D02*
X36666666Y99942D01*
X36666666Y99942D02*
X36714285Y4704D01*
X36714285Y4704D02*
X36714285Y-138152D01*
X36714285Y-138152D02*
X36666666Y-233390D01*
X36666666Y-233390D02*
X36619047Y-281009D01*
X36619047Y-281009D02*
X36523809Y-328628D01*
X36523809Y-328628D02*
X36142857Y-328628D01*
X37047619Y195180D02*
X37666666Y195180D01*
X37666666Y195180D02*
X37333333Y-185771D01*
X37333333Y-185771D02*
X37476190Y-185771D01*
X37476190Y-185771D02*
X37571428Y-233390D01*
X37571428Y-233390D02*
X37619047Y-281009D01*
X37619047Y-281009D02*
X37666666Y-376247D01*
X37666666Y-376247D02*
X37666666Y-614342D01*
X37666666Y-614342D02*
X37619047Y-709580D01*
X37619047Y-709580D02*
X37571428Y-757200D01*
X37571428Y-757200D02*
X37476190Y-804819D01*
X37476190Y-804819D02*
X37190476Y-804819D01*
X37190476Y-804819D02*
X37095238Y-757200D01*
X37095238Y-757200D02*
X37047619Y-709580D01*
X11238095Y-30054819D02*
X11238095Y-30864342D01*
X11238095Y-30864342D02*
X11285714Y-30959580D01*
X11285714Y-30959580D02*
X11333333Y-31007200D01*
X11333333Y-31007200D02*
X11428571Y-31054819D01*
X11428571Y-31054819D02*
X11619047Y-31054819D01*
X11619047Y-31054819D02*
X11714285Y-31007200D01*
X11714285Y-31007200D02*
X11761904Y-30959580D01*
X11761904Y-30959580D02*
X11809523Y-30864342D01*
X11809523Y-30864342D02*
X11809523Y-30054819D01*
X12238095Y-30150057D02*
X12285714Y-30102438D01*
X12285714Y-30102438D02*
X12380952Y-30054819D01*
X12380952Y-30054819D02*
X12619047Y-30054819D01*
X12619047Y-30054819D02*
X12714285Y-30102438D01*
X12714285Y-30102438D02*
X12761904Y-30150057D01*
X12761904Y-30150057D02*
X12809523Y-30245295D01*
X12809523Y-30245295D02*
X12809523Y-30340533D01*
X12809523Y-30340533D02*
X12761904Y-30483390D01*
X12761904Y-30483390D02*
X12190476Y-31054819D01*
X12190476Y-31054819D02*
X12809523Y-31054819D01*
X7047619Y-35569104D02*
X7523809Y-35569104D01*
X6952381Y-35854819D02*
X7285714Y-34854819D01*
X7285714Y-34854819D02*
X7619047Y-35854819D01*
X7952381Y-35854819D02*
X7952381Y-34854819D01*
X7952381Y-34854819D02*
X8333333Y-34854819D01*
X8333333Y-34854819D02*
X8428571Y-34902438D01*
X8428571Y-34902438D02*
X8476190Y-34950057D01*
X8476190Y-34950057D02*
X8523809Y-35045295D01*
X8523809Y-35045295D02*
X8523809Y-35188152D01*
X8523809Y-35188152D02*
X8476190Y-35283390D01*
X8476190Y-35283390D02*
X8428571Y-35331009D01*
X8428571Y-35331009D02*
X8333333Y-35378628D01*
X8333333Y-35378628D02*
X7952381Y-35378628D01*
X8904762Y-34950057D02*
X8952381Y-34902438D01*
X8952381Y-34902438D02*
X9047619Y-34854819D01*
X9047619Y-34854819D02*
X9285714Y-34854819D01*
X9285714Y-34854819D02*
X9380952Y-34902438D01*
X9380952Y-34902438D02*
X9428571Y-34950057D01*
X9428571Y-34950057D02*
X9476190Y-35045295D01*
X9476190Y-35045295D02*
X9476190Y-35140533D01*
X9476190Y-35140533D02*
X9428571Y-35283390D01*
X9428571Y-35283390D02*
X8857143Y-35854819D01*
X8857143Y-35854819D02*
X9476190Y-35854819D01*
X10428571Y-35854819D02*
X9857143Y-35854819D01*
X10142857Y-35854819D02*
X10142857Y-34854819D01*
X10142857Y-34854819D02*
X10047619Y-34997676D01*
X10047619Y-34997676D02*
X9952381Y-35092914D01*
X9952381Y-35092914D02*
X9857143Y-35140533D01*
X11380952Y-35854819D02*
X10809524Y-35854819D01*
X11095238Y-35854819D02*
X11095238Y-34854819D01*
X11095238Y-34854819D02*
X11000000Y-34997676D01*
X11000000Y-34997676D02*
X10904762Y-35092914D01*
X10904762Y-35092914D02*
X10809524Y-35140533D01*
X11761905Y-34950057D02*
X11809524Y-34902438D01*
X11809524Y-34902438D02*
X11904762Y-34854819D01*
X11904762Y-34854819D02*
X12142857Y-34854819D01*
X12142857Y-34854819D02*
X12238095Y-34902438D01*
X12238095Y-34902438D02*
X12285714Y-34950057D01*
X12285714Y-34950057D02*
X12333333Y-35045295D01*
X12333333Y-35045295D02*
X12333333Y-35140533D01*
X12333333Y-35140533D02*
X12285714Y-35283390D01*
X12285714Y-35283390D02*
X11714286Y-35854819D01*
X11714286Y-35854819D02*
X12333333Y-35854819D01*
X12761905Y-35854819D02*
X12761905Y-34854819D01*
X13333333Y-35854819D02*
X12904762Y-35283390D01*
X13333333Y-34854819D02*
X12761905Y-35426247D01*
X13761905Y-35473866D02*
X14523810Y-35473866D01*
X14904762Y-34854819D02*
X15523809Y-34854819D01*
X15523809Y-34854819D02*
X15190476Y-35235771D01*
X15190476Y-35235771D02*
X15333333Y-35235771D01*
X15333333Y-35235771D02*
X15428571Y-35283390D01*
X15428571Y-35283390D02*
X15476190Y-35331009D01*
X15476190Y-35331009D02*
X15523809Y-35426247D01*
X15523809Y-35426247D02*
X15523809Y-35664342D01*
X15523809Y-35664342D02*
X15476190Y-35759580D01*
X15476190Y-35759580D02*
X15428571Y-35807200D01*
X15428571Y-35807200D02*
X15333333Y-35854819D01*
X15333333Y-35854819D02*
X15047619Y-35854819D01*
X15047619Y-35854819D02*
X14952381Y-35807200D01*
X14952381Y-35807200D02*
X14904762Y-35759580D01*
X15952381Y-35759580D02*
X16000000Y-35807200D01*
X16000000Y-35807200D02*
X15952381Y-35854819D01*
X15952381Y-35854819D02*
X15904762Y-35807200D01*
X15904762Y-35807200D02*
X15952381Y-35759580D01*
X15952381Y-35759580D02*
X15952381Y-35854819D01*
X16333333Y-34854819D02*
X16952380Y-34854819D01*
X16952380Y-34854819D02*
X16619047Y-35235771D01*
X16619047Y-35235771D02*
X16761904Y-35235771D01*
X16761904Y-35235771D02*
X16857142Y-35283390D01*
X16857142Y-35283390D02*
X16904761Y-35331009D01*
X16904761Y-35331009D02*
X16952380Y-35426247D01*
X16952380Y-35426247D02*
X16952380Y-35664342D01*
X16952380Y-35664342D02*
X16904761Y-35759580D01*
X16904761Y-35759580D02*
X16857142Y-35807200D01*
X16857142Y-35807200D02*
X16761904Y-35854819D01*
X16761904Y-35854819D02*
X16476190Y-35854819D01*
X16476190Y-35854819D02*
X16380952Y-35807200D01*
X16380952Y-35807200D02*
X16333333Y-35759580D01*
D11*
X11695238Y-32781927D02*
X11695238Y-33105737D01*
X11695238Y-33105737D02*
X11714285Y-33143832D01*
X11714285Y-33143832D02*
X11733333Y-33162880D01*
X11733333Y-33162880D02*
X11771428Y-33181927D01*
X11771428Y-33181927D02*
X11847619Y-33181927D01*
X11847619Y-33181927D02*
X11885714Y-33162880D01*
X11885714Y-33162880D02*
X11904761Y-33143832D01*
X11904761Y-33143832D02*
X11923809Y-33105737D01*
X11923809Y-33105737D02*
X11923809Y-32781927D01*
X12095238Y-32820022D02*
X12114286Y-32800975D01*
X12114286Y-32800975D02*
X12152381Y-32781927D01*
X12152381Y-32781927D02*
X12247619Y-32781927D01*
X12247619Y-32781927D02*
X12285714Y-32800975D01*
X12285714Y-32800975D02*
X12304762Y-32820022D01*
X12304762Y-32820022D02*
X12323809Y-32858118D01*
X12323809Y-32858118D02*
X12323809Y-32896213D01*
X12323809Y-32896213D02*
X12304762Y-32953356D01*
X12304762Y-32953356D02*
X12076190Y-33181927D01*
X12076190Y-33181927D02*
X12323809Y-33181927D01*
D10*
X4666666Y-15074819D02*
X4666666Y-15789104D01*
X4666666Y-15789104D02*
X4619047Y-15931961D01*
X4619047Y-15931961D02*
X4523809Y-16027200D01*
X4523809Y-16027200D02*
X4380952Y-16074819D01*
X4380952Y-16074819D02*
X4285714Y-16074819D01*
X5571428Y-15074819D02*
X5380952Y-15074819D01*
X5380952Y-15074819D02*
X5285714Y-15122438D01*
X5285714Y-15122438D02*
X5238095Y-15170057D01*
X5238095Y-15170057D02*
X5142857Y-15312914D01*
X5142857Y-15312914D02*
X5095238Y-15503390D01*
X5095238Y-15503390D02*
X5095238Y-15884342D01*
X5095238Y-15884342D02*
X5142857Y-15979580D01*
X5142857Y-15979580D02*
X5190476Y-16027200D01*
X5190476Y-16027200D02*
X5285714Y-16074819D01*
X5285714Y-16074819D02*
X5476190Y-16074819D01*
X5476190Y-16074819D02*
X5571428Y-16027200D01*
X5571428Y-16027200D02*
X5619047Y-15979580D01*
X5619047Y-15979580D02*
X5666666Y-15884342D01*
X5666666Y-15884342D02*
X5666666Y-15646247D01*
X5666666Y-15646247D02*
X5619047Y-15551009D01*
X5619047Y-15551009D02*
X5571428Y-15503390D01*
X5571428Y-15503390D02*
X5476190Y-15455771D01*
X5476190Y-15455771D02*
X5285714Y-15455771D01*
X5285714Y-15455771D02*
X5190476Y-15503390D01*
X5190476Y-15503390D02*
X5142857Y-15551009D01*
X5142857Y-15551009D02*
X5095238Y-15646247D01*
X1261904Y-25819580D02*
X1214285Y-25867200D01*
X1214285Y-25867200D02*
X1071428Y-25914819D01*
X1071428Y-25914819D02*
X976190Y-25914819D01*
X976190Y-25914819D02*
X833333Y-25867200D01*
X833333Y-25867200D02*
X738095Y-25771961D01*
X738095Y-25771961D02*
X690476Y-25676723D01*
X690476Y-25676723D02*
X642857Y-25486247D01*
X642857Y-25486247D02*
X642857Y-25343390D01*
X642857Y-25343390D02*
X690476Y-25152914D01*
X690476Y-25152914D02*
X738095Y-25057676D01*
X738095Y-25057676D02*
X833333Y-24962438D01*
X833333Y-24962438D02*
X976190Y-24914819D01*
X976190Y-24914819D02*
X1071428Y-24914819D01*
X1071428Y-24914819D02*
X1214285Y-24962438D01*
X1214285Y-24962438D02*
X1261904Y-25010057D01*
X1833333Y-25914819D02*
X1738095Y-25867200D01*
X1738095Y-25867200D02*
X1690476Y-25819580D01*
X1690476Y-25819580D02*
X1642857Y-25724342D01*
X1642857Y-25724342D02*
X1642857Y-25438628D01*
X1642857Y-25438628D02*
X1690476Y-25343390D01*
X1690476Y-25343390D02*
X1738095Y-25295771D01*
X1738095Y-25295771D02*
X1833333Y-25248152D01*
X1833333Y-25248152D02*
X1976190Y-25248152D01*
X1976190Y-25248152D02*
X2071428Y-25295771D01*
X2071428Y-25295771D02*
X2119047Y-25343390D01*
X2119047Y-25343390D02*
X2166666Y-25438628D01*
X2166666Y-25438628D02*
X2166666Y-25724342D01*
X2166666Y-25724342D02*
X2119047Y-25819580D01*
X2119047Y-25819580D02*
X2071428Y-25867200D01*
X2071428Y-25867200D02*
X1976190Y-25914819D01*
X1976190Y-25914819D02*
X1833333Y-25914819D01*
X2595238Y-25248152D02*
X2595238Y-25914819D01*
X2595238Y-25343390D02*
X2642857Y-25295771D01*
X2642857Y-25295771D02*
X2738095Y-25248152D01*
X2738095Y-25248152D02*
X2880952Y-25248152D01*
X2880952Y-25248152D02*
X2976190Y-25295771D01*
X2976190Y-25295771D02*
X3023809Y-25391009D01*
X3023809Y-25391009D02*
X3023809Y-25914819D01*
X3500000Y-25248152D02*
X3500000Y-25914819D01*
X3500000Y-25343390D02*
X3547619Y-25295771D01*
X3547619Y-25295771D02*
X3642857Y-25248152D01*
X3642857Y-25248152D02*
X3785714Y-25248152D01*
X3785714Y-25248152D02*
X3880952Y-25295771D01*
X3880952Y-25295771D02*
X3928571Y-25391009D01*
X3928571Y-25391009D02*
X3928571Y-25914819D01*
X4166667Y-26010057D02*
X4928571Y-26010057D01*
X5357143Y-24914819D02*
X5452381Y-24914819D01*
X5452381Y-24914819D02*
X5547619Y-24962438D01*
X5547619Y-24962438D02*
X5595238Y-25010057D01*
X5595238Y-25010057D02*
X5642857Y-25105295D01*
X5642857Y-25105295D02*
X5690476Y-25295771D01*
X5690476Y-25295771D02*
X5690476Y-25533866D01*
X5690476Y-25533866D02*
X5642857Y-25724342D01*
X5642857Y-25724342D02*
X5595238Y-25819580D01*
X5595238Y-25819580D02*
X5547619Y-25867200D01*
X5547619Y-25867200D02*
X5452381Y-25914819D01*
X5452381Y-25914819D02*
X5357143Y-25914819D01*
X5357143Y-25914819D02*
X5261905Y-25867200D01*
X5261905Y-25867200D02*
X5214286Y-25819580D01*
X5214286Y-25819580D02*
X5166667Y-25724342D01*
X5166667Y-25724342D02*
X5119048Y-25533866D01*
X5119048Y-25533866D02*
X5119048Y-25295771D01*
X5119048Y-25295771D02*
X5166667Y-25105295D01*
X5166667Y-25105295D02*
X5214286Y-25010057D01*
X5214286Y-25010057D02*
X5261905Y-24962438D01*
X5261905Y-24962438D02*
X5357143Y-24914819D01*
X6642857Y-25914819D02*
X6071429Y-25914819D01*
X6357143Y-25914819D02*
X6357143Y-24914819D01*
X6357143Y-24914819D02*
X6261905Y-25057676D01*
X6261905Y-25057676D02*
X6166667Y-25152914D01*
X6166667Y-25152914D02*
X6071429Y-25200533D01*
X6976191Y-25914819D02*
X7500000Y-25248152D01*
X6976191Y-25248152D02*
X7500000Y-25914819D01*
X8071429Y-24914819D02*
X8166667Y-24914819D01*
X8166667Y-24914819D02*
X8261905Y-24962438D01*
X8261905Y-24962438D02*
X8309524Y-25010057D01*
X8309524Y-25010057D02*
X8357143Y-25105295D01*
X8357143Y-25105295D02*
X8404762Y-25295771D01*
X8404762Y-25295771D02*
X8404762Y-25533866D01*
X8404762Y-25533866D02*
X8357143Y-25724342D01*
X8357143Y-25724342D02*
X8309524Y-25819580D01*
X8309524Y-25819580D02*
X8261905Y-25867200D01*
X8261905Y-25867200D02*
X8166667Y-25914819D01*
X8166667Y-25914819D02*
X8071429Y-25914819D01*
X8071429Y-25914819D02*
X7976191Y-25867200D01*
X7976191Y-25867200D02*
X7928572Y-25819580D01*
X7928572Y-25819580D02*
X7880953Y-25724342D01*
X7880953Y-25724342D02*
X7833334Y-25533866D01*
X7833334Y-25533866D02*
X7833334Y-25295771D01*
X7833334Y-25295771D02*
X7880953Y-25105295D01*
X7880953Y-25105295D02*
X7928572Y-25010057D01*
X7928572Y-25010057D02*
X7976191Y-24962438D01*
X7976191Y-24962438D02*
X8071429Y-24914819D01*
X8738096Y-24914819D02*
X9357143Y-24914819D01*
X9357143Y-24914819D02*
X9023810Y-25295771D01*
X9023810Y-25295771D02*
X9166667Y-25295771D01*
X9166667Y-25295771D02*
X9261905Y-25343390D01*
X9261905Y-25343390D02*
X9309524Y-25391009D01*
X9309524Y-25391009D02*
X9357143Y-25486247D01*
X9357143Y-25486247D02*
X9357143Y-25724342D01*
X9357143Y-25724342D02*
X9309524Y-25819580D01*
X9309524Y-25819580D02*
X9261905Y-25867200D01*
X9261905Y-25867200D02*
X9166667Y-25914819D01*
X9166667Y-25914819D02*
X8880953Y-25914819D01*
X8880953Y-25914819D02*
X8785715Y-25867200D01*
X8785715Y-25867200D02*
X8738096Y-25819580D01*
X4454819Y-20873333D02*
X5169104Y-20873333D01*
X5169104Y-20873333D02*
X5311961Y-20920952D01*
X5311961Y-20920952D02*
X5407200Y-21016190D01*
X5407200Y-21016190D02*
X5454819Y-21159047D01*
X5454819Y-21159047D02*
X5454819Y-21254285D01*
X4454819Y-19968571D02*
X4454819Y-20159047D01*
X4454819Y-20159047D02*
X4502438Y-20254285D01*
X4502438Y-20254285D02*
X4550057Y-20301904D01*
X4550057Y-20301904D02*
X4692914Y-20397142D01*
X4692914Y-20397142D02*
X4883390Y-20444761D01*
X4883390Y-20444761D02*
X5264342Y-20444761D01*
X5264342Y-20444761D02*
X5359580Y-20397142D01*
X5359580Y-20397142D02*
X5407200Y-20349523D01*
X5407200Y-20349523D02*
X5454819Y-20254285D01*
X5454819Y-20254285D02*
X5454819Y-20063809D01*
X5454819Y-20063809D02*
X5407200Y-19968571D01*
X5407200Y-19968571D02*
X5359580Y-19920952D01*
X5359580Y-19920952D02*
X5264342Y-19873333D01*
X5264342Y-19873333D02*
X5026247Y-19873333D01*
X5026247Y-19873333D02*
X4931009Y-19920952D01*
X4931009Y-19920952D02*
X4883390Y-19968571D01*
X4883390Y-19968571D02*
X4835771Y-20063809D01*
X4835771Y-20063809D02*
X4835771Y-20254285D01*
X4835771Y-20254285D02*
X4883390Y-20349523D01*
X4883390Y-20349523D02*
X4931009Y-20397142D01*
X4931009Y-20397142D02*
X5026247Y-20444761D01*
X32403333Y-22954819D02*
X32070000Y-22478628D01*
X31831905Y-22954819D02*
X31831905Y-21954819D01*
X31831905Y-21954819D02*
X32212857Y-21954819D01*
X32212857Y-21954819D02*
X32308095Y-22002438D01*
X32308095Y-22002438D02*
X32355714Y-22050057D01*
X32355714Y-22050057D02*
X32403333Y-22145295D01*
X32403333Y-22145295D02*
X32403333Y-22288152D01*
X32403333Y-22288152D02*
X32355714Y-22383390D01*
X32355714Y-22383390D02*
X32308095Y-22431009D01*
X32308095Y-22431009D02*
X32212857Y-22478628D01*
X32212857Y-22478628D02*
X31831905Y-22478628D01*
X32736667Y-21954819D02*
X33403333Y-21954819D01*
X33403333Y-21954819D02*
X32974762Y-22954819D01*
X35310952Y-22954819D02*
X34739524Y-22954819D01*
X35025238Y-22954819D02*
X35025238Y-21954819D01*
X35025238Y-21954819D02*
X34930000Y-22097676D01*
X34930000Y-22097676D02*
X34834762Y-22192914D01*
X34834762Y-22192914D02*
X34739524Y-22240533D01*
X35739524Y-22954819D02*
X35739524Y-21954819D01*
X35834762Y-22573866D02*
X36120476Y-22954819D01*
X36120476Y-22288152D02*
X35739524Y-22669104D01*
D11*
X33933333Y-22681927D02*
X33800000Y-22491451D01*
X33704762Y-22681927D02*
X33704762Y-22281927D01*
X33704762Y-22281927D02*
X33857143Y-22281927D01*
X33857143Y-22281927D02*
X33895238Y-22300975D01*
X33895238Y-22300975D02*
X33914285Y-22320022D01*
X33914285Y-22320022D02*
X33933333Y-22358118D01*
X33933333Y-22358118D02*
X33933333Y-22415260D01*
X33933333Y-22415260D02*
X33914285Y-22453356D01*
X33914285Y-22453356D02*
X33895238Y-22472403D01*
X33895238Y-22472403D02*
X33857143Y-22491451D01*
X33857143Y-22491451D02*
X33704762Y-22491451D01*
X34066666Y-22281927D02*
X34333333Y-22281927D01*
X34333333Y-22281927D02*
X34161904Y-22681927D01*
D10*
X1261904Y-33279580D02*
X1214285Y-33327200D01*
X1214285Y-33327200D02*
X1071428Y-33374819D01*
X1071428Y-33374819D02*
X976190Y-33374819D01*
X976190Y-33374819D02*
X833333Y-33327200D01*
X833333Y-33327200D02*
X738095Y-33231961D01*
X738095Y-33231961D02*
X690476Y-33136723D01*
X690476Y-33136723D02*
X642857Y-32946247D01*
X642857Y-32946247D02*
X642857Y-32803390D01*
X642857Y-32803390D02*
X690476Y-32612914D01*
X690476Y-32612914D02*
X738095Y-32517676D01*
X738095Y-32517676D02*
X833333Y-32422438D01*
X833333Y-32422438D02*
X976190Y-32374819D01*
X976190Y-32374819D02*
X1071428Y-32374819D01*
X1071428Y-32374819D02*
X1214285Y-32422438D01*
X1214285Y-32422438D02*
X1261904Y-32470057D01*
X1833333Y-33374819D02*
X1738095Y-33327200D01*
X1738095Y-33327200D02*
X1690476Y-33279580D01*
X1690476Y-33279580D02*
X1642857Y-33184342D01*
X1642857Y-33184342D02*
X1642857Y-32898628D01*
X1642857Y-32898628D02*
X1690476Y-32803390D01*
X1690476Y-32803390D02*
X1738095Y-32755771D01*
X1738095Y-32755771D02*
X1833333Y-32708152D01*
X1833333Y-32708152D02*
X1976190Y-32708152D01*
X1976190Y-32708152D02*
X2071428Y-32755771D01*
X2071428Y-32755771D02*
X2119047Y-32803390D01*
X2119047Y-32803390D02*
X2166666Y-32898628D01*
X2166666Y-32898628D02*
X2166666Y-33184342D01*
X2166666Y-33184342D02*
X2119047Y-33279580D01*
X2119047Y-33279580D02*
X2071428Y-33327200D01*
X2071428Y-33327200D02*
X1976190Y-33374819D01*
X1976190Y-33374819D02*
X1833333Y-33374819D01*
X2595238Y-32708152D02*
X2595238Y-33374819D01*
X2595238Y-32803390D02*
X2642857Y-32755771D01*
X2642857Y-32755771D02*
X2738095Y-32708152D01*
X2738095Y-32708152D02*
X2880952Y-32708152D01*
X2880952Y-32708152D02*
X2976190Y-32755771D01*
X2976190Y-32755771D02*
X3023809Y-32851009D01*
X3023809Y-32851009D02*
X3023809Y-33374819D01*
X3500000Y-32708152D02*
X3500000Y-33374819D01*
X3500000Y-32803390D02*
X3547619Y-32755771D01*
X3547619Y-32755771D02*
X3642857Y-32708152D01*
X3642857Y-32708152D02*
X3785714Y-32708152D01*
X3785714Y-32708152D02*
X3880952Y-32755771D01*
X3880952Y-32755771D02*
X3928571Y-32851009D01*
X3928571Y-32851009D02*
X3928571Y-33374819D01*
X4166667Y-33470057D02*
X4928571Y-33470057D01*
X5357143Y-32374819D02*
X5452381Y-32374819D01*
X5452381Y-32374819D02*
X5547619Y-32422438D01*
X5547619Y-32422438D02*
X5595238Y-32470057D01*
X5595238Y-32470057D02*
X5642857Y-32565295D01*
X5642857Y-32565295D02*
X5690476Y-32755771D01*
X5690476Y-32755771D02*
X5690476Y-32993866D01*
X5690476Y-32993866D02*
X5642857Y-33184342D01*
X5642857Y-33184342D02*
X5595238Y-33279580D01*
X5595238Y-33279580D02*
X5547619Y-33327200D01*
X5547619Y-33327200D02*
X5452381Y-33374819D01*
X5452381Y-33374819D02*
X5357143Y-33374819D01*
X5357143Y-33374819D02*
X5261905Y-33327200D01*
X5261905Y-33327200D02*
X5214286Y-33279580D01*
X5214286Y-33279580D02*
X5166667Y-33184342D01*
X5166667Y-33184342D02*
X5119048Y-32993866D01*
X5119048Y-32993866D02*
X5119048Y-32755771D01*
X5119048Y-32755771D02*
X5166667Y-32565295D01*
X5166667Y-32565295D02*
X5214286Y-32470057D01*
X5214286Y-32470057D02*
X5261905Y-32422438D01*
X5261905Y-32422438D02*
X5357143Y-32374819D01*
X6642857Y-33374819D02*
X6071429Y-33374819D01*
X6357143Y-33374819D02*
X6357143Y-32374819D01*
X6357143Y-32374819D02*
X6261905Y-32517676D01*
X6261905Y-32517676D02*
X6166667Y-32612914D01*
X6166667Y-32612914D02*
X6071429Y-32660533D01*
X6976191Y-33374819D02*
X7500000Y-32708152D01*
X6976191Y-32708152D02*
X7500000Y-33374819D01*
X8071429Y-32374819D02*
X8166667Y-32374819D01*
X8166667Y-32374819D02*
X8261905Y-32422438D01*
X8261905Y-32422438D02*
X8309524Y-32470057D01*
X8309524Y-32470057D02*
X8357143Y-32565295D01*
X8357143Y-32565295D02*
X8404762Y-32755771D01*
X8404762Y-32755771D02*
X8404762Y-32993866D01*
X8404762Y-32993866D02*
X8357143Y-33184342D01*
X8357143Y-33184342D02*
X8309524Y-33279580D01*
X8309524Y-33279580D02*
X8261905Y-33327200D01*
X8261905Y-33327200D02*
X8166667Y-33374819D01*
X8166667Y-33374819D02*
X8071429Y-33374819D01*
X8071429Y-33374819D02*
X7976191Y-33327200D01*
X7976191Y-33327200D02*
X7928572Y-33279580D01*
X7928572Y-33279580D02*
X7880953Y-33184342D01*
X7880953Y-33184342D02*
X7833334Y-32993866D01*
X7833334Y-32993866D02*
X7833334Y-32755771D01*
X7833334Y-32755771D02*
X7880953Y-32565295D01*
X7880953Y-32565295D02*
X7928572Y-32470057D01*
X7928572Y-32470057D02*
X7976191Y-32422438D01*
X7976191Y-32422438D02*
X8071429Y-32374819D01*
X8785715Y-32470057D02*
X8833334Y-32422438D01*
X8833334Y-32422438D02*
X8928572Y-32374819D01*
X8928572Y-32374819D02*
X9166667Y-32374819D01*
X9166667Y-32374819D02*
X9261905Y-32422438D01*
X9261905Y-32422438D02*
X9309524Y-32470057D01*
X9309524Y-32470057D02*
X9357143Y-32565295D01*
X9357143Y-32565295D02*
X9357143Y-32660533D01*
X9357143Y-32660533D02*
X9309524Y-32803390D01*
X9309524Y-32803390D02*
X8738096Y-33374819D01*
X8738096Y-33374819D02*
X9357143Y-33374819D01*
X4454819Y-29603333D02*
X5169104Y-29603333D01*
X5169104Y-29603333D02*
X5311961Y-29650952D01*
X5311961Y-29650952D02*
X5407200Y-29746190D01*
X5407200Y-29746190D02*
X5454819Y-29889047D01*
X5454819Y-29889047D02*
X5454819Y-29984285D01*
X5454819Y-28603333D02*
X5454819Y-29174761D01*
X5454819Y-28889047D02*
X4454819Y-28889047D01*
X4454819Y-28889047D02*
X4597676Y-28984285D01*
X4597676Y-28984285D02*
X4692914Y-29079523D01*
X4692914Y-29079523D02*
X4740533Y-29174761D01*
X27238095Y193180D02*
X27809523Y193180D01*
X27523809Y-806819D02*
X27523809Y193180D01*
X28142857Y-806819D02*
X28142857Y193180D01*
X28142857Y193180D02*
X28523809Y193180D01*
X28523809Y193180D02*
X28619047Y145561D01*
X28619047Y145561D02*
X28666666Y97942D01*
X28666666Y97942D02*
X28714285Y2704D01*
X28714285Y2704D02*
X28714285Y-140152D01*
X28714285Y-140152D02*
X28666666Y-235390D01*
X28666666Y-235390D02*
X28619047Y-283009D01*
X28619047Y-283009D02*
X28523809Y-330628D01*
X28523809Y-330628D02*
X28142857Y-330628D01*
X29666666Y-806819D02*
X29095238Y-806819D01*
X29380952Y-806819D02*
X29380952Y193180D01*
X29380952Y193180D02*
X29285714Y50323D01*
X29285714Y50323D02*
X29190476Y-44914D01*
X29190476Y-44914D02*
X29095238Y-92533D01*
X25166666Y-4204819D02*
X25738094Y-4204819D01*
X25452380Y-5204819D02*
X25452380Y-4204819D01*
X26452380Y-5157200D02*
X26357142Y-5204819D01*
X26357142Y-5204819D02*
X26166666Y-5204819D01*
X26166666Y-5204819D02*
X26071428Y-5157200D01*
X26071428Y-5157200D02*
X26023809Y-5061961D01*
X26023809Y-5061961D02*
X26023809Y-4681009D01*
X26023809Y-4681009D02*
X26071428Y-4585771D01*
X26071428Y-4585771D02*
X26166666Y-4538152D01*
X26166666Y-4538152D02*
X26357142Y-4538152D01*
X26357142Y-4538152D02*
X26452380Y-4585771D01*
X26452380Y-4585771D02*
X26499999Y-4681009D01*
X26499999Y-4681009D02*
X26499999Y-4776247D01*
X26499999Y-4776247D02*
X26023809Y-4871485D01*
X26880952Y-5157200D02*
X26976190Y-5204819D01*
X26976190Y-5204819D02*
X27166666Y-5204819D01*
X27166666Y-5204819D02*
X27261904Y-5157200D01*
X27261904Y-5157200D02*
X27309523Y-5061961D01*
X27309523Y-5061961D02*
X27309523Y-5014342D01*
X27309523Y-5014342D02*
X27261904Y-4919104D01*
X27261904Y-4919104D02*
X27166666Y-4871485D01*
X27166666Y-4871485D02*
X27023809Y-4871485D01*
X27023809Y-4871485D02*
X26928571Y-4823866D01*
X26928571Y-4823866D02*
X26880952Y-4728628D01*
X26880952Y-4728628D02*
X26880952Y-4681009D01*
X26880952Y-4681009D02*
X26928571Y-4585771D01*
X26928571Y-4585771D02*
X27023809Y-4538152D01*
X27023809Y-4538152D02*
X27166666Y-4538152D01*
X27166666Y-4538152D02*
X27261904Y-4585771D01*
X27595238Y-4538152D02*
X27976190Y-4538152D01*
X27738095Y-4204819D02*
X27738095Y-5061961D01*
X27738095Y-5061961D02*
X27785714Y-5157200D01*
X27785714Y-5157200D02*
X27880952Y-5204819D01*
X27880952Y-5204819D02*
X27976190Y-5204819D01*
X28309524Y-5204819D02*
X28309524Y-4204819D01*
X28309524Y-4204819D02*
X28690476Y-4204819D01*
X28690476Y-4204819D02*
X28785714Y-4252438D01*
X28785714Y-4252438D02*
X28833333Y-4300057D01*
X28833333Y-4300057D02*
X28880952Y-4395295D01*
X28880952Y-4395295D02*
X28880952Y-4538152D01*
X28880952Y-4538152D02*
X28833333Y-4633390D01*
X28833333Y-4633390D02*
X28785714Y-4681009D01*
X28785714Y-4681009D02*
X28690476Y-4728628D01*
X28690476Y-4728628D02*
X28309524Y-4728628D01*
X29452381Y-5204819D02*
X29357143Y-5157200D01*
X29357143Y-5157200D02*
X29309524Y-5109580D01*
X29309524Y-5109580D02*
X29261905Y-5014342D01*
X29261905Y-5014342D02*
X29261905Y-4728628D01*
X29261905Y-4728628D02*
X29309524Y-4633390D01*
X29309524Y-4633390D02*
X29357143Y-4585771D01*
X29357143Y-4585771D02*
X29452381Y-4538152D01*
X29452381Y-4538152D02*
X29595238Y-4538152D01*
X29595238Y-4538152D02*
X29690476Y-4585771D01*
X29690476Y-4585771D02*
X29738095Y-4633390D01*
X29738095Y-4633390D02*
X29785714Y-4728628D01*
X29785714Y-4728628D02*
X29785714Y-5014342D01*
X29785714Y-5014342D02*
X29738095Y-5109580D01*
X29738095Y-5109580D02*
X29690476Y-5157200D01*
X29690476Y-5157200D02*
X29595238Y-5204819D01*
X29595238Y-5204819D02*
X29452381Y-5204819D01*
X30214286Y-5204819D02*
X30214286Y-4538152D01*
X30214286Y-4204819D02*
X30166667Y-4252438D01*
X30166667Y-4252438D02*
X30214286Y-4300057D01*
X30214286Y-4300057D02*
X30261905Y-4252438D01*
X30261905Y-4252438D02*
X30214286Y-4204819D01*
X30214286Y-4204819D02*
X30214286Y-4300057D01*
X30690476Y-4538152D02*
X30690476Y-5204819D01*
X30690476Y-4633390D02*
X30738095Y-4585771D01*
X30738095Y-4585771D02*
X30833333Y-4538152D01*
X30833333Y-4538152D02*
X30976190Y-4538152D01*
X30976190Y-4538152D02*
X31071428Y-4585771D01*
X31071428Y-4585771D02*
X31119047Y-4681009D01*
X31119047Y-4681009D02*
X31119047Y-5204819D01*
X31452381Y-4538152D02*
X31833333Y-4538152D01*
X31595238Y-4204819D02*
X31595238Y-5061961D01*
X31595238Y-5061961D02*
X31642857Y-5157200D01*
X31642857Y-5157200D02*
X31738095Y-5204819D01*
X31738095Y-5204819D02*
X31833333Y-5204819D01*
X27238095Y195180D02*
X27809523Y195180D01*
X27523809Y-804819D02*
X27523809Y195180D01*
X28142857Y-804819D02*
X28142857Y195180D01*
X28142857Y195180D02*
X28523809Y195180D01*
X28523809Y195180D02*
X28619047Y147561D01*
X28619047Y147561D02*
X28666666Y99942D01*
X28666666Y99942D02*
X28714285Y4704D01*
X28714285Y4704D02*
X28714285Y-138152D01*
X28714285Y-138152D02*
X28666666Y-233390D01*
X28666666Y-233390D02*
X28619047Y-281009D01*
X28619047Y-281009D02*
X28523809Y-328628D01*
X28523809Y-328628D02*
X28142857Y-328628D01*
X29666666Y-804819D02*
X29095238Y-804819D01*
X29380952Y-804819D02*
X29380952Y195180D01*
X29380952Y195180D02*
X29285714Y52323D01*
X29285714Y52323D02*
X29190476Y-42914D01*
X29190476Y-42914D02*
X29095238Y-90533D01*
X25833333Y-25929580D02*
X25785714Y-25977200D01*
X25785714Y-25977200D02*
X25642857Y-26024819D01*
X25642857Y-26024819D02*
X25547619Y-26024819D01*
X25547619Y-26024819D02*
X25404762Y-25977200D01*
X25404762Y-25977200D02*
X25309524Y-25881961D01*
X25309524Y-25881961D02*
X25261905Y-25786723D01*
X25261905Y-25786723D02*
X25214286Y-25596247D01*
X25214286Y-25596247D02*
X25214286Y-25453390D01*
X25214286Y-25453390D02*
X25261905Y-25262914D01*
X25261905Y-25262914D02*
X25309524Y-25167676D01*
X25309524Y-25167676D02*
X25404762Y-25072438D01*
X25404762Y-25072438D02*
X25547619Y-25024819D01*
X25547619Y-25024819D02*
X25642857Y-25024819D01*
X25642857Y-25024819D02*
X25785714Y-25072438D01*
X25785714Y-25072438D02*
X25833333Y-25120057D01*
X26309524Y-26024819D02*
X26500000Y-26024819D01*
X26500000Y-26024819D02*
X26595238Y-25977200D01*
X26595238Y-25977200D02*
X26642857Y-25929580D01*
X26642857Y-25929580D02*
X26738095Y-25786723D01*
X26738095Y-25786723D02*
X26785714Y-25596247D01*
X26785714Y-25596247D02*
X26785714Y-25215295D01*
X26785714Y-25215295D02*
X26738095Y-25120057D01*
X26738095Y-25120057D02*
X26690476Y-25072438D01*
X26690476Y-25072438D02*
X26595238Y-25024819D01*
X26595238Y-25024819D02*
X26404762Y-25024819D01*
X26404762Y-25024819D02*
X26309524Y-25072438D01*
X26309524Y-25072438D02*
X26261905Y-25120057D01*
X26261905Y-25120057D02*
X26214286Y-25215295D01*
X26214286Y-25215295D02*
X26214286Y-25453390D01*
X26214286Y-25453390D02*
X26261905Y-25548628D01*
X26261905Y-25548628D02*
X26309524Y-25596247D01*
X26309524Y-25596247D02*
X26404762Y-25643866D01*
X26404762Y-25643866D02*
X26595238Y-25643866D01*
X26595238Y-25643866D02*
X26690476Y-25596247D01*
X26690476Y-25596247D02*
X26738095Y-25548628D01*
X26738095Y-25548628D02*
X26785714Y-25453390D01*
X24452380Y-28884819D02*
X23880952Y-28884819D01*
X24166666Y-28884819D02*
X24166666Y-27884819D01*
X24166666Y-27884819D02*
X24071428Y-28027676D01*
X24071428Y-28027676D02*
X23976190Y-28122914D01*
X23976190Y-28122914D02*
X23880952Y-28170533D01*
X25071428Y-27884819D02*
X25166666Y-27884819D01*
X25166666Y-27884819D02*
X25261904Y-27932438D01*
X25261904Y-27932438D02*
X25309523Y-27980057D01*
X25309523Y-27980057D02*
X25357142Y-28075295D01*
X25357142Y-28075295D02*
X25404761Y-28265771D01*
X25404761Y-28265771D02*
X25404761Y-28503866D01*
X25404761Y-28503866D02*
X25357142Y-28694342D01*
X25357142Y-28694342D02*
X25309523Y-28789580D01*
X25309523Y-28789580D02*
X25261904Y-28837200D01*
X25261904Y-28837200D02*
X25166666Y-28884819D01*
X25166666Y-28884819D02*
X25071428Y-28884819D01*
X25071428Y-28884819D02*
X24976190Y-28837200D01*
X24976190Y-28837200D02*
X24928571Y-28789580D01*
X24928571Y-28789580D02*
X24880952Y-28694342D01*
X24880952Y-28694342D02*
X24833333Y-28503866D01*
X24833333Y-28503866D02*
X24833333Y-28265771D01*
X24833333Y-28265771D02*
X24880952Y-28075295D01*
X24880952Y-28075295D02*
X24928571Y-27980057D01*
X24928571Y-27980057D02*
X24976190Y-27932438D01*
X24976190Y-27932438D02*
X25071428Y-27884819D01*
X26023809Y-27884819D02*
X26119047Y-27884819D01*
X26119047Y-27884819D02*
X26214285Y-27932438D01*
X26214285Y-27932438D02*
X26261904Y-27980057D01*
X26261904Y-27980057D02*
X26309523Y-28075295D01*
X26309523Y-28075295D02*
X26357142Y-28265771D01*
X26357142Y-28265771D02*
X26357142Y-28503866D01*
X26357142Y-28503866D02*
X26309523Y-28694342D01*
X26309523Y-28694342D02*
X26261904Y-28789580D01*
X26261904Y-28789580D02*
X26214285Y-28837200D01*
X26214285Y-28837200D02*
X26119047Y-28884819D01*
X26119047Y-28884819D02*
X26023809Y-28884819D01*
X26023809Y-28884819D02*
X25928571Y-28837200D01*
X25928571Y-28837200D02*
X25880952Y-28789580D01*
X25880952Y-28789580D02*
X25833333Y-28694342D01*
X25833333Y-28694342D02*
X25785714Y-28503866D01*
X25785714Y-28503866D02*
X25785714Y-28265771D01*
X25785714Y-28265771D02*
X25833333Y-28075295D01*
X25833333Y-28075295D02*
X25880952Y-27980057D01*
X25880952Y-27980057D02*
X25928571Y-27932438D01*
X25928571Y-27932438D02*
X26023809Y-27884819D01*
X26785714Y-28218152D02*
X26785714Y-28884819D01*
X26785714Y-28313390D02*
X26833333Y-28265771D01*
X26833333Y-28265771D02*
X26928571Y-28218152D01*
X26928571Y-28218152D02*
X27071428Y-28218152D01*
X27071428Y-28218152D02*
X27166666Y-28265771D01*
X27166666Y-28265771D02*
X27214285Y-28361009D01*
X27214285Y-28361009D02*
X27214285Y-28884819D01*
X28023809Y-28361009D02*
X27690476Y-28361009D01*
X27690476Y-28884819D02*
X27690476Y-27884819D01*
X27690476Y-27884819D02*
X28166666Y-27884819D01*
D11*
X25933333Y-27143832D02*
X25914285Y-27162880D01*
X25914285Y-27162880D02*
X25857143Y-27181927D01*
X25857143Y-27181927D02*
X25819047Y-27181927D01*
X25819047Y-27181927D02*
X25761904Y-27162880D01*
X25761904Y-27162880D02*
X25723809Y-27124784D01*
X25723809Y-27124784D02*
X25704762Y-27086689D01*
X25704762Y-27086689D02*
X25685714Y-27010499D01*
X25685714Y-27010499D02*
X25685714Y-26953356D01*
X25685714Y-26953356D02*
X25704762Y-26877165D01*
X25704762Y-26877165D02*
X25723809Y-26839070D01*
X25723809Y-26839070D02*
X25761904Y-26800975D01*
X25761904Y-26800975D02*
X25819047Y-26781927D01*
X25819047Y-26781927D02*
X25857143Y-26781927D01*
X25857143Y-26781927D02*
X25914285Y-26800975D01*
X25914285Y-26800975D02*
X25933333Y-26820022D01*
X26123809Y-27181927D02*
X26200000Y-27181927D01*
X26200000Y-27181927D02*
X26238095Y-27162880D01*
X26238095Y-27162880D02*
X26257143Y-27143832D01*
X26257143Y-27143832D02*
X26295238Y-27086689D01*
X26295238Y-27086689D02*
X26314285Y-27010499D01*
X26314285Y-27010499D02*
X26314285Y-26858118D01*
X26314285Y-26858118D02*
X26295238Y-26820022D01*
X26295238Y-26820022D02*
X26276190Y-26800975D01*
X26276190Y-26800975D02*
X26238095Y-26781927D01*
X26238095Y-26781927D02*
X26161904Y-26781927D01*
X26161904Y-26781927D02*
X26123809Y-26800975D01*
X26123809Y-26800975D02*
X26104762Y-26820022D01*
X26104762Y-26820022D02*
X26085714Y-26858118D01*
X26085714Y-26858118D02*
X26085714Y-26953356D01*
X26085714Y-26953356D02*
X26104762Y-26991451D01*
X26104762Y-26991451D02*
X26123809Y-27010499D01*
X26123809Y-27010499D02*
X26161904Y-27029546D01*
X26161904Y-27029546D02*
X26238095Y-27029546D01*
X26238095Y-27029546D02*
X26276190Y-27010499D01*
X26276190Y-27010499D02*
X26295238Y-26991451D01*
X26295238Y-26991451D02*
X26314285Y-26953356D01*
D10*
X1261904Y-16319580D02*
X1214285Y-16367200D01*
X1214285Y-16367200D02*
X1071428Y-16414819D01*
X1071428Y-16414819D02*
X976190Y-16414819D01*
X976190Y-16414819D02*
X833333Y-16367200D01*
X833333Y-16367200D02*
X738095Y-16271961D01*
X738095Y-16271961D02*
X690476Y-16176723D01*
X690476Y-16176723D02*
X642857Y-15986247D01*
X642857Y-15986247D02*
X642857Y-15843390D01*
X642857Y-15843390D02*
X690476Y-15652914D01*
X690476Y-15652914D02*
X738095Y-15557676D01*
X738095Y-15557676D02*
X833333Y-15462438D01*
X833333Y-15462438D02*
X976190Y-15414819D01*
X976190Y-15414819D02*
X1071428Y-15414819D01*
X1071428Y-15414819D02*
X1214285Y-15462438D01*
X1214285Y-15462438D02*
X1261904Y-15510057D01*
X1833333Y-16414819D02*
X1738095Y-16367200D01*
X1738095Y-16367200D02*
X1690476Y-16319580D01*
X1690476Y-16319580D02*
X1642857Y-16224342D01*
X1642857Y-16224342D02*
X1642857Y-15938628D01*
X1642857Y-15938628D02*
X1690476Y-15843390D01*
X1690476Y-15843390D02*
X1738095Y-15795771D01*
X1738095Y-15795771D02*
X1833333Y-15748152D01*
X1833333Y-15748152D02*
X1976190Y-15748152D01*
X1976190Y-15748152D02*
X2071428Y-15795771D01*
X2071428Y-15795771D02*
X2119047Y-15843390D01*
X2119047Y-15843390D02*
X2166666Y-15938628D01*
X2166666Y-15938628D02*
X2166666Y-16224342D01*
X2166666Y-16224342D02*
X2119047Y-16319580D01*
X2119047Y-16319580D02*
X2071428Y-16367200D01*
X2071428Y-16367200D02*
X1976190Y-16414819D01*
X1976190Y-16414819D02*
X1833333Y-16414819D01*
X2595238Y-15748152D02*
X2595238Y-16414819D01*
X2595238Y-15843390D02*
X2642857Y-15795771D01*
X2642857Y-15795771D02*
X2738095Y-15748152D01*
X2738095Y-15748152D02*
X2880952Y-15748152D01*
X2880952Y-15748152D02*
X2976190Y-15795771D01*
X2976190Y-15795771D02*
X3023809Y-15891009D01*
X3023809Y-15891009D02*
X3023809Y-16414819D01*
X3500000Y-15748152D02*
X3500000Y-16414819D01*
X3500000Y-15843390D02*
X3547619Y-15795771D01*
X3547619Y-15795771D02*
X3642857Y-15748152D01*
X3642857Y-15748152D02*
X3785714Y-15748152D01*
X3785714Y-15748152D02*
X3880952Y-15795771D01*
X3880952Y-15795771D02*
X3928571Y-15891009D01*
X3928571Y-15891009D02*
X3928571Y-16414819D01*
X4166667Y-16510057D02*
X4928571Y-16510057D01*
X5357143Y-15414819D02*
X5452381Y-15414819D01*
X5452381Y-15414819D02*
X5547619Y-15462438D01*
X5547619Y-15462438D02*
X5595238Y-15510057D01*
X5595238Y-15510057D02*
X5642857Y-15605295D01*
X5642857Y-15605295D02*
X5690476Y-15795771D01*
X5690476Y-15795771D02*
X5690476Y-16033866D01*
X5690476Y-16033866D02*
X5642857Y-16224342D01*
X5642857Y-16224342D02*
X5595238Y-16319580D01*
X5595238Y-16319580D02*
X5547619Y-16367200D01*
X5547619Y-16367200D02*
X5452381Y-16414819D01*
X5452381Y-16414819D02*
X5357143Y-16414819D01*
X5357143Y-16414819D02*
X5261905Y-16367200D01*
X5261905Y-16367200D02*
X5214286Y-16319580D01*
X5214286Y-16319580D02*
X5166667Y-16224342D01*
X5166667Y-16224342D02*
X5119048Y-16033866D01*
X5119048Y-16033866D02*
X5119048Y-15795771D01*
X5119048Y-15795771D02*
X5166667Y-15605295D01*
X5166667Y-15605295D02*
X5214286Y-15510057D01*
X5214286Y-15510057D02*
X5261905Y-15462438D01*
X5261905Y-15462438D02*
X5357143Y-15414819D01*
X6642857Y-16414819D02*
X6071429Y-16414819D01*
X6357143Y-16414819D02*
X6357143Y-15414819D01*
X6357143Y-15414819D02*
X6261905Y-15557676D01*
X6261905Y-15557676D02*
X6166667Y-15652914D01*
X6166667Y-15652914D02*
X6071429Y-15700533D01*
X6976191Y-16414819D02*
X7500000Y-15748152D01*
X6976191Y-15748152D02*
X7500000Y-16414819D01*
X8071429Y-15414819D02*
X8166667Y-15414819D01*
X8166667Y-15414819D02*
X8261905Y-15462438D01*
X8261905Y-15462438D02*
X8309524Y-15510057D01*
X8309524Y-15510057D02*
X8357143Y-15605295D01*
X8357143Y-15605295D02*
X8404762Y-15795771D01*
X8404762Y-15795771D02*
X8404762Y-16033866D01*
X8404762Y-16033866D02*
X8357143Y-16224342D01*
X8357143Y-16224342D02*
X8309524Y-16319580D01*
X8309524Y-16319580D02*
X8261905Y-16367200D01*
X8261905Y-16367200D02*
X8166667Y-16414819D01*
X8166667Y-16414819D02*
X8071429Y-16414819D01*
X8071429Y-16414819D02*
X7976191Y-16367200D01*
X7976191Y-16367200D02*
X7928572Y-16319580D01*
X7928572Y-16319580D02*
X7880953Y-16224342D01*
X7880953Y-16224342D02*
X7833334Y-16033866D01*
X7833334Y-16033866D02*
X7833334Y-15795771D01*
X7833334Y-15795771D02*
X7880953Y-15605295D01*
X7880953Y-15605295D02*
X7928572Y-15510057D01*
X7928572Y-15510057D02*
X7976191Y-15462438D01*
X7976191Y-15462438D02*
X8071429Y-15414819D01*
X8738096Y-15414819D02*
X9357143Y-15414819D01*
X9357143Y-15414819D02*
X9023810Y-15795771D01*
X9023810Y-15795771D02*
X9166667Y-15795771D01*
X9166667Y-15795771D02*
X9261905Y-15843390D01*
X9261905Y-15843390D02*
X9309524Y-15891009D01*
X9309524Y-15891009D02*
X9357143Y-15986247D01*
X9357143Y-15986247D02*
X9357143Y-16224342D01*
X9357143Y-16224342D02*
X9309524Y-16319580D01*
X9309524Y-16319580D02*
X9261905Y-16367200D01*
X9261905Y-16367200D02*
X9166667Y-16414819D01*
X9166667Y-16414819D02*
X8880953Y-16414819D01*
X8880953Y-16414819D02*
X8785715Y-16367200D01*
X8785715Y-16367200D02*
X8738096Y-16319580D01*
X4454819Y-11373333D02*
X5169104Y-11373333D01*
X5169104Y-11373333D02*
X5311961Y-11420952D01*
X5311961Y-11420952D02*
X5407200Y-11516190D01*
X5407200Y-11516190D02*
X5454819Y-11659047D01*
X5454819Y-11659047D02*
X5454819Y-11754285D01*
X4454819Y-10420952D02*
X4454819Y-10897142D01*
X4454819Y-10897142D02*
X4931009Y-10944761D01*
X4931009Y-10944761D02*
X4883390Y-10897142D01*
X4883390Y-10897142D02*
X4835771Y-10801904D01*
X4835771Y-10801904D02*
X4835771Y-10563809D01*
X4835771Y-10563809D02*
X4883390Y-10468571D01*
X4883390Y-10468571D02*
X4931009Y-10420952D01*
X4931009Y-10420952D02*
X5026247Y-10373333D01*
X5026247Y-10373333D02*
X5264342Y-10373333D01*
X5264342Y-10373333D02*
X5359580Y-10420952D01*
X5359580Y-10420952D02*
X5407200Y-10468571D01*
X5407200Y-10468571D02*
X5454819Y-10563809D01*
X5454819Y-10563809D02*
X5454819Y-10801904D01*
X5454819Y-10801904D02*
X5407200Y-10897142D01*
X5407200Y-10897142D02*
X5359580Y-10944761D01*
X39238095Y193180D02*
X39809523Y193180D01*
X39523809Y-806819D02*
X39523809Y193180D01*
X40142857Y-806819D02*
X40142857Y193180D01*
X40142857Y193180D02*
X40523809Y193180D01*
X40523809Y193180D02*
X40619047Y145561D01*
X40619047Y145561D02*
X40666666Y97942D01*
X40666666Y97942D02*
X40714285Y2704D01*
X40714285Y2704D02*
X40714285Y-140152D01*
X40714285Y-140152D02*
X40666666Y-235390D01*
X40666666Y-235390D02*
X40619047Y-283009D01*
X40619047Y-283009D02*
X40523809Y-330628D01*
X40523809Y-330628D02*
X40142857Y-330628D01*
X41571428Y-140152D02*
X41571428Y-806819D01*
X41333333Y240800D02*
X41095238Y-473485D01*
X41095238Y-473485D02*
X41714285Y-473485D01*
X37166666Y-4204819D02*
X37738094Y-4204819D01*
X37452380Y-5204819D02*
X37452380Y-4204819D01*
X38452380Y-5157200D02*
X38357142Y-5204819D01*
X38357142Y-5204819D02*
X38166666Y-5204819D01*
X38166666Y-5204819D02*
X38071428Y-5157200D01*
X38071428Y-5157200D02*
X38023809Y-5061961D01*
X38023809Y-5061961D02*
X38023809Y-4681009D01*
X38023809Y-4681009D02*
X38071428Y-4585771D01*
X38071428Y-4585771D02*
X38166666Y-4538152D01*
X38166666Y-4538152D02*
X38357142Y-4538152D01*
X38357142Y-4538152D02*
X38452380Y-4585771D01*
X38452380Y-4585771D02*
X38499999Y-4681009D01*
X38499999Y-4681009D02*
X38499999Y-4776247D01*
X38499999Y-4776247D02*
X38023809Y-4871485D01*
X38880952Y-5157200D02*
X38976190Y-5204819D01*
X38976190Y-5204819D02*
X39166666Y-5204819D01*
X39166666Y-5204819D02*
X39261904Y-5157200D01*
X39261904Y-5157200D02*
X39309523Y-5061961D01*
X39309523Y-5061961D02*
X39309523Y-5014342D01*
X39309523Y-5014342D02*
X39261904Y-4919104D01*
X39261904Y-4919104D02*
X39166666Y-4871485D01*
X39166666Y-4871485D02*
X39023809Y-4871485D01*
X39023809Y-4871485D02*
X38928571Y-4823866D01*
X38928571Y-4823866D02*
X38880952Y-4728628D01*
X38880952Y-4728628D02*
X38880952Y-4681009D01*
X38880952Y-4681009D02*
X38928571Y-4585771D01*
X38928571Y-4585771D02*
X39023809Y-4538152D01*
X39023809Y-4538152D02*
X39166666Y-4538152D01*
X39166666Y-4538152D02*
X39261904Y-4585771D01*
X39595238Y-4538152D02*
X39976190Y-4538152D01*
X39738095Y-4204819D02*
X39738095Y-5061961D01*
X39738095Y-5061961D02*
X39785714Y-5157200D01*
X39785714Y-5157200D02*
X39880952Y-5204819D01*
X39880952Y-5204819D02*
X39976190Y-5204819D01*
X40309524Y-5204819D02*
X40309524Y-4204819D01*
X40309524Y-4204819D02*
X40690476Y-4204819D01*
X40690476Y-4204819D02*
X40785714Y-4252438D01*
X40785714Y-4252438D02*
X40833333Y-4300057D01*
X40833333Y-4300057D02*
X40880952Y-4395295D01*
X40880952Y-4395295D02*
X40880952Y-4538152D01*
X40880952Y-4538152D02*
X40833333Y-4633390D01*
X40833333Y-4633390D02*
X40785714Y-4681009D01*
X40785714Y-4681009D02*
X40690476Y-4728628D01*
X40690476Y-4728628D02*
X40309524Y-4728628D01*
X41452381Y-5204819D02*
X41357143Y-5157200D01*
X41357143Y-5157200D02*
X41309524Y-5109580D01*
X41309524Y-5109580D02*
X41261905Y-5014342D01*
X41261905Y-5014342D02*
X41261905Y-4728628D01*
X41261905Y-4728628D02*
X41309524Y-4633390D01*
X41309524Y-4633390D02*
X41357143Y-4585771D01*
X41357143Y-4585771D02*
X41452381Y-4538152D01*
X41452381Y-4538152D02*
X41595238Y-4538152D01*
X41595238Y-4538152D02*
X41690476Y-4585771D01*
X41690476Y-4585771D02*
X41738095Y-4633390D01*
X41738095Y-4633390D02*
X41785714Y-4728628D01*
X41785714Y-4728628D02*
X41785714Y-5014342D01*
X41785714Y-5014342D02*
X41738095Y-5109580D01*
X41738095Y-5109580D02*
X41690476Y-5157200D01*
X41690476Y-5157200D02*
X41595238Y-5204819D01*
X41595238Y-5204819D02*
X41452381Y-5204819D01*
X42214286Y-5204819D02*
X42214286Y-4538152D01*
X42214286Y-4204819D02*
X42166667Y-4252438D01*
X42166667Y-4252438D02*
X42214286Y-4300057D01*
X42214286Y-4300057D02*
X42261905Y-4252438D01*
X42261905Y-4252438D02*
X42214286Y-4204819D01*
X42214286Y-4204819D02*
X42214286Y-4300057D01*
X42690476Y-4538152D02*
X42690476Y-5204819D01*
X42690476Y-4633390D02*
X42738095Y-4585771D01*
X42738095Y-4585771D02*
X42833333Y-4538152D01*
X42833333Y-4538152D02*
X42976190Y-4538152D01*
X42976190Y-4538152D02*
X43071428Y-4585771D01*
X43071428Y-4585771D02*
X43119047Y-4681009D01*
X43119047Y-4681009D02*
X43119047Y-5204819D01*
X43452381Y-4538152D02*
X43833333Y-4538152D01*
X43595238Y-4204819D02*
X43595238Y-5061961D01*
X43595238Y-5061961D02*
X43642857Y-5157200D01*
X43642857Y-5157200D02*
X43738095Y-5204819D01*
X43738095Y-5204819D02*
X43833333Y-5204819D01*
X39238095Y195180D02*
X39809523Y195180D01*
X39523809Y-804819D02*
X39523809Y195180D01*
X40142857Y-804819D02*
X40142857Y195180D01*
X40142857Y195180D02*
X40523809Y195180D01*
X40523809Y195180D02*
X40619047Y147561D01*
X40619047Y147561D02*
X40666666Y99942D01*
X40666666Y99942D02*
X40714285Y4704D01*
X40714285Y4704D02*
X40714285Y-138152D01*
X40714285Y-138152D02*
X40666666Y-233390D01*
X40666666Y-233390D02*
X40619047Y-281009D01*
X40619047Y-281009D02*
X40523809Y-328628D01*
X40523809Y-328628D02*
X40142857Y-328628D01*
X41571428Y-138152D02*
X41571428Y-804819D01*
X41333333Y242800D02*
X41095238Y-471485D01*
X41095238Y-471485D02*
X41714285Y-471485D01*
X32403333Y-15954819D02*
X32070000Y-15478628D01*
X31831905Y-15954819D02*
X31831905Y-14954819D01*
X31831905Y-14954819D02*
X32212857Y-14954819D01*
X32212857Y-14954819D02*
X32308095Y-15002438D01*
X32308095Y-15002438D02*
X32355714Y-15050057D01*
X32355714Y-15050057D02*
X32403333Y-15145295D01*
X32403333Y-15145295D02*
X32403333Y-15288152D01*
X32403333Y-15288152D02*
X32355714Y-15383390D01*
X32355714Y-15383390D02*
X32308095Y-15431009D01*
X32308095Y-15431009D02*
X32212857Y-15478628D01*
X32212857Y-15478628D02*
X31831905Y-15478628D01*
X32736667Y-14954819D02*
X33355714Y-14954819D01*
X33355714Y-14954819D02*
X33022381Y-15335771D01*
X33022381Y-15335771D02*
X33165238Y-15335771D01*
X33165238Y-15335771D02*
X33260476Y-15383390D01*
X33260476Y-15383390D02*
X33308095Y-15431009D01*
X33308095Y-15431009D02*
X33355714Y-15526247D01*
X33355714Y-15526247D02*
X33355714Y-15764342D01*
X33355714Y-15764342D02*
X33308095Y-15859580D01*
X33308095Y-15859580D02*
X33260476Y-15907200D01*
X33260476Y-15907200D02*
X33165238Y-15954819D01*
X33165238Y-15954819D02*
X32879524Y-15954819D01*
X32879524Y-15954819D02*
X32784286Y-15907200D01*
X32784286Y-15907200D02*
X32736667Y-15859580D01*
X34834761Y-15954819D02*
X34263333Y-15954819D01*
X34549047Y-15954819D02*
X34549047Y-14954819D01*
X34549047Y-14954819D02*
X34453809Y-15097676D01*
X34453809Y-15097676D02*
X34358571Y-15192914D01*
X34358571Y-15192914D02*
X34263333Y-15240533D01*
X35453809Y-14954819D02*
X35549047Y-14954819D01*
X35549047Y-14954819D02*
X35644285Y-15002438D01*
X35644285Y-15002438D02*
X35691904Y-15050057D01*
X35691904Y-15050057D02*
X35739523Y-15145295D01*
X35739523Y-15145295D02*
X35787142Y-15335771D01*
X35787142Y-15335771D02*
X35787142Y-15573866D01*
X35787142Y-15573866D02*
X35739523Y-15764342D01*
X35739523Y-15764342D02*
X35691904Y-15859580D01*
X35691904Y-15859580D02*
X35644285Y-15907200D01*
X35644285Y-15907200D02*
X35549047Y-15954819D01*
X35549047Y-15954819D02*
X35453809Y-15954819D01*
X35453809Y-15954819D02*
X35358571Y-15907200D01*
X35358571Y-15907200D02*
X35310952Y-15859580D01*
X35310952Y-15859580D02*
X35263333Y-15764342D01*
X35263333Y-15764342D02*
X35215714Y-15573866D01*
X35215714Y-15573866D02*
X35215714Y-15335771D01*
X35215714Y-15335771D02*
X35263333Y-15145295D01*
X35263333Y-15145295D02*
X35310952Y-15050057D01*
X35310952Y-15050057D02*
X35358571Y-15002438D01*
X35358571Y-15002438D02*
X35453809Y-14954819D01*
X36215714Y-15954819D02*
X36215714Y-14954819D01*
X36310952Y-15573866D02*
X36596666Y-15954819D01*
X36596666Y-15288152D02*
X36215714Y-15669104D01*
D11*
X33933333Y-15681927D02*
X33800000Y-15491451D01*
X33704762Y-15681927D02*
X33704762Y-15281927D01*
X33704762Y-15281927D02*
X33857143Y-15281927D01*
X33857143Y-15281927D02*
X33895238Y-15300975D01*
X33895238Y-15300975D02*
X33914285Y-15320022D01*
X33914285Y-15320022D02*
X33933333Y-15358118D01*
X33933333Y-15358118D02*
X33933333Y-15415260D01*
X33933333Y-15415260D02*
X33914285Y-15453356D01*
X33914285Y-15453356D02*
X33895238Y-15472403D01*
X33895238Y-15472403D02*
X33857143Y-15491451D01*
X33857143Y-15491451D02*
X33704762Y-15491451D01*
X34066666Y-15281927D02*
X34314285Y-15281927D01*
X34314285Y-15281927D02*
X34180952Y-15434308D01*
X34180952Y-15434308D02*
X34238095Y-15434308D01*
X34238095Y-15434308D02*
X34276190Y-15453356D01*
X34276190Y-15453356D02*
X34295238Y-15472403D01*
X34295238Y-15472403D02*
X34314285Y-15510499D01*
X34314285Y-15510499D02*
X34314285Y-15605737D01*
X34314285Y-15605737D02*
X34295238Y-15643832D01*
X34295238Y-15643832D02*
X34276190Y-15662880D01*
X34276190Y-15662880D02*
X34238095Y-15681927D01*
X34238095Y-15681927D02*
X34123809Y-15681927D01*
X34123809Y-15681927D02*
X34085714Y-15662880D01*
X34085714Y-15662880D02*
X34066666Y-15643832D01*
D10*
X43761905Y-524819D02*
X43761905Y475180D01*
X43761905Y475180D02*
X44000000Y475180D01*
X44000000Y475180D02*
X44142857Y427561D01*
X44142857Y427561D02*
X44238095Y332323D01*
X44238095Y332323D02*
X44285714Y237085D01*
X44285714Y237085D02*
X44333333Y46609D01*
X44333333Y46609D02*
X44333333Y-96247D01*
X44333333Y-96247D02*
X44285714Y-286723D01*
X44285714Y-286723D02*
X44238095Y-381961D01*
X44238095Y-381961D02*
X44142857Y-477200D01*
X44142857Y-477200D02*
X44000000Y-524819D01*
X44000000Y-524819D02*
X43761905Y-524819D01*
X45285714Y-524819D02*
X44714286Y-524819D01*
X45000000Y-524819D02*
X45000000Y475180D01*
X45000000Y475180D02*
X44904762Y332323D01*
X44904762Y332323D02*
X44809524Y237085D01*
X44809524Y237085D02*
X44714286Y189466D01*
X43857142Y-3384819D02*
X43380952Y-3384819D01*
X43380952Y-3384819D02*
X43380952Y-2384819D01*
X44190476Y-2861009D02*
X44523809Y-2861009D01*
X44666666Y-3384819D02*
X44190476Y-3384819D01*
X44190476Y-3384819D02*
X44190476Y-2384819D01*
X44190476Y-2384819D02*
X44666666Y-2384819D01*
X45095238Y-3384819D02*
X45095238Y-2384819D01*
X45095238Y-2384819D02*
X45333333Y-2384819D01*
X45333333Y-2384819D02*
X45476190Y-2432438D01*
X45476190Y-2432438D02*
X45571428Y-2527676D01*
X45571428Y-2527676D02*
X45619047Y-2622914D01*
X45619047Y-2622914D02*
X45666666Y-2813390D01*
X45666666Y-2813390D02*
X45666666Y-2956247D01*
X45666666Y-2956247D02*
X45619047Y-3146723D01*
X45619047Y-3146723D02*
X45571428Y-3241961D01*
X45571428Y-3241961D02*
X45476190Y-3337200D01*
X45476190Y-3337200D02*
X45333333Y-3384819D01*
X45333333Y-3384819D02*
X45095238Y-3384819D01*
D11*
X44204762Y-1681927D02*
X44204762Y-1281927D01*
X44204762Y-1281927D02*
X44300000Y-1281927D01*
X44300000Y-1281927D02*
X44357143Y-1300975D01*
X44357143Y-1300975D02*
X44395238Y-1339070D01*
X44395238Y-1339070D02*
X44414285Y-1377165D01*
X44414285Y-1377165D02*
X44433333Y-1453356D01*
X44433333Y-1453356D02*
X44433333Y-1510499D01*
X44433333Y-1510499D02*
X44414285Y-1586689D01*
X44414285Y-1586689D02*
X44395238Y-1624784D01*
X44395238Y-1624784D02*
X44357143Y-1662880D01*
X44357143Y-1662880D02*
X44300000Y-1681927D01*
X44300000Y-1681927D02*
X44204762Y-1681927D01*
X44814285Y-1681927D02*
X44585714Y-1681927D01*
X44700000Y-1681927D02*
X44700000Y-1281927D01*
X44700000Y-1281927D02*
X44661904Y-1339070D01*
X44661904Y-1339070D02*
X44623809Y-1377165D01*
X44623809Y-1377165D02*
X44585714Y-1396213D01*
D10*
X25238095Y-11054819D02*
X25238095Y-11864342D01*
X25238095Y-11864342D02*
X25285714Y-11959580D01*
X25285714Y-11959580D02*
X25333333Y-12007200D01*
X25333333Y-12007200D02*
X25428571Y-12054819D01*
X25428571Y-12054819D02*
X25619047Y-12054819D01*
X25619047Y-12054819D02*
X25714285Y-12007200D01*
X25714285Y-12007200D02*
X25761904Y-11959580D01*
X25761904Y-11959580D02*
X25809523Y-11864342D01*
X25809523Y-11864342D02*
X25809523Y-11054819D01*
X26809523Y-12054819D02*
X26238095Y-12054819D01*
X26523809Y-12054819D02*
X26523809Y-11054819D01*
X26523809Y-11054819D02*
X26428571Y-11197676D01*
X26428571Y-11197676D02*
X26333333Y-11292914D01*
X26333333Y-11292914D02*
X26238095Y-11340533D01*
X20023809Y-26807200D02*
X20166666Y-26854819D01*
X20166666Y-26854819D02*
X20404761Y-26854819D01*
X20404761Y-26854819D02*
X20499999Y-26807200D01*
X20499999Y-26807200D02*
X20547618Y-26759580D01*
X20547618Y-26759580D02*
X20595237Y-26664342D01*
X20595237Y-26664342D02*
X20595237Y-26569104D01*
X20595237Y-26569104D02*
X20547618Y-26473866D01*
X20547618Y-26473866D02*
X20499999Y-26426247D01*
X20499999Y-26426247D02*
X20404761Y-26378628D01*
X20404761Y-26378628D02*
X20214285Y-26331009D01*
X20214285Y-26331009D02*
X20119047Y-26283390D01*
X20119047Y-26283390D02*
X20071428Y-26235771D01*
X20071428Y-26235771D02*
X20023809Y-26140533D01*
X20023809Y-26140533D02*
X20023809Y-26045295D01*
X20023809Y-26045295D02*
X20071428Y-25950057D01*
X20071428Y-25950057D02*
X20119047Y-25902438D01*
X20119047Y-25902438D02*
X20214285Y-25854819D01*
X20214285Y-25854819D02*
X20452380Y-25854819D01*
X20452380Y-25854819D02*
X20595237Y-25902438D01*
X20880952Y-25854819D02*
X21452380Y-25854819D01*
X21166666Y-26854819D02*
X21166666Y-25854819D01*
X21785714Y-26854819D02*
X21785714Y-25854819D01*
X21785714Y-25854819D02*
X22119047Y-26569104D01*
X22119047Y-26569104D02*
X22452380Y-25854819D01*
X22452380Y-25854819D02*
X22452380Y-26854819D01*
X22833333Y-25854819D02*
X23452380Y-25854819D01*
X23452380Y-25854819D02*
X23119047Y-26235771D01*
X23119047Y-26235771D02*
X23261904Y-26235771D01*
X23261904Y-26235771D02*
X23357142Y-26283390D01*
X23357142Y-26283390D02*
X23404761Y-26331009D01*
X23404761Y-26331009D02*
X23452380Y-26426247D01*
X23452380Y-26426247D02*
X23452380Y-26664342D01*
X23452380Y-26664342D02*
X23404761Y-26759580D01*
X23404761Y-26759580D02*
X23357142Y-26807200D01*
X23357142Y-26807200D02*
X23261904Y-26854819D01*
X23261904Y-26854819D02*
X22976190Y-26854819D01*
X22976190Y-26854819D02*
X22880952Y-26807200D01*
X22880952Y-26807200D02*
X22833333Y-26759580D01*
X23833333Y-25950057D02*
X23880952Y-25902438D01*
X23880952Y-25902438D02*
X23976190Y-25854819D01*
X23976190Y-25854819D02*
X24214285Y-25854819D01*
X24214285Y-25854819D02*
X24309523Y-25902438D01*
X24309523Y-25902438D02*
X24357142Y-25950057D01*
X24357142Y-25950057D02*
X24404761Y-26045295D01*
X24404761Y-26045295D02*
X24404761Y-26140533D01*
X24404761Y-26140533D02*
X24357142Y-26283390D01*
X24357142Y-26283390D02*
X23785714Y-26854819D01*
X23785714Y-26854819D02*
X24404761Y-26854819D01*
X25357142Y-25902438D02*
X25261904Y-25854819D01*
X25261904Y-25854819D02*
X25119047Y-25854819D01*
X25119047Y-25854819D02*
X24976190Y-25902438D01*
X24976190Y-25902438D02*
X24880952Y-25997676D01*
X24880952Y-25997676D02*
X24833333Y-26092914D01*
X24833333Y-26092914D02*
X24785714Y-26283390D01*
X24785714Y-26283390D02*
X24785714Y-26426247D01*
X24785714Y-26426247D02*
X24833333Y-26616723D01*
X24833333Y-26616723D02*
X24880952Y-26711961D01*
X24880952Y-26711961D02*
X24976190Y-26807200D01*
X24976190Y-26807200D02*
X25119047Y-26854819D01*
X25119047Y-26854819D02*
X25214285Y-26854819D01*
X25214285Y-26854819D02*
X25357142Y-26807200D01*
X25357142Y-26807200D02*
X25404761Y-26759580D01*
X25404761Y-26759580D02*
X25404761Y-26426247D01*
X25404761Y-26426247D02*
X25214285Y-26426247D01*
X26023809Y-25854819D02*
X26119047Y-25854819D01*
X26119047Y-25854819D02*
X26214285Y-25902438D01*
X26214285Y-25902438D02*
X26261904Y-25950057D01*
X26261904Y-25950057D02*
X26309523Y-26045295D01*
X26309523Y-26045295D02*
X26357142Y-26235771D01*
X26357142Y-26235771D02*
X26357142Y-26473866D01*
X26357142Y-26473866D02*
X26309523Y-26664342D01*
X26309523Y-26664342D02*
X26261904Y-26759580D01*
X26261904Y-26759580D02*
X26214285Y-26807200D01*
X26214285Y-26807200D02*
X26119047Y-26854819D01*
X26119047Y-26854819D02*
X26023809Y-26854819D01*
X26023809Y-26854819D02*
X25928571Y-26807200D01*
X25928571Y-26807200D02*
X25880952Y-26759580D01*
X25880952Y-26759580D02*
X25833333Y-26664342D01*
X25833333Y-26664342D02*
X25785714Y-26473866D01*
X25785714Y-26473866D02*
X25785714Y-26235771D01*
X25785714Y-26235771D02*
X25833333Y-26045295D01*
X25833333Y-26045295D02*
X25880952Y-25950057D01*
X25880952Y-25950057D02*
X25928571Y-25902438D01*
X25928571Y-25902438D02*
X26023809Y-25854819D01*
X26690476Y-25854819D02*
X27357142Y-25854819D01*
X27357142Y-25854819D02*
X26928571Y-26854819D01*
X27928571Y-25854819D02*
X28023809Y-25854819D01*
X28023809Y-25854819D02*
X28119047Y-25902438D01*
X28119047Y-25902438D02*
X28166666Y-25950057D01*
X28166666Y-25950057D02*
X28214285Y-26045295D01*
X28214285Y-26045295D02*
X28261904Y-26235771D01*
X28261904Y-26235771D02*
X28261904Y-26473866D01*
X28261904Y-26473866D02*
X28214285Y-26664342D01*
X28214285Y-26664342D02*
X28166666Y-26759580D01*
X28166666Y-26759580D02*
X28119047Y-26807200D01*
X28119047Y-26807200D02*
X28023809Y-26854819D01*
X28023809Y-26854819D02*
X27928571Y-26854819D01*
X27928571Y-26854819D02*
X27833333Y-26807200D01*
X27833333Y-26807200D02*
X27785714Y-26759580D01*
X27785714Y-26759580D02*
X27738095Y-26664342D01*
X27738095Y-26664342D02*
X27690476Y-26473866D01*
X27690476Y-26473866D02*
X27690476Y-26235771D01*
X27690476Y-26235771D02*
X27738095Y-26045295D01*
X27738095Y-26045295D02*
X27785714Y-25950057D01*
X27785714Y-25950057D02*
X27833333Y-25902438D01*
X27833333Y-25902438D02*
X27928571Y-25854819D01*
X29261904Y-26854819D02*
X28928571Y-26378628D01*
X28690476Y-26854819D02*
X28690476Y-25854819D01*
X28690476Y-25854819D02*
X29071428Y-25854819D01*
X29071428Y-25854819D02*
X29166666Y-25902438D01*
X29166666Y-25902438D02*
X29214285Y-25950057D01*
X29214285Y-25950057D02*
X29261904Y-26045295D01*
X29261904Y-26045295D02*
X29261904Y-26188152D01*
X29261904Y-26188152D02*
X29214285Y-26283390D01*
X29214285Y-26283390D02*
X29166666Y-26331009D01*
X29166666Y-26331009D02*
X29071428Y-26378628D01*
X29071428Y-26378628D02*
X28690476Y-26378628D01*
X30023809Y-26331009D02*
X30166666Y-26378628D01*
X30166666Y-26378628D02*
X30214285Y-26426247D01*
X30214285Y-26426247D02*
X30261904Y-26521485D01*
X30261904Y-26521485D02*
X30261904Y-26664342D01*
X30261904Y-26664342D02*
X30214285Y-26759580D01*
X30214285Y-26759580D02*
X30166666Y-26807200D01*
X30166666Y-26807200D02*
X30071428Y-26854819D01*
X30071428Y-26854819D02*
X29690476Y-26854819D01*
X29690476Y-26854819D02*
X29690476Y-25854819D01*
X29690476Y-25854819D02*
X30023809Y-25854819D01*
X30023809Y-25854819D02*
X30119047Y-25902438D01*
X30119047Y-25902438D02*
X30166666Y-25950057D01*
X30166666Y-25950057D02*
X30214285Y-26045295D01*
X30214285Y-26045295D02*
X30214285Y-26140533D01*
X30214285Y-26140533D02*
X30166666Y-26235771D01*
X30166666Y-26235771D02*
X30119047Y-26283390D01*
X30119047Y-26283390D02*
X30023809Y-26331009D01*
X30023809Y-26331009D02*
X29690476Y-26331009D01*
X30547619Y-25854819D02*
X31119047Y-25854819D01*
X30833333Y-26854819D02*
X30833333Y-25854819D01*
X31880952Y-25854819D02*
X31690476Y-25854819D01*
X31690476Y-25854819D02*
X31595238Y-25902438D01*
X31595238Y-25902438D02*
X31547619Y-25950057D01*
X31547619Y-25950057D02*
X31452381Y-26092914D01*
X31452381Y-26092914D02*
X31404762Y-26283390D01*
X31404762Y-26283390D02*
X31404762Y-26664342D01*
X31404762Y-26664342D02*
X31452381Y-26759580D01*
X31452381Y-26759580D02*
X31500000Y-26807200D01*
X31500000Y-26807200D02*
X31595238Y-26854819D01*
X31595238Y-26854819D02*
X31785714Y-26854819D01*
X31785714Y-26854819D02*
X31880952Y-26807200D01*
X31880952Y-26807200D02*
X31928571Y-26759580D01*
X31928571Y-26759580D02*
X31976190Y-26664342D01*
X31976190Y-26664342D02*
X31976190Y-26426247D01*
X31976190Y-26426247D02*
X31928571Y-26331009D01*
X31928571Y-26331009D02*
X31880952Y-26283390D01*
X31880952Y-26283390D02*
X31785714Y-26235771D01*
X31785714Y-26235771D02*
X31595238Y-26235771D01*
X31595238Y-26235771D02*
X31500000Y-26283390D01*
X31500000Y-26283390D02*
X31452381Y-26331009D01*
X31452381Y-26331009D02*
X31404762Y-26426247D01*
X25238095Y-18454819D02*
X25238095Y-19264342D01*
X25238095Y-19264342D02*
X25285714Y-19359580D01*
X25285714Y-19359580D02*
X25333333Y-19407200D01*
X25333333Y-19407200D02*
X25428571Y-19454819D01*
X25428571Y-19454819D02*
X25619047Y-19454819D01*
X25619047Y-19454819D02*
X25714285Y-19407200D01*
X25714285Y-19407200D02*
X25761904Y-19359580D01*
X25761904Y-19359580D02*
X25809523Y-19264342D01*
X25809523Y-19264342D02*
X25809523Y-18454819D01*
X26809523Y-19454819D02*
X26238095Y-19454819D01*
X26523809Y-19454819D02*
X26523809Y-18454819D01*
X26523809Y-18454819D02*
X26428571Y-18597676D01*
X26428571Y-18597676D02*
X26333333Y-18692914D01*
X26333333Y-18692914D02*
X26238095Y-18740533D01*
D12*
%TO.C,C10*%
X21700000Y-10600000D02*
X23300000Y-10600000D01*
X21700000Y-11400000D02*
X21700000Y-10600000D01*
X23300000Y-10600000D02*
X23300000Y-11400000D01*
X23300000Y-11400000D02*
X21700000Y-11400000D01*
%TO.C,C3*%
X11200000Y-35600000D02*
X12800000Y-35600000D01*
X11200000Y-36400000D02*
X11200000Y-35600000D01*
X12800000Y-35600000D02*
X12800000Y-36400000D01*
X12800000Y-36400000D02*
X11200000Y-36400000D01*
%TO.C,J4*%
X62730000Y-11365000D02*
X63365000Y-10730000D01*
X62730000Y-20890000D02*
X62730000Y-11365000D01*
X63365000Y-10730000D02*
X65270000Y-10730000D01*
X65270000Y-10730000D02*
X65270000Y-20890000D01*
X65270000Y-20890000D02*
X62730000Y-20890000D01*
%TO.C,C2*%
X11200000Y-29600000D02*
X12800000Y-29600000D01*
X11200000Y-30400000D02*
X11200000Y-29600000D01*
X12800000Y-29600000D02*
X12800000Y-30400000D01*
X12800000Y-30400000D02*
X11200000Y-30400000D01*
%TO.C,SW2*%
X18400000Y-900000D02*
X24600000Y-900000D01*
X18400000Y-7100000D02*
X18400000Y-900000D01*
X24600000Y-900000D02*
X24600000Y-7100000D01*
X24600000Y-7100000D02*
X18400000Y-7100000D01*
X22950000Y-4000000D02*
G75*
G02*
X20050000Y-4000000I-1450000J0D01*
G01*
X20050000Y-4000000D02*
G75*
G02*
X22950000Y-4000000I1450000J0D01*
G01*
%TO.C,C1*%
X1600000Y-27200000D02*
X2400000Y-27200000D01*
X1600000Y-28800000D02*
X1600000Y-27200000D01*
X2400000Y-27200000D02*
X2400000Y-28800000D01*
X2400000Y-28800000D02*
X1600000Y-28800000D01*
%TO.C,R6*%
X54200000Y-1087500D02*
X55800000Y-1087500D01*
X54200000Y-1912500D02*
X54200000Y-1087500D01*
X55800000Y-1087500D02*
X55800000Y-1912500D01*
X55800000Y-1912500D02*
X54200000Y-1912500D01*
%TO.C,C7*%
X17600000Y-18200000D02*
X18400000Y-18200000D01*
X17600000Y-19800000D02*
X17600000Y-18200000D01*
X18400000Y-18200000D02*
X18400000Y-19800000D01*
X18400000Y-19800000D02*
X17600000Y-19800000D01*
%TO.C,J2*%
X34930000Y-34217500D02*
X35782500Y-33365000D01*
X34930000Y-39715000D02*
X34930000Y-34217500D01*
X35782500Y-33365000D02*
X38340000Y-33365000D01*
X38340000Y-33365000D02*
X38340000Y-39715000D01*
X38340000Y-39715000D02*
X34930000Y-39715000D01*
%TO.C,R2*%
X17587500Y-14700000D02*
X18412500Y-14700000D01*
X17587500Y-16300000D02*
X17587500Y-14700000D01*
X18412500Y-14700000D02*
X18412500Y-16300000D01*
X18412500Y-16300000D02*
X17587500Y-16300000D01*
%TO.C,C11*%
X19100000Y-11200000D02*
X19900000Y-11200000D01*
X19100000Y-12800000D02*
X19100000Y-11200000D01*
X19900000Y-11200000D02*
X19900000Y-12800000D01*
X19900000Y-12800000D02*
X19100000Y-12800000D01*
%TO.C,C13*%
X12200000Y-25100000D02*
X13800000Y-25100000D01*
X12200000Y-25900000D02*
X12200000Y-25100000D01*
X13800000Y-25100000D02*
X13800000Y-25900000D01*
X13800000Y-25900000D02*
X12200000Y-25900000D01*
%TO.C,R9*%
X28700000Y-26587500D02*
X30300000Y-26587500D01*
X28700000Y-27412500D02*
X28700000Y-26587500D01*
X30300000Y-26587500D02*
X30300000Y-27412500D01*
X30300000Y-27412500D02*
X28700000Y-27412500D01*
%TO.C,C12*%
X32100000Y-11200000D02*
X32900000Y-11200000D01*
X32100000Y-12800000D02*
X32100000Y-11200000D01*
X32900000Y-11200000D02*
X32900000Y-12800000D01*
X32900000Y-12800000D02*
X32100000Y-12800000D01*
%TO.C,J3*%
X54730000Y-33365000D02*
X55365000Y-32730000D01*
X54730000Y-42890000D02*
X54730000Y-33365000D01*
X55365000Y-32730000D02*
X57270000Y-32730000D01*
X57270000Y-32730000D02*
X57270000Y-42890000D01*
X57270000Y-42890000D02*
X54730000Y-42890000D01*
%TO.C,C14*%
X32200000Y-25100000D02*
X33800000Y-25100000D01*
X32200000Y-25900000D02*
X32200000Y-25100000D01*
X33800000Y-25100000D02*
X33800000Y-25900000D01*
X33800000Y-25900000D02*
X32200000Y-25900000D01*
%TO.C,R4*%
X17587500Y-21700000D02*
X18412500Y-21700000D01*
X17587500Y-23300000D02*
X17587500Y-21700000D01*
X18412500Y-21700000D02*
X18412500Y-23300000D01*
X18412500Y-23300000D02*
X17587500Y-23300000D01*
%TO.C,D2*%
X47200000Y-1400000D02*
X47200000Y-1900000D01*
X47200000Y-1900000D02*
X48800000Y-1900000D01*
X47500000Y-1100000D02*
X47200000Y-1400000D01*
X48800000Y-1100000D02*
X47500000Y-1100000D01*
X48800000Y-1900000D02*
X48800000Y-1100000D01*
%TO.C,C4*%
X35200000Y-31100000D02*
X36800000Y-31100000D01*
X35200000Y-31900000D02*
X35200000Y-31100000D01*
X36800000Y-31100000D02*
X36800000Y-31900000D01*
X36800000Y-31900000D02*
X35200000Y-31900000D01*
%TO.C,R1*%
X28700000Y-10587500D02*
X30300000Y-10587500D01*
X28700000Y-11412500D02*
X28700000Y-10587500D01*
X30300000Y-10587500D02*
X30300000Y-11412500D01*
X30300000Y-11412500D02*
X28700000Y-11412500D01*
%TO.C,C5*%
X8100000Y-32200000D02*
X8900000Y-32200000D01*
X8100000Y-33800000D02*
X8100000Y-32200000D01*
X8900000Y-32200000D02*
X8900000Y-33800000D01*
X8900000Y-33800000D02*
X8100000Y-33800000D01*
%TO.C,C8*%
X33600000Y-18200000D02*
X34400000Y-18200000D01*
X33600000Y-19800000D02*
X33600000Y-18200000D01*
X34400000Y-18200000D02*
X34400000Y-19800000D01*
X34400000Y-19800000D02*
X33600000Y-19800000D01*
%TO.C,R5*%
X50700000Y-1087500D02*
X52300000Y-1087500D01*
X50700000Y-1912500D02*
X50700000Y-1087500D01*
X52300000Y-1087500D02*
X52300000Y-1912500D01*
X52300000Y-1912500D02*
X50700000Y-1912500D01*
%TO.C,SW1*%
X8900000Y-900000D02*
X15100000Y-900000D01*
X8900000Y-7100000D02*
X8900000Y-900000D01*
X15100000Y-900000D02*
X15100000Y-7100000D01*
X15100000Y-7100000D02*
X8900000Y-7100000D01*
X13450000Y-4000000D02*
G75*
G02*
X10550000Y-4000000I-1450000J0D01*
G01*
X10550000Y-4000000D02*
G75*
G02*
X13450000Y-4000000I1450000J0D01*
G01*
%TO.C,C6*%
X25200000Y-10600000D02*
X26800000Y-10600000D01*
X25200000Y-11400000D02*
X25200000Y-10600000D01*
X26800000Y-10600000D02*
X26800000Y-11400000D01*
X26800000Y-11400000D02*
X25200000Y-11400000D01*
%TO.C,R8*%
X17200000Y-29587500D02*
X18800000Y-29587500D01*
X17200000Y-30412500D02*
X17200000Y-29587500D01*
X18800000Y-29587500D02*
X18800000Y-30412500D01*
X18800000Y-30412500D02*
X17200000Y-30412500D01*
%TO.C,U2*%
X11200000Y-31950000D02*
X11600000Y-31550000D01*
X11200000Y-34450000D02*
X11200000Y-31950000D01*
X11600000Y-31550000D02*
X12800000Y-31550000D01*
X12800000Y-31550000D02*
X12800000Y-34450000D01*
X12800000Y-34450000D02*
X11200000Y-34450000D01*
%TO.C,J6*%
X3730000Y-17365000D02*
X4365000Y-16730000D01*
X3730000Y-24350000D02*
X3730000Y-17365000D01*
X4365000Y-16730000D02*
X6270000Y-16730000D01*
X6270000Y-16730000D02*
X6270000Y-24350000D01*
X6270000Y-24350000D02*
X3730000Y-24350000D01*
%TO.C,R7*%
X33587500Y-21700000D02*
X34412500Y-21700000D01*
X33587500Y-23300000D02*
X33587500Y-21700000D01*
X34412500Y-21700000D02*
X34412500Y-23300000D01*
X34412500Y-23300000D02*
X33587500Y-23300000D01*
%TO.C,J1*%
X3730000Y-27365000D02*
X4365000Y-26730000D01*
X3730000Y-31810000D02*
X3730000Y-27365000D01*
X4365000Y-26730000D02*
X6270000Y-26730000D01*
X6270000Y-26730000D02*
X6270000Y-31810000D01*
X6270000Y-31810000D02*
X3730000Y-31810000D01*
%TO.C,C9*%
X25200000Y-26600000D02*
X26800000Y-26600000D01*
X25200000Y-27400000D02*
X25200000Y-26600000D01*
X26800000Y-26600000D02*
X26800000Y-27400000D01*
X26800000Y-27400000D02*
X25200000Y-27400000D01*
%TO.C,J5*%
X3730000Y-7865000D02*
X4365000Y-7230000D01*
X3730000Y-14850000D02*
X3730000Y-7865000D01*
X4365000Y-7230000D02*
X6270000Y-7230000D01*
X6270000Y-7230000D02*
X6270000Y-14850000D01*
X6270000Y-14850000D02*
X3730000Y-14850000D01*
%TO.C,R3*%
X33587500Y-14700000D02*
X34412500Y-14700000D01*
X33587500Y-16300000D02*
X33587500Y-14700000D01*
X34412500Y-14700000D02*
X34412500Y-16300000D01*
X34412500Y-16300000D02*
X33587500Y-16300000D01*
%TO.C,D1*%
X43700000Y-1400000D02*
X43700000Y-1900000D01*
X43700000Y-1900000D02*
X45300000Y-1900000D01*
X44000000Y-1100000D02*
X43700000Y-1400000D01*
X45300000Y-1100000D02*
X44000000Y-1100000D01*
X45300000Y-1900000D02*
X45300000Y-1100000D01*
%TO.C,U1*%
X21000000Y-15000000D02*
X22000000Y-14000000D01*
X21000000Y-24000000D02*
X21000000Y-15000000D01*
X22000000Y-14000000D02*
X31000000Y-14000000D01*
X31000000Y-14000000D02*
X31000000Y-24000000D01*
X31000000Y-24000000D02*
X21000000Y-24000000D01*
%TD*%
M02*
