M48
; DRILL file {KiCad 9.0.2+dfsg-1} date 2026-09-07T16:07:51+0000
; FORMAT={-:-/ absolute / metric / decimal}
; #@! TF.CreationDate,2026-09-07T16:07:51+00:00
; #@! TF.GenerationSoftware,Kicad,Pcbnew,9.0.2+dfsg-1
; #@! TF.FileFunction,Plated,1,2,PTH
FMAT,2
METRIC
; #@! TA.AperFunction,Plated,PTH,ViaDrill
T1C0.300
; #@! TA.AperFunction,Plated,PTH,ComponentDrill
T2C0.650
; #@! TA.AperFunction,Plated,PTH,ComponentDrill
T3C1.000
%
G90
G05
T1
X8.0Y-13.58
X10.862Y-33.0
X12.775Y-30.0
X12.775Y-36.0
X14.475Y-27.25
X15.9Y-6.0
X16.675Y-28.25
X17.0Y-21.0
X17.6Y-6.0
X18.0Y-18.225
X18.707Y-15.618
X19.0Y-21.0
X19.0Y-23.325
X19.286Y-26.561
X19.825Y-29.5
X20.0Y-23.58
X20.909Y-12.98
X22.25Y-23.175
X22.325Y-17.75
X22.325Y-18.75
X22.75Y-27.675
X23.225Y-32.75
X23.25Y-14.875
X23.575Y-29.0
X23.98Y-22.55
X23.982Y-11.707
X24.032Y-26.293
X24.25Y-16.25
X24.25Y-32.58
X24.75Y-23.125
X25.461Y-3.061
X25.752Y-11.977
X26.5Y-8.75
X27.425Y-9.0
X27.75Y-23.175
X28.125Y-11.0
X29.212Y-29.479
X30.175Y-9.0
X31.325Y-27.0
X31.793Y-13.482
X32.0Y-9.0
X32.136Y-11.589
X32.225Y-24.5
X33.64Y-15.784
X33.775Y-27.0
X34.0Y-17.425
X34.175Y-10.0
X34.707Y-24.032
X34.925Y-13.75
X35.175Y-20.25
X36.775Y-31.5
X37.561Y-1.439
X39.425Y-33.75
X39.793Y-3.207
X42.212Y-1.5
X45.837Y-1.5
X48.08Y-2.207
X50.25Y-34.33
X52.325Y-0.95
X53.375Y-1.5
X54.764Y-2.561
X62.75Y-20.58
T2
X36.0Y-34.0
X36.0Y-35.27
X36.0Y-36.54
X36.0Y-37.81
X36.0Y-39.08
X37.27Y-34.0
X37.27Y-35.27
X37.27Y-36.54
X37.27Y-37.81
X37.27Y-39.08
T3
X5.0Y-8.5
X5.0Y-11.04
X5.0Y-13.58
X5.0Y-18.0
X5.0Y-20.54
X5.0Y-23.08
X5.0Y-28.0
X5.0Y-30.54
X56.0Y-34.0
X56.0Y-36.54
X56.0Y-39.08
X56.0Y-41.62
X64.0Y-12.0
X64.0Y-14.54
X64.0Y-17.08
X64.0Y-19.62
M30
